<svg width="16" height="16" viewBox="0 0 16 16" fill="none" xmlns="http://www.w3.org/2000/svg">
<path d="M2.87997 5.75994C4.47054 5.75994 5.75994 4.47054 5.75994 2.87997C5.75994 1.28941 4.47054 0 2.87997 0C1.28941 0 0 1.28941 0 2.87997C0 4.47054 1.28941 5.75994 2.87997 5.75994Z" fill="#2F415E"/>
<path d="M11.9999 15.9996H0V7.11972C0.879992 6.87972 1.75998 6.71973 2.71997 6.71973C7.83992 6.71973 11.9999 10.8797 11.9999 15.9996Z" fill="#2F415E"/>
<path d="M12.0801 16.0001C14.2451 16.0001 16.0001 14.2451 16.0001 12.0801C16.0001 9.91518 14.2451 8.16016 12.0801 8.16016C9.91518 8.16016 8.16016 9.91518 8.16016 12.0801C8.16016 14.2451 9.91518 16.0001 12.0801 16.0001Z" fill="#AEBDD3"/>
<path d="M10.9597 13.5999L9.43975 11.7599C9.27975 11.5999 9.35975 11.3599 9.51975 11.1999C9.67975 11.0399 9.91975 11.1199 10.0797 11.2799L11.1197 12.5599L14.0797 10.6399C14.2397 10.4799 14.4797 10.5599 14.6397 10.7999C14.7197 10.9599 14.7197 11.1999 14.4797 11.3599L10.9597 13.5999Z" fill="#2F415E"/>
</svg>
