<svg width="13" height="13" viewBox="0 0 13 13" fill="none" xmlns="http://www.w3.org/2000/svg">
<path d="M5.13477 5.98018V13.0002H12.9998V3.05518H8.05977L5.13477 5.98018Z" fill="white"/>
<path d="M0 3.12V10.66H7.865V0H2.925L0 3.12Z" fill="white"/>
<path d="M2.14461 4.74497H1.42961C1.16961 4.74497 0.974609 4.54997 0.974609 4.22497V3.57497C0.974609 3.31497 1.16961 3.11997 1.42961 3.11997H2.14461C2.40461 3.05497 2.59961 3.31497 2.59961 3.57497V4.28997C2.59961 4.54997 2.40461 4.74497 2.14461 4.74497Z" fill="#EA4335"/>
<path d="M6.69531 3.5752H3.44531V4.2252H6.69531V3.5752Z" fill="#EA4335"/>
<path d="M6.69531 6.10986H3.44531V6.75986H6.69531V6.10986Z" fill="#EA4335"/>
<path d="M6.69531 8.58008H3.44531V9.23008H6.69531V8.58008Z" fill="#EA4335"/>
<path d="M2.14461 7.21484H1.42961C1.16961 7.21484 0.974609 7.01984 0.974609 6.75984V6.04484C0.974609 5.78484 1.16961 5.58984 1.42961 5.58984H2.14461C2.40461 5.58984 2.59961 5.78484 2.59961 6.04484V6.75984C2.59961 7.01984 2.40461 7.21484 2.14461 7.21484Z" fill="#EA4335"/>
<path d="M2.14461 9.75H1.42961C1.16961 9.75 0.974609 9.555 0.974609 9.295V8.58C0.974609 8.32 1.16961 8.125 1.42961 8.125H2.14461C2.40461 8.125 2.59961 8.32 2.59961 8.58V9.295C2.59961 9.555 2.40461 9.75 2.14461 9.75Z" fill="#EA4335"/>
</svg>
