<svg width="14" height="10" viewBox="0 0 14 10" fill="none" xmlns="http://www.w3.org/2000/svg">
<path d="M4.87064 4.41274C5.04715 4.85401 5.3119 5.20702 5.48841 5.56004C5.48841 5.56004 5.48841 5.56004 5.40016 5.56004C4.25287 6.26606 3.72335 7.14859 3.72335 8.47239C3.72335 8.91366 3.72335 8.91366 3.28208 8.91366C2.3113 8.91366 1.34051 8.91366 0.369724 8.91366C0.28147 8.91366 0.104964 8.91366 0.0167107 8.91366C0.0167107 7.67811 -0.159796 6.44257 0.634483 5.38353C0.987496 4.94226 1.42876 4.6775 1.78178 4.32449C1.95828 4.23624 2.04654 4.23624 2.22304 4.32449C2.57605 4.501 2.92907 4.6775 3.28208 4.6775C3.98811 4.85401 4.16461 4.76576 4.87064 4.41274Z" fill="#2F415E"/>
<path d="M13.9606 8.91353C13.6958 8.91353 13.5193 8.91353 13.2546 8.91353C12.372 8.91353 11.4895 8.91353 10.607 8.91353C10.3422 8.91353 10.254 8.82528 10.254 8.56052C10.3422 7.67799 9.9892 6.79546 9.37143 6.17768C9.10667 5.91292 8.84191 5.73642 8.57715 5.55991C8.75365 5.2069 9.01841 4.76563 9.19492 4.32436C9.72444 4.76563 10.3422 4.76563 11.0482 4.58912C11.313 4.50087 11.5778 4.41262 11.7543 4.23611C11.9308 4.14786 12.1073 4.14786 12.1955 4.23611C13.2546 4.85388 13.8723 5.73642 13.9606 6.88371C14.0488 7.67799 13.9606 8.29576 13.9606 8.91353Z" fill="#2F415E"/>
<path d="M9.45941 9.70777C7.7826 9.70777 6.19404 9.70777 4.60549 9.70777C4.60549 9.00175 4.42898 8.29572 4.69374 7.5897C4.9585 6.88367 5.48802 6.35415 6.19404 6.2659C6.72356 6.17764 7.16483 6.17764 7.69435 6.2659C8.75339 6.4424 9.45941 7.23668 9.45941 8.29572C9.45941 8.73699 9.45941 9.26651 9.45941 9.70777Z" fill="#AEBDD3"/>
<path d="M5.75362 2.02982C5.75362 3.17712 4.87109 3.9714 3.7238 3.9714C2.57651 3.9714 1.78223 3.08886 1.78223 1.94157C1.78223 0.882532 2.66476 0 3.7238 0C4.87109 0 5.75362 0.882532 5.75362 2.02982Z" fill="#2F415E"/>
<path d="M10.2541 0C11.3131 0 12.1956 0.882532 12.2839 1.94157C12.2839 3.00061 11.4014 3.88314 10.3423 3.9714C9.19503 3.9714 8.40075 3.08886 8.3125 2.02982C8.3125 0.882532 9.19503 0 10.2541 0Z" fill="#2F415E"/>
<path d="M8.31264 4.05964C8.31264 4.76566 7.69486 5.38344 6.98884 5.38344C6.28281 5.38344 5.66504 4.76566 5.66504 4.05964C5.66504 3.35361 6.28281 2.73584 6.98884 2.73584C7.78312 2.73584 8.31264 3.35361 8.31264 4.05964Z" fill="#AEBDD3"/>
</svg>
