<svg width="13" height="13" viewBox="0 0 13 13" fill="none" xmlns="http://www.w3.org/2000/svg">
<path d="M5.13477 5.98018V13.0002H12.9998V3.05518H8.05977L5.13477 5.98018Z" fill="#AEBDD3"/>
<path d="M0 3.12V10.66H7.865V0H2.925L0 3.12Z" fill="#2F415E"/>
<path d="M7.34535 2.9248H1.23535V3.5748H7.34535V2.9248Z" fill="#AEBDD3"/>
<path d="M7.3448 0.455078H2.9248V1.10508H7.3448V0.455078Z" fill="#AEBDD3"/>
<path d="M7.34539 5.45996H0.650391V6.10996H7.34539V5.45996Z" fill="#AEBDD3"/>
<path d="M7.34539 7.99512H0.650391V8.64512H7.34539V7.99512Z" fill="#AEBDD3"/>
<path d="M7.34539 4.2251H0.650391V4.8751H7.34539V4.2251Z" fill="#AEBDD3"/>
<path d="M7.34453 1.68994H2.14453V2.33994H7.34453V1.68994Z" fill="#AEBDD3"/>
<path d="M7.34539 6.69482H0.650391V7.34482H7.34539V6.69482Z" fill="#AEBDD3"/>
<path d="M7.34539 9.22998H0.650391V9.87998H7.34539V9.22998Z" fill="#AEBDD3"/>
</svg>
