<svg width="768" height="768" viewBox="0 0 768 768" fill="none" xmlns="http://www.w3.org/2000/svg">
<path d="M768 0H0V768H768V0Z" fill="url(#paint0_linear)"/>
<g opacity="0.42" filter="url(#filter0_f)">
<path d="M685.9 99.5001C685.9 269.9 547.7 408.1 377.3 408.1C323.8 408.1 273.5 394.5 229.7 370.6C133.8 318.3 68.7 216.5 68.7 99.6001C68.7 64.8001 74.5 31.3001 85.1 0.100098H669.4C680.1 31.2001 685.9 64.7001 685.9 99.5001Z" fill="url(#paint1_linear)"/>
</g>
<g opacity="0.42" filter="url(#filter1_b)">
<path d="M333.4 178.5C333.4 258.8 292.2 329.5 229.7 370.5C193.6 394.2 150.3 408 103.9 408C66.5 408 31.2 399.1 0 383.2V0H248.1C300.1 42.1 333.4 106.4 333.4 178.5Z" fill="url(#paint2_linear)"/>
</g>
<g opacity="0.42" filter="url(#filter2_f)">
<path d="M643.1 713.8C682.146 713.8 713.8 682.146 713.8 643.1C713.8 604.053 682.146 572.4 643.1 572.4C604.053 572.4 572.4 604.053 572.4 643.1C572.4 682.146 604.053 713.8 643.1 713.8Z" fill="url(#paint3_linear)"/>
</g>
<path opacity="0.04" d="M39.4375 630.875C41.8882 630.875 43.8749 628.888 43.8749 626.437C43.8749 623.987 41.8882 622 39.4375 622C36.9867 622 35 623.987 35 626.437C35 628.888 36.9867 630.875 39.4375 630.875Z" fill="white"/>
<path opacity="0.04" d="M53.7988 630.875C56.2495 630.875 58.2363 628.888 58.2363 626.437C58.2363 623.987 56.2495 622 53.7988 622C51.348 622 49.3613 623.987 49.3613 626.437C49.3613 628.888 51.348 630.875 53.7988 630.875Z" fill="white"/>
<path opacity="0.04" d="M68.2407 630.875C70.6914 630.875 72.6782 628.888 72.6782 626.437C72.6782 623.987 70.6914 622 68.2407 622C65.7899 622 63.8032 623.987 63.8032 626.437C63.8032 628.888 65.7899 630.875 68.2407 630.875Z" fill="white"/>
<path opacity="0.04" d="M82.6018 630.875C85.0525 630.875 87.0392 628.888 87.0392 626.437C87.0392 623.987 85.0525 622 82.6018 622C80.151 622 78.1643 623.987 78.1643 626.437C78.1643 628.888 80.151 630.875 82.6018 630.875Z" fill="white"/>
<path opacity="0.04" d="M96.9631 630.875C99.4138 630.875 101.401 628.888 101.401 626.437C101.401 623.987 99.4138 622 96.9631 622C94.5124 622 92.5256 623.987 92.5256 626.437C92.5256 628.888 94.5124 630.875 96.9631 630.875Z" fill="white"/>
<path opacity="0.04" d="M111.405 630.875C113.856 630.875 115.842 628.888 115.842 626.437C115.842 623.987 113.856 622 111.405 622C108.954 622 106.968 623.987 106.968 626.437C106.968 628.888 108.954 630.875 111.405 630.875Z" fill="white"/>
<path opacity="0.04" d="M125.766 630.875C128.217 630.875 130.204 628.888 130.204 626.437C130.204 623.987 128.217 622 125.766 622C123.316 622 121.329 623.987 121.329 626.437C121.329 628.888 123.316 630.875 125.766 630.875Z" fill="white"/>
<path opacity="0.04" d="M140.128 630.875C142.578 630.875 144.565 628.888 144.565 626.437C144.565 623.987 142.578 622 140.128 622C137.677 622 135.69 623.987 135.69 626.437C135.69 628.888 137.677 630.875 140.128 630.875Z" fill="white"/>
<path opacity="0.04" d="M39.4375 646.205C41.8882 646.205 43.8749 644.218 43.8749 641.767C43.8749 639.316 41.8882 637.33 39.4375 637.33C36.9867 637.33 35 639.316 35 641.767C35 644.218 36.9867 646.205 39.4375 646.205Z" fill="white"/>
<path opacity="0.04" d="M53.7988 646.205C56.2495 646.205 58.2363 644.218 58.2363 641.767C58.2363 639.316 56.2495 637.33 53.7988 637.33C51.348 637.33 49.3613 639.316 49.3613 641.767C49.3613 644.218 51.348 646.205 53.7988 646.205Z" fill="white"/>
<path opacity="0.04" d="M68.2407 646.205C70.6914 646.205 72.6782 644.218 72.6782 641.767C72.6782 639.316 70.6914 637.33 68.2407 637.33C65.7899 637.33 63.8032 639.316 63.8032 641.767C63.8032 644.218 65.7899 646.205 68.2407 646.205Z" fill="white"/>
<path opacity="0.04" d="M82.6018 646.205C85.0525 646.205 87.0392 644.218 87.0392 641.767C87.0392 639.316 85.0525 637.33 82.6018 637.33C80.151 637.33 78.1643 639.316 78.1643 641.767C78.1643 644.218 80.151 646.205 82.6018 646.205Z" fill="white"/>
<path opacity="0.04" d="M96.9631 646.205C99.4138 646.205 101.401 644.218 101.401 641.767C101.401 639.316 99.4138 637.33 96.9631 637.33C94.5124 637.33 92.5256 639.316 92.5256 641.767C92.5256 644.218 94.5124 646.205 96.9631 646.205Z" fill="white"/>
<path opacity="0.04" d="M111.405 646.205C113.856 646.205 115.842 644.218 115.842 641.767C115.842 639.316 113.856 637.33 111.405 637.33C108.954 637.33 106.968 639.316 106.968 641.767C106.968 644.218 108.954 646.205 111.405 646.205Z" fill="white"/>
<path opacity="0.04" d="M125.766 646.205C128.217 646.205 130.204 644.218 130.204 641.767C130.204 639.316 128.217 637.33 125.766 637.33C123.316 637.33 121.329 639.316 121.329 641.767C121.329 644.218 123.316 646.205 125.766 646.205Z" fill="white"/>
<path opacity="0.04" d="M140.128 646.205C142.578 646.205 144.565 644.218 144.565 641.767C144.565 639.316 142.578 637.33 140.128 637.33C137.677 637.33 135.69 639.316 135.69 641.767C135.69 644.218 137.677 646.205 140.128 646.205Z" fill="white"/>
<path opacity="0.04" d="M39.4375 661.534C41.8882 661.534 43.8749 659.547 43.8749 657.096C43.8749 654.645 41.8882 652.659 39.4375 652.659C36.9867 652.659 35 654.645 35 657.096C35 659.547 36.9867 661.534 39.4375 661.534Z" fill="white"/>
<path opacity="0.04" d="M53.7988 661.534C56.2495 661.534 58.2363 659.547 58.2363 657.096C58.2363 654.645 56.2495 652.659 53.7988 652.659C51.348 652.659 49.3613 654.645 49.3613 657.096C49.3613 659.547 51.348 661.534 53.7988 661.534Z" fill="white"/>
<path opacity="0.04" d="M68.2407 661.534C70.6914 661.534 72.6782 659.547 72.6782 657.096C72.6782 654.645 70.6914 652.659 68.2407 652.659C65.7899 652.659 63.8032 654.645 63.8032 657.096C63.8032 659.547 65.7899 661.534 68.2407 661.534Z" fill="white"/>
<path opacity="0.04" d="M82.6018 661.534C85.0525 661.534 87.0392 659.547 87.0392 657.096C87.0392 654.645 85.0525 652.659 82.6018 652.659C80.151 652.659 78.1643 654.645 78.1643 657.096C78.1643 659.547 80.151 661.534 82.6018 661.534Z" fill="white"/>
<path opacity="0.04" d="M96.9631 661.534C99.4138 661.534 101.401 659.547 101.401 657.096C101.401 654.645 99.4138 652.659 96.9631 652.659C94.5124 652.659 92.5256 654.645 92.5256 657.096C92.5256 659.547 94.5124 661.534 96.9631 661.534Z" fill="white"/>
<path opacity="0.04" d="M111.405 661.534C113.856 661.534 115.842 659.547 115.842 657.096C115.842 654.645 113.856 652.659 111.405 652.659C108.954 652.659 106.968 654.645 106.968 657.096C106.968 659.547 108.954 661.534 111.405 661.534Z" fill="white"/>
<path opacity="0.04" d="M125.766 661.534C128.217 661.534 130.204 659.547 130.204 657.096C130.204 654.645 128.217 652.659 125.766 652.659C123.316 652.659 121.329 654.645 121.329 657.096C121.329 659.547 123.316 661.534 125.766 661.534Z" fill="white"/>
<path opacity="0.04" d="M140.128 661.534C142.578 661.534 144.565 659.547 144.565 657.096C144.565 654.645 142.578 652.659 140.128 652.659C137.677 652.659 135.69 654.645 135.69 657.096C135.69 659.547 137.677 661.534 140.128 661.534Z" fill="white"/>
<path opacity="0.04" d="M39.4375 676.863C41.8882 676.863 43.8749 674.876 43.8749 672.426C43.8749 669.975 41.8882 667.988 39.4375 667.988C36.9867 667.988 35 669.975 35 672.426C35 674.876 36.9867 676.863 39.4375 676.863Z" fill="white"/>
<path opacity="0.04" d="M53.7988 676.863C56.2495 676.863 58.2363 674.876 58.2363 672.426C58.2363 669.975 56.2495 667.988 53.7988 667.988C51.348 667.988 49.3613 669.975 49.3613 672.426C49.3613 674.876 51.348 676.863 53.7988 676.863Z" fill="white"/>
<path opacity="0.04" d="M68.2407 676.863C70.6914 676.863 72.6782 674.876 72.6782 672.426C72.6782 669.975 70.6914 667.988 68.2407 667.988C65.7899 667.988 63.8032 669.975 63.8032 672.426C63.8032 674.876 65.7899 676.863 68.2407 676.863Z" fill="white"/>
<path opacity="0.04" d="M82.6018 676.863C85.0525 676.863 87.0392 674.876 87.0392 672.426C87.0392 669.975 85.0525 667.988 82.6018 667.988C80.151 667.988 78.1643 669.975 78.1643 672.426C78.1643 674.876 80.151 676.863 82.6018 676.863Z" fill="white"/>
<path opacity="0.04" d="M96.9631 676.863C99.4138 676.863 101.401 674.876 101.401 672.426C101.401 669.975 99.4138 667.988 96.9631 667.988C94.5124 667.988 92.5256 669.975 92.5256 672.426C92.5256 674.876 94.5124 676.863 96.9631 676.863Z" fill="white"/>
<path opacity="0.04" d="M111.405 676.863C113.856 676.863 115.842 674.876 115.842 672.426C115.842 669.975 113.856 667.988 111.405 667.988C108.954 667.988 106.968 669.975 106.968 672.426C106.968 674.876 108.954 676.863 111.405 676.863Z" fill="white"/>
<path opacity="0.04" d="M125.766 676.863C128.217 676.863 130.204 674.876 130.204 672.426C130.204 669.975 128.217 667.988 125.766 667.988C123.316 667.988 121.329 669.975 121.329 672.426C121.329 674.876 123.316 676.863 125.766 676.863Z" fill="white"/>
<path opacity="0.04" d="M140.128 676.863C142.578 676.863 144.565 674.876 144.565 672.426C144.565 669.975 142.578 667.988 140.128 667.988C137.677 667.988 135.69 669.975 135.69 672.426C135.69 674.876 137.677 676.863 140.128 676.863Z" fill="white"/>
<path opacity="0.04" d="M39.4375 692.112C41.8882 692.112 43.8749 690.125 43.8749 687.674C43.8749 685.224 41.8882 683.237 39.4375 683.237C36.9867 683.237 35 685.224 35 687.674C35 690.125 36.9867 692.112 39.4375 692.112Z" fill="white"/>
<path opacity="0.04" d="M53.7988 692.112C56.2495 692.112 58.2363 690.125 58.2363 687.674C58.2363 685.224 56.2495 683.237 53.7988 683.237C51.348 683.237 49.3613 685.224 49.3613 687.674C49.3613 690.125 51.348 692.112 53.7988 692.112Z" fill="white"/>
<path opacity="0.04" d="M68.2407 692.112C70.6914 692.112 72.6782 690.125 72.6782 687.674C72.6782 685.224 70.6914 683.237 68.2407 683.237C65.7899 683.237 63.8032 685.224 63.8032 687.674C63.8032 690.125 65.7899 692.112 68.2407 692.112Z" fill="white"/>
<path opacity="0.04" d="M82.6018 692.112C85.0525 692.112 87.0392 690.125 87.0392 687.674C87.0392 685.224 85.0525 683.237 82.6018 683.237C80.151 683.237 78.1643 685.224 78.1643 687.674C78.1643 690.125 80.151 692.112 82.6018 692.112Z" fill="white"/>
<path opacity="0.04" d="M96.9631 692.112C99.4138 692.112 101.401 690.125 101.401 687.674C101.401 685.224 99.4138 683.237 96.9631 683.237C94.5124 683.237 92.5256 685.224 92.5256 687.674C92.5256 690.125 94.5124 692.112 96.9631 692.112Z" fill="white"/>
<path opacity="0.04" d="M111.405 692.112C113.856 692.112 115.842 690.125 115.842 687.674C115.842 685.224 113.856 683.237 111.405 683.237C108.954 683.237 106.968 685.224 106.968 687.674C106.968 690.125 108.954 692.112 111.405 692.112Z" fill="white"/>
<path opacity="0.04" d="M125.766 692.112C128.217 692.112 130.204 690.125 130.204 687.674C130.204 685.224 128.217 683.237 125.766 683.237C123.316 683.237 121.329 685.224 121.329 687.674C121.329 690.125 123.316 692.112 125.766 692.112Z" fill="white"/>
<path opacity="0.04" d="M140.128 692.112C142.578 692.112 144.565 690.125 144.565 687.674C144.565 685.224 142.578 683.237 140.128 683.237C137.677 683.237 135.69 685.224 135.69 687.674C135.69 690.125 137.677 692.112 140.128 692.112Z" fill="white"/>
<path opacity="0.04" d="M39.4375 707.441C41.8882 707.441 43.8749 705.455 43.8749 703.004C43.8749 700.553 41.8882 698.566 39.4375 698.566C36.9867 698.566 35 700.553 35 703.004C35 705.455 36.9867 707.441 39.4375 707.441Z" fill="white"/>
<path opacity="0.04" d="M53.7988 707.441C56.2495 707.441 58.2363 705.455 58.2363 703.004C58.2363 700.553 56.2495 698.566 53.7988 698.566C51.348 698.566 49.3613 700.553 49.3613 703.004C49.3613 705.455 51.348 707.441 53.7988 707.441Z" fill="white"/>
<path opacity="0.04" d="M68.2407 707.441C70.6914 707.441 72.6782 705.455 72.6782 703.004C72.6782 700.553 70.6914 698.566 68.2407 698.566C65.7899 698.566 63.8032 700.553 63.8032 703.004C63.8032 705.455 65.7899 707.441 68.2407 707.441Z" fill="white"/>
<path opacity="0.04" d="M82.6018 707.441C85.0525 707.441 87.0392 705.455 87.0392 703.004C87.0392 700.553 85.0525 698.566 82.6018 698.566C80.151 698.566 78.1643 700.553 78.1643 703.004C78.1643 705.455 80.151 707.441 82.6018 707.441Z" fill="white"/>
<path opacity="0.04" d="M96.9631 707.441C99.4138 707.441 101.401 705.455 101.401 703.004C101.401 700.553 99.4138 698.566 96.9631 698.566C94.5124 698.566 92.5256 700.553 92.5256 703.004C92.5256 705.455 94.5124 707.441 96.9631 707.441Z" fill="white"/>
<path opacity="0.04" d="M111.405 707.441C113.856 707.441 115.842 705.455 115.842 703.004C115.842 700.553 113.856 698.566 111.405 698.566C108.954 698.566 106.968 700.553 106.968 703.004C106.968 705.455 108.954 707.441 111.405 707.441Z" fill="white"/>
<path opacity="0.04" d="M125.766 707.441C128.217 707.441 130.204 705.455 130.204 703.004C130.204 700.553 128.217 698.566 125.766 698.566C123.316 698.566 121.329 700.553 121.329 703.004C121.329 705.455 123.316 707.441 125.766 707.441Z" fill="white"/>
<path opacity="0.04" d="M140.128 707.441C142.578 707.441 144.565 705.455 144.565 703.004C144.565 700.553 142.578 698.566 140.128 698.566C137.677 698.566 135.69 700.553 135.69 703.004C135.69 705.455 137.677 707.441 140.128 707.441Z" fill="white"/>
<path opacity="0.04" d="M39.4375 722.771C41.8882 722.771 43.8749 720.784 43.8749 718.333C43.8749 715.883 41.8882 713.896 39.4375 713.896C36.9867 713.896 35 715.883 35 718.333C35 720.784 36.9867 722.771 39.4375 722.771Z" fill="white"/>
<path opacity="0.04" d="M53.7988 722.771C56.2495 722.771 58.2363 720.784 58.2363 718.333C58.2363 715.883 56.2495 713.896 53.7988 713.896C51.348 713.896 49.3613 715.883 49.3613 718.333C49.3613 720.784 51.348 722.771 53.7988 722.771Z" fill="white"/>
<path opacity="0.04" d="M68.2407 722.771C70.6914 722.771 72.6782 720.784 72.6782 718.333C72.6782 715.883 70.6914 713.896 68.2407 713.896C65.7899 713.896 63.8032 715.883 63.8032 718.333C63.8032 720.784 65.7899 722.771 68.2407 722.771Z" fill="white"/>
<path opacity="0.04" d="M82.6018 722.771C85.0525 722.771 87.0392 720.784 87.0392 718.333C87.0392 715.883 85.0525 713.896 82.6018 713.896C80.151 713.896 78.1643 715.883 78.1643 718.333C78.1643 720.784 80.151 722.771 82.6018 722.771Z" fill="white"/>
<path opacity="0.04" d="M96.9631 722.771C99.4138 722.771 101.401 720.784 101.401 718.333C101.401 715.883 99.4138 713.896 96.9631 713.896C94.5124 713.896 92.5256 715.883 92.5256 718.333C92.5256 720.784 94.5124 722.771 96.9631 722.771Z" fill="white"/>
<path opacity="0.04" d="M111.405 722.771C113.856 722.771 115.842 720.784 115.842 718.333C115.842 715.883 113.856 713.896 111.405 713.896C108.954 713.896 106.968 715.883 106.968 718.333C106.968 720.784 108.954 722.771 111.405 722.771Z" fill="white"/>
<path opacity="0.04" d="M125.766 722.771C128.217 722.771 130.204 720.784 130.204 718.333C130.204 715.883 128.217 713.896 125.766 713.896C123.316 713.896 121.329 715.883 121.329 718.333C121.329 720.784 123.316 722.771 125.766 722.771Z" fill="white"/>
<path opacity="0.04" d="M140.128 722.771C142.578 722.771 144.565 720.784 144.565 718.333C144.565 715.883 142.578 713.896 140.128 713.896C137.677 713.896 135.69 715.883 135.69 718.333C135.69 720.784 137.677 722.771 140.128 722.771Z" fill="white"/>
<path opacity="0.04" d="M39.4375 738.1C41.8882 738.1 43.8749 736.113 43.8749 733.663C43.8749 731.212 41.8882 729.225 39.4375 729.225C36.9867 729.225 35 731.212 35 733.663C35 736.113 36.9867 738.1 39.4375 738.1Z" fill="white"/>
<path opacity="0.04" d="M53.7988 738.1C56.2495 738.1 58.2363 736.113 58.2363 733.663C58.2363 731.212 56.2495 729.225 53.7988 729.225C51.348 729.225 49.3613 731.212 49.3613 733.663C49.3613 736.113 51.348 738.1 53.7988 738.1Z" fill="white"/>
<path opacity="0.04" d="M68.2407 738.1C70.6914 738.1 72.6782 736.113 72.6782 733.663C72.6782 731.212 70.6914 729.225 68.2407 729.225C65.7899 729.225 63.8032 731.212 63.8032 733.663C63.8032 736.113 65.7899 738.1 68.2407 738.1Z" fill="white"/>
<path opacity="0.04" d="M82.6018 738.1C85.0525 738.1 87.0392 736.113 87.0392 733.663C87.0392 731.212 85.0525 729.225 82.6018 729.225C80.151 729.225 78.1643 731.212 78.1643 733.663C78.1643 736.113 80.151 738.1 82.6018 738.1Z" fill="white"/>
<path opacity="0.04" d="M96.9631 738.1C99.4138 738.1 101.401 736.113 101.401 733.663C101.401 731.212 99.4138 729.225 96.9631 729.225C94.5124 729.225 92.5256 731.212 92.5256 733.663C92.5256 736.113 94.5124 738.1 96.9631 738.1Z" fill="white"/>
<path opacity="0.04" d="M111.405 738.1C113.856 738.1 115.842 736.113 115.842 733.663C115.842 731.212 113.856 729.225 111.405 729.225C108.954 729.225 106.968 731.212 106.968 733.663C106.968 736.113 108.954 738.1 111.405 738.1Z" fill="white"/>
<path opacity="0.04" d="M125.766 738.1C128.217 738.1 130.204 736.113 130.204 733.663C130.204 731.212 128.217 729.225 125.766 729.225C123.316 729.225 121.329 731.212 121.329 733.663C121.329 736.113 123.316 738.1 125.766 738.1Z" fill="white"/>
<path opacity="0.04" d="M140.128 738.1C142.578 738.1 144.565 736.113 144.565 733.663C144.565 731.212 142.578 729.225 140.128 729.225C137.677 729.225 135.69 731.212 135.69 733.663C135.69 736.113 137.677 738.1 140.128 738.1Z" fill="white"/>
<path opacity="0.04" d="M667.5 27.7001C669.322 27.7001 670.8 26.2226 670.8 24.4001C670.8 22.5776 669.322 21.1001 667.5 21.1001C665.677 21.1001 664.2 22.5776 664.2 24.4001C664.2 26.2226 665.677 27.7001 667.5 27.7001Z" fill="white"/>
<path opacity="0.04" d="M678.2 27.7001C680.022 27.7001 681.5 26.2226 681.5 24.4001C681.5 22.5776 680.022 21.1001 678.2 21.1001C676.377 21.1001 674.9 22.5776 674.9 24.4001C674.9 26.2226 676.377 27.7001 678.2 27.7001Z" fill="white"/>
<path opacity="0.04" d="M689 27.7001C690.822 27.7001 692.3 26.2226 692.3 24.4001C692.3 22.5776 690.822 21.1001 689 21.1001C687.177 21.1001 685.7 22.5776 685.7 24.4001C685.7 26.2226 687.177 27.7001 689 27.7001Z" fill="white"/>
<path opacity="0.04" d="M699.8 27.7001C701.623 27.7001 703.1 26.2226 703.1 24.4001C703.1 22.5776 701.623 21.1001 699.8 21.1001C697.977 21.1001 696.5 22.5776 696.5 24.4001C696.5 26.2226 697.977 27.7001 699.8 27.7001Z" fill="white"/>
<path opacity="0.04" d="M710.6 27.7001C712.422 27.7001 713.9 26.2226 713.9 24.4001C713.9 22.5776 712.422 21.1001 710.6 21.1001C708.777 21.1001 707.3 22.5776 707.3 24.4001C707.3 26.2226 708.777 27.7001 710.6 27.7001Z" fill="white"/>
<path opacity="0.04" d="M721.3 27.7001C723.123 27.7001 724.6 26.2226 724.6 24.4001C724.6 22.5776 723.123 21.1001 721.3 21.1001C719.477 21.1001 718 22.5776 718 24.4001C718 26.2226 719.477 27.7001 721.3 27.7001Z" fill="white"/>
<path opacity="0.04" d="M732.1 27.7001C733.922 27.7001 735.4 26.2226 735.4 24.4001C735.4 22.5776 733.922 21.1001 732.1 21.1001C730.277 21.1001 728.8 22.5776 728.8 24.4001C728.8 26.2226 730.277 27.7001 732.1 27.7001Z" fill="white"/>
<path opacity="0.04" d="M742.9 27.7001C744.722 27.7001 746.2 26.2226 746.2 24.4001C746.2 22.5776 744.722 21.1001 742.9 21.1001C741.077 21.1001 739.6 22.5776 739.6 24.4001C739.6 26.2226 741.077 27.7001 742.9 27.7001Z" fill="white"/>
<path opacity="0.04" d="M667.5 39.1C669.322 39.1 670.8 37.6225 670.8 35.8C670.8 33.9775 669.322 32.5 667.5 32.5C665.677 32.5 664.2 33.9775 664.2 35.8C664.2 37.6225 665.677 39.1 667.5 39.1Z" fill="white"/>
<path opacity="0.04" d="M678.2 39.1C680.022 39.1 681.5 37.6225 681.5 35.8C681.5 33.9775 680.022 32.5 678.2 32.5C676.377 32.5 674.9 33.9775 674.9 35.8C674.9 37.6225 676.377 39.1 678.2 39.1Z" fill="white"/>
<path opacity="0.04" d="M689 39.1C690.822 39.1 692.3 37.6225 692.3 35.8C692.3 33.9775 690.822 32.5 689 32.5C687.177 32.5 685.7 33.9775 685.7 35.8C685.7 37.6225 687.177 39.1 689 39.1Z" fill="white"/>
<path opacity="0.04" d="M699.8 39.1C701.623 39.1 703.1 37.6225 703.1 35.8C703.1 33.9775 701.623 32.5 699.8 32.5C697.977 32.5 696.5 33.9775 696.5 35.8C696.5 37.6225 697.977 39.1 699.8 39.1Z" fill="white"/>
<path opacity="0.04" d="M710.6 39.1C712.422 39.1 713.9 37.6225 713.9 35.8C713.9 33.9775 712.422 32.5 710.6 32.5C708.777 32.5 707.3 33.9775 707.3 35.8C707.3 37.6225 708.777 39.1 710.6 39.1Z" fill="white"/>
<path opacity="0.04" d="M721.3 39.1C723.123 39.1 724.6 37.6225 724.6 35.8C724.6 33.9775 723.123 32.5 721.3 32.5C719.477 32.5 718 33.9775 718 35.8C718 37.6225 719.477 39.1 721.3 39.1Z" fill="white"/>
<path opacity="0.04" d="M732.1 39.1C733.922 39.1 735.4 37.6225 735.4 35.8C735.4 33.9775 733.922 32.5 732.1 32.5C730.277 32.5 728.8 33.9775 728.8 35.8C728.8 37.6225 730.277 39.1 732.1 39.1Z" fill="white"/>
<path opacity="0.04" d="M742.9 39.1C744.722 39.1 746.2 37.6225 746.2 35.8C746.2 33.9775 744.722 32.5 742.9 32.5C741.077 32.5 739.6 33.9775 739.6 35.8C739.6 37.6225 741.077 39.1 742.9 39.1Z" fill="white"/>
<path opacity="0.04" d="M667.5 50.6C669.322 50.6 670.8 49.1225 670.8 47.3C670.8 45.4775 669.322 44 667.5 44C665.677 44 664.2 45.4775 664.2 47.3C664.2 49.1225 665.677 50.6 667.5 50.6Z" fill="white"/>
<path opacity="0.04" d="M678.2 50.6C680.022 50.6 681.5 49.1225 681.5 47.3C681.5 45.4775 680.022 44 678.2 44C676.377 44 674.9 45.4775 674.9 47.3C674.9 49.1225 676.377 50.6 678.2 50.6Z" fill="white"/>
<path opacity="0.04" d="M689 50.6C690.822 50.6 692.3 49.1225 692.3 47.3C692.3 45.4775 690.822 44 689 44C687.177 44 685.7 45.4775 685.7 47.3C685.7 49.1225 687.177 50.6 689 50.6Z" fill="white"/>
<path opacity="0.04" d="M699.8 50.6C701.623 50.6 703.1 49.1225 703.1 47.3C703.1 45.4775 701.623 44 699.8 44C697.977 44 696.5 45.4775 696.5 47.3C696.5 49.1225 697.977 50.6 699.8 50.6Z" fill="white"/>
<path opacity="0.04" d="M710.6 50.6C712.422 50.6 713.9 49.1225 713.9 47.3C713.9 45.4775 712.422 44 710.6 44C708.777 44 707.3 45.4775 707.3 47.3C707.3 49.1225 708.777 50.6 710.6 50.6Z" fill="white"/>
<path opacity="0.04" d="M721.3 50.6C723.123 50.6 724.6 49.1225 724.6 47.3C724.6 45.4775 723.123 44 721.3 44C719.477 44 718 45.4775 718 47.3C718 49.1225 719.477 50.6 721.3 50.6Z" fill="white"/>
<path opacity="0.04" d="M732.1 50.6C733.922 50.6 735.4 49.1225 735.4 47.3C735.4 45.4775 733.922 44 732.1 44C730.277 44 728.8 45.4775 728.8 47.3C728.8 49.1225 730.277 50.6 732.1 50.6Z" fill="white"/>
<path opacity="0.04" d="M742.9 50.6C744.722 50.6 746.2 49.1225 746.2 47.3C746.2 45.4775 744.722 44 742.9 44C741.077 44 739.6 45.4775 739.6 47.3C739.6 49.1225 741.077 50.6 742.9 50.6Z" fill="white"/>
<path opacity="0.04" d="M667.5 61.9999C669.322 61.9999 670.8 60.5224 670.8 58.6999C670.8 56.8774 669.322 55.3999 667.5 55.3999C665.677 55.3999 664.2 56.8774 664.2 58.6999C664.2 60.5224 665.677 61.9999 667.5 61.9999Z" fill="white"/>
<path opacity="0.04" d="M678.2 61.9999C680.022 61.9999 681.5 60.5224 681.5 58.6999C681.5 56.8774 680.022 55.3999 678.2 55.3999C676.377 55.3999 674.9 56.8774 674.9 58.6999C674.9 60.5224 676.377 61.9999 678.2 61.9999Z" fill="white"/>
<path opacity="0.04" d="M689 61.9999C690.822 61.9999 692.3 60.5224 692.3 58.6999C692.3 56.8774 690.822 55.3999 689 55.3999C687.177 55.3999 685.7 56.8774 685.7 58.6999C685.7 60.5224 687.177 61.9999 689 61.9999Z" fill="white"/>
<path opacity="0.04" d="M699.8 61.9999C701.623 61.9999 703.1 60.5224 703.1 58.6999C703.1 56.8774 701.623 55.3999 699.8 55.3999C697.977 55.3999 696.5 56.8774 696.5 58.6999C696.5 60.5224 697.977 61.9999 699.8 61.9999Z" fill="white"/>
<path opacity="0.04" d="M710.6 61.9999C712.422 61.9999 713.9 60.5224 713.9 58.6999C713.9 56.8774 712.422 55.3999 710.6 55.3999C708.777 55.3999 707.3 56.8774 707.3 58.6999C707.3 60.5224 708.777 61.9999 710.6 61.9999Z" fill="white"/>
<path opacity="0.04" d="M721.3 61.9999C723.123 61.9999 724.6 60.5224 724.6 58.6999C724.6 56.8774 723.123 55.3999 721.3 55.3999C719.477 55.3999 718 56.8774 718 58.6999C718 60.5224 719.477 61.9999 721.3 61.9999Z" fill="white"/>
<path opacity="0.04" d="M732.1 61.9999C733.922 61.9999 735.4 60.5224 735.4 58.6999C735.4 56.8774 733.922 55.3999 732.1 55.3999C730.277 55.3999 728.8 56.8774 728.8 58.6999C728.8 60.5224 730.277 61.9999 732.1 61.9999Z" fill="white"/>
<path opacity="0.04" d="M742.9 61.9999C744.722 61.9999 746.2 60.5224 746.2 58.6999C746.2 56.8774 744.722 55.3999 742.9 55.3999C741.077 55.3999 739.6 56.8774 739.6 58.6999C739.6 60.5224 741.077 61.9999 742.9 61.9999Z" fill="white"/>
<path opacity="0.04" d="M667.5 73.4999C669.322 73.4999 670.8 72.0224 670.8 70.1999C670.8 68.3774 669.322 66.8999 667.5 66.8999C665.677 66.8999 664.2 68.3774 664.2 70.1999C664.2 72.0224 665.677 73.4999 667.5 73.4999Z" fill="white"/>
<path opacity="0.04" d="M678.2 73.4999C680.022 73.4999 681.5 72.0224 681.5 70.1999C681.5 68.3774 680.022 66.8999 678.2 66.8999C676.377 66.8999 674.9 68.3774 674.9 70.1999C674.9 72.0224 676.377 73.4999 678.2 73.4999Z" fill="white"/>
<path opacity="0.04" d="M689 73.4999C690.822 73.4999 692.3 72.0224 692.3 70.1999C692.3 68.3774 690.822 66.8999 689 66.8999C687.177 66.8999 685.7 68.3774 685.7 70.1999C685.7 72.0224 687.177 73.4999 689 73.4999Z" fill="white"/>
<path opacity="0.04" d="M699.8 73.4999C701.623 73.4999 703.1 72.0224 703.1 70.1999C703.1 68.3774 701.623 66.8999 699.8 66.8999C697.977 66.8999 696.5 68.3774 696.5 70.1999C696.5 72.0224 697.977 73.4999 699.8 73.4999Z" fill="white"/>
<path opacity="0.04" d="M710.6 73.4999C712.422 73.4999 713.9 72.0224 713.9 70.1999C713.9 68.3774 712.422 66.8999 710.6 66.8999C708.777 66.8999 707.3 68.3774 707.3 70.1999C707.3 72.0224 708.777 73.4999 710.6 73.4999Z" fill="white"/>
<path opacity="0.04" d="M721.3 73.4999C723.123 73.4999 724.6 72.0224 724.6 70.1999C724.6 68.3774 723.123 66.8999 721.3 66.8999C719.477 66.8999 718 68.3774 718 70.1999C718 72.0224 719.477 73.4999 721.3 73.4999Z" fill="white"/>
<path opacity="0.04" d="M732.1 73.4999C733.922 73.4999 735.4 72.0224 735.4 70.1999C735.4 68.3774 733.922 66.8999 732.1 66.8999C730.277 66.8999 728.8 68.3774 728.8 70.1999C728.8 72.0224 730.277 73.4999 732.1 73.4999Z" fill="white"/>
<path opacity="0.04" d="M742.9 73.4999C744.722 73.4999 746.2 72.0224 746.2 70.1999C746.2 68.3774 744.722 66.8999 742.9 66.8999C741.077 66.8999 739.6 68.3774 739.6 70.1999C739.6 72.0224 741.077 73.4999 742.9 73.4999Z" fill="white"/>
<path opacity="0.04" d="M667.5 84.9999C669.322 84.9999 670.8 83.5224 670.8 81.6999C670.8 79.8774 669.322 78.3999 667.5 78.3999C665.677 78.3999 664.2 79.8774 664.2 81.6999C664.2 83.5224 665.677 84.9999 667.5 84.9999Z" fill="white"/>
<path opacity="0.04" d="M678.2 84.9999C680.022 84.9999 681.5 83.5224 681.5 81.6999C681.5 79.8774 680.022 78.3999 678.2 78.3999C676.377 78.3999 674.9 79.8774 674.9 81.6999C674.9 83.5224 676.377 84.9999 678.2 84.9999Z" fill="white"/>
<path opacity="0.04" d="M689 84.9999C690.822 84.9999 692.3 83.5224 692.3 81.6999C692.3 79.8774 690.822 78.3999 689 78.3999C687.177 78.3999 685.7 79.8774 685.7 81.6999C685.7 83.5224 687.177 84.9999 689 84.9999Z" fill="white"/>
<path opacity="0.04" d="M699.8 84.9999C701.623 84.9999 703.1 83.5224 703.1 81.6999C703.1 79.8774 701.623 78.3999 699.8 78.3999C697.977 78.3999 696.5 79.8774 696.5 81.6999C696.5 83.5224 697.977 84.9999 699.8 84.9999Z" fill="white"/>
<path opacity="0.04" d="M710.6 84.9999C712.422 84.9999 713.9 83.5224 713.9 81.6999C713.9 79.8774 712.422 78.3999 710.6 78.3999C708.777 78.3999 707.3 79.8774 707.3 81.6999C707.3 83.5224 708.777 84.9999 710.6 84.9999Z" fill="white"/>
<path opacity="0.04" d="M721.3 84.9999C723.123 84.9999 724.6 83.5224 724.6 81.6999C724.6 79.8774 723.123 78.3999 721.3 78.3999C719.477 78.3999 718 79.8774 718 81.6999C718 83.5224 719.477 84.9999 721.3 84.9999Z" fill="white"/>
<path opacity="0.04" d="M732.1 84.9999C733.922 84.9999 735.4 83.5224 735.4 81.6999C735.4 79.8774 733.922 78.3999 732.1 78.3999C730.277 78.3999 728.8 79.8774 728.8 81.6999C728.8 83.5224 730.277 84.9999 732.1 84.9999Z" fill="white"/>
<path opacity="0.04" d="M742.9 84.9999C744.722 84.9999 746.2 83.5224 746.2 81.6999C746.2 79.8774 744.722 78.3999 742.9 78.3999C741.077 78.3999 739.6 79.8774 739.6 81.6999C739.6 83.5224 741.077 84.9999 742.9 84.9999Z" fill="white"/>
<path opacity="0.04" d="M667.5 96.4003C669.322 96.4003 670.8 94.9228 670.8 93.1003C670.8 91.2777 669.322 89.8003 667.5 89.8003C665.677 89.8003 664.2 91.2777 664.2 93.1003C664.2 94.9228 665.677 96.4003 667.5 96.4003Z" fill="white"/>
<path opacity="0.04" d="M678.2 96.4003C680.022 96.4003 681.5 94.9228 681.5 93.1003C681.5 91.2777 680.022 89.8003 678.2 89.8003C676.377 89.8003 674.9 91.2777 674.9 93.1003C674.9 94.9228 676.377 96.4003 678.2 96.4003Z" fill="white"/>
<path opacity="0.04" d="M689 96.4003C690.822 96.4003 692.3 94.9228 692.3 93.1003C692.3 91.2777 690.822 89.8003 689 89.8003C687.177 89.8003 685.7 91.2777 685.7 93.1003C685.7 94.9228 687.177 96.4003 689 96.4003Z" fill="white"/>
<path opacity="0.04" d="M699.8 96.4003C701.623 96.4003 703.1 94.9228 703.1 93.1003C703.1 91.2777 701.623 89.8003 699.8 89.8003C697.977 89.8003 696.5 91.2777 696.5 93.1003C696.5 94.9228 697.977 96.4003 699.8 96.4003Z" fill="white"/>
<path opacity="0.04" d="M710.6 96.4003C712.422 96.4003 713.9 94.9228 713.9 93.1003C713.9 91.2777 712.422 89.8003 710.6 89.8003C708.777 89.8003 707.3 91.2777 707.3 93.1003C707.3 94.9228 708.777 96.4003 710.6 96.4003Z" fill="white"/>
<path opacity="0.04" d="M721.3 96.4003C723.123 96.4003 724.6 94.9228 724.6 93.1003C724.6 91.2777 723.123 89.8003 721.3 89.8003C719.477 89.8003 718 91.2777 718 93.1003C718 94.9228 719.477 96.4003 721.3 96.4003Z" fill="white"/>
<path opacity="0.04" d="M732.1 96.4003C733.922 96.4003 735.4 94.9228 735.4 93.1003C735.4 91.2777 733.922 89.8003 732.1 89.8003C730.277 89.8003 728.8 91.2777 728.8 93.1003C728.8 94.9228 730.277 96.4003 732.1 96.4003Z" fill="white"/>
<path opacity="0.04" d="M742.9 96.4003C744.722 96.4003 746.2 94.9228 746.2 93.1003C746.2 91.2777 744.722 89.8003 742.9 89.8003C741.077 89.8003 739.6 91.2777 739.6 93.1003C739.6 94.9228 741.077 96.4003 742.9 96.4003Z" fill="white"/>
<path opacity="0.04" d="M667.5 107.9C669.322 107.9 670.8 106.423 670.8 104.6C670.8 102.778 669.322 101.3 667.5 101.3C665.677 101.3 664.2 102.778 664.2 104.6C664.2 106.423 665.677 107.9 667.5 107.9Z" fill="white"/>
<path opacity="0.04" d="M678.2 107.9C680.022 107.9 681.5 106.423 681.5 104.6C681.5 102.778 680.022 101.3 678.2 101.3C676.377 101.3 674.9 102.778 674.9 104.6C674.9 106.423 676.377 107.9 678.2 107.9Z" fill="white"/>
<path opacity="0.04" d="M689 107.9C690.822 107.9 692.3 106.423 692.3 104.6C692.3 102.778 690.822 101.3 689 101.3C687.177 101.3 685.7 102.778 685.7 104.6C685.7 106.423 687.177 107.9 689 107.9Z" fill="white"/>
<path opacity="0.04" d="M699.8 107.9C701.623 107.9 703.1 106.423 703.1 104.6C703.1 102.778 701.623 101.3 699.8 101.3C697.977 101.3 696.5 102.778 696.5 104.6C696.5 106.423 697.977 107.9 699.8 107.9Z" fill="white"/>
<path opacity="0.04" d="M710.6 107.9C712.422 107.9 713.9 106.423 713.9 104.6C713.9 102.778 712.422 101.3 710.6 101.3C708.777 101.3 707.3 102.778 707.3 104.6C707.3 106.423 708.777 107.9 710.6 107.9Z" fill="white"/>
<path opacity="0.04" d="M721.3 107.9C723.123 107.9 724.6 106.423 724.6 104.6C724.6 102.778 723.123 101.3 721.3 101.3C719.477 101.3 718 102.778 718 104.6C718 106.423 719.477 107.9 721.3 107.9Z" fill="white"/>
<path opacity="0.04" d="M732.1 107.9C733.922 107.9 735.4 106.423 735.4 104.6C735.4 102.778 733.922 101.3 732.1 101.3C730.277 101.3 728.8 102.778 728.8 104.6C728.8 106.423 730.277 107.9 732.1 107.9Z" fill="white"/>
<path opacity="0.04" d="M742.9 107.9C744.722 107.9 746.2 106.423 746.2 104.6C746.2 102.778 744.722 101.3 742.9 101.3C741.077 101.3 739.6 102.778 739.6 104.6C739.6 106.423 741.077 107.9 742.9 107.9Z" fill="white"/>
<defs>
<filter id="filter0_f" x="27.7" y="-40.8999" width="699.2" height="490" filterUnits="userSpaceOnUse" color-interpolation-filters="sRGB">
<feFlood flood-opacity="0" result="BackgroundImageFix"/>
<feBlend mode="normal" in="SourceGraphic" in2="BackgroundImageFix" result="shape"/>
<feGaussianBlur stdDeviation="20.5" result="effect1_foregroundBlur"/>
</filter>
<filter id="filter1_b" x="-110" y="-110" width="553.4" height="628" filterUnits="userSpaceOnUse" color-interpolation-filters="sRGB">
<feFlood flood-opacity="0" result="BackgroundImageFix"/>
<feGaussianBlur in="BackgroundImage" stdDeviation="55"/>
<feComposite in2="SourceAlpha" operator="in" result="effect1_backgroundBlur"/>
<feBlend mode="normal" in="SourceGraphic" in2="effect1_backgroundBlur" result="shape"/>
</filter>
<filter id="filter2_f" x="556.4" y="556.4" width="173.4" height="173.4" filterUnits="userSpaceOnUse" color-interpolation-filters="sRGB">
<feFlood flood-opacity="0" result="BackgroundImageFix"/>
<feBlend mode="normal" in="SourceGraphic" in2="BackgroundImageFix" result="shape"/>
<feGaussianBlur stdDeviation="8" result="effect1_foregroundBlur"/>
</filter>
<linearGradient id="paint0_linear" x1="730.22" y1="30.4848" x2="5.91609" y2="770.05" gradientUnits="userSpaceOnUse">
<stop stop-color="#003760"/>
<stop offset="1" stop-color="#002255"/>
</linearGradient>
<linearGradient id="paint1_linear" x1="631.806" y1="210.609" x2="142.059" y2="182.059" gradientUnits="userSpaceOnUse">
<stop stop-color="#02508A"/>
<stop offset="1" stop-color="#003760"/>
</linearGradient>
<linearGradient id="paint2_linear" x1="283.488" y1="232.459" x2="-141.471" y2="132.533" gradientUnits="userSpaceOnUse">
<stop stop-color="#005493"/>
<stop offset="1" stop-color="#003760"/>
</linearGradient>
<linearGradient id="paint3_linear" x1="583.735" y1="520.678" x2="697.605" y2="755.461" gradientUnits="userSpaceOnUse">
<stop stop-color="#00528F"/>
<stop offset="1" stop-color="#003760"/>
</linearGradient>
</defs>
</svg>
