<svg width="36" height="36" viewBox="0 0 36 36" fill="none" xmlns="http://www.w3.org/2000/svg">
<circle cx="18" cy="18" r="18" fill="#265397"/>
<path fill-rule="evenodd" clip-rule="evenodd" d="M14.4 13.6286H17.1V22.2429H14.4V24.3H17.1C17.1 25.7143 15.9429 27 14.4 27H11.8286C10.1571 27 9 25.8429 9 24.3V11.7C9 10.1571 10.1571 9 11.7 9H14.2714C15.8143 9 16.9714 10.1571 16.9714 11.7H14.4V13.6286Z" fill="white"/>
<path fill-rule="evenodd" clip-rule="evenodd" d="M24.2997 13.6286H26.9997V22.2429H24.2997V24.3H26.9997C26.9997 25.7143 25.714 27 24.2997 27H21.7283C20.1855 27 19.0283 25.8429 19.0283 24.3V11.7C19.0283 10.1571 20.1855 9 21.7283 9H24.2997C25.714 9 26.9997 10.1571 26.9997 11.7H24.2997V13.6286Z" fill="white"/>
</svg>
