<svg width="36" height="36" viewBox="0 0 36 36" fill="none" xmlns="http://www.w3.org/2000/svg">
<circle cx="18" cy="18" r="18" fill="#265397"/>
<g clip-path="url(#clip0)">
<path d="M16.1099 18.2805V28.0005H26.9999V14.2305H20.1599L16.1099 18.2805Z" fill="#AEBDD3"/>
<path d="M9 14.32V24.76H19.89V10H13.05L9 14.32Z" fill="white"/>
<path d="M11.9701 16.5697H10.9801C10.6201 16.5697 10.3501 16.2997 10.3501 15.8497V14.9497C10.3501 14.5897 10.6201 14.3197 10.9801 14.3197H11.9701C12.3301 14.2297 12.6001 14.5897 12.6001 14.9497V15.9397C12.6001 16.2997 12.3301 16.5697 11.9701 16.5697Z" fill="#265397"/>
<path d="M18.27 14.9502H13.77V15.8502H18.27V14.9502Z" fill="#265397"/>
<path d="M18.27 18.46H13.77V19.36H18.27V18.46Z" fill="#265397"/>
<path d="M18.27 21.8799H13.77V22.7799H18.27V21.8799Z" fill="#265397"/>
<path d="M11.9701 19.9902H10.9801C10.6201 19.9902 10.3501 19.7202 10.3501 19.3602V18.3702C10.3501 18.0102 10.6201 17.7402 10.9801 17.7402H11.9701C12.3301 17.7402 12.6001 18.0102 12.6001 18.3702V19.3602C12.6001 19.7202 12.3301 19.9902 11.9701 19.9902Z" fill="#265397"/>
<path d="M11.9701 23.5H10.9801C10.6201 23.5 10.3501 23.23 10.3501 22.87V21.88C10.3501 21.52 10.6201 21.25 10.9801 21.25H11.9701C12.3301 21.25 12.6001 21.52 12.6001 21.88V22.87C12.6001 23.23 12.3301 23.5 11.9701 23.5Z" fill="#265397"/>
</g>
<defs>
<clipPath id="clip0">
<rect width="18" height="18" fill="white" transform="translate(9 10)"/>
</clipPath>
</defs>
</svg>
