<svg xmlns="http://www.w3.org/2000/svg" width="73.248" height="80" viewBox="0 0 73.248 80">
  <g id="_1" data-name="1" transform="translate(-19290.33 -421)">
    <rect id="Rectangle_1970" data-name="Rectangle 1970" width="14" height="10" transform="translate(19320 469)" fill="#feb400"/>
    <path id="Rectangle_1971" data-name="Rectangle 1971" d="M5,0H25a5,5,0,0,1,5,5V9a0,0,0,0,1,0,0H0A0,0,0,0,1,0,9V5A5,5,0,0,1,5,0Z" transform="translate(19312 479)" fill="#fee545"/>
    <path id="Rectangle_1972" data-name="Rectangle 1972" d="M0,0H44a0,0,0,0,1,0,0V8a5,5,0,0,1-5,5H5A5,5,0,0,1,0,8V0A0,0,0,0,1,0,0Z" transform="translate(19305 488)" fill="#fe3d4a"/>
    <path id="Path_3593" data-name="Path 3593" d="M19204.434,461.646a31.53,31.53,0,0,1-12.576-7.8,35.8,35.8,0,0,1-6.93-10.158,41.073,41.073,0,0,1-3.59-12.586,2,2,0,0,1,1.992-2.167H19196v4h-10.348a39.6,39.6,0,0,0,2.961,9.192c3.678,7.871,9.428,13.163,17.09,15.729Z" transform="translate(109)" fill="#f9c13c"/>
    <path id="Path_3594" data-name="Path 3594" d="M19183.965,461.646l-1.27-3.793c7.662-2.565,13.412-7.857,17.09-15.729a39.585,39.585,0,0,0,2.961-9.192H19192.4v-4h12.67a2,2,0,0,1,1.992,2.167,41.073,41.073,0,0,1-3.59,12.586,35.8,35.8,0,0,1-6.93,10.158A31.53,31.53,0,0,1,19183.965,461.646Z" transform="translate(156.51)" fill="#fe7403"/>
    <path id="Path_3592" data-name="Path 3592" d="M19194.605,425.877h47.1s-.342,45-23.594,44.553C19193.762,469.964,19194.605,425.877,19194.605,425.877Z" transform="translate(109)" fill="#fee545"/>
    <rect id="Rectangle_1973" data-name="Rectangle 1973" width="58" height="5" transform="translate(19298 421)" fill="#fecd36"/>
    <path id="Path_3595" data-name="Path 3595" d="M6.091,0H9.778V-17.615H6.1L1.55-14.453v3.32l4.321-3h.22Z" transform="translate(19320 454)" fill="#ec2d26"/>
  </g>
</svg>
