<svg xmlns="http://www.w3.org/2000/svg" width="73.248" height="80" viewBox="0 0 73.248 80">
  <g id="_2" data-name="2" transform="translate(-19391.33 -421)">
    <rect id="Rectangle_1976" data-name="Rectangle 1976" width="14" height="10" transform="translate(19421 469)" fill="#28c0d0"/>
    <path id="Rectangle_1975" data-name="Rectangle 1975" d="M5,0H25a5,5,0,0,1,5,5V9a0,0,0,0,1,0,0H0A0,0,0,0,1,0,9V5A5,5,0,0,1,5,0Z" transform="translate(19413 479)" fill="#a2eefe"/>
    <path id="Rectangle_1974" data-name="Rectangle 1974" d="M0,0H44a0,0,0,0,1,0,0V8a5,5,0,0,1-5,5H5A5,5,0,0,1,0,8V0A0,0,0,0,1,0,0Z" transform="translate(19406 488)" fill="#fe3d4a"/>
    <path id="Path_3593" data-name="Path 3593" d="M19204.434,461.646a31.53,31.53,0,0,1-12.576-7.8,35.8,35.8,0,0,1-6.93-10.158,41.073,41.073,0,0,1-3.59-12.586,2,2,0,0,1,1.992-2.167H19196v4h-10.348a39.6,39.6,0,0,0,2.961,9.192c3.678,7.871,9.428,13.163,17.09,15.729Z" transform="translate(210)" fill="#6fdaeb"/>
    <path id="Path_3594" data-name="Path 3594" d="M19183.965,461.646l-1.27-3.793c7.662-2.565,13.412-7.857,17.09-15.729a39.585,39.585,0,0,0,2.961-9.192H19192.4v-4h12.67a2,2,0,0,1,1.992,2.167,41.073,41.073,0,0,1-3.59,12.586,35.8,35.8,0,0,1-6.93,10.158A31.53,31.53,0,0,1,19183.965,461.646Z" transform="translate(257.51)" fill="#28c0d0"/>
    <path id="Path_3593-2" data-name="Path 3593" d="M19194.605,425.877h47.1s-.342,45-23.594,44.553C19193.762,469.964,19194.605,425.877,19194.605,425.877Z" transform="translate(210)" fill="#a2eefe"/>
    <rect id="Rectangle_1977" data-name="Rectangle 1977" width="58" height="5" transform="translate(19399 421)" fill="#6fdaeb"/>
    <path id="Path_3596" data-name="Path 3596" d="M1.782,0H14.49V-2.966H6.726v-.281l3.259-3.04c3.21-2.966,4.248-4.626,4.248-6.628v-.037c0-3.04-2.539-5.115-6.165-5.115-3.857,0-6.494,2.319-6.494,5.7l.012.049H4.993v-.061A2.727,2.727,0,0,1,7.9-15.2a2.474,2.474,0,0,1,2.71,2.551v.037c0,1.233-.671,2.124-3.149,4.529l-5.676,5.6Z" transform="translate(19419 454)" fill="#006d78"/>
  </g>
</svg>
