<svg width="29" height="35" viewBox="0 0 29 35" fill="none" xmlns="http://www.w3.org/2000/svg">
<path d="M0.581334 5.12742C0.895965 5.12742 1.15102 4.87236 1.15102 4.55773C1.15102 4.2431 0.895965 3.98804 0.581334 3.98804H0.575637C0.261006 3.98961 0.00722319 4.24594 0.00879634 4.56057C0.0103695 4.87521 0.266703 5.12899 0.581334 5.12742Z" fill="#037FFB"/>
<path d="M3.39266 8.60217C3.38411 8.61186 3.37614 8.62154 3.36816 8.6318C2.2941 10.099 1.99274 11.9939 2.55863 13.722C2.59368 13.8103 2.64798 13.8897 2.71758 13.9544C2.78032 14.0091 2.85201 14.0527 2.9295 14.0832C4.17118 14.5801 5.49854 14.8276 6.83586 14.8118C8.17307 14.8282 9.50042 14.5812 10.7422 14.0849C10.8197 14.0543 10.8913 14.0108 10.9541 13.9561C11.0229 13.8907 11.0771 13.8115 11.1131 13.7237C11.6734 12.0151 11.3838 10.1416 10.3338 8.68193C10.3231 8.66386 10.3115 8.64637 10.299 8.62952C10.0707 8.32836 9.80691 8.05579 9.5134 7.81771C10.6255 6.41857 10.472 4.39888 9.16115 3.18392C7.85033 1.96897 5.82481 1.96897 4.51399 3.18392C3.20317 4.39888 3.04964 6.41857 4.16174 7.81771C3.87555 8.04818 3.61742 8.31147 3.39266 8.60217ZM6.83586 3.418C8.09438 3.418 9.11462 4.43824 9.11462 5.69676C9.11462 6.95528 8.09438 7.97552 6.83586 7.97552C5.57734 7.97552 4.5571 6.95528 4.5571 5.69676C4.5571 4.43824 5.57734 3.418 6.83586 3.418ZM4.262 9.34277C4.26941 9.33422 4.27625 9.32568 4.28308 9.31656C4.491 9.03878 4.73884 8.79325 5.01855 8.58793C6.12768 9.29172 7.54347 9.29172 8.6526 8.58793C8.91785 8.78189 9.15466 9.012 9.35616 9.27156C9.36651 9.28864 9.37773 9.30519 9.38978 9.32112C10.1961 10.4076 10.4559 11.8053 10.0939 13.109C9.05089 13.4922 7.94701 13.6831 6.83586 13.6724C5.72478 13.6835 4.6209 13.493 3.57781 13.1101C3.47401 12.7366 3.42018 12.351 3.41773 11.9633C3.40619 11.0212 3.70264 10.101 4.262 9.34277Z" fill="#037FFB"/>
<path d="M13.1029 4.55735H15.3816C15.6963 4.55735 15.9513 4.30229 15.9513 3.98766C15.9513 3.67303 15.6963 3.41797 15.3816 3.41797H13.1029C12.7883 3.41797 12.5332 3.67303 12.5332 3.98766C12.5332 4.30229 12.7883 4.55735 13.1029 4.55735Z" fill="#037FFB"/>
<path d="M21.6483 4.55735C21.963 4.55735 22.218 4.30229 22.218 3.98766C22.218 3.67303 21.963 3.41797 21.6483 3.41797H17.6605C17.3459 3.41797 17.0908 3.67303 17.0908 3.98766C17.0908 4.30229 17.3459 4.55735 17.6605 4.55735H21.6483Z" fill="#037FFB"/>
<path d="M21.6483 9.11499H19.3695C19.0549 9.11499 18.7998 9.37005 18.7998 9.68468C18.7998 9.99931 19.0549 10.2544 19.3695 10.2544H21.6483C21.9629 10.2544 22.2179 9.99931 22.2179 9.68468C22.2179 9.37005 21.9629 9.11499 21.6483 9.11499Z" fill="#037FFB"/>
<path d="M13.1029 10.2544H17.0907C17.4053 10.2544 17.6604 9.99931 17.6604 9.68468C17.6604 9.37005 17.4053 9.11499 17.0907 9.11499H13.1029C12.7883 9.11499 12.5332 9.37005 12.5332 9.68468C12.5332 9.99931 12.7883 10.2544 13.1029 10.2544Z" fill="#037FFB"/>
<path d="M13.1029 7.40598H21.6482C21.9629 7.40598 22.2179 7.15092 22.2179 6.83629C22.2179 6.52166 21.9629 6.2666 21.6482 6.2666H13.1029C12.7883 6.2666 12.5332 6.52166 12.5332 6.83629C12.5332 7.15092 12.7883 7.40598 13.1029 7.40598Z" fill="#037FFB"/>
<path d="M13.1029 13.103H21.6482C21.9629 13.103 22.2179 12.8479 22.2179 12.5333C22.2179 12.2187 21.9629 11.9636 21.6482 11.9636H13.1029C12.7883 11.9636 12.5332 12.2187 12.5332 12.5333C12.5332 12.8479 12.7883 13.103 13.1029 13.103Z" fill="#037FFB"/>
<path d="M16.806 16.521C13.5023 16.521 10.8242 19.1991 10.8242 22.5027C10.8242 25.8064 13.5023 28.4845 16.806 28.4845C20.1096 28.4845 22.7877 25.8064 22.7877 22.5027C22.7839 19.2007 20.108 16.5248 16.806 16.521ZM16.806 27.3451C14.8474 27.3451 13.0817 26.1653 12.3322 24.3558C11.5827 22.5464 11.997 20.4636 13.3819 19.0787C14.7668 17.6938 16.8496 17.2795 18.659 18.029C20.4685 18.7785 21.6483 20.5442 21.6483 22.5027C21.6452 25.1758 19.479 27.342 16.806 27.3451Z" fill="#037FFB"/>
<path d="M23.7236 27.0033C24.5999 25.6659 25.0666 24.1017 25.0663 22.5027V2.27876C25.0663 1.02023 24.0461 0 22.7876 0H2.27876C1.02023 0 0 1.02023 0 2.27876C0 2.59339 0.255059 2.84845 0.569689 2.84845C0.88432 2.84845 1.13938 2.59339 1.13938 2.27876C1.13938 1.6495 1.6495 1.13938 2.27876 1.13938H22.7876C23.4168 1.13938 23.9269 1.6495 23.9269 2.27876V18.3372C22.1836 15.3475 18.7601 13.7631 15.3528 14.3689C11.9454 14.9748 9.2779 17.6421 8.6719 21.0495C8.06591 24.4568 9.65015 27.8803 12.6397 29.6238H2.27876C1.6495 29.6238 1.13938 29.1137 1.13938 28.4845V6.83627C1.13938 6.52164 0.88432 6.26658 0.569689 6.26658C0.255059 6.26658 0 6.52164 0 6.83627V28.4845C0 29.743 1.02023 30.7632 2.27876 30.7632H16.8058C18.4048 30.7635 19.969 30.2968 21.3064 29.4205L25.5665 33.676C25.9945 34.1194 26.6284 34.2974 27.2246 34.1419C27.8209 33.9863 28.287 33.5214 28.4439 32.9255C28.6009 32.3296 28.4243 31.6953 27.982 31.2663L23.7236 27.0033ZM16.8058 29.6238C12.8729 29.6238 9.68472 26.4356 9.68472 22.5027C9.68472 18.5698 12.8729 15.3816 16.8058 15.3816C20.7387 15.3816 23.9269 18.5698 23.9269 22.5027C23.9226 26.4338 20.7369 29.6194 16.8058 29.6238ZM27.1742 32.8756C26.9527 33.0928 26.5981 33.0928 26.3766 32.8756L22.2241 28.7277C22.511 28.4778 22.7804 28.2085 23.0303 27.9216L27.1787 32.0735C27.2868 32.1792 27.3473 32.3242 27.3463 32.4754C27.3453 32.6265 27.283 32.7708 27.1736 32.8751L27.1742 32.8756Z" fill="#037FFB"/>
<path d="M8.54553 17.6603C8.54553 17.3456 8.29047 17.0906 7.97584 17.0906H3.41832C3.10369 17.0906 2.84863 17.3456 2.84863 17.6603C2.84863 17.9749 3.10369 18.23 3.41832 18.23H7.97584C8.29047 18.23 8.54553 17.9749 8.54553 17.6603Z" fill="#037FFB"/>
<path d="M3.41832 26.7756H7.40615C7.72078 26.7756 7.97584 26.5206 7.97584 26.2059C7.97584 25.8913 7.72078 25.6362 7.40615 25.6362H3.41832C3.10369 25.6362 2.84863 25.8913 2.84863 26.2059C2.84863 26.5206 3.10369 26.7756 3.41832 26.7756Z" fill="#037FFB"/>
<path d="M3.41832 21.0786H6.83646C7.15109 21.0786 7.40615 20.8235 7.40615 20.5089C7.40615 20.1943 7.15109 19.9392 6.83646 19.9392H3.41832C3.10369 19.9392 2.84863 20.1943 2.84863 20.5089C2.84863 20.8235 3.10369 21.0786 3.41832 21.0786Z" fill="#037FFB"/>
<path d="M3.41832 23.927H6.83646C7.15109 23.927 7.40615 23.6719 7.40615 23.3573C7.40615 23.0427 7.15109 22.7876 6.83646 22.7876H3.41832C3.10369 22.7876 2.84863 23.0427 2.84863 23.3573C2.84863 23.6719 3.10369 23.927 3.41832 23.927Z" fill="#037FFB"/>
</svg>
