<svg width="29" height="36" viewBox="0 0 29 36" fill="none" xmlns="http://www.w3.org/2000/svg">
<path d="M28.316 0H4.51415C2.02501 0 0 2.02501 0 4.51415V30.6415C0 30.6698 0.00225713 30.6975 0.00560854 30.7249C0.120856 33.1121 2.09888 35.0189 4.51415 35.0189H28.316C28.6937 35.0189 29 34.7126 29 34.3349V0.683962C29 0.306278 28.6937 0 28.316 0ZM3.83019 1.44282V26.0423C2.87996 26.1874 2.02692 26.6305 1.36792 27.272V4.51415C1.36792 3.01415 2.42321 1.756 3.83019 1.44282ZM4.51415 33.6509C2.77935 33.6509 1.36792 32.2395 1.36792 30.5047C1.36792 28.7699 2.77935 27.3585 4.51415 27.3585H7.706C8.08368 27.3585 8.38996 27.0522 8.38996 26.6745C8.38996 26.2968 8.08368 25.9906 7.706 25.9906H5.19811V1.36792H27.6321V25.9906H13.2005C12.8228 25.9906 12.5165 26.2968 12.5165 26.6745C12.5165 27.0522 12.8228 27.3585 13.2005 27.3585H19.4V32.2295C19.4 32.4879 19.5457 32.7242 19.7765 32.8404C20.0075 32.9567 20.284 32.9327 20.4916 32.7788L22.5462 31.2539L24.6008 32.7788C24.7211 32.8679 24.8644 32.9135 25.0085 32.9135C25.1134 32.9135 25.2187 32.8894 25.3159 32.8405C25.5467 32.7244 25.6924 32.488 25.6924 32.2295V27.3585H27.6321V33.6509H4.51415ZM20.7679 27.3585H24.3245V30.8702L22.9538 29.8529C22.7118 29.6732 22.3806 29.6732 22.1386 29.8529L20.7679 30.8702V27.3585Z" fill="#037FFB"/>
<path d="M10.5331 25.9907C10.3532 25.9907 10.1767 26.0638 10.0495 26.1911C9.9223 26.3184 9.84912 26.4948 9.84912 26.6747C9.84912 26.8546 9.92224 27.031 10.0495 27.1582C10.1767 27.2854 10.3532 27.3586 10.5331 27.3586C10.713 27.3586 10.8894 27.2855 11.0166 27.1582C11.1439 27.031 11.217 26.8546 11.217 26.6747C11.217 26.4948 11.1439 26.3183 11.0166 26.1911C10.8894 26.0638 10.713 25.9907 10.5331 25.9907Z" fill="#037FFB"/>
<path d="M4.75354 30.0935H14.5C14.8777 30.0935 15.184 29.7872 15.184 29.4095C15.184 29.0319 14.8777 28.7256 14.5 28.7256H4.75354C4.37586 28.7256 4.06958 29.0319 4.06958 29.4095C4.06958 29.7872 4.37586 30.0935 4.75354 30.0935Z" fill="#037FFB"/>
<path d="M16.8948 31.4546H4.75354C4.37586 31.4546 4.06958 31.7609 4.06958 32.1386C4.06958 32.5162 4.37586 32.8225 4.75354 32.8225H16.8948C17.2725 32.8225 17.5788 32.5162 17.5788 32.1386C17.5788 31.7609 17.2725 31.4546 16.8948 31.4546Z" fill="#037FFB"/>
<path d="M16.8944 30.0935C17.075 30.0935 17.2508 30.0203 17.378 29.893C17.5059 29.7659 17.5784 29.5894 17.5784 29.4095C17.5784 29.2296 17.5059 29.0532 17.378 28.926C17.2508 28.7988 17.0749 28.7256 16.8944 28.7256C16.7145 28.7256 16.5381 28.7987 16.4108 28.926C16.2837 29.0532 16.2104 29.2296 16.2104 29.4095C16.2104 29.5894 16.2836 29.7659 16.4108 29.893C16.5388 30.0203 16.7145 30.0935 16.8944 30.0935Z" fill="#037FFB"/>
<path d="M11.0858 23.1181H21.7442C23.2559 23.1181 24.4857 21.8883 24.4857 20.3766V15.053C24.4857 13.5414 23.2559 12.3115 21.7442 12.3115H11.0858C9.57407 12.3115 8.34424 13.5414 8.34424 15.053V20.3766C8.34424 21.8883 9.57407 23.1181 11.0858 23.1181ZM9.71216 15.053C9.71216 14.2956 10.3283 13.6794 11.0858 13.6794H21.7442C22.5016 13.6794 23.1178 14.2956 23.1178 15.053V20.3766C23.1178 21.134 22.5016 21.7502 21.7442 21.7502H11.0858C10.3283 21.7502 9.71216 21.134 9.71216 20.3766V15.053Z" fill="#037FFB"/>
<path d="M14.5994 20.3845C14.7949 20.4914 15.0102 20.5444 15.2251 20.5444C15.4702 20.5444 15.7149 20.4753 15.9289 20.3382L18.3089 18.8126C18.6848 18.5717 18.9092 18.1612 18.9092 17.7146C18.9092 17.268 18.6848 16.8576 18.3089 16.6166L15.9289 15.0911C15.5273 14.8336 15.0179 14.816 14.5994 15.0448C14.1809 15.2737 13.9209 15.7121 13.9209 16.189V19.24C13.9209 19.7171 14.1809 20.1556 14.5994 20.3845ZM15.2888 16.3057L17.487 17.7147L15.2888 19.1236V16.3057Z" fill="#037FFB"/>
<path d="M14.9789 10.533H17.8805C18.2582 10.533 18.5645 10.2267 18.5645 9.84902C18.5645 9.47134 18.2582 9.16506 17.8805 9.16506H15.6628V7.79713H17.8805C18.2582 7.79713 18.5645 7.49085 18.5645 7.11317C18.5645 6.73549 18.2582 6.42921 17.8805 6.42921H15.6628V5.06128H17.8805C18.2582 5.06128 18.5645 4.75501 18.5645 4.37732C18.5645 3.99964 18.2582 3.69336 17.8805 3.69336H14.9789C14.6012 3.69336 14.2949 3.99964 14.2949 4.37732V9.84902C14.2949 10.2267 14.6012 10.533 14.9789 10.533Z" fill="#037FFB"/>
</svg>
