<svg width="28" height="28" viewBox="0 0 28 28" fill="none" xmlns="http://www.w3.org/2000/svg">
<path d="M15.4872 6.4549L16.1257 7.09348L15.2189 8.00032C15.3038 8.1769 15.3548 8.372 15.3548 8.58064C15.3548 9.32761 14.747 9.93548 14 9.93548C13.253 9.93548 12.6452 9.32761 12.6452 8.58064C12.6452 8.372 12.6962 8.1769 12.7811 8.00032L12.3259 7.5451L12.9645 6.90652L13.4197 7.36174C13.5963 7.27684 13.7914 7.22581 14 7.22581C14.2086 7.22581 14.4037 7.27684 14.5803 7.36174L15.4872 6.4549ZM14 8.12903C13.7512 8.12903 13.5484 8.33135 13.5484 8.58064C13.5484 8.82994 13.7512 9.03226 14 9.03226C14.2488 9.03226 14.4516 8.82994 14.4516 8.58064C14.4516 8.33135 14.2488 8.12903 14 8.12903ZM10.8387 13.5484H17.1613C17.6594 13.5484 18.0645 13.9535 18.0645 14.4516V17.1613C18.0645 17.6594 17.6594 18.0645 17.1613 18.0645H10.8387C10.3406 18.0645 9.93548 17.6594 9.93548 17.1613V14.4516C9.93548 13.9535 10.3406 13.5484 10.8387 13.5484ZM10.8387 15.3548H11.7419V14.4516H10.8387V15.3548ZM14.4516 16.2581V17.1613H15.3548V16.2581H14.4516ZM15.3548 15.3548V14.4516H14.4516V15.3548H15.3548ZM13.5484 16.2581H12.6452V17.1613H13.5484V16.2581ZM13.5484 15.3548V14.4516H12.6452V15.3548H13.5484ZM16.2581 14.4516V15.3548H17.1613V14.4516H16.2581ZM17.1613 16.2581H16.2581V17.1613H17.1613V16.2581ZM11.7419 17.1613V16.2581H10.8383V17.1613H11.7419ZM2.70968 9.2969C2.88039 9.12619 3.1071 9.03226 3.34826 9.03226H8.12903V6.93045C8.12903 6.72858 8.19768 6.53032 8.32232 6.37271L12.9143 0.527484C13.1781 0.192387 13.5737 0 14 0C14.4263 0 14.8219 0.192387 15.0857 0.527484L19.6772 6.37181C19.8023 6.53032 19.871 6.72813 19.871 6.93045V9.03226H24.6517C24.8929 9.03226 25.1196 9.12619 25.2903 9.2969L27.7354 11.7419C27.9038 11.9099 28 12.143 28 12.3805V13.5484C28 14.0465 27.5949 14.4516 27.0968 14.4516H26.1935V19.871H27.0968C27.5949 19.871 28 20.2761 28 20.7742V21.6774C28 22.1755 27.5949 22.5806 27.0968 22.5806V28H0.903227V22.5806C0.405098 22.5806 0 22.1755 0 21.6774V20.7742C0 20.2761 0.405098 19.871 0.903227 19.871H1.80645V14.4516H0.903227C0.405098 14.4516 0 14.0465 0 13.5484V12.3805C0 12.143 0.0961933 11.9099 0.264645 11.7419L2.70968 9.2969ZM1.54181 11.7419H2.94948L4.45471 9.93548H3.34781L1.54181 11.7419ZM5.62936 11.7419L6.83381 9.93548H5.63116L4.12594 11.7419H5.62936ZM7.91903 9.93548L6.71458 11.7419H8.12903V9.93548H7.91903ZM8.12903 16.2581H6.32258V18.0645H8.12903V16.2581ZM3.6129 22.5806V27.0968H4.51613V22.5806H3.6129ZM5.41936 27.0968H6.32258V22.5806H5.41936V27.0968ZM7.22581 27.0968H8.12903V22.5806H7.22581V27.0968ZM17.1613 21.6774V20.7742H10.8387L10.8383 21.6774H17.1613ZM14.4516 22.5806V27.0968H16.2581V22.5806H14.4516ZM13.5484 22.5806H11.7419V27.0968H13.5484V22.5806ZM10.8387 22.5806C10.3406 22.5806 9.93548 22.1755 9.93548 21.6774V20.7742C9.93548 20.2761 10.3406 19.871 10.8387 19.871H17.1613C17.6594 19.871 18.0645 20.2761 18.0645 20.7742V21.6774C18.0645 22.1755 17.6594 22.5806 17.1613 22.5806V27.0968H18.9677V7.22581H17.8274C17.9783 7.65032 18.0645 8.1051 18.0645 8.58064C18.0645 10.822 16.2409 12.6452 14 12.6452C11.7591 12.6452 9.93548 10.822 9.93548 8.58064C9.93548 8.1051 10.0217 7.65032 10.1726 7.22581H9.03226V27.0968H10.8387V22.5806ZM23.4839 22.5806V27.0968H24.3871V22.5806H23.4839ZM22.5806 22.5806H21.6774V27.0968H22.5806V22.5806ZM20.7742 22.5806H19.871V27.0968H20.7742V22.5806ZM19.871 18.0645H21.6774V16.2581H19.871V18.0645ZM13.5484 6.32258V5.45548C12.1669 5.65464 11.074 6.74755 10.8748 8.12903H11.7419V9.03226H10.8748C11.074 10.4137 12.1669 11.5066 13.5484 11.7058V10.8387H14.4516V11.7058C15.8331 11.5066 16.926 10.4137 17.1252 9.03226H16.2581V8.12903H17.1252C16.926 6.74755 15.8331 5.65464 14.4516 5.45548V6.32258H13.5484ZM14.3757 1.08568C14.1933 0.853548 13.8072 0.853548 13.6247 1.08568L9.50961 6.32258H10.6224C11.3526 5.23419 12.5937 4.51613 13.9995 4.51613C15.4054 4.51613 16.6469 5.23419 17.3767 6.32258H18.4895L14.3757 1.08568ZM19.871 11.7419H21.2854L20.081 9.93548H19.871V11.7419ZM23.8745 11.7419L22.3693 9.93548H21.1666L22.3711 11.7419H23.8745ZM24.6517 9.93548H23.5448L25.0501 11.7419H26.4582L24.6517 9.93548ZM27.0968 12.6452H19.871V13.5484H27.0968V12.6452ZM25.2903 16.2581H24.3871V18.0645H25.2903V16.2581ZM25.2903 18.9677H24.3871C23.889 18.9677 23.4839 18.5626 23.4839 18.0645V16.2581C23.4839 15.7599 23.889 15.3548 24.3871 15.3548H25.2903V14.4516H19.871V15.3548H21.6774C22.1755 15.3548 22.5806 15.7599 22.5806 16.2581V18.0645C22.5806 18.5626 22.1755 18.9677 21.6774 18.9677H19.871V19.871H25.2903V18.9677ZM27.0968 20.7742H19.871V21.6774H27.0968V20.7742ZM26.1935 22.5806H25.2903V27.0968H26.1935V22.5806ZM1.80645 27.0968H2.70968V22.5806H1.80645V27.0968ZM0.903227 21.6774H8.12903V20.7742H0.903227V21.6774ZM2.70968 18.0645H3.6129V16.2581H2.70968V18.0645ZM2.70968 15.3548H3.6129C4.11103 15.3548 4.51613 15.7599 4.51613 16.2581V18.0645C4.51613 18.5626 4.11103 18.9677 3.6129 18.9677H2.70968V19.871H8.12903V18.9677H6.32258C5.82445 18.9677 5.41936 18.5626 5.41936 18.0645V16.2581C5.41936 15.7599 5.82445 15.3548 6.32258 15.3548H8.12903V14.4516H2.70968V15.3548ZM8.12903 13.5484V12.6452H0.903227V13.5484H8.12903Z" fill="#037FFB"/>
</svg>
