<svg width="18" height="20" viewBox="0 0 18 20" fill="none" xmlns="http://www.w3.org/2000/svg">
<path d="M13.4906 10.2964C11.0248 10.2964 9.0188 12.3024 9.0188 14.7682C9.0188 17.234 11.0248 19.24 13.4906 19.24C15.9771 19.24 18 17.234 18 14.7682C18 12.3024 15.9771 10.2964 13.4906 10.2964ZM14.8631 14.2272L13.36 16.0309C13.2522 16.1603 13.0931 16.2338 12.927 16.2338C12.9054 16.2338 12.8837 16.2325 12.8619 16.23C12.673 16.2081 12.5078 16.0923 12.4228 15.9222L11.8215 14.7197C11.6823 14.4412 11.7952 14.1026 12.0736 13.9634C12.352 13.8241 12.6906 13.937 12.8298 14.2155L13.0457 14.6471L13.997 13.5055C14.1963 13.2663 14.5518 13.2341 14.7909 13.4333C15.0301 13.6326 15.0624 13.988 14.8631 14.2272V14.2272Z" fill="white"/>
<path d="M13.2477 3.21118L10.9606 0.846038C10.9595 0.84491 10.9584 0.843745 10.9573 0.842618C10.4307 0.307127 9.69794 0 8.94701 0H1.69102C0.758593 0 0 0.758593 0 1.69102V16.309C0 17.2414 0.758593 18 1.69102 18H8.92071C8.27275 17.0864 7.89144 15.9711 7.89144 14.7683C7.89144 11.6809 10.4032 9.1691 13.4906 9.1691C13.6808 9.1691 13.8688 9.17865 14.0543 9.19702V5.18505C14.0543 4.44217 13.7678 3.74129 13.2477 3.21118V3.21118ZM5.97495 12.5887H2.96868C2.65739 12.5887 2.40501 12.3364 2.40501 12.0251C2.40501 11.7138 2.65739 11.4614 2.96868 11.4614H5.97495C6.28625 11.4614 6.53862 11.7138 6.53862 12.0251C6.53862 12.3364 6.28625 12.5887 5.97495 12.5887ZM5.97495 9.58246H2.96868C2.65739 9.58246 2.40501 9.33009 2.40501 9.01879C2.40501 8.70749 2.65739 8.45511 2.96868 8.45511H5.97495C6.28625 8.45511 6.53862 8.70749 6.53862 9.01879C6.53862 9.33009 6.28625 9.58246 5.97495 9.58246ZM5.97495 6.5762H2.96868C2.65739 6.5762 2.40501 6.32382 2.40501 6.01253C2.40501 5.70123 2.65739 5.44885 2.96868 5.44885H5.97495C6.28625 5.44885 6.53862 5.70123 6.53862 6.01253C6.53862 6.32382 6.28625 6.5762 5.97495 6.5762ZM9.58246 9.58246H8.98121C8.66991 9.58246 8.41754 9.33009 8.41754 9.01879C8.41754 8.70749 8.66991 8.45511 8.98121 8.45511H9.58246C9.89376 8.45511 10.1461 8.70749 10.1461 9.01879C10.1461 9.33009 9.89376 9.58246 9.58246 9.58246ZM9.58246 6.5762H8.98121C8.66991 6.5762 8.41754 6.32382 8.41754 6.01253C8.41754 5.70123 8.66991 5.44885 8.98121 5.44885H9.58246C9.89376 5.44885 10.1461 5.70123 10.1461 6.01253C10.1461 6.32382 9.89376 6.5762 9.58246 6.5762Z" fill="white"/>
</svg>
