<svg width="471" height="545" viewBox="0 0 471 545" fill="none" xmlns="http://www.w3.org/2000/svg">
<g opacity="0.45">
<path opacity="0.45" d="M105.514 33.7168C104.114 28.0268 90.8841 19.7168 83.8141 24.7268C81.6441 13.8868 79.6141 7.12678 72.5241 1.78678C65.4341 -3.55322 53.6041 3.42678 51.7041 18.0468C49.8041 12.0368 40.1441 3.93678 32.3841 10.7668C25.2041 17.0868 24.4841 27.6768 25.2341 33.7068H105.514V33.7168Z" fill="#99B8FF"/>
</g>
<g opacity="0.45">
<path opacity="0.45" d="M470.1 106.641C467.91 101.251 463.78 98.3608 458.89 97.8208C452.73 97.1308 446.48 100.671 446.48 100.671C446.48 100.671 448.8 91.7708 445.65 84.7708C443.51 79.9908 440.09 75.5008 435.35 74.3208C430.44 73.1008 425.23 75.4908 421.57 79.2808C417.91 83.0708 415.55 88.0908 413.45 93.1008C412.36 89.5508 410.92 85.5708 407.71 84.2508C404.39 82.8808 400.55 85.2408 398.81 88.6208C397.07 92.0008 396.98 96.0808 397.22 99.9508C393.37 97.6408 388.46 96.9608 384.6 99.2708C382.13 100.751 380.37 103.651 380 106.651H470.1V106.641Z" fill="#99B8FF"/>
</g>
<path d="M456.896 182.662C457.394 180.54 454.411 179.13 452.583 180.614C434.028 195.66 389.445 240.718 400.557 319.458C414.497 418.25 390.665 454.297 361 476.286C361 476.286 401.74 465.946 427.372 429.368C490.303 339.558 448.035 220.381 456.896 182.662Z" fill="#1755AF"/>
<path d="M442.775 213.52C440.453 224.518 438.384 235.55 436.786 246.631C435.121 257.702 433.844 268.814 432.971 279.943C432.146 291.073 431.565 302.215 431.532 313.364C431.44 324.511 431.903 335.649 432.416 346.829C432.854 358.006 433.368 369.263 432.55 380.599C431.746 391.913 429.363 403.327 424.638 414.025C423.456 416.691 422.214 419.35 420.802 421.917C419.445 424.508 417.955 427.051 416.413 429.566C413.299 434.588 409.794 439.44 405.889 444.045C398.047 453.239 388.592 461.396 378.174 468.299C377.078 469.025 375.507 468.848 374.664 467.901C373.838 466.971 374.024 465.646 375.068 464.912L375.077 464.906C377.556 463.165 380.008 461.402 382.361 459.55C383.554 458.64 384.699 457.687 385.864 456.752C386.986 455.781 388.153 454.847 389.239 453.847C393.663 449.909 397.76 445.71 401.479 441.268C408.957 432.427 414.944 422.574 419.48 412.36C421.681 407.228 423.442 401.968 424.725 396.606C426.007 391.244 426.811 385.79 427.257 380.291C428.149 369.287 427.747 358.14 427.402 346.961C427.074 335.78 426.833 324.541 427.129 313.311C427.26 307.696 427.506 302.085 427.87 296.48C428.033 293.676 428.257 290.877 428.478 288.076C428.729 285.278 428.998 282.481 429.292 279.688C430.496 268.512 432.095 257.374 434.099 246.295C436.164 235.223 438.569 224.205 441.463 213.283C441.546 212.971 441.905 212.775 442.267 212.846C442.616 212.92 442.838 213.218 442.775 213.52Z" fill="white"/>
<path d="M71.6437 36.0057C72.772 32.9941 77.1956 33.4981 77.6037 36.6872C81.5498 67.5195 94.4287 148.043 125.675 194.368C176.55 269.797 201.023 383.716 153.924 433.916C153.924 433.918 -51.2775 364.045 71.6437 36.0057Z" fill="url(#paint0_linear)"/>
<path opacity="0.43" d="M72.1492 79.2292C72.1492 79.2292 72.1431 79.5495 72.1329 80.1718C72.1471 80.7901 72.1471 81.6817 72.1879 82.8937C72.2451 85.3034 72.3981 88.8373 72.6185 93.3344C72.8613 97.8314 73.1735 103.289 73.6387 109.545C74.0692 115.803 74.6997 122.853 75.3648 130.543C76.0892 138.227 76.8951 146.552 77.9296 155.336C78.911 164.126 80.1516 173.369 81.4554 182.928C82.8265 192.477 84.2915 202.336 86.0259 212.316C86.4564 214.811 86.8869 217.317 87.3195 219.828C87.7867 222.334 88.256 224.848 88.7253 227.365C89.6312 232.409 90.6922 237.443 91.7043 242.485C92.7081 247.529 93.8895 252.536 94.9444 257.549C96.0891 262.542 97.25 267.51 98.4273 272.434C99.0496 274.886 99.6699 277.33 100.286 279.761C100.913 282.189 101.49 284.619 102.171 287.004C102.83 289.395 103.483 291.772 104.134 294.133C104.459 295.312 104.783 296.49 105.106 297.661C105.45 298.826 105.795 299.985 106.138 301.14C106.828 303.449 107.511 305.739 108.191 308.008C108.531 309.142 108.87 310.268 109.209 311.391C109.57 312.505 109.931 313.615 110.288 314.716C111 316.924 111.704 319.107 112.4 321.264C112.751 322.341 113.081 323.419 113.441 324.48C113.81 325.537 114.177 326.585 114.54 327.628C115.269 329.713 115.987 331.77 116.695 333.796C117.048 334.81 117.401 335.814 117.75 336.812C118.123 337.799 118.495 338.779 118.862 339.752C120.359 343.629 121.731 347.406 123.181 350.978C124.663 354.539 126.081 357.95 127.431 361.194C128.827 364.42 130.235 367.44 131.512 370.301C132.159 371.727 132.787 373.108 133.391 374.441C134.042 375.753 134.669 377.016 135.271 378.23C136.476 380.66 137.582 382.89 138.582 384.906C139.066 385.922 139.592 386.848 140.07 387.728C140.549 388.607 140.998 389.431 141.416 390.199C142.251 391.735 142.959 393.041 143.534 394.1C144.685 396.22 145.299 397.35 145.299 397.35L145.305 397.362C145.397 397.532 145.334 397.746 145.164 397.838C144.997 397.93 144.789 397.868 144.693 397.705C144.693 397.705 144.052 396.587 142.851 394.49C142.249 393.441 141.508 392.147 140.637 390.627C140.202 389.866 139.735 389.048 139.235 388.177C138.739 387.303 138.197 386.383 137.693 385.371C136.656 383.367 135.507 381.147 134.257 378.734C133.632 377.526 132.981 376.269 132.306 374.963C131.675 373.637 131.023 372.262 130.349 370.844C129.021 367.995 127.544 364.992 126.105 361.772C124.716 358.53 123.257 355.122 121.733 351.566C120.239 347.997 118.823 344.223 117.281 340.348C116.901 339.377 116.517 338.397 116.132 337.41C115.773 336.412 115.409 335.408 115.044 334.394C114.312 332.368 113.571 330.311 112.818 328.226C109.837 319.877 106.977 310.97 104.226 301.699C103.879 300.542 103.53 299.379 103.179 298.212C102.853 297.039 102.522 295.859 102.194 294.678C101.535 292.313 100.87 289.93 100.2 287.534C99.5108 285.143 98.9191 282.711 98.2845 280.277C97.6561 277.841 97.0276 275.392 96.3951 272.933C95.1954 268.002 94.016 263.021 92.851 258.018C92.3062 255.508 91.7593 252.993 91.2125 250.477C90.6698 247.959 90.1128 245.441 89.6271 242.909C88.6294 237.851 87.5806 232.801 86.6869 227.743C86.2238 225.217 85.7606 222.697 85.2995 220.183C84.873 217.663 84.4486 215.152 84.0242 212.65C82.3164 202.644 80.878 192.76 79.5333 183.189C78.2744 173.605 77.144 164.332 76.23 155.519C75.273 146.713 74.5426 138.368 73.8856 130.667C72.6511 115.254 72.0227 102.383 71.6901 93.3731C71.5411 88.8659 71.4452 85.3238 71.4269 82.9059C71.4044 81.7062 71.4187 80.7452 71.4167 80.1167C71.4371 79.4924 71.4493 79.17 71.4493 79.17C71.4554 78.9761 71.6187 78.8252 71.8105 78.8333C72.0023 78.8394 72.1512 78.9986 72.1471 79.1883L72.1492 79.2292Z" fill="white"/>
<path d="M407.843 159.273L214.501 163.655C203.835 163.897 195.228 172.455 194.926 183.119L187.006 463.754C186.77 472.1 193.492 478.983 201.841 478.946L423.528 477.952C431.373 477.916 437.663 471.454 437.485 463.61L431.094 181.494C430.809 168.938 420.4 158.99 407.843 159.273Z" fill="#00215B"/>
<path d="M407.268 160.191C380.947 164.369 290.406 177.5 215.209 173.439C211.78 173.254 208.868 175.915 208.763 179.347L200.178 461.247C200.061 465.112 203.084 468.347 206.948 468.488C238.561 469.641 368.746 473.918 415.011 468.009C417.826 467.65 419.916 465.225 419.869 462.386L414.909 166.608C414.84 162.59 411.238 159.561 407.268 160.191Z" fill="white"/>
<path d="M365.277 217.189C365.513 210.295 360.117 204.515 353.222 204.278C346.328 204.041 340.548 209.438 340.311 216.332C340.075 223.226 345.472 229.007 352.366 229.244C359.26 229.48 365.04 224.083 365.277 217.189Z" fill="#93A3C3"/>
<path d="M372.589 252.989L332.805 253.891C330.366 253.945 328.843 251.286 330.11 249.201C333.37 243.836 340.264 235.908 352.517 235.98C364.326 236.052 371.48 242.909 375.111 247.863C376.652 249.964 375.195 252.929 372.589 252.989Z" fill="#93A3C3"/>
<g opacity="0.6">
<path opacity="0.6" d="M229.703 203.823C228.584 203.848 227.671 202.991 227.679 201.919C227.686 200.846 228.607 199.931 229.727 199.887L299.887 197.046C301.007 197 301.639 197.835 301.29 198.9L300.836 200.289C300.488 201.354 299.286 202.246 298.166 202.272L229.703 203.823Z" fill="#00215B"/>
</g>
<g opacity="0.6">
<path opacity="0.6" d="M300.133 207.875C301.252 207.829 301.884 208.664 301.536 209.729L301.082 211.117C300.733 212.182 299.532 213.075 298.412 213.1L229.95 214.652C228.831 214.677 227.918 213.82 227.926 212.747C227.933 211.675 228.854 210.76 229.974 210.715L300.133 207.875Z" fill="#00215B"/>
</g>
<g opacity="0.6">
<path opacity="0.6" d="M300.383 218.863C301.502 218.817 302.134 219.652 301.786 220.717L301.332 222.106C300.983 223.171 299.782 224.064 298.662 224.089L230.2 225.64C229.081 225.665 228.168 224.808 228.176 223.736C228.183 222.663 229.104 221.748 230.224 221.704L300.383 218.863Z" fill="#00215B"/>
</g>
<path d="M254.727 229.52C249.339 229.229 239.262 229.266 233.717 229.315C231.367 229.336 229.343 230.973 228.843 233.27C227.873 237.73 226.572 245.465 226.943 253.622C227.054 256.065 229.099 257.971 231.544 257.89L251.997 257.206C254.513 257.121 256.558 255.152 256.735 252.641L258.098 233.353C258.24 231.358 256.724 229.628 254.727 229.52Z" fill="#93A3C3"/>
<g opacity="0.6">
<path opacity="0.6" d="M267.465 239.026C266.345 239.051 265.421 238.195 265.412 237.123C265.403 236.051 266.311 235.119 267.431 235.054L300.037 233.138C301.155 233.072 301.934 233.925 301.768 235.033L301.585 236.245C301.418 237.353 300.365 238.28 299.245 238.307L267.465 239.026Z" fill="#00215B"/>
</g>
<g opacity="0.6">
<path opacity="0.6" d="M300.406 245.89C301.526 245.865 302.274 246.746 302.066 247.848L301.839 249.052C301.631 250.154 300.544 251.041 299.424 251.027L267.642 250.585C266.52 250.568 265.629 249.68 265.66 248.607C265.691 247.535 266.631 246.639 267.753 246.614L300.406 245.89Z" fill="#00215B"/>
</g>
<g opacity="0.6">
<path opacity="0.6" d="M224.627 278.778C223.507 278.804 222.627 277.946 222.675 276.872C222.721 275.799 223.676 274.892 224.796 274.858L388.585 269.855C389.704 269.821 390.066 270.523 389.388 271.416L387.815 273.486C387.137 274.379 385.666 275.13 384.544 275.155L224.627 278.778Z" fill="#00215B"/>
</g>
<g opacity="0.6">
<path opacity="0.6" d="M388.828 280.685C389.948 280.651 390.31 281.353 389.632 282.246L388.058 284.316C387.381 285.209 385.909 285.96 384.788 285.985L224.869 289.608C223.749 289.634 222.869 288.776 222.917 287.702C222.963 286.629 223.918 285.722 225.038 285.688L388.828 280.685Z" fill="#00215B"/>
</g>
<path d="M389.747 298.757C385.812 298.545 378.454 298.572 374.403 298.607C372.687 298.622 371.208 299.819 370.843 301.495C370.136 304.752 369.185 310.402 369.455 316.359C369.537 318.143 371.03 319.534 372.816 319.475L387.754 318.975C389.59 318.914 391.085 317.474 391.214 315.641L392.209 301.554C392.313 300.098 391.207 298.836 389.747 298.757Z" fill="#93A3C3"/>
<g opacity="0.6">
<path opacity="0.6" d="M362.475 305.14C363.594 305.067 364.393 305.919 364.252 307.03L363.887 309.9C363.746 311.012 362.714 311.942 361.593 311.967L324.847 312.799C323.727 312.825 322.8 311.929 322.79 310.808L322.779 309.738C322.768 308.617 323.674 307.641 324.792 307.57L362.475 305.14Z" fill="#00215B"/>
</g>
<path d="M308.347 300.601C304.412 300.389 297.054 300.416 293.003 300.451C291.287 300.466 289.808 301.663 289.443 303.339C288.736 306.596 287.785 312.246 288.055 318.203C288.136 319.987 289.63 321.378 291.416 321.319L306.353 320.819C308.191 320.758 309.685 319.318 309.814 317.485L310.809 303.398C310.913 301.943 309.806 300.68 308.347 300.601Z" fill="#93A3C3"/>
<g opacity="0.6">
<path opacity="0.6" d="M281.075 306.985C282.193 306.912 282.993 307.763 282.852 308.874L282.487 311.744C282.346 312.857 281.314 313.787 280.192 313.812L243.447 314.644C242.327 314.669 241.4 313.773 241.389 312.652L241.379 311.583C241.367 310.461 242.273 309.485 243.392 309.414L281.075 306.985Z" fill="#00215B"/>
</g>
<g opacity="0.6">
<path opacity="0.6" d="M235.02 350.939C233.9 350.964 233.019 350.107 233.063 349.033C233.108 347.959 234.06 347.053 235.181 347.018L394.27 342.122C395.39 342.088 395.762 342.797 395.096 343.699L393.593 345.732C392.927 346.634 391.466 347.392 390.347 347.417L235.02 350.939Z" fill="#00215B"/>
</g>
<g opacity="0.6">
<path opacity="0.6" d="M394.516 352.953C395.636 352.918 396.008 353.627 395.342 354.529L393.839 356.563C393.173 357.465 391.712 358.223 390.593 358.248L235.266 361.767C234.146 361.793 233.265 360.935 233.309 359.862C233.354 358.788 234.306 357.881 235.427 357.847L394.516 352.953Z" fill="#00215B"/>
</g>
<g opacity="0.6">
<path opacity="0.6" d="M394.764 363.94C395.884 363.906 396.256 364.615 395.59 365.516L394.089 367.55C393.423 368.452 391.962 369.21 390.843 369.235L235.516 372.754C234.396 372.78 233.515 371.922 233.559 370.849C233.604 369.775 234.556 368.868 235.677 368.834L394.764 363.94Z" fill="#00215B"/>
</g>
<path d="M298.544 151.058L320.437 148.614L321.825 128.451C322.104 124.394 319.492 120.686 315.566 119.624C311.263 118.459 305.188 118.501 298.314 123.517C284.833 133.356 298.544 151.058 298.544 151.058ZM302.734 134.186C302.666 131.165 305.06 128.661 308.08 128.593C311.101 128.525 313.605 130.919 313.673 133.939C313.742 136.96 311.348 139.464 308.328 139.532C305.308 139.6 302.803 137.208 302.734 134.186Z" fill="#00215B"/>
<path d="M318.006 140.198C317.714 140.177 317.495 139.925 317.514 139.633L317.735 136.421C317.754 136.129 318.002 135.908 318.3 135.929C318.592 135.95 318.812 136.202 318.793 136.494L318.572 139.705C318.552 139.981 318.327 140.192 318.055 140.199C318.039 140.199 318.023 140.199 318.006 140.198ZM318.44 133.906C318.147 133.885 317.928 133.633 317.947 133.341L318.115 130.902C318.346 127.54 316.166 124.464 312.931 123.588C310.464 122.921 307.937 122.875 305.418 123.451C305.131 123.514 304.849 123.338 304.785 123.053C304.72 122.768 304.898 122.483 305.182 122.418C307.872 121.803 310.571 121.852 313.208 122.567C316.93 123.574 319.438 127.11 319.172 130.975L319.005 133.413C318.985 133.689 318.76 133.9 318.489 133.907C318.472 133.907 318.456 133.907 318.44 133.906Z" fill="#91B3FA"/>
<path d="M350.673 160.94L350.443 150.822C350.364 147.329 347.405 144.599 343.918 144.798L274.223 148.768C271.13 148.945 268.678 151.444 268.563 154.541L268.199 164.275L350.673 160.94Z" fill="#00215B"/>
<path d="M324.381 149.054L327.38 148.985C327.673 148.979 327.904 148.736 327.898 148.444C327.892 148.152 327.649 147.92 327.357 147.926L324.358 147.995C324.065 148.001 323.834 148.244 323.84 148.536C323.847 148.83 324.089 149.061 324.381 149.054Z" fill="#91B3FA"/>
<path d="M346.826 157.848C347.118 157.842 347.35 157.599 347.344 157.307L347.25 153.215C347.179 150.053 344.548 147.538 341.385 147.61L330.358 147.859C330.065 147.865 329.834 148.108 329.84 148.4C329.846 148.692 330.089 148.924 330.381 148.918L341.409 148.669C343.987 148.611 346.133 150.661 346.191 153.238L346.285 157.331C346.29 157.624 346.534 157.856 346.826 157.848Z" fill="#91B3FA"/>
<path d="M372.444 156.741L250.472 159.502C246.086 159.601 242.407 162.842 241.758 167.18L241.667 167.78C240.955 172.532 244.697 176.778 249.502 176.67L374.637 173.836C377.512 173.77 379.749 171.314 379.545 168.447L379.149 162.852C378.903 159.35 375.952 156.663 372.444 156.741Z" fill="#00215B"/>
<path d="M298.245 379.588L293.126 481.49H260.691H258.678L261.495 379.648H263.121V379.588H298.245Z" fill="#7D2D45"/>
<path d="M212.257 360.988L211.364 374.52H207.625L207.992 360.988H209.906H212.257Z" fill="#7D2D45"/>
<path d="M300 374.521L299.881 379.588H298.244H263.121L263.25 374.521H300Z" fill="#A97996"/>
<path d="M214.023 356L213.457 360.988H212.257H209.906L209.986 356H214.023Z" fill="#A97996"/>
<path d="M256.267 379.647L256.307 386.106H254.065L253.222 379.647H256.267ZM246.021 379.647L246.864 386.106H249.096L249.056 379.647H246.021ZM238.81 379.647L239.653 386.106H241.895L241.845 379.647H238.81ZM231.609 379.647L232.452 386.106H234.684L234.644 379.647H231.609ZM224.398 379.647L225.241 386.106H227.482L227.433 379.647H224.398ZM217.187 379.647L218.04 386.106H220.271L220.232 379.647H217.187ZM209.985 379.647L210.828 386.106H213.07L213.021 379.647H209.985Z" fill="url(#paint1_linear)"/>
<path d="M84.8076 379.647L84.8572 386.106H82.6155L81.7724 379.647H84.8076ZM73.6388 379.647L74.4819 386.106H76.7137L76.674 379.647H73.6388ZM65.4953 379.647L66.3384 386.106H68.5801L68.5405 379.647H65.4953ZM57.3618 379.647L58.2049 386.106H60.4466L60.397 379.647H57.3618ZM49.2282 379.647L50.0713 386.106H52.3031L52.2634 379.647H49.2282ZM41.0847 379.647L41.9278 386.106H44.1695L44.1299 379.647H41.0847ZM32.9512 379.647L33.7943 386.106H36.036L35.9864 379.647H32.9512Z" fill="url(#paint2_linear)"/>
<path d="M207.625 374.521H211.364H263.25L263.121 379.588V379.647H261.495H256.267H253.222H249.056H246.021H241.845H238.81H234.644H231.609H227.433H224.398H220.232H217.187H213.021H209.985H206.573L205.621 374.521H207.625Z" fill="url(#paint3_linear)"/>
<path d="M209.985 356L209.906 360.988H207.992H88.2001H86.4543L86.375 356H209.985Z" fill="url(#paint4_linear)"/>
<path d="M90.908 374.521L90.1442 379.588H28.349H27.119L27 374.521H86.6726H88.7952H90.908Z" fill="url(#paint5_linear)"/>
<path d="M31.5624 481.49H258.677H260.691L259.986 511H207.535H88.8246H30.2531L29.5488 481.49H31.5624Z" fill="#265397"/>
<path d="M81.7722 379.647L82.6154 386.106H84.857L84.8074 379.647H81.7722ZM57.3616 379.647L58.2048 386.106H60.4464L60.3968 379.647H57.3616ZM65.4952 379.647L66.3383 386.106H68.58L68.5403 379.647H65.4952ZM73.6387 379.647L74.4818 386.106H76.7136L76.6739 379.647H73.6387ZM32.951 379.647L33.7942 386.106H36.0358L35.9862 379.647H32.951ZM41.0846 379.647L41.9277 386.106H44.1694L44.1297 379.647H41.0846ZM49.2281 379.647L50.0712 386.106H52.303L52.2633 379.647H49.2281ZM28.3486 379.588H90.1439L90.9076 374.52H88.7949L88.1997 360.988H207.991L207.624 374.52H205.621L206.573 379.647H209.985L210.828 386.106H213.07L213.02 379.647H217.186L218.039 386.106H220.271L220.231 379.647H224.397L225.24 386.106H227.482L227.432 379.647H231.608L232.451 386.106H234.683L234.643 379.647H238.809L239.653 386.106H241.894L241.845 379.647H246.021L246.864 386.106H249.095L249.056 379.647H253.222L254.065 386.106H256.307L256.267 379.647H261.494L258.677 481.49H31.5624L28.3486 379.588Z" fill="url(#paint6_linear)"/>
<path d="M151.344 440.276L151.017 437.047L157.881 437.137L157.752 440.227L151.344 440.276ZM142.11 386.901L135.454 386.811L135.772 389.941L141.991 389.891L142.11 386.901ZM134.214 404.805L140.741 404.755L140.88 401.606L133.887 401.516L134.214 404.805ZM149.648 367.098L149.976 370.347L156.423 370.298L156.552 367.188L149.648 367.098ZM156.75 390.517L156.879 387.467L150.114 387.378L150.432 390.557L156.75 390.517ZM212.981 443.307L205.8 443.217L206.137 446.596L212.842 446.546L212.981 443.307ZM168.455 393.309L160.758 393.21L161.125 396.827L168.306 396.777L168.455 393.309ZM159.895 457.684L167.383 457.624L167.542 454.008L159.518 453.898L159.895 457.684ZM145.264 405.898L137.845 405.799L138.192 409.286L145.125 409.237L145.264 405.898ZM121.964 431.592L122.103 428.373L114.962 428.284L115.299 431.642L121.964 431.592ZM133.996 438.239L141.207 438.19L141.356 434.712L133.639 434.613L133.996 438.239ZM121.072 423.355L121.22 419.868L113.474 419.769L113.841 423.405L121.072 423.355ZM126.17 472.012L126.319 468.544L118.622 468.445L118.989 472.061L126.17 472.012ZM211.245 464.699L211.394 461.142L203.479 461.042L203.855 464.758L211.245 464.699ZM115.418 375.832L122.649 375.782L122.798 372.295L115.051 372.196L115.418 375.832ZM113.256 382.569L120.615 382.519L120.764 378.972L112.879 378.872L113.256 382.569ZM188.074 407.11L193.52 407.071L193.649 404.07L186.983 403.98L187.182 405.928L180.467 405.838L180.834 409.435L187.985 409.386L188.074 407.11ZM187.023 393.955L179.494 393.856L179.852 397.393L186.884 397.343L187.023 393.955ZM184.355 416.341L176.935 416.241L177.283 419.729L184.206 419.679L184.355 416.341ZM133.461 450.719L125.426 450.61L125.803 454.385L133.302 454.326L133.461 450.719ZM200.543 421.915L200.572 421.309L203.568 421.289L203.707 417.911L196.208 417.811L196.317 418.845L193.976 418.815L194.294 421.954L200.543 421.915ZM182.897 464.093L183.036 460.834L175.795 460.734L176.142 464.142L182.897 464.093ZM207.833 416.072L215.342 416.013L215.5 412.386L207.456 412.277L207.833 416.072ZM169.417 405.62L176.677 405.57L176.826 402.073L169.05 401.973L169.417 405.62ZM208.498 456.829L208.627 453.7L201.683 453.61L202.011 456.879L208.498 456.829ZM176.43 368.072L169.129 367.973L169.476 371.401L176.291 371.351L176.43 368.072ZM187.797 457.465L194.472 457.416L194.611 454.196L187.459 454.107L187.797 457.465ZM202.278 425.988L194.601 425.889L194.968 429.496L202.14 429.446L202.278 425.988ZM195.057 449.238L187.529 449.139L187.886 452.676L194.909 452.627L195.057 449.238ZM193.272 439.77L193.421 436.381L185.892 436.282L186.249 439.819L193.272 439.77ZM187.618 413.896L187.936 417.076L194.264 417.026L194.393 413.976L187.618 413.896ZM196.099 396.29L196.466 399.907L203.657 399.857L203.806 396.389L196.099 396.29ZM189.384 379.131L196.922 379.071L197.081 375.435L189.007 375.325L189.384 379.131ZM118.096 395.754L124.752 395.704L124.891 392.495L117.769 392.405L118.096 395.754ZM29.9957 431.791L32.1183 431.771L32.2473 428.751L29.8965 428.721L29.9957 431.791ZM31.791 456.452L31.9299 453.272L30.6702 453.253L30.7694 456.452H31.791ZM74.879 428.065L75.0179 424.816L67.8068 424.727L68.1441 428.115L74.879 428.065ZM45.2709 445.324L52.1051 445.274L52.2439 441.975L44.9237 441.876L45.2709 445.324ZM41.9877 466.487L42.1365 462.95L34.2708 462.851L34.6477 466.547L41.9877 466.487ZM43.0094 410.389L35.9768 410.3L36.3141 413.608L42.8804 413.559L43.0094 410.389ZM242.589 408.74L249.77 408.69L249.919 405.222L242.222 405.123L242.589 408.74ZM40.8966 437.305L34.1616 437.216L34.4791 440.386L40.7677 440.336L40.8966 437.305ZM230.19 391.849L237.263 391.799L237.411 388.391L229.833 388.292L230.19 391.849ZM254.561 445.503L247.053 445.403L247.41 448.93L254.413 448.881L254.561 445.503ZM250.068 466.338L250.217 462.89L242.559 462.791L242.926 466.388L250.068 466.338ZM233.553 403.971L240.635 403.921L240.784 400.503L233.196 400.404L233.553 403.971ZM234.813 436.6L235.16 440.038L241.994 439.988L242.133 436.689L234.813 436.6ZM235.606 472.816L241.925 472.767L242.053 469.716L235.289 469.627L235.606 472.816ZM228.951 428.035L229.318 431.702L236.588 431.652L236.737 428.145L228.951 428.035ZM243.879 423.574L236.866 423.485L237.193 426.783L243.74 426.734L243.879 423.574ZM37.6432 396.26L37.7722 393.23L31.0471 393.14L31.3645 396.3L37.6432 396.26ZM91.3148 436.54L91.4437 433.53L84.7583 433.44L85.0757 436.58L91.3148 436.54ZM94.6277 408.074L87.8828 407.985L88.2002 411.154L94.4988 411.104L94.6277 408.074ZM83.1614 428.423L76.3669 428.333L76.6843 431.533L83.0324 431.483L83.1614 428.423ZM84.8377 383.97L89.6782 383.93L89.817 380.611L84.8179 380.542L84.8377 383.97ZM111.401 386.424L104.358 386.334L104.695 389.643L111.272 389.593L111.401 386.424ZM73.1135 400.145L79.5806 400.096L79.7096 396.976L72.7861 396.886L73.1135 400.145ZM81.2867 451.593L81.4156 448.454L74.4525 448.364L74.7799 451.643L81.2867 451.593ZM83.7069 459.939L83.7169 459.999L90.2931 459.949L90.432 456.78L83.3796 456.69L83.3895 456.8L81.6239 456.78L81.9414 459.959L83.7069 459.939ZM71.6554 415.357L78.559 415.307L78.6978 411.979L71.2983 411.879L71.6554 415.357ZM103.426 463.159L103.555 460.079L96.7107 459.989L97.038 463.208L103.426 463.159ZM109.119 436.759L102.285 436.67L102.613 439.879L108.99 439.829L109.119 436.759ZM96.0561 476.989L96.2048 473.442L88.3193 473.343L88.6962 477.049L96.0561 476.989ZM97.415 419.103L103.922 419.053L104.051 415.913L97.0777 415.824L97.415 419.103ZM98.9226 451.087L92.0785 450.997L92.4059 454.216L98.7937 454.167L98.9226 451.087ZM96.8297 404.279L103.049 404.229L103.178 401.228L96.5222 401.139L96.8297 404.279ZM105.856 370.318L98.1093 370.218L98.4763 373.855L105.707 373.805L105.856 370.318Z" fill="url(#paint7_linear)"/>
<path d="M172.333 469.756L171.49 416.391H184.92L184.077 469.756H172.333ZM181.389 467.024L182.143 419.133H174.267L175.021 467.024H181.389ZM140.255 469.756L139.412 416.391H152.832L151.999 469.756H140.255ZM149.311 467.024L150.065 419.133H142.189L142.943 467.024H149.311ZM108.177 469.756L107.334 416.391H120.754L119.921 469.756H108.177ZM117.233 467.024L117.987 419.133H110.111L110.865 467.024H117.233ZM171.49 416.351L171.182 396.608H185.228L184.92 416.351H171.49ZM182.232 413.618L182.46 399.341H173.95L174.178 413.618H182.232ZM139.412 416.351L139.104 396.608H153.15L152.842 416.351H139.412ZM150.154 413.618L150.382 399.341H141.872L142.1 413.618H150.154ZM107.334 416.351L107.026 396.608H121.072L120.764 416.351H107.334ZM118.076 413.618L118.304 399.341H109.794L110.022 413.618H118.076Z" fill="#7D2D45"/>
<path d="M171.331 469.756L170.488 416.391H183.918L183.075 469.756H171.331ZM180.387 467.024L181.141 419.133H173.265L174.019 467.024H180.387ZM139.253 469.756L138.41 416.391H151.83L150.987 469.756H139.253ZM148.309 467.024L149.063 419.133H141.187L141.941 467.024H148.309ZM107.175 469.756L106.332 416.391H119.752L118.919 469.756H107.175ZM116.231 467.024L116.985 419.133H109.109L109.863 467.024H116.231ZM170.488 416.351L170.18 396.608H184.226L183.918 416.351H170.488ZM181.23 413.618L181.458 399.341H172.948L173.176 413.618H181.23ZM138.41 416.351L138.092 396.608H152.138L151.83 416.351H138.41ZM149.152 413.618L149.38 399.341H140.87L141.098 413.618H149.152ZM106.332 416.351L106.024 396.608H120.07L119.762 416.351H106.332ZM117.074 413.618L117.302 399.341H108.792L109.02 413.618H117.074Z" fill="url(#paint8_linear)"/>
<path d="M182.202 414.612L182.46 398.347H171.936L172.194 414.612H182.202ZM183.214 397.602L182.936 415.357H171.46L171.182 397.602H183.214ZM150.124 414.612L150.382 398.347H139.858L140.116 414.612H150.124ZM151.136 397.602L150.858 415.357H139.382L139.104 397.602H151.136ZM118.046 414.612L118.304 398.347H107.78L108.038 414.612H118.046ZM119.058 397.602L118.78 415.357H107.304L107.026 397.602H119.058ZM181.359 468.017L182.143 418.139H172.254L173.037 468.017H181.359ZM182.907 417.384L182.093 468.762H172.303L171.49 417.384H182.907ZM149.281 468.017L150.065 418.139H140.176L140.959 468.017H149.281ZM150.819 417.384L150.015 468.762H140.225L139.412 417.384H150.819ZM117.203 468.017L117.987 418.139H108.098L108.881 468.017H117.203ZM118.741 417.384L117.937 468.762H108.147L107.334 417.384H118.741Z" fill="#42A4B8"/>
<path d="M117.987 418.139L117.203 468.017H108.881L108.098 418.139H117.987ZM107.78 398.347L108.038 414.612H118.046L118.304 398.347H107.78ZM140.176 418.139L140.959 468.017H149.281L150.065 418.139H140.176ZM139.858 398.347L140.116 414.612H150.124L150.382 398.347H139.858ZM171.936 398.347L172.194 414.612H182.202L182.46 398.347H171.936ZM172.254 418.139L173.037 468.017H181.359L182.143 418.139H172.254Z" fill="#9ECFFF"/>
<path d="M177.57 407.587L177.56 398.347H177.064L177.074 407.587H172.085L172.095 408.084H177.074V414.612H177.57V408.084H182.302L182.311 407.587H177.57Z" fill="#42A4B8"/>
<path d="M181.944 430.688L177.57 430.907V418.139H177.074V430.937L172.462 431.175V431.672L177.074 431.433L177.084 447.41H172.71L172.72 447.907H177.084L177.094 468.017H177.59L177.58 447.907H181.677L181.687 447.41H177.58L177.57 431.404L181.935 431.185L181.944 430.688Z" fill="#42A4B8"/>
<path d="M150.233 407.587H145.244L145.254 398.347H144.758L144.748 407.587H140.007L140.017 408.084H144.748V414.612H145.244V408.084H150.223L150.233 407.587Z" fill="#42A4B8"/>
<path d="M118.145 408.084L118.155 407.587H113.285V398.347H112.789V407.587H107.929L107.939 408.084H112.789L112.799 414.612H113.295L113.285 408.084H118.145Z" fill="#42A4B8"/>
<path d="M145.244 418.139H144.748V430.907L140.374 430.688L140.384 431.185L144.748 431.404L144.738 447.41H140.632L140.642 447.907H144.738L144.728 468.017H145.224L145.234 447.907H149.599L149.609 447.41H145.234L145.244 431.433L149.857 431.672V431.175L145.244 430.937V418.139Z" fill="#42A4B8"/>
<path d="M117.788 430.678L113.295 430.907V418.139H112.799V430.937L108.306 431.165V431.662L112.799 431.433L112.809 447.41H108.554L108.564 447.907H112.809L112.819 468.017H113.315L113.305 447.907H117.52L117.53 447.41H113.305L113.295 431.404L117.778 431.175L117.788 430.678Z" fill="#42A4B8"/>
<path d="M90.1439 379.588H28.3486L28.3982 381.237L34.5182 381.337L35.1431 386.106H37.3848L37.3551 381.386L42.6716 381.466L43.2767 386.106H45.5184L45.4886 381.506L50.835 381.595L51.4202 386.106H53.6519L53.6222 381.635L58.9784 381.724L59.5537 386.106H61.7954L61.7657 381.764L67.1318 381.853L67.6873 386.106H69.929L69.9091 381.893L75.2952 381.982L75.8308 386.106H78.0625L78.0427 382.022L83.4486 382.102L83.9643 386.106H86.206L86.1763 382.151L90.1439 382.211V379.588Z" fill="#C7919A"/>
<path d="M261.495 379.588H206.554L206.603 381.237L212.039 381.337L212.594 386.106H214.588L214.558 381.386L219.29 381.466L219.825 386.106H221.819L221.799 381.506L226.54 381.595L227.066 386.106H229.05L229.03 381.635L233.791 381.724L234.297 386.106H236.291L236.261 381.764L241.032 381.853L241.528 386.106H243.522L243.502 381.893L248.293 381.982L248.769 386.106H250.753L250.733 382.022L255.534 382.102L256 386.106H257.994L257.964 382.151L261.495 382.211V379.588Z" fill="#C7919A"/>
<path d="M88.2002 360.988H207.992V365.26L88.2895 363.124L88.2002 360.988Z" fill="#C7919A"/>
<path d="M29.7373 486.16L33.8041 486.587L29.7472 486.925L29.7373 486.16Z" fill="#E8A699"/>
<path d="M29.7969 489.677L33.8141 490.045L29.8068 490.403L29.7969 489.677Z" fill="#E8A699"/>
<path d="M29.8467 493.195L33.8242 493.513L29.8566 493.87L29.8467 493.195Z" fill="#E8A699"/>
<path d="M29.9062 496.712L33.8342 496.97L29.9162 497.338L29.9062 496.712Z" fill="#E8A699"/>
<path d="M29.9658 500.219L33.8441 500.438L29.9757 500.815L29.9658 500.219Z" fill="#E8A699"/>
<path d="M30.0254 503.737L33.8541 503.896L30.0254 504.283V503.737Z" fill="#E8A699"/>
<path d="M30.0742 507.254L33.8633 507.363L30.0841 507.751L30.0742 507.254Z" fill="#E8A699"/>
<path d="M295.14 481.49L294.436 511H259.987L260.692 481.49H293.127H295.14Z" fill="#0B1E3C"/>
<path d="M185.019 484.531L184.434 502.246H174.554L174.128 484.531H185.019ZM148.646 484.531V502.246H158.932L159.537 484.531H148.646ZM135.027 484.531L136.049 502.246H145.918V484.531H135.027ZM107.621 484.531L108.633 502.246H118.502V484.531H107.621Z" fill="#A7D3FF"/>
<path d="M118.503 503.429L109.387 504.025L109.179 509.857L108.802 503.429H118.503Z" fill="#AD522F"/>
<path d="M145.919 503.429L136.803 504.025L136.595 509.857L136.218 503.429H145.919Z" fill="#AD522F"/>
<path d="M158.357 503.429L149.232 504.025L149.023 509.857L148.646 503.429H158.357Z" fill="#AD522F"/>
<path d="M147.555 482.842H146.881V511H147.555V482.842Z" fill="#AD522F"/>
<path d="M184.394 503.429L175.259 504.025L174.852 509.857L174.684 503.429H184.394Z" fill="#AD522F"/>
<path d="M186.844 482.842L185.952 511H173.037L172.66 482.842H186.844ZM184.434 502.247L185.019 484.531H174.128L174.555 502.247H184.434ZM175.259 504.025L184.394 503.429H174.684L174.852 509.857L175.259 504.025Z" fill="url(#paint9_linear)"/>
<path d="M146.881 482.842V511H135.057L133.748 482.842H146.881ZM145.919 502.247V484.531H135.028L136.049 502.247H145.919ZM136.803 504.025L145.919 503.429H136.218L136.595 509.857L136.803 504.025Z" fill="url(#paint10_linear)"/>
<path d="M160.846 482.842L160.211 511H147.555V482.842H160.846ZM158.932 502.247L159.537 484.531H148.646V502.247H158.932ZM149.231 504.025L158.356 503.429H148.646L149.023 509.857L149.231 504.025Z" fill="url(#paint11_linear)"/>
<path d="M120.278 482.842L120.318 511H107.403L106.094 482.842H120.278ZM118.502 502.247V484.531H107.621L108.633 502.247H118.502ZM109.387 504.025L118.502 503.429H108.802L109.179 509.857L109.387 504.025Z" fill="url(#paint12_linear)"/>
<path d="M209.906 385.172H207.694H204.401L138.301 359.169L152.743 360.988L209.906 385.172Z" fill="#A97996"/>
<path d="M198.132 389.315L198.261 387.288H199.551V385.172H204.401H207.694L207.377 387.387H205.621L205.284 392.653H200.642H197.924L198.132 389.315Z" fill="#A97996"/>
<path d="M204.401 385.172H199.55L138.301 361.961L82.4965 385.172H78.4297L138.301 359.169L204.401 385.172Z" fill="url(#paint13_linear)"/>
<path d="M200.641 392.653L199.59 396.588H198.677H197.378L196.833 394.094L185.892 393.428L185.684 392.653H197.924H200.641Z" fill="#E8A699"/>
<path d="M200.136 474.336L199.907 476.115H198.955H88.1999H87.2477L87.0195 474.336H89.1422H101.104H121.815H133.788H154.498H166.461H187.181H199.144H200.136Z" fill="url(#paint14_linear)"/>
<path d="M199.55 385.172V387.288H198.26H83.7856H82.4961V385.172H84.4898L138.3 363.67L196.356 385.172H199.55ZM189.294 385.172H190.266L138.766 365.26L87.7829 385.172H90.9074L139.024 366.403L189.294 385.172Z" fill="url(#paint15_linear)"/>
<path d="M199.55 385.172H196.356L138.3 363.67L84.4898 385.172H82.4961L138.3 361.961L199.55 385.172Z" fill="#E8A699"/>
<path d="M198.301 471.256L199.144 474.336H187.182L187.33 473.79L196.704 473.323V471.256H197.726H198.301Z" fill="#E8A699"/>
<path d="M198.955 476.115L198.886 477.606L88.2399 476.92L88.2002 476.115H198.955Z" fill="#E8A699"/>
<path d="M198.885 477.606L197.298 511H185.951L186.844 482.842H172.66L173.037 511H160.211L160.846 482.842H147.555H146.88H133.748L135.057 511H120.317L120.278 482.842H106.093L107.403 511H89.856L88.2393 476.92L198.885 477.606Z" fill="url(#paint16_linear)"/>
<path d="M198.678 396.588L198.559 406.226L196.773 405.083L195.9 471.256H195.484L195.831 404.477L193.639 403.066L193.371 471.256H192.954L192.677 402.45L190.425 401L190.951 471.256H190.524L189.443 400.364L187.667 399.231L187.638 396.588H197.378H198.678Z" fill="#E8A699"/>
<path d="M198.559 406.226L197.725 471.256H196.704H195.9L196.773 405.083L198.559 406.226Z" fill="#E8A699"/>
<path d="M198.261 387.288L198.132 389.315L83.8456 388.311L83.7861 387.288H198.261Z" fill="#E8A699"/>
<path d="M198.132 389.315L197.924 392.654H185.684H167.959H153.001H135.286H120.318H102.602H87.6447H84.1234L83.8457 388.312L198.132 389.315Z" fill="url(#paint17_linear)"/>
<path d="M196.832 394.094L197.378 396.588H187.637H186.735L185.892 393.428L196.832 394.094ZM195.9 471.256H195.483H193.371H192.954H190.95H190.524H188.59H188.014L187.33 473.79L196.703 473.323V471.256H195.9ZM193.638 403.066L193.371 471.256H195.483L195.83 404.477L193.638 403.066ZM190.425 401L190.95 471.256H192.954L192.676 402.45L190.425 401ZM187.667 399.231L188.59 471.256H190.524L189.443 400.364L187.667 399.231Z" fill="url(#paint18_linear)"/>
<path d="M190.266 385.172H189.294L139.025 366.403L90.9077 385.172H87.7832L138.767 365.26L190.266 385.172Z" fill="#E8A699"/>
<path d="M167.959 392.653L166.907 396.588H166.005H164.705L164.15 394.094L153.209 393.428L153.001 392.653H167.959Z" fill="#E8A699"/>
<path d="M165.627 471.256L166.46 474.336H154.498L154.647 473.79L164.03 473.323V471.256H165.052H165.627Z" fill="#E8A699"/>
<path d="M166.004 396.588L165.052 471.256H164.03H163.227L164.09 405.083L165.875 406.226L166.004 396.588Z" fill="#E8A699"/>
<path d="M166.005 396.588L165.876 406.226L164.09 405.083L163.227 471.256H162.801L163.158 404.477L160.956 403.066L160.698 471.256H160.272L160.004 402.45L157.742 401L158.268 471.256H157.851L156.76 400.364L154.995 399.231L154.965 396.588H164.705H166.005Z" fill="#E8A699"/>
<path d="M164.15 394.094L164.705 396.588H154.965H154.052L153.209 393.428L164.15 394.094ZM163.227 471.256H162.801H160.698H160.271H158.268H157.851H155.917H155.342L154.647 473.79L164.031 473.323V471.256H163.227ZM160.956 403.066L160.698 471.256H162.801L163.158 404.477L160.956 403.066ZM157.742 401L158.268 471.256H160.271L160.003 402.45L157.742 401ZM154.994 399.231L155.917 471.256H157.851L156.76 400.364L154.994 399.231Z" fill="url(#paint19_linear)"/>
<path d="M135.285 392.653L134.234 396.588H133.321H132.022L131.476 394.094L120.526 393.428L120.317 392.653H135.285Z" fill="#E8A699"/>
<path d="M132.945 471.256L133.788 474.336H121.815L121.964 473.79H121.974L131.348 473.323V471.256H132.369H132.945Z" fill="#E8A699"/>
<path d="M133.321 396.588L133.202 406.226L131.407 405.083L130.544 471.256H130.127L130.474 404.477L128.272 403.066L128.014 471.256H127.588L127.32 402.45L125.068 401L125.594 471.256H125.168L124.087 400.364L122.311 399.231L122.281 396.588H132.022H133.321Z" fill="#E8A699"/>
<path d="M133.202 406.226L132.369 471.256H131.347H130.544L131.407 405.083L133.202 406.226Z" fill="#E8A699"/>
<path d="M131.476 394.094L132.021 396.588H122.281H121.369L120.525 393.428L131.476 394.094ZM130.544 471.256H130.127H128.014H127.588H125.594H125.167H123.233H122.658L121.964 473.79H121.974L131.347 473.323V471.256H130.544ZM128.272 403.066L128.014 471.256H130.127L130.474 404.477L128.272 403.066ZM125.068 401L125.594 471.256H127.588L127.32 402.45L125.068 401ZM122.311 399.231L123.233 471.256H125.167L124.086 400.364L122.311 399.231Z" fill="url(#paint20_linear)"/>
<path d="M102.602 392.653L101.551 396.588H100.638H99.3489L98.7935 394.094L87.8528 393.428L87.6445 392.653H102.602Z" fill="#E8A699"/>
<path d="M100.262 471.256L101.105 474.336H89.1426L89.2914 473.79L98.6648 473.323V471.256H99.6964H100.262Z" fill="#E8A699"/>
<path d="M100.638 396.588L100.519 406.226L98.7339 405.083L97.8709 471.256H97.4444L97.8015 404.477L95.5995 403.066L95.3316 471.256H94.9151L94.6373 402.45L92.3857 401L92.9114 471.256H92.4849L91.4037 400.364L89.6382 399.231L89.6084 396.588H99.3488H100.638Z" fill="#E8A699"/>
<path d="M100.519 406.226L99.6962 471.256H98.6646H97.8711L98.734 405.083L100.519 406.226Z" fill="#E8A699"/>
<path d="M98.7932 394.094L99.3486 396.588H89.6082H88.6957L87.8525 393.428L98.7932 394.094ZM97.8707 471.256H97.4442H95.3314H94.9148H92.9112H92.4847H90.5604H89.9851L89.2908 473.79L98.6642 473.323V471.256H97.8707ZM95.5993 403.066L95.3314 471.256H97.4442L97.8013 404.477L95.5993 403.066ZM92.3855 401L92.9112 471.256H94.9148L94.6371 402.45L92.3855 401ZM89.638 399.231L90.5604 471.256H92.4847L91.4035 400.364L89.638 399.231Z" fill="url(#paint21_linear)"/>
<path d="M159.289 491.844L159.308 491.347H154.408L154.508 484.531H154.012L153.912 491.347H148.646V491.844H153.903L153.823 497.428H148.646V497.924H153.813L153.754 502.246H154.25L154.309 497.924H159.08L159.1 497.428H154.319L154.399 491.844H159.289Z" fill="#AD522F"/>
<path d="M184.79 491.347H179.741L179.523 484.531H179.027L179.245 491.347H174.296L174.306 491.844H179.255L179.434 497.428H174.435L174.455 497.924H179.454L179.583 502.246H180.079L179.95 497.924H184.572L184.592 497.428H179.93L179.751 491.844H184.78L184.79 491.347Z" fill="#AD522F"/>
<path d="M118.502 491.347H113.523L113.314 484.531H112.819L113.027 491.347H108.008L108.038 491.844H113.047L113.225 497.428H108.355L108.385 497.924H113.235L113.374 502.246H113.87L113.731 497.924H118.502V497.428H113.721L113.543 491.844H118.502V491.347Z" fill="#AD522F"/>
<path d="M145.918 491.347H140.73L140.522 484.531H140.026L140.235 491.347H135.424L135.444 491.844H140.244L140.413 497.428H135.771L135.801 497.924H140.433L140.562 502.246H141.058L140.929 497.924H145.918V497.428H140.909L140.74 491.844H145.918V491.347Z" fill="#AD522F"/>
<path d="M107.403 511L106.094 482.842H105.191L106.649 511H107.403Z" fill="#E8A699"/>
<path d="M133.748 482.842L135.057 511H133.788L132.607 482.842H133.748Z" fill="#E8A699"/>
<path d="M172.66 482.842L173.037 511H172.253L171.489 482.842H172.66Z" fill="#E8A699"/>
<path d="M198.945 482.096L191.863 482.474L198.945 482.841V482.096Z" fill="#E8A699"/>
<path d="M198.608 487.243L191.833 487.611L198.608 487.988V487.243Z" fill="#E8A699"/>
<path d="M198.271 492.38L191.794 492.757L198.271 493.125V492.38Z" fill="#E8A699"/>
<path d="M197.933 497.527L191.764 497.894L197.933 498.272V497.527Z" fill="#E8A699"/>
<path d="M197.597 502.673L191.725 503.041L197.597 503.419V502.673Z" fill="#E8A699"/>
<path d="M197.259 507.81L191.685 508.188L197.259 508.555V507.81Z" fill="#E8A699"/>
<path d="M204.401 474.336L204.024 476.115H203.26L201.485 511H197.299L198.886 477.605L198.955 476.115H199.908L200.136 474.336H204.401Z" fill="#A97996"/>
<path d="M88.5171 482.812L95.0041 482.464L88.4873 482.126L88.5171 482.812Z" fill="#E8A699"/>
<path d="M88.9736 492.4L89.0034 493.105L95.0738 492.758L88.9736 492.4Z" fill="#E8A699"/>
<path d="M88.7256 487.263L88.7653 487.958L95.0341 487.61L88.7256 487.263Z" fill="#E8A699"/>
<path d="M89.707 507.82L89.7368 508.546L95.1724 508.188L89.707 507.82Z" fill="#E8A699"/>
<path d="M89.2217 497.546L89.2514 498.252L95.1036 497.894L89.2217 497.546Z" fill="#E8A699"/>
<path d="M89.459 502.683L89.4987 503.398L95.1426 503.041L89.459 502.683Z" fill="#E8A699"/>
<path d="M197.299 510.304L187.201 509.976V509.857L187.876 482.196L182.351 480.834L182.767 478.142L176.37 478.023L176.816 481.033L170.339 482.196L171.162 509.976H161.283V509.847L162.483 481.49L150.66 480.159L151.314 477.724H142.705L143.27 480.02L131.218 482.225L132.736 509.976H121.686L122.331 481.599L115.239 480.725L115.556 478.4H110.716L111.023 480.785L103.168 482.225L105.32 509.589L89.8265 510.304L89.8066 510.056L105.052 509.36L102.91 482.027L110.746 480.586L110.428 478.152H115.844L115.527 480.507L122.589 481.381V481.49L121.944 509.728H132.478L130.951 482.027L131.06 482.007L142.962 479.821L142.387 477.476H151.632L150.977 479.94L162.741 481.272L161.541 509.728H170.904L170.081 481.997L176.528 480.834L176.082 477.764L183.045 477.893L182.638 480.656L188.133 481.997L188.124 482.096L187.459 509.738L197.299 510.056V510.304Z" fill="#E8A699"/>
<path d="M344.93 536.036C343.738 530.571 331.625 528.966 316.189 531.96C321.686 530.108 329.238 525.89 333.148 523.961L330.473 522.282L335.846 522.529C340.24 519.993 342.436 517.499 341.003 515.243C339.932 513.559 337.579 512.857 334.389 512.866L332.71 515.831L333.059 512.908C325.017 513.366 323.192 512.071 312.346 516.397C319.123 512.926 320.105 511.849 320.548 510.454L316.877 508.869H321.179C324.657 505.179 330.174 497.876 327.885 494.51C325.996 491.732 317.707 495.587 312.415 497.589L310.166 502.589L310.621 498.319C293.797 505.549 299.498 499.748 299.498 499.748C299.498 499.748 317.062 463.903 306.714 464.71C302.628 465.028 298.237 467.457 293.924 471.348L293.815 474.91L292.531 472.649C289.389 475.689 286.277 479.367 283.308 483.318C287.336 474.973 290.388 466.778 290.694 460.676L287.619 460.31L290.653 458.228C290.368 455.146 289.13 452.814 286.622 451.581C282.776 449.689 278.739 452.55 274.763 458.236L275.745 463.366L273.28 460.492C259.048 483.375 246.034 539.715 246.034 539.715L245 542.771L286.812 544.808C286.812 544.808 347.34 547.075 344.93 536.036Z" fill="#50BFA5"/>
<path d="M23.8045 487.101L23.4897 489.47L22.734 486.729C20.6102 486.048 18.767 485.816 17.3072 486.153C4.24671 489.168 26.8156 507.409 26.8156 507.409C26.8156 507.409 19.6228 502.825 12.6589 499.921L12.5702 502.325L11.68 499.61C6.26746 497.459 1.24706 496.464 0.242405 499.569C-0.702141 502.494 1.1984 505.264 4.46996 507.729L8.23097 507.863L6.01558 508.808C13.5691 513.724 26.0657 517.238 30.3791 518.038C26.2518 517.381 16.1652 516.046 10.1859 517.357L11.1247 518.942L8.76335 517.744C6.67104 518.43 5.37158 519.564 5.51183 521.352C5.77802 524.767 20.3755 526 20.3755 526L73.7023 525.497L74 525.648C73.9943 525.642 40.9953 493.496 23.8045 487.101Z" fill="#3C8F7C"/>
<path d="M226.805 506.101L226.49 508.47L225.734 505.729C223.61 505.048 221.767 504.816 220.307 505.153C207.247 508.168 229.816 526.409 229.816 526.409C229.816 526.409 222.623 521.825 215.659 518.921L215.57 521.325L214.68 518.61C209.267 516.459 204.247 515.464 203.242 518.569C202.298 521.494 204.198 524.264 207.47 526.729L211.231 526.863L209.016 527.808C216.569 532.724 229.066 536.238 233.379 537.038C229.252 536.381 219.165 535.046 213.186 536.357L214.125 537.942L211.763 536.744C209.671 537.43 208.372 538.564 208.512 540.352C208.778 543.767 223.376 545 223.376 545L276.702 544.497L277 544.648C276.994 544.642 243.995 512.496 226.805 506.101Z" fill="#3C8F7C"/>
<defs>
<linearGradient id="paint0_linear" x1="32.4124" y1="233.959" x2="179.1" y2="233.959" gradientUnits="userSpaceOnUse">
<stop stop-color="#DAE3FE"/>
<stop offset="1" stop-color="#E9EFFD"/>
</linearGradient>
<linearGradient id="paint1_linear" x1="233.146" y1="386.186" x2="233.146" y2="379.018" gradientUnits="userSpaceOnUse">
<stop offset="0.3065" stop-color="#FFFBE4"/>
<stop offset="1" stop-color="#FFE696"/>
</linearGradient>
<linearGradient id="paint2_linear" x1="58.9042" y1="386.44" x2="58.9042" y2="378.306" gradientUnits="userSpaceOnUse">
<stop offset="0.3065" stop-color="#FFFBE4"/>
<stop offset="1" stop-color="#FFE696"/>
</linearGradient>
<linearGradient id="paint3_linear" x1="205.621" y1="377.084" x2="263.25" y2="377.084" gradientUnits="userSpaceOnUse">
<stop offset="0.3065" stop-color="#FFFBE4"/>
<stop offset="1" stop-color="#FFE696"/>
</linearGradient>
<linearGradient id="paint4_linear" x1="86.375" y1="358.494" x2="209.985" y2="358.494" gradientUnits="userSpaceOnUse">
<stop offset="0.3065" stop-color="#FFFBE4"/>
<stop offset="1" stop-color="#FFE696"/>
</linearGradient>
<linearGradient id="paint5_linear" x1="27" y1="377.054" x2="90.908" y2="377.054" gradientUnits="userSpaceOnUse">
<stop offset="0.3065" stop-color="#FFFBE4"/>
<stop offset="1" stop-color="#FFE696"/>
</linearGradient>
<linearGradient id="paint6_linear" x1="145.848" y1="486.115" x2="144.493" y2="330.862" gradientUnits="userSpaceOnUse">
<stop stop-color="#FF8759"/>
<stop offset="0.1587" stop-color="#F77D56"/>
<stop offset="0.4327" stop-color="#E3614D"/>
<stop offset="0.7866" stop-color="#C2343F"/>
<stop offset="1" stop-color="#AB1535"/>
</linearGradient>
<linearGradient id="paint7_linear" x1="143.45" y1="500.86" x2="140.4" y2="341.885" gradientUnits="userSpaceOnUse">
<stop stop-color="#FF8759"/>
<stop offset="0.2335" stop-color="#EF7152"/>
<stop offset="0.717" stop-color="#C53940"/>
<stop offset="1" stop-color="#AB1535"/>
</linearGradient>
<linearGradient id="paint8_linear" x1="144.668" y1="472.871" x2="145.176" y2="387.464" gradientUnits="userSpaceOnUse">
<stop offset="0.3065" stop-color="#FFFBE4"/>
<stop offset="1" stop-color="#FFE696"/>
</linearGradient>
<linearGradient id="paint9_linear" x1="178.793" y1="514.896" x2="179.81" y2="481.03" gradientUnits="userSpaceOnUse">
<stop offset="0.00558659" stop-color="#FFAF4D"/>
<stop offset="0.119" stop-color="#F2923C"/>
<stop offset="0.2436" stop-color="#E7792D"/>
<stop offset="0.3184" stop-color="#E36F27"/>
<stop offset="0.5094" stop-color="#D76826"/>
<stop offset="0.853" stop-color="#B85423"/>
<stop offset="1" stop-color="#A84A21"/>
</linearGradient>
<linearGradient id="paint10_linear" x1="139.812" y1="513.726" x2="140.828" y2="479.86" gradientUnits="userSpaceOnUse">
<stop offset="0.00558659" stop-color="#FFAF4D"/>
<stop offset="0.119" stop-color="#F2923C"/>
<stop offset="0.2436" stop-color="#E7792D"/>
<stop offset="0.3184" stop-color="#E36F27"/>
<stop offset="0.5094" stop-color="#D76826"/>
<stop offset="0.853" stop-color="#B85423"/>
<stop offset="1" stop-color="#A84A21"/>
</linearGradient>
<linearGradient id="paint11_linear" x1="153.368" y1="514.133" x2="154.385" y2="480.267" gradientUnits="userSpaceOnUse">
<stop offset="0.00558659" stop-color="#FFAF4D"/>
<stop offset="0.119" stop-color="#F2923C"/>
<stop offset="0.2436" stop-color="#E7792D"/>
<stop offset="0.3184" stop-color="#E36F27"/>
<stop offset="0.5094" stop-color="#D76826"/>
<stop offset="0.853" stop-color="#B85423"/>
<stop offset="1" stop-color="#A84A21"/>
</linearGradient>
<linearGradient id="paint12_linear" x1="112.727" y1="512.913" x2="113.744" y2="479.047" gradientUnits="userSpaceOnUse">
<stop offset="0.00558659" stop-color="#FFAF4D"/>
<stop offset="0.119" stop-color="#F2923C"/>
<stop offset="0.2436" stop-color="#E7792D"/>
<stop offset="0.3184" stop-color="#E36F27"/>
<stop offset="0.5094" stop-color="#D76826"/>
<stop offset="0.853" stop-color="#B85423"/>
<stop offset="1" stop-color="#A84A21"/>
</linearGradient>
<linearGradient id="paint13_linear" x1="141.465" y1="383.446" x2="142.397" y2="351.567" gradientUnits="userSpaceOnUse">
<stop offset="0.3065" stop-color="#FFFBE4"/>
<stop offset="1" stop-color="#FFE696"/>
</linearGradient>
<linearGradient id="paint14_linear" x1="144.033" y1="513.577" x2="143.525" y2="469.943" gradientUnits="userSpaceOnUse">
<stop stop-color="#FFFBE4"/>
<stop offset="1" stop-color="#FFE696"/>
</linearGradient>
<linearGradient id="paint15_linear" x1="141.033" y1="389.238" x2="140.948" y2="364.039" gradientUnits="userSpaceOnUse">
<stop offset="0.3065" stop-color="#FFFBE4"/>
<stop offset="1" stop-color="#FFE696"/>
</linearGradient>
<linearGradient id="paint16_linear" x1="143.984" y1="513.578" x2="143.476" y2="469.944" gradientUnits="userSpaceOnUse">
<stop stop-color="#FFFBE4"/>
<stop offset="1" stop-color="#FFE696"/>
</linearGradient>
<linearGradient id="paint17_linear" x1="140.989" y1="395.065" x2="140.989" y2="385.679" gradientUnits="userSpaceOnUse">
<stop offset="0.3065" stop-color="#FFFBE4"/>
<stop offset="1" stop-color="#FFE696"/>
</linearGradient>
<linearGradient id="paint18_linear" x1="185.892" y1="433.609" x2="197.378" y2="433.609" gradientUnits="userSpaceOnUse">
<stop stop-color="#FFFBE4"/>
<stop offset="1" stop-color="#FFE696"/>
</linearGradient>
<linearGradient id="paint19_linear" x1="153.962" y1="433.609" x2="164.092" y2="433.609" gradientUnits="userSpaceOnUse">
<stop stop-color="#FFFBE4"/>
<stop offset="1" stop-color="#FFE696"/>
</linearGradient>
<linearGradient id="paint20_linear" x1="120.525" y1="433.609" x2="132.021" y2="433.609" gradientUnits="userSpaceOnUse">
<stop offset="0.3065" stop-color="#FFFBE4"/>
<stop offset="1" stop-color="#FFE696"/>
</linearGradient>
<linearGradient id="paint21_linear" x1="87.8525" y1="433.609" x2="99.3486" y2="433.609" gradientUnits="userSpaceOnUse">
<stop offset="0.3065" stop-color="#FFFBE4"/>
<stop offset="1" stop-color="#FFE696"/>
</linearGradient>
</defs>
</svg>
