<svg width="30" height="34" viewBox="0 0 30 34" fill="none" xmlns="http://www.w3.org/2000/svg">
<path d="M19.0168 12.6365C18.7829 12.6365 18.5542 12.7058 18.3597 12.8358C18.1652 12.9658 18.0136 13.1505 17.924 13.3667C17.8345 13.5828 17.8111 13.8206 17.8567 14.0501C17.9024 14.2795 18.015 14.4903 18.1804 14.6557C18.3459 14.8211 18.5566 14.9338 18.7861 14.9794C19.0155 15.0251 19.2533 15.0017 19.4695 14.9121C19.6856 14.8226 19.8704 14.671 20.0003 14.4765C20.1303 14.282 20.1997 14.0533 20.1997 13.8193C20.1993 13.5057 20.0746 13.205 19.8529 12.9833C19.6311 12.7615 19.3304 12.6368 19.0168 12.6365ZM19.0168 14.1974C18.942 14.1974 18.8689 14.1753 18.8067 14.1337C18.7445 14.0921 18.696 14.0331 18.6674 13.964C18.6388 13.8949 18.6313 13.8188 18.6459 13.7454C18.6605 13.6721 18.6965 13.6047 18.7494 13.5518C18.8023 13.4989 18.8697 13.4629 18.9431 13.4483C19.0165 13.4337 19.0925 13.4412 19.1616 13.4699C19.2307 13.4985 19.2898 13.547 19.3313 13.6092C19.3729 13.6714 19.395 13.7445 19.395 13.8193C19.3948 13.9195 19.3549 14.0156 19.284 14.0864C19.2131 14.1573 19.117 14.1971 19.0168 14.1972V14.1974Z" fill="#9A9A9A"/>
<path d="M12.7339 13.562C12.7339 13.328 12.6645 13.0994 12.5345 12.9048C12.4045 12.7103 12.2198 12.5587 12.0037 12.4692C11.7875 12.3797 11.5497 12.3562 11.3202 12.4019C11.0908 12.4475 10.88 12.5602 10.7146 12.7256C10.5492 12.8911 10.4365 13.1018 10.3909 13.3313C10.3453 13.5607 10.3687 13.7986 10.4582 14.0147C10.5478 14.2308 10.6994 14.4156 10.8939 14.5455C11.0884 14.6755 11.3171 14.7449 11.5511 14.7448C11.8647 14.7445 12.1653 14.6197 12.3871 14.398C12.6088 14.1762 12.7335 13.8756 12.7339 13.562ZM11.5511 13.9402C11.4763 13.9402 11.4032 13.918 11.3409 13.8765C11.2787 13.8349 11.2303 13.7759 11.2016 13.7068C11.173 13.6377 11.1655 13.5616 11.1801 13.4883C11.1947 13.4149 11.2307 13.3475 11.2836 13.2946C11.3365 13.2417 11.4038 13.2057 11.4772 13.1911C11.5506 13.1765 11.6266 13.184 11.6957 13.2126C11.7648 13.2412 11.8239 13.2897 11.8655 13.3519C11.907 13.4141 11.9292 13.4872 11.9292 13.562C11.9291 13.6623 11.8892 13.7584 11.8183 13.8293C11.7474 13.9002 11.6513 13.9401 11.5511 13.9402Z" fill="#9A9A9A"/>
<path d="M18.5365 15.8909C18.4298 15.8909 18.3275 15.9333 18.252 16.0087C18.1766 16.0842 18.1342 16.1865 18.1342 16.2932C18.1342 17.049 17.8339 17.7739 17.2995 18.3083C16.7651 18.8428 16.0402 19.143 15.2844 19.143C14.5285 19.143 13.8037 18.8428 13.2692 18.3083C12.7348 17.7739 12.4345 17.049 12.4345 16.2932C12.4345 16.1865 12.3922 16.0842 12.3167 16.0087C12.2412 15.9333 12.1389 15.8909 12.0322 15.8909C11.9255 15.8909 11.8232 15.9333 11.7477 16.0087C11.6723 16.0842 11.6299 16.1865 11.6299 16.2932C11.6299 17.2624 12.0149 18.192 12.7003 18.8773C13.3856 19.5627 14.3151 19.9477 15.2844 19.9477C16.2536 19.9477 17.1831 19.5627 17.8685 18.8773C18.5538 18.192 18.9388 17.2624 18.9388 16.2932C18.9388 16.1865 18.8965 16.0842 18.821 16.0087C18.7456 15.9333 18.6432 15.8909 18.5365 15.8909Z" fill="#9A9A9A"/>
<path d="M23.6417 9.9122C23.6422 10.1291 23.7028 10.3416 23.8169 10.526C23.9311 10.7104 24.0942 10.8595 24.2881 10.9567C24.482 11.0538 24.6991 11.0952 24.9152 11.0761C25.1312 11.0571 25.3377 10.9784 25.5117 10.8489C25.6856 10.7193 25.8202 10.544 25.9003 10.3425C25.9804 10.141 26.003 9.92113 25.9655 9.70752C25.928 9.4939 25.8319 9.2949 25.6879 9.13271C25.5439 8.97052 25.3577 8.85151 25.1501 8.78896V5.28871L25.2368 5.25518C25.7542 5.05609 25.8315 4.73765 25.8315 4.56552C25.8315 4.39339 25.7542 4.07495 25.2368 3.87593L16.2448 0.416242C15.7061 0.208909 14.8618 0.208909 14.323 0.416242L5.33097 3.87627C4.81351 4.07528 4.73633 4.39373 4.73633 4.56586C4.73633 4.73799 4.81351 5.05643 5.33097 5.25551L8.02744 6.29299V10.2842C8.02773 10.3803 8.06254 10.4731 8.12554 10.5457C7.92352 10.9613 7.75832 11.3937 7.63182 11.8381C7.17088 11.9869 6.76898 12.278 6.4839 12.6696C6.19882 13.0612 6.04524 13.5331 6.04524 14.0174C6.04524 14.5018 6.19882 14.9737 6.4839 15.3652C6.76898 15.7568 7.17088 16.0479 7.63182 16.1967C8.10599 17.8594 9.10901 19.3223 10.489 20.364C11.869 21.4056 13.5509 21.9693 15.2799 21.9695C17.0089 21.9698 18.6909 21.4067 20.0712 20.3655C21.4515 19.3242 22.455 17.8616 22.9297 16.199C23.3921 16.0512 23.7955 15.7601 24.0818 15.368C24.3681 14.9759 24.5223 14.503 24.5223 14.0175C24.5223 13.532 24.3681 13.0591 24.0818 12.667C23.7955 12.2749 23.3921 11.9839 22.9297 11.836C22.7935 11.3585 22.6126 10.8949 22.3894 10.4514C22.4137 10.3991 22.4264 10.3422 22.4266 10.2846V6.33644L24.3455 5.5981V8.83684C24.1365 8.92835 23.9585 9.07878 23.8336 9.26975C23.7086 9.46072 23.6419 9.68396 23.6417 9.9122ZM25.1784 9.9122C25.1779 9.98448 25.156 10.055 25.1154 10.1148C25.0749 10.1746 25.0175 10.2211 24.9506 10.2484C24.8836 10.2757 24.8101 10.2826 24.7393 10.2681C24.6685 10.2537 24.6035 10.2186 24.5526 10.1673C24.5017 10.116 24.4671 10.0508 24.4532 9.97986C24.4393 9.90893 24.4467 9.83547 24.4745 9.76874C24.5022 9.70201 24.5492 9.645 24.6093 9.6049C24.6694 9.5648 24.7401 9.5434 24.8124 9.5434C24.9098 9.54389 25.003 9.583 25.0716 9.65213C25.1403 9.72126 25.1787 9.81479 25.1784 9.9122ZM22.5235 12.5602C22.8602 12.6275 23.1632 12.8094 23.3809 13.075C23.5986 13.3405 23.7176 13.6733 23.7176 14.0167C23.7176 14.3601 23.5986 14.6928 23.3809 14.9584C23.1632 15.2239 22.8602 15.4058 22.5235 15.4732C22.4488 15.488 22.3798 15.5237 22.3246 15.5761C22.2693 15.6286 22.2301 15.6957 22.2115 15.7696C21.8211 17.3117 20.9274 18.6796 19.672 19.6567C18.4166 20.6338 16.8711 21.1642 15.2803 21.1641C13.6895 21.1639 12.1441 20.6331 10.8889 19.6558C9.6337 18.6785 8.74031 17.3104 8.35018 15.7682C8.33164 15.6945 8.29262 15.6275 8.23763 15.5751C8.18264 15.5227 8.11392 15.4869 8.03944 15.4719C7.70392 15.4036 7.4023 15.2215 7.18567 14.9563C6.96904 14.6911 6.85071 14.3592 6.85071 14.0168C6.85071 13.6744 6.96904 13.3425 7.18567 13.0774C7.4023 12.8122 7.70392 12.63 8.03944 12.5617C8.11392 12.5467 8.18264 12.5109 8.23763 12.4585C8.29262 12.4061 8.33164 12.3392 8.35018 12.2655C8.47393 11.7753 8.64968 11.2998 8.87441 10.8469C10.9349 11.4628 13.0744 11.7734 15.225 11.7689C17.4097 11.7732 19.583 11.4528 21.6736 10.8182C21.905 11.2792 22.0855 11.7639 22.2119 12.2639C22.2304 12.3378 22.2696 12.4048 22.3248 12.4573C22.3799 12.5097 22.4489 12.5455 22.5235 12.5603V12.5602ZM8.8321 9.99125V6.60224L14.323 8.71487C14.9468 8.9222 15.621 8.9222 16.2448 8.71487L21.6218 6.64603V9.99206C17.5442 11.2888 12.9069 11.2902 8.8321 9.99125ZM15.9559 7.96392C15.5978 8.10159 14.9702 8.10159 14.6119 7.96392L5.77936 4.56552L14.6119 1.16719C14.97 1.02946 15.5976 1.02946 15.9559 1.16719L24.7884 4.56552L15.9559 7.96392Z" fill="#9A9A9A"/>
<path d="M2.08734 24.213C2.09086 24.2317 2.09568 24.2501 2.10175 24.2682C2.45451 25.3054 3.12986 26.2026 4.02904 26.8286L7.27637 29.066C7.28341 29.0709 7.29065 29.0755 7.29802 29.0799C7.51484 29.2091 7.67699 29.4131 7.754 29.6535L8.00049 32.9833C8.00634 33.0623 8.03536 33.1378 8.08392 33.2003C8.13248 33.2629 8.19841 33.3097 8.27347 33.335L8.34052 33.3574C9.81135 33.8553 11.4034 33.8664 12.881 33.3889L13.0439 33.3367C13.125 33.3107 13.1958 33.2596 13.2461 33.1907C13.2963 33.1219 13.3234 33.0388 13.3234 32.9536V31.0871C13.3151 30.2201 13.2448 29.3548 13.113 28.4978C13.1047 28.4398 13.0987 28.3804 13.0953 28.3213L13.0455 27.4625C13.0448 27.4515 13.0437 27.4405 13.0422 27.4296C12.9235 26.5744 12.5705 25.7687 12.0223 25.1018C11.474 24.4348 10.7518 23.9326 9.93576 23.6508L9.65661 23.5536C9.2772 23.421 8.93244 23.2048 8.64784 22.921L7.30004 21.5732L6.83957 20.0149C6.72696 19.5982 6.49228 19.2247 6.16571 18.9424C5.83914 18.6601 5.4356 18.4819 5.00697 18.4308L4.94072 18.2095C4.93978 18.2063 4.9387 18.2028 4.9377 18.1998C4.71823 17.5293 3.99893 17.0926 3.25751 17.1241L3.24604 17.0859C3.10246 16.6035 2.77834 16.195 2.34116 15.9456C1.90399 15.6962 1.38746 15.625 0.899125 15.7469C0.799588 15.7716 0.713247 15.8334 0.657748 15.9197C0.602249 16.0059 0.581782 16.1101 0.600531 16.2109L2.08734 24.213ZM6.06368 20.2278C6.06455 20.2313 6.06556 20.2348 6.06663 20.2383L6.18659 20.6442C6.0049 20.5569 5.8125 20.4939 5.61435 20.457L5.27545 19.3261C5.467 19.4061 5.63763 19.529 5.77421 19.6853C5.9108 19.8416 6.00969 20.0272 6.06328 20.2278H6.06368ZM4.17153 18.4463L4.77294 20.453C4.60904 20.4817 4.44873 20.5281 4.29484 20.5914L3.50212 17.9423C3.81024 17.9951 4.08409 18.1859 4.17153 18.4463ZM2.47505 17.3167L3.51439 20.7912L3.59312 21.0455C3.57524 21.0621 3.55776 21.0791 3.54068 21.0963C3.50223 21.1348 3.47197 21.1806 3.45173 21.2311C3.43148 21.2815 3.42167 21.3356 3.4229 21.3899C3.42412 21.4443 3.43634 21.4978 3.45884 21.5473C3.48133 21.5968 3.51362 21.6412 3.55376 21.6779L5.18064 23.1639C5.65183 23.5946 6.08277 24.0675 6.46809 24.5765C6.49998 24.6186 6.53985 24.654 6.58544 24.6807C6.63102 24.7075 6.68142 24.7249 6.73376 24.7322C6.7861 24.7394 6.83935 24.7363 6.89047 24.7229C6.94159 24.7096 6.98959 24.6863 7.03172 24.6544C7.07384 24.6225 7.10928 24.5827 7.13599 24.5371C7.16271 24.4915 7.18019 24.4411 7.18742 24.3888C7.19466 24.3364 7.19152 24.2832 7.17818 24.232C7.16484 24.1809 7.14156 24.1329 7.10967 24.0908C6.69464 23.5427 6.23049 23.0336 5.72298 22.5698L4.45135 21.4079C4.73926 21.2502 5.07053 21.19 5.39552 21.2364C5.72051 21.2828 6.02171 21.4333 6.25398 21.6653L8.07854 23.4899C8.44903 23.8594 8.89782 24.1409 9.39174 24.3135L9.67096 24.4107C10.3446 24.6434 10.9411 25.0572 11.3948 25.6069C11.8485 26.1565 12.1419 26.8205 12.2428 27.5261L12.2917 28.3681C12.2964 28.4495 12.3046 28.5313 12.3161 28.6114C12.4424 29.4308 12.51 30.2581 12.5184 31.0871V32.6589C11.3002 33.0275 10 33.0259 8.78275 32.6543L8.55309 29.5502C8.55108 29.5232 8.54636 29.4965 8.53901 29.4704C8.41295 29.0219 8.12123 28.6381 7.72288 28.3965L4.48649 26.1666C3.73742 25.6449 3.17268 24.8995 2.87315 24.0372L1.47224 16.4981C1.70219 16.5183 1.92076 16.6072 2.09958 16.7532C2.2784 16.8991 2.40921 17.0955 2.47505 17.3167Z" fill="#9A9A9A"/>
<path d="M19.8953 33.7225C20.6615 33.7231 21.4231 33.6028 22.1518 33.3661L22.243 33.3363C22.3175 33.3121 22.3833 33.2666 22.4323 33.2055C22.4813 33.1445 22.5114 33.0704 22.519 32.9925L22.8391 29.6578C22.9155 29.4158 23.0781 29.2103 23.2961 29.0804C23.3035 29.0759 23.3107 29.0713 23.3178 29.0664L26.566 26.8284C27.4647 26.2024 28.1396 25.3055 28.4921 24.2686C28.4982 24.2506 28.503 24.2322 28.5065 24.2135L29.9934 16.2117C30.0122 16.1109 29.9917 16.0067 29.9362 15.9205C29.8807 15.8342 29.7943 15.7724 29.6948 15.7477C29.2065 15.6257 28.6899 15.6969 28.2527 15.9463C27.8155 16.1957 27.4914 16.6042 27.3479 17.0866L27.3364 17.125C26.5947 17.0936 25.8757 17.5299 25.6562 18.2007C25.6552 18.2039 25.6541 18.2074 25.6532 18.2103L25.5869 18.4316C25.1583 18.4827 24.7547 18.6609 24.4282 18.9432C24.1016 19.2255 23.8669 19.599 23.7543 20.0158L23.2938 21.574L21.946 22.9218C21.6614 23.2056 21.3167 23.4218 20.9373 23.5544L20.6582 23.6516C19.8421 23.9334 19.1199 24.4356 18.5716 25.1026C18.0233 25.7695 17.6703 26.5752 17.5517 27.4304C17.5501 27.4413 17.5491 27.4523 17.5484 27.4633L17.4986 28.3216C17.4951 28.3809 17.4892 28.4403 17.4809 28.4983C17.3491 29.3553 17.2788 30.2206 17.2705 31.0876V32.9542C17.2707 33.0381 17.2971 33.1199 17.346 33.1881C17.395 33.2563 17.464 33.3075 17.5435 33.3344C18.3008 33.592 19.0954 33.7231 19.8953 33.7225ZM26.4223 18.4465C26.5098 18.186 26.784 17.9951 27.0919 17.9424L26.3108 20.5538L26.299 20.5918C26.1451 20.5285 25.9848 20.4821 25.8209 20.4534L26.4223 18.4465ZM24.5275 20.2386C24.5286 20.2352 24.5296 20.2319 24.5305 20.2281C24.5841 20.0275 24.683 19.8419 24.8197 19.6856C24.9564 19.5293 25.1271 19.4064 25.3187 19.3264L24.9799 20.4572C24.7817 20.4942 24.5893 20.5571 24.4076 20.6444L24.5275 20.2386ZM18.0755 31.0874C18.0839 30.2584 18.1515 29.431 18.2779 28.6116C18.2893 28.5316 18.2975 28.4498 18.3022 28.3683L18.3511 27.5264C18.4519 26.8209 18.7454 26.1568 19.1991 25.6072C19.6528 25.0576 20.2493 24.6437 20.923 24.4111L21.2021 24.3139C21.696 24.1412 22.1448 23.8597 22.5153 23.4903L24.3399 21.6656C24.5722 21.4336 24.8734 21.2832 25.1983 21.2368C25.5233 21.1904 25.8546 21.2506 26.1425 21.4083L24.8706 22.57C24.363 23.0338 23.8989 23.5429 23.4839 24.091C23.452 24.1331 23.4287 24.1811 23.4154 24.2323C23.402 24.2834 23.3989 24.3366 23.4061 24.389C23.4134 24.4413 23.4308 24.4917 23.4575 24.5373C23.4843 24.5829 23.5197 24.6227 23.5618 24.6546C23.6039 24.6865 23.6519 24.7098 23.7031 24.7231C23.7542 24.7365 23.8074 24.7396 23.8598 24.7324C23.9121 24.7252 23.9625 24.7077 24.0081 24.681C24.0537 24.6542 24.0936 24.6188 24.1254 24.5767C24.5108 24.0677 24.9417 23.5949 25.4129 23.1641L27.0398 21.6781C27.0799 21.6414 27.1122 21.597 27.1347 21.5475C27.1572 21.498 27.1694 21.4445 27.1706 21.3901C27.1719 21.3358 27.1621 21.2817 27.1418 21.2313C27.1216 21.1808 27.0913 21.135 27.0529 21.0965C27.0356 21.0793 27.0181 21.0624 27.0004 21.0457L27.0803 20.7878L28.1186 17.3168C28.1844 17.0956 28.3152 16.8992 28.494 16.7533C28.6728 16.6073 28.8914 16.5185 29.1213 16.4983L27.7207 24.0374C27.4213 24.8994 26.857 25.6446 26.1083 26.1663L22.8709 28.3968C22.4726 28.6384 22.1809 29.0222 22.0549 29.4707C22.0483 29.4939 22.0438 29.5177 22.0415 29.5418L21.7431 32.6505C20.5465 33.0042 19.2735 33.0072 18.0752 32.6591L18.0755 31.0874Z" fill="#9A9A9A"/>
</svg>
