<svg width="471" height="553" viewBox="0 0 471 553" fill="none" xmlns="http://www.w3.org/2000/svg">
<path d="M155.04 424.889L157.847 422.045C156.969 416.904 152.359 414.43 149.324 414.092C141.153 413.185 136.986 419.064 135.235 428.496C132.036 445.711 136.063 518 136.063 518C136.364 516.08 158.559 443.485 157.989 423.54L155.04 424.889Z" fill="#96D9C9"/>
<path d="M403.765 415.229C404.945 414.477 404.206 412.491 402.7 412.353C387.423 410.949 346.72 411.67 316.516 452.853C278.621 504.522 251.499 510.407 228 507.213C228 507.213 251.367 520.729 279.554 515.408C348.762 502.341 382.776 428.596 403.765 415.229Z" fill="#1755AF"/>
<path d="M383.434 423.083C377.434 427.097 371.536 431.242 365.832 435.62C360.101 439.963 354.531 444.498 349.139 449.223C343.768 453.97 338.504 458.832 333.489 463.943C328.448 469.026 323.666 474.354 318.888 479.724C314.077 485.059 309.265 490.465 303.805 495.309C298.362 500.15 292.148 504.329 285.178 507.128C283.439 507.824 281.675 508.489 279.875 509.036C278.089 509.619 276.264 510.119 274.427 510.584C270.743 511.496 266.956 512.155 263.095 512.521C255.367 513.231 247.362 512.741 239.477 511.242C238.647 511.085 238.005 510.299 238.042 509.486C238.079 508.687 238.758 508.162 239.568 508.293L239.575 508.293C241.495 508.605 243.413 508.894 245.325 509.098C246.282 509.215 247.236 509.29 248.19 509.383C249.142 509.439 250.098 509.533 251.045 509.56C254.845 509.734 258.611 509.641 262.313 509.267C269.716 508.556 276.887 506.711 283.553 504.049C286.866 502.677 290.035 501.049 293.03 499.159C296.023 497.269 298.839 495.122 301.51 492.794C306.855 488.135 311.669 482.83 316.524 477.536C321.387 472.249 326.316 466.974 331.489 461.944C334.067 459.421 336.697 456.952 339.377 454.538C340.71 453.322 342.068 452.136 343.426 450.947C344.796 449.773 346.174 448.608 347.562 447.456C353.127 442.858 358.858 438.455 364.747 434.26C370.662 430.096 376.709 426.109 382.937 422.386C383.115 422.28 383.368 422.351 383.502 422.545C383.63 422.736 383.598 422.972 383.434 423.083Z" fill="white"/>
<path d="M317.597 163.57H297.597V164.69H317.597V163.57Z" fill="#FFCA00"/>
<path d="M308.657 159.92H306.547V167.86H308.657V159.92Z" fill="#E54332"/>
<path d="M307.597 136.55C306.937 136.55 306.407 137.08 306.407 137.74V142.38H308.777V137.74C308.787 137.08 308.257 136.55 307.597 136.55Z" fill="#E54332"/>
<path d="M296.957 183.36L297.377 183.46L298.237 180.55L297.417 180.36L296.957 183.36Z" fill="#09455F"/>
<path d="M296.688 180.82L298.708 181.27L299.618 178.37L297.087 177.81L296.688 180.82Z" fill="#E54332"/>
<path d="M296.978 178.31L299.468 178.86L307.698 148.88L304.298 148.13L296.978 178.31Z" fill="#E54332"/>
<path d="M298.667 176.05C297.717 175.84 296.787 176.44 296.577 177.38C296.367 178.33 296.967 179.26 297.907 179.47C298.857 179.68 299.787 179.08 299.997 178.14C300.217 177.2 299.617 176.26 298.667 176.05Z" fill="#FFCA00"/>
<path d="M298.477 176.91C298.007 176.81 297.537 177.1 297.437 177.57C297.337 178.04 297.627 178.51 298.097 178.61C298.567 178.71 299.037 178.42 299.137 177.95C299.247 177.48 298.947 177.02 298.477 176.91Z" fill="#EBFFF5"/>
<path d="M316.327 180.55L317.177 183.46L317.607 183.36L317.147 180.36L316.327 180.55Z" fill="#09455F"/>
<path d="M315.587 178.37L316.497 181.27L318.517 180.82L318.117 177.81L315.587 178.37Z" fill="#E54332"/>
<path d="M307.507 148.88L315.737 178.86L318.227 178.31L310.907 148.13L307.507 148.88Z" fill="#E54332"/>
<path d="M316.527 176.05C315.577 176.26 314.987 177.2 315.197 178.14C315.407 179.09 316.347 179.68 317.287 179.47C318.237 179.26 318.827 178.32 318.617 177.38C318.417 176.44 317.477 175.84 316.527 176.05Z" fill="#FFCA00"/>
<path d="M316.727 176.91C316.257 177.01 315.957 177.48 316.067 177.95C316.167 178.42 316.637 178.72 317.107 178.61C317.577 178.51 317.877 178.04 317.767 177.57C317.657 177.1 317.197 176.81 316.727 176.91Z" fill="#EBFFF5"/>
<path d="M304.077 146.84L304.687 150.44C304.717 150.83 305.057 151.14 305.447 151.14H309.757C310.147 151.14 310.487 150.82 310.517 150.44L311.127 146.84V140.74H304.077V146.84Z" fill="#FFCA00"/>
<path d="M297.513 171.084L296.896 173.733L297.655 173.91L298.273 171.261L297.513 171.084Z" fill="#E54332"/>
<path d="M297.607 172.126L297.44 172.827L299.697 173.365L299.864 172.665L297.607 172.126Z" fill="#E54332"/>
<path d="M233.561 457.475L220.601 463.256L220.924 463.982L233.885 458.201L233.561 457.475Z" fill="#FFCA00"/>
<path d="M226.713 457.694L225.346 458.304L227.641 463.449L229.008 462.839L226.713 457.694Z" fill="#E54332"/>
<path d="M219.271 442.856C218.843 443.047 218.653 443.544 218.844 443.971L220.185 446.978L221.721 446.293L220.38 443.286C220.195 442.856 219.699 442.665 219.271 442.856Z" fill="#E54332"/>
<path d="M225.907 476.265L226.208 476.209L225.924 474.074L225.338 474.188L225.907 476.265Z" fill="#09455F"/>
<path d="M224.998 474.697L226.437 474.405L226.188 472.263L224.387 472.631L224.998 474.697Z" fill="#E54332"/>
<path d="M224.46 472.987L226.233 472.624L222.9 450.817L220.48 451.314L224.46 472.987Z" fill="#E54332"/>
<path d="M224.902 471.034C224.226 471.172 223.797 471.83 223.933 472.5C224.071 473.176 224.729 473.606 225.399 473.47C226.075 473.331 226.504 472.674 226.368 472.004C226.239 471.331 225.579 470.895 224.902 471.034Z" fill="#FFCA00"/>
<path d="M225.027 471.646C224.694 471.717 224.473 472.041 224.544 472.375C224.615 472.708 224.939 472.929 225.273 472.858C225.606 472.787 225.827 472.463 225.756 472.13C225.691 471.793 225.364 471.582 225.027 471.646Z" fill="#EBFFF5"/>
<path d="M237.648 468.845L239.04 470.485L239.289 470.296L238.124 468.485L237.648 468.845Z" fill="#09455F"/>
<path d="M236.538 467.647L237.966 469.263L239.145 468.387L238.015 466.552L236.538 467.647Z" fill="#E54332"/>
<path d="M222.777 450.872L236.776 467.921L238.231 466.845L224.764 449.403L222.777 450.872Z" fill="#E54332"/>
<path d="M236.476 465.872C235.921 466.282 235.81 467.062 236.218 467.61C236.629 468.165 237.408 468.276 237.957 467.868C238.512 467.458 238.622 466.678 238.214 466.129C237.813 465.578 237.031 465.461 236.476 465.872Z" fill="#FFCA00"/>
<path d="M236.854 466.371C236.579 466.572 236.52 466.963 236.727 467.236C236.928 467.511 237.319 467.57 237.592 467.363C237.868 467.162 237.926 466.771 237.719 466.498C237.512 466.225 237.13 466.17 236.854 466.371Z" fill="#EBFFF5"/>
<path d="M219.964 450.542L221.4 452.698C221.532 452.942 221.842 453.045 222.095 452.932L224.888 451.686C225.141 451.574 225.269 451.268 225.178 451.013L224.533 448.504L222.77 444.551L218.201 446.589L219.964 450.542Z" fill="#FFCA00"/>
<path d="M222.718 468.15L223.084 470.045L223.627 469.941L223.262 468.045L222.718 468.15Z" fill="#E54332"/>
<path d="M223.082 468.798L223.176 469.3L224.794 468.996L224.7 468.494L223.082 468.798Z" fill="#E54332"/>
<g clip-path="url(#clip0)">
<path d="M140.42 85.71L138.7 97.14H153.56L151.84 85.71H140.42Z" fill="#E54332"/>
<path d="M181.801 81.0742L180.281 83.1348L184.982 86.6008L186.501 84.5403L181.801 81.0742Z" fill="#09455F"/>
<path d="M184.199 84.5826L182.868 89.3818L184.497 89.8334L185.827 85.0342L184.199 84.5826Z" fill="#09455F"/>
<path d="M182.87 89.38L188.07 92.37L188.59 91.66L183.82 87.98L182.87 89.38Z" fill="#09455F"/>
<path d="M188.571 81.6492L184.38 84.3394L185.293 85.7617L189.484 83.0715L188.571 81.6492Z" fill="#09455F"/>
<path d="M187.51 82.9699L192.44 86.4499L193.02 85.6599L188.57 81.6499L187.51 82.9699Z" fill="#09455F"/>
<path d="M161.83 72.8999L179.36 85.7599L184.14 79.3499L166.6 66.4199L161.83 72.8999Z" fill="#E54332"/>
<path d="M143.32 80.4499L149.23 88.0899L168.25 72.6699L163.65 66.4199L143.32 80.4499Z" fill="#E54332"/>
<path d="M165.86 66.0401C163.23 65.7001 160.83 67.5601 160.49 70.1901C160.15 72.8201 162.01 75.2201 164.64 75.5601C167.27 75.9001 169.67 74.0401 170.01 71.4101C170.34 68.7801 168.48 66.3801 165.86 66.0401Z" fill="#FFCA00"/>
<path d="M165.49 68.93C164.46 68.8 163.52 69.53 163.39 70.55C163.26 71.58 163.99 72.52 165.01 72.65C166.04 72.78 166.98 72.05 167.11 71.03C167.24 70.01 166.51 69.06 165.49 68.93Z" fill="#09455F"/>
<path d="M146.34 78.9099C143.05 78.9099 140.38 81.5799 140.38 84.8699C140.38 88.1599 143.05 90.8299 146.34 90.8299C149.63 90.8299 152.3 88.1599 152.3 84.8699C152.3 81.5799 149.63 78.9099 146.34 78.9099Z" fill="#FFCA00"/>
<path d="M146.34 82.8301C145.21 82.8301 144.3 83.7401 144.3 84.8701C144.3 86.0001 145.21 86.9101 146.34 86.9101C147.47 86.9101 148.38 86.0001 148.38 84.8701C148.38 83.7401 147.47 82.8301 146.34 82.8301Z" fill="#09455F"/>
<path d="M159.6 97.1399H138.3C136.38 97.1399 134.82 98.6999 134.82 100.62V109.71C134.82 111.63 136.38 113.19 138.3 113.19H159.6C161.52 113.19 163.08 111.63 163.08 109.71V100.62C163.08 98.6999 161.52 97.1399 159.6 97.1399Z" fill="#FFCA00"/>
<path d="M165.89 110.36H132V113.2H165.89V110.36Z" fill="#09455F"/>
<path d="M179.58 80.9601C178.27 82.7401 178.12 84.8601 179.26 85.6901C180.4 86.5201 182.38 85.7601 183.69 83.9801C185 82.2001 185.15 80.0801 184.01 79.2501C182.87 78.4101 180.89 79.1801 179.58 80.9601Z" fill="#E54332"/>
<path d="M139.26 99.03C138.74 99.03 138.31 99.45 138.31 99.98V100.78C138.31 101.3 138.73 101.73 139.26 101.73C139.78 101.73 140.21 101.31 140.21 100.78V99.98C140.2 99.45 139.78 99.03 139.26 99.03Z" fill="#E54332"/>
<path d="M142.22 99.03C141.7 99.03 141.27 99.45 141.27 99.98V100.78C141.27 101.3 141.69 101.73 142.22 101.73C142.75 101.73 143.17 101.31 143.17 100.78V99.98C143.17 99.45 142.75 99.03 142.22 99.03Z" fill="#E54332"/>
<path d="M145.19 99.03C144.67 99.03 144.24 99.45 144.24 99.98V100.78C144.24 101.3 144.66 101.73 145.19 101.73C145.71 101.73 146.14 101.31 146.14 100.78V99.98C146.14 99.45 145.71 99.03 145.19 99.03Z" fill="#E54332"/>
<path d="M190.17 85.5701C188.38 85.5701 186.94 87.0001 186.94 88.7601C186.94 90.5201 188.39 91.9501 190.17 91.9501C191.96 91.9501 193.4 90.5201 193.4 88.7601C193.4 87.0001 191.95 85.5701 190.17 85.5701Z" fill="#FFCA00"/>
</g>
<g clip-path="url(#clip1)">
<path d="M315.107 380.054L318.436 388.391L328.049 382.841L322.494 375.789L315.107 380.054Z" fill="#E54332"/>
<path d="M340.072 361.48L339.89 363.435L344.277 364.012L344.459 362.058L340.072 361.48Z" fill="#09455F"/>
<path d="M342.987 362.946L343.991 366.673L345.22 366.369L344.216 362.641L342.987 362.946Z" fill="#09455F"/>
<path d="M343.991 366.672L348.517 366.742L348.578 366.07L344.062 365.374L343.991 366.672Z" fill="#09455F"/>
<path d="M344.674 359.338L343.009 362.714L344.152 363.331L345.818 359.955L344.674 359.338Z" fill="#09455F"/>
<path d="M344.501 360.624L349.043 361.125L349.111 360.377L344.674 359.339L344.501 360.624Z" fill="#09455F"/>
<path d="M323.977 363.435L340.315 365.546L340.916 359.445L324.544 357.292L323.977 363.435Z" fill="#E54332"/>
<path d="M314.938 375.43L321.73 378.366L328.04 360.883L322.636 358.393L314.938 375.43Z" fill="#E54332"/>
<path d="M323.918 357.312C322.085 358.065 321.256 360.214 322.058 362.111C322.86 364.008 324.996 364.929 326.829 364.176C328.663 363.423 329.492 361.274 328.69 359.377C327.881 357.483 325.745 356.562 323.918 357.312Z" fill="#FFCA00"/>
<path d="M324.802 359.396C324.085 359.693 323.761 360.535 324.073 361.271C324.389 362.012 325.227 362.373 325.937 362.079C326.654 361.782 326.978 360.94 326.666 360.204C326.353 359.469 325.512 359.102 324.802 359.396Z" fill="#09455F"/>
<path d="M316.294 373.266C314.166 374.494 313.476 377.289 314.755 379.504C316.034 381.718 318.798 382.518 320.926 381.29C323.055 380.061 323.744 377.267 322.465 375.052C321.187 372.837 318.422 372.037 316.294 373.266Z" fill="#FFCA00"/>
<path d="M317.817 375.904C317.086 376.326 316.851 377.279 317.29 378.04C317.729 378.8 318.671 379.073 319.402 378.651C320.133 378.229 320.368 377.276 319.929 376.516C319.49 375.755 318.548 375.482 317.817 375.904Z" fill="#09455F"/>
<path d="M331.956 380.585L318.178 388.54C316.936 389.257 316.533 390.89 317.279 392.182L320.812 398.302C321.558 399.594 323.174 400.062 324.416 399.345L338.194 391.39C339.436 390.673 339.838 389.04 339.092 387.748L335.559 381.628C334.813 380.336 333.198 379.868 331.956 380.585Z" fill="#FFCA00"/>
<path d="M341.163 387.136L319.241 399.792L320.345 401.704L342.267 389.047L341.163 387.136Z" fill="#09455F"/>
<path d="M338.592 362.232C338.436 363.92 339.163 365.403 340.223 365.536C341.283 365.669 342.269 364.418 342.424 362.73C342.58 361.043 341.853 359.56 340.793 359.427C339.729 359.287 338.747 360.545 338.592 362.232Z" fill="#E54332"/>
<path d="M319.533 389.455C319.197 389.649 319.082 390.092 319.288 390.449L319.599 390.987C319.801 391.337 320.24 391.47 320.583 391.272C320.919 391.078 321.034 390.635 320.828 390.278L320.517 389.739C320.305 389.386 319.87 389.26 319.533 389.455Z" fill="#E54332"/>
<path d="M321.448 388.349C321.112 388.543 320.997 388.986 321.203 389.343L321.514 389.881C321.716 390.231 322.155 390.364 322.498 390.166C322.841 389.968 322.949 389.529 322.743 389.172L322.432 388.633C322.226 388.277 321.791 388.151 321.448 388.349Z" fill="#E54332"/>
<path d="M323.369 387.24C323.033 387.434 322.918 387.877 323.124 388.234L323.435 388.773C323.637 389.123 324.076 389.255 324.419 389.057C324.755 388.863 324.87 388.42 324.664 388.063L324.353 387.524C324.147 387.168 323.706 387.045 323.369 387.24Z" fill="#E54332"/>
<path d="M347.234 361.38C346.076 362.049 345.7 363.549 346.384 364.734C347.068 365.919 348.562 366.34 349.713 365.675C350.871 365.007 351.247 363.506 350.563 362.322C349.879 361.137 348.385 360.716 347.234 361.38Z" fill="#FFCA00"/>
</g>
<g opacity="0.45">
<path opacity="0.45" d="M105.514 33.7168C104.114 28.0268 90.8841 19.7168 83.8141 24.7268C81.6441 13.8868 79.6141 7.12678 72.5241 1.78678C65.4341 -3.55322 53.6041 3.42678 51.7041 18.0468C49.8041 12.0368 40.1441 3.93678 32.3841 10.7668C25.2041 17.0868 24.4841 27.6768 25.2341 33.7068H105.514V33.7168Z" fill="#99B8FF"/>
</g>
<g opacity="0.45">
<path opacity="0.45" d="M470.1 106.641C467.91 101.251 463.78 98.3608 458.89 97.8208C452.73 97.1308 446.48 100.671 446.48 100.671C446.48 100.671 448.8 91.7708 445.65 84.7708C443.51 79.9908 440.09 75.5008 435.35 74.3208C430.44 73.1008 425.23 75.4908 421.57 79.2808C417.91 83.0708 415.55 88.0908 413.45 93.1008C412.36 89.5508 410.92 85.5708 407.71 84.2508C404.39 82.8808 400.55 85.2408 398.81 88.6208C397.07 92.0008 396.98 96.0808 397.22 99.9508C393.37 97.6408 388.46 96.9608 384.6 99.2708C382.13 100.751 380.37 103.651 380 106.651H470.1V106.641Z" fill="#99B8FF"/>
</g>
<g opacity="0.45">
<path opacity="0.45" d="M332 189.993C333.476 186.361 336.258 184.414 339.553 184.05C343.704 183.585 347.915 185.971 347.915 185.971C347.915 185.971 346.352 179.974 348.474 175.257C349.916 172.037 352.221 169.011 355.414 168.216C358.723 167.394 362.233 169.004 364.699 171.558C367.165 174.112 368.756 177.494 370.17 180.87C370.905 178.478 371.875 175.796 374.038 174.907C376.275 173.984 378.862 175.574 380.035 177.851C381.207 180.129 381.268 182.878 381.106 185.486C383.7 183.929 387.009 183.471 389.61 185.027C391.274 186.025 392.46 187.979 392.709 190H332V189.993Z" fill="#99B8FF"/>
</g>
<path d="M71.6437 36.0057C72.772 32.9941 77.1956 33.4981 77.6037 36.6872C81.5498 67.5195 94.4287 148.043 125.675 194.368C176.55 269.797 201.023 383.716 153.924 433.916C153.924 433.918 -51.2775 364.045 71.6437 36.0057Z" fill="url(#paint0_linear)"/>
<path opacity="0.43" d="M72.1492 79.2292C72.1492 79.2292 72.1431 79.5495 72.1329 80.1718C72.1471 80.7901 72.1471 81.6817 72.1879 82.8937C72.2451 85.3034 72.3981 88.8373 72.6185 93.3344C72.8613 97.8314 73.1735 103.289 73.6387 109.545C74.0692 115.803 74.6997 122.853 75.3648 130.543C76.0892 138.227 76.8951 146.552 77.9296 155.336C78.911 164.126 80.1516 173.369 81.4554 182.928C82.8265 192.477 84.2915 202.336 86.0259 212.316C86.4564 214.811 86.8869 217.317 87.3195 219.828C87.7867 222.334 88.256 224.848 88.7253 227.365C89.6312 232.409 90.6922 237.443 91.7043 242.485C92.7081 247.529 93.8895 252.536 94.9444 257.549C96.0891 262.542 97.25 267.51 98.4273 272.434C99.0496 274.886 99.6699 277.33 100.286 279.761C100.913 282.189 101.49 284.619 102.171 287.004C102.83 289.395 103.483 291.772 104.134 294.133C104.459 295.312 104.783 296.49 105.106 297.661C105.45 298.826 105.795 299.985 106.138 301.14C106.828 303.449 107.511 305.739 108.191 308.008C108.531 309.142 108.87 310.268 109.209 311.391C109.57 312.505 109.931 313.615 110.288 314.716C111 316.924 111.704 319.107 112.4 321.264C112.751 322.341 113.081 323.419 113.441 324.48C113.81 325.537 114.177 326.585 114.54 327.628C115.269 329.713 115.987 331.77 116.695 333.796C117.048 334.81 117.401 335.814 117.75 336.812C118.123 337.799 118.495 338.779 118.862 339.752C120.359 343.629 121.731 347.406 123.181 350.978C124.663 354.539 126.081 357.95 127.431 361.194C128.827 364.42 130.235 367.44 131.512 370.301C132.159 371.727 132.787 373.108 133.391 374.441C134.042 375.753 134.669 377.016 135.271 378.23C136.476 380.66 137.582 382.89 138.582 384.906C139.066 385.922 139.592 386.848 140.07 387.728C140.549 388.607 140.998 389.431 141.416 390.199C142.251 391.735 142.959 393.041 143.534 394.1C144.685 396.22 145.299 397.35 145.299 397.35L145.305 397.362C145.397 397.532 145.334 397.746 145.164 397.838C144.997 397.93 144.789 397.868 144.693 397.705C144.693 397.705 144.052 396.587 142.851 394.49C142.249 393.441 141.508 392.147 140.637 390.627C140.202 389.866 139.735 389.048 139.235 388.177C138.739 387.303 138.197 386.383 137.693 385.371C136.656 383.367 135.507 381.147 134.257 378.734C133.632 377.526 132.981 376.269 132.306 374.963C131.675 373.637 131.023 372.262 130.349 370.844C129.021 367.995 127.544 364.992 126.105 361.772C124.716 358.53 123.257 355.122 121.733 351.566C120.239 347.997 118.823 344.223 117.281 340.348C116.901 339.377 116.517 338.397 116.132 337.41C115.773 336.412 115.409 335.408 115.044 334.394C114.312 332.368 113.571 330.311 112.818 328.226C109.837 319.877 106.977 310.97 104.226 301.699C103.879 300.542 103.53 299.379 103.179 298.212C102.853 297.039 102.522 295.859 102.194 294.678C101.535 292.313 100.87 289.93 100.2 287.534C99.5108 285.143 98.9191 282.711 98.2845 280.277C97.6561 277.841 97.0276 275.392 96.3951 272.933C95.1954 268.002 94.016 263.021 92.851 258.018C92.3062 255.508 91.7593 252.993 91.2125 250.477C90.6698 247.959 90.1128 245.441 89.6271 242.909C88.6294 237.851 87.5806 232.801 86.6869 227.743C86.2238 225.217 85.7606 222.697 85.2995 220.183C84.873 217.663 84.4486 215.152 84.0242 212.65C82.3164 202.644 80.878 192.76 79.5333 183.189C78.2744 173.605 77.144 164.332 76.23 155.519C75.273 146.713 74.5426 138.368 73.8856 130.667C72.6511 115.254 72.0227 102.383 71.6901 93.3731C71.5411 88.8659 71.4452 85.3238 71.4269 82.9059C71.4044 81.7062 71.4187 80.7452 71.4167 80.1167C71.4371 79.4924 71.4493 79.17 71.4493 79.17C71.4554 78.9761 71.6187 78.8252 71.8105 78.8333C72.0023 78.8394 72.1512 78.9986 72.1471 79.1883L72.1492 79.2292Z" fill="white"/>
<path d="M207.856 484.477C209.07 483.935 209.619 482.8 209.252 481.714L209.238 481.676L208.216 482.132L208.224 482.169C208.347 482.81 208.074 483.338 207.469 483.608C206.665 483.967 205.866 483.558 205.405 482.527L205.404 482.523C204.947 481.499 205.18 480.638 205.984 480.279C206.61 480 207.178 480.17 207.537 480.657L207.576 480.708L208.599 480.252L208.582 480.223C208.022 479.228 206.814 478.868 205.596 479.411C204.132 480.064 203.63 481.427 204.334 483.005L204.335 483.008C205.039 484.586 206.388 485.132 207.856 484.477Z" fill="#E55200"/>
<path d="M209.274 478.82C209.58 478.683 209.712 478.344 209.587 478.062C209.461 477.78 209.12 477.652 208.814 477.788C208.508 477.925 208.376 478.265 208.501 478.546C208.627 478.828 208.968 478.956 209.274 478.82ZM210.598 483.152L211.614 482.699L209.991 479.062L208.975 479.515L210.598 483.152Z" fill="#E55200"/>
<path d="M213.28 481.956L214.424 481.445L214.082 477.237L213.021 477.71L213.484 480.815L213.463 480.824L211.452 478.41L210.367 478.894L213.28 481.956Z" fill="#E55200"/>
<path d="M214.757 476.374C215.063 476.238 215.195 475.898 215.069 475.616C214.944 475.335 214.603 475.206 214.297 475.343C213.991 475.479 213.858 475.819 213.984 476.101C214.11 476.382 214.451 476.511 214.757 476.374ZM216.08 480.707L217.096 480.253L215.474 476.616L214.458 477.069L216.08 480.707Z" fill="#E55200"/>
<path d="M217.802 479.938L218.818 479.485L216.634 474.589L215.618 475.042L217.802 479.938Z" fill="#E55200"/>
<path d="M209.248 493.601L212.574 492.117L212.197 491.273L209.922 492.287L209.372 491.056L211.519 490.098L211.162 489.297L209.015 490.255L208.492 489.081L210.767 488.066L210.39 487.221L207.064 488.705L209.248 493.601Z" fill="#E55200"/>
<path d="M213.245 491.818L214.261 491.365L213.329 489.275C213.117 488.8 213.26 488.345 213.716 488.142C214.172 487.939 214.522 488.108 214.734 488.583L215.691 490.727L216.707 490.274L215.659 487.926C215.279 487.074 214.585 486.77 213.764 487.136C213.2 487.387 212.931 487.813 212.926 488.315L212.905 488.325L212.639 487.727L211.623 488.18L213.245 491.818Z" fill="#E55200"/>
<path d="M219.656 490.472C220.776 489.972 221.229 489.107 220.867 488.296L219.29 484.76L218.274 485.214L218.551 485.834L218.53 485.844C218.139 485.51 217.611 485.42 217.086 485.654C216.143 486.075 215.866 487.024 216.384 488.185L216.385 488.188C216.889 489.318 217.769 489.739 218.702 489.323C219.241 489.083 219.551 488.655 219.576 488.188L219.597 488.179L219.845 488.736C220.027 489.143 219.867 489.532 219.341 489.766C218.917 489.955 218.576 489.92 218.416 489.776L218.395 489.757L217.407 490.198L217.424 490.227C217.782 490.767 218.63 490.929 219.656 490.472ZM218.729 488.44C218.221 488.667 217.721 488.406 217.429 487.751L217.427 487.747C217.137 487.096 217.282 486.551 217.786 486.326C218.28 486.106 218.791 486.362 219.08 487.01L219.081 487.014C219.372 487.665 219.227 488.218 218.729 488.44Z" fill="#E55200"/>
<path d="M220.278 483.758C220.584 483.622 220.716 483.282 220.59 483.001C220.465 482.719 220.124 482.59 219.818 482.727C219.512 482.863 219.379 483.203 219.505 483.485C219.631 483.766 219.972 483.895 220.278 483.758ZM221.601 488.091L222.617 487.638L220.995 484L219.979 484.453L221.601 488.091Z" fill="#E55200"/>
<path d="M223.299 487.333L224.315 486.88L223.382 484.79C223.171 484.315 223.314 483.861 223.77 483.657C224.225 483.454 224.576 483.623 224.788 484.098L225.745 486.243L226.76 485.789L225.713 483.441C225.333 482.59 224.638 482.285 223.817 482.651C223.254 482.903 222.985 483.328 222.979 483.831L222.959 483.84L222.692 483.243L221.676 483.696L223.299 487.333Z" fill="#E55200"/>
<path d="M227.404 485.502L228.42 485.049L227.487 482.959C227.275 482.484 227.419 482.029 227.875 481.826C228.33 481.623 228.681 481.792 228.893 482.267L229.849 484.411L230.865 483.958L229.818 481.61C229.438 480.759 228.743 480.454 227.922 480.82C227.359 481.072 227.09 481.497 227.084 482L227.064 482.009L226.797 481.412L225.781 481.865L227.404 485.502Z" fill="#E55200"/>
<path d="M233.24 482.989C234.304 482.514 234.545 481.67 234.421 481.083L234.415 481.041L233.482 481.457L233.484 481.48C233.502 481.716 233.348 482.053 232.931 482.24C232.412 482.471 231.938 482.276 231.668 481.7L234.236 480.555L234.099 480.25C233.609 479.15 232.601 478.733 231.509 479.221C230.417 479.708 230.047 480.759 230.563 481.916L230.565 481.92C231.084 483.084 232.099 483.498 233.24 482.989ZM231.856 479.952C232.277 479.765 232.696 479.891 232.983 480.365L231.4 481.071C231.247 480.55 231.439 480.139 231.856 479.952Z" fill="#E55200"/>
<path d="M235.468 481.905L236.484 481.452L235.569 479.403C235.341 478.89 235.501 478.465 236.002 478.241C236.148 478.176 236.297 478.135 236.395 478.131L236.006 477.259C235.921 477.273 235.809 477.303 235.697 477.352C235.256 477.549 235.053 477.945 235.141 478.434L235.121 478.444L234.844 477.823L233.845 478.268L235.468 481.905Z" fill="#E55200"/>
<path d="M236.76 476.406C237.066 476.27 237.199 475.93 237.073 475.648C236.947 475.367 236.606 475.238 236.3 475.375C235.994 475.511 235.862 475.851 235.988 476.132C236.113 476.414 236.454 476.543 236.76 476.406ZM238.084 480.738L239.1 480.285L237.477 476.648L236.461 477.101L238.084 480.738Z" fill="#E55200"/>
<path d="M239.781 479.981L240.797 479.528L239.865 477.438C239.653 476.963 239.796 476.508 240.252 476.305C240.708 476.102 241.059 476.271 241.27 476.746L242.227 478.89L243.243 478.437L242.195 476.089C241.816 475.237 241.121 474.933 240.3 475.299C239.736 475.551 239.467 475.976 239.462 476.479L239.441 476.488L239.175 475.891L238.159 476.344L239.781 479.981Z" fill="#E55200"/>
<path d="M246.192 478.635C247.312 478.135 247.765 477.27 247.403 476.459L245.826 472.924L244.81 473.377L245.087 473.998L245.066 474.007C244.675 473.673 244.147 473.583 243.622 473.817C242.679 474.238 242.402 475.187 242.92 476.348L242.921 476.351C243.425 477.481 244.305 477.902 245.238 477.486C245.777 477.246 246.087 476.819 246.112 476.352L246.133 476.342L246.381 476.899C246.563 477.306 246.403 477.695 245.877 477.929C245.453 478.119 245.112 478.083 244.952 477.939L244.931 477.92L243.943 478.361L243.96 478.39C244.318 478.93 245.166 479.093 246.192 478.635ZM245.265 476.603C244.757 476.83 244.257 476.569 243.965 475.914L243.964 475.911C243.673 475.259 243.818 474.715 244.322 474.49C244.816 474.269 245.327 474.526 245.616 475.174L245.617 475.177C245.908 475.828 245.763 476.382 245.265 476.603Z" fill="#E55200"/>
<path d="M234.395 254.782H221.665V268.709H234.395V254.782Z" fill="#00B6CB"/>
<path d="M228.022 261.745C219.997 261.745 213.486 268.317 213.486 276.417C213.486 284.524 219.997 291.088 228.022 291.088C236.056 291.088 242.558 284.516 242.558 276.417C242.566 268.317 236.056 261.745 228.022 261.745Z" fill="#00B6CB"/>
<path d="M233.836 276.253C228.192 276.253 219.673 272.003 214.968 275.583C214.952 275.861 214.936 276.139 214.936 276.417C214.936 283.699 220.807 289.633 228.03 289.633C235.245 289.633 241.125 283.707 241.125 276.417C241.125 275.011 240.906 273.654 240.501 272.387C238.825 274.668 236.711 276.253 233.836 276.253Z" fill="#E54332"/>
<path d="M233.675 253H222.378C221.544 253 220.872 253.678 220.872 254.52C220.872 255.362 221.544 256.04 222.378 256.04H233.675C234.509 256.04 235.181 255.362 235.181 254.52C235.181 253.678 234.509 253 233.675 253Z" fill="#00B6CB"/>
<path d="M227.561 283.356C226.629 283.356 225.868 284.124 225.868 285.064C225.868 286.012 226.629 286.772 227.561 286.772C228.5 286.772 229.253 286.004 229.253 285.064C229.253 284.124 228.492 283.356 227.561 283.356Z" fill="#FFCA00"/>
<path d="M235.828 279.547C235.229 279.547 234.743 280.038 234.743 280.642C234.743 281.247 235.229 281.738 235.828 281.738C236.428 281.738 236.913 281.247 236.913 280.642C236.913 280.038 236.428 279.547 235.828 279.547Z" fill="#FFCA00"/>
<path d="M219.738 277.397C219.107 277.397 218.604 277.912 218.604 278.542C218.604 279.171 219.115 279.686 219.738 279.686C220.37 279.686 220.872 279.171 220.872 278.542C220.872 277.912 220.362 277.397 219.738 277.397Z" fill="#FFCA00"/>
<path d="M246.543 256.931H244.777V295.06H246.543V256.931Z" fill="#09455F"/>
<path d="M217.624 258.288C217.624 258.689 217.94 259.007 218.337 259.007H247.603V257.569H218.337C217.94 257.569 217.624 257.888 217.624 258.288Z" fill="#09455F"/>
<path d="M211 294.627C211 295.387 211.607 296 212.36 296H248V293.246H212.36C211.607 293.254 211 293.867 211 294.627Z" fill="#09455F"/>
<g clip-path="url(#clip2)">
<path d="M427.954 268.387L420.314 264.949L416.553 273.308L424.193 276.746L427.954 268.387Z" fill="#00B6CB"/>
<path d="M422.248 270.845C417.432 268.678 411.75 270.863 409.562 275.724C407.372 280.59 409.507 286.287 414.323 288.455C419.144 290.624 424.822 288.437 427.009 283.576C429.202 278.717 427.069 273.015 422.248 270.845Z" fill="#00B6CB"/>
<path d="M421.819 281.122C418.432 279.598 414.467 274.746 410.677 275.624C410.592 275.787 410.507 275.949 410.432 276.116C408.466 280.486 410.386 285.633 414.721 287.584C419.052 289.532 424.18 287.564 426.149 283.189C426.529 282.345 426.764 281.472 426.863 280.602C425.241 281.518 423.545 281.899 421.819 281.122Z" fill="#E54332"/>
<path d="M428.003 267.124L421.223 264.073C420.723 263.848 420.136 264.073 419.909 264.578C419.681 265.084 419.902 265.672 420.402 265.897L427.182 268.948C427.682 269.174 428.269 268.948 428.496 268.443C428.724 267.938 428.503 267.349 428.003 267.124Z" fill="#00B6CB"/>
<path d="M416.135 283.69C415.576 283.438 414.912 283.694 414.658 284.258C414.402 284.827 414.653 285.489 415.212 285.74C415.776 285.994 416.435 285.736 416.689 285.172C416.943 284.608 416.694 283.941 416.135 283.69Z" fill="#FFCA00"/>
<path d="M422.126 283.637C421.766 283.475 421.342 283.638 421.179 284.001C421.015 284.364 421.175 284.79 421.534 284.952C421.894 285.113 422.318 284.95 422.481 284.587C422.645 284.224 422.485 283.799 422.126 283.637Z" fill="#FFCA00"/>
<path d="M413.05 278.001C412.67 277.831 412.23 278.004 412.06 278.382C411.89 278.759 412.057 279.206 412.431 279.375C412.811 279.545 413.251 279.372 413.421 278.994C413.591 278.616 413.424 278.17 413.05 278.001Z" fill="#FFCA00"/>
<path d="M434.663 272.958L433.604 272.481L423.306 295.364L424.366 295.84L434.663 272.958Z" fill="#09455F"/>
<path d="M416.941 265.962C416.833 266.203 416.937 266.479 417.175 266.587L434.739 274.49L435.127 273.627L417.563 265.723C417.325 265.616 417.05 265.722 416.941 265.962Z" fill="#09455F"/>
<path d="M403.152 285.981C402.947 286.437 403.146 286.969 403.598 287.173L424.986 296.798L425.73 295.145L404.342 285.52C403.888 285.321 403.358 285.525 403.152 285.981Z" fill="#09455F"/>
</g>
<path d="M298.245 379.588L293.126 481.49H260.691H258.678L261.495 379.648H263.121V379.588H298.245Z" fill="#7D2D45"/>
<path d="M212.257 360.988L211.364 374.52H207.625L207.992 360.988H209.906H212.257Z" fill="#7D2D45"/>
<path d="M300 374.521L299.881 379.588H298.244H263.121L263.25 374.521H300Z" fill="#A97996"/>
<path d="M214.023 356L213.457 360.988H212.257H209.906L209.986 356H214.023Z" fill="#A97996"/>
<path d="M256.267 379.647L256.307 386.106H254.065L253.222 379.647H256.267ZM246.021 379.647L246.864 386.106H249.096L249.056 379.647H246.021ZM238.81 379.647L239.653 386.106H241.895L241.845 379.647H238.81ZM231.609 379.647L232.452 386.106H234.684L234.644 379.647H231.609ZM224.398 379.647L225.241 386.106H227.482L227.433 379.647H224.398ZM217.187 379.647L218.04 386.106H220.271L220.232 379.647H217.187ZM209.985 379.647L210.828 386.106H213.07L213.021 379.647H209.985Z" fill="url(#paint1_linear)"/>
<path d="M84.8076 379.647L84.8572 386.106H82.6155L81.7724 379.647H84.8076ZM73.6388 379.647L74.4819 386.106H76.7137L76.674 379.647H73.6388ZM65.4953 379.647L66.3384 386.106H68.5801L68.5405 379.647H65.4953ZM57.3618 379.647L58.2049 386.106H60.4466L60.397 379.647H57.3618ZM49.2282 379.647L50.0713 386.106H52.3031L52.2634 379.647H49.2282ZM41.0847 379.647L41.9278 386.106H44.1695L44.1299 379.647H41.0847ZM32.9512 379.647L33.7943 386.106H36.036L35.9864 379.647H32.9512Z" fill="url(#paint2_linear)"/>
<path d="M207.625 374.521H211.364H263.25L263.121 379.588V379.647H261.495H256.267H253.222H249.056H246.021H241.845H238.81H234.644H231.609H227.433H224.398H220.232H217.187H213.021H209.985H206.573L205.621 374.521H207.625Z" fill="url(#paint3_linear)"/>
<path d="M209.985 356L209.906 360.988H207.992H88.2001H86.4543L86.375 356H209.985Z" fill="url(#paint4_linear)"/>
<path d="M90.908 374.521L90.1442 379.588H28.349H27.119L27 374.521H86.6726H88.7952H90.908Z" fill="url(#paint5_linear)"/>
<path d="M31.5624 481.49H258.677H260.691L259.986 511H207.535H88.8246H30.2531L29.5488 481.49H31.5624Z" fill="#265397"/>
<path d="M81.7722 379.647L82.6154 386.106H84.857L84.8074 379.647H81.7722ZM57.3616 379.647L58.2048 386.106H60.4464L60.3968 379.647H57.3616ZM65.4952 379.647L66.3383 386.106H68.58L68.5403 379.647H65.4952ZM73.6387 379.647L74.4818 386.106H76.7136L76.6739 379.647H73.6387ZM32.951 379.647L33.7942 386.106H36.0358L35.9862 379.647H32.951ZM41.0846 379.647L41.9277 386.106H44.1694L44.1297 379.647H41.0846ZM49.2281 379.647L50.0712 386.106H52.303L52.2633 379.647H49.2281ZM28.3486 379.588H90.1439L90.9076 374.52H88.7949L88.1997 360.988H207.991L207.624 374.52H205.621L206.573 379.647H209.985L210.828 386.106H213.07L213.02 379.647H217.186L218.039 386.106H220.271L220.231 379.647H224.397L225.24 386.106H227.482L227.432 379.647H231.608L232.451 386.106H234.683L234.643 379.647H238.809L239.653 386.106H241.894L241.845 379.647H246.021L246.864 386.106H249.095L249.056 379.647H253.222L254.065 386.106H256.307L256.267 379.647H261.494L258.677 481.49H31.5624L28.3486 379.588Z" fill="url(#paint6_linear)"/>
<path d="M151.344 440.276L151.017 437.047L157.881 437.137L157.752 440.227L151.344 440.276ZM142.11 386.901L135.454 386.811L135.772 389.941L141.991 389.891L142.11 386.901ZM134.214 404.805L140.741 404.755L140.88 401.606L133.887 401.516L134.214 404.805ZM149.648 367.098L149.976 370.347L156.423 370.298L156.552 367.188L149.648 367.098ZM156.75 390.517L156.879 387.467L150.114 387.378L150.432 390.557L156.75 390.517ZM212.981 443.307L205.8 443.217L206.137 446.596L212.842 446.546L212.981 443.307ZM168.455 393.309L160.758 393.21L161.125 396.827L168.306 396.777L168.455 393.309ZM159.895 457.684L167.383 457.624L167.542 454.008L159.518 453.898L159.895 457.684ZM145.264 405.898L137.845 405.799L138.192 409.286L145.125 409.237L145.264 405.898ZM121.964 431.592L122.103 428.373L114.962 428.284L115.299 431.642L121.964 431.592ZM133.996 438.239L141.207 438.19L141.356 434.712L133.639 434.613L133.996 438.239ZM121.072 423.355L121.22 419.868L113.474 419.769L113.841 423.405L121.072 423.355ZM126.17 472.012L126.319 468.544L118.622 468.445L118.989 472.061L126.17 472.012ZM211.245 464.699L211.394 461.142L203.479 461.042L203.855 464.758L211.245 464.699ZM115.418 375.832L122.649 375.782L122.798 372.295L115.051 372.196L115.418 375.832ZM113.256 382.569L120.615 382.519L120.764 378.972L112.879 378.872L113.256 382.569ZM188.074 407.11L193.52 407.071L193.649 404.07L186.983 403.98L187.182 405.928L180.467 405.838L180.834 409.435L187.985 409.386L188.074 407.11ZM187.023 393.955L179.494 393.856L179.852 397.393L186.884 397.343L187.023 393.955ZM184.355 416.341L176.935 416.241L177.283 419.729L184.206 419.679L184.355 416.341ZM133.461 450.719L125.426 450.61L125.803 454.385L133.302 454.326L133.461 450.719ZM200.543 421.915L200.572 421.309L203.568 421.289L203.707 417.911L196.208 417.811L196.317 418.845L193.976 418.815L194.294 421.954L200.543 421.915ZM182.897 464.093L183.036 460.834L175.795 460.734L176.142 464.142L182.897 464.093ZM207.833 416.072L215.342 416.013L215.5 412.386L207.456 412.277L207.833 416.072ZM169.417 405.62L176.677 405.57L176.826 402.073L169.05 401.973L169.417 405.62ZM208.498 456.829L208.627 453.7L201.683 453.61L202.011 456.879L208.498 456.829ZM176.43 368.072L169.129 367.973L169.476 371.401L176.291 371.351L176.43 368.072ZM187.797 457.465L194.472 457.416L194.611 454.196L187.459 454.107L187.797 457.465ZM202.278 425.988L194.601 425.889L194.968 429.496L202.14 429.446L202.278 425.988ZM195.057 449.238L187.529 449.139L187.886 452.676L194.909 452.627L195.057 449.238ZM193.272 439.77L193.421 436.381L185.892 436.282L186.249 439.819L193.272 439.77ZM187.618 413.896L187.936 417.076L194.264 417.026L194.393 413.976L187.618 413.896ZM196.099 396.29L196.466 399.907L203.657 399.857L203.806 396.389L196.099 396.29ZM189.384 379.131L196.922 379.071L197.081 375.435L189.007 375.325L189.384 379.131ZM118.096 395.754L124.752 395.704L124.891 392.495L117.769 392.405L118.096 395.754ZM29.9957 431.791L32.1183 431.771L32.2473 428.751L29.8965 428.721L29.9957 431.791ZM31.791 456.452L31.9299 453.272L30.6702 453.253L30.7694 456.452H31.791ZM74.879 428.065L75.0179 424.816L67.8068 424.727L68.1441 428.115L74.879 428.065ZM45.2709 445.324L52.1051 445.274L52.2439 441.975L44.9237 441.876L45.2709 445.324ZM41.9877 466.487L42.1365 462.95L34.2708 462.851L34.6477 466.547L41.9877 466.487ZM43.0094 410.389L35.9768 410.3L36.3141 413.608L42.8804 413.559L43.0094 410.389ZM242.589 408.74L249.77 408.69L249.919 405.222L242.222 405.123L242.589 408.74ZM40.8966 437.305L34.1616 437.216L34.4791 440.386L40.7677 440.336L40.8966 437.305ZM230.19 391.849L237.263 391.799L237.411 388.391L229.833 388.292L230.19 391.849ZM254.561 445.503L247.053 445.403L247.41 448.93L254.413 448.881L254.561 445.503ZM250.068 466.338L250.217 462.89L242.559 462.791L242.926 466.388L250.068 466.338ZM233.553 403.971L240.635 403.921L240.784 400.503L233.196 400.404L233.553 403.971ZM234.813 436.6L235.16 440.038L241.994 439.988L242.133 436.689L234.813 436.6ZM235.606 472.816L241.925 472.767L242.053 469.716L235.289 469.627L235.606 472.816ZM228.951 428.035L229.318 431.702L236.588 431.652L236.737 428.145L228.951 428.035ZM243.879 423.574L236.866 423.485L237.193 426.783L243.74 426.734L243.879 423.574ZM37.6432 396.26L37.7722 393.23L31.0471 393.14L31.3645 396.3L37.6432 396.26ZM91.3148 436.54L91.4437 433.53L84.7583 433.44L85.0757 436.58L91.3148 436.54ZM94.6277 408.074L87.8828 407.985L88.2002 411.154L94.4988 411.104L94.6277 408.074ZM83.1614 428.423L76.3669 428.333L76.6843 431.533L83.0324 431.483L83.1614 428.423ZM84.8377 383.97L89.6782 383.93L89.817 380.611L84.8179 380.542L84.8377 383.97ZM111.401 386.424L104.358 386.334L104.695 389.643L111.272 389.593L111.401 386.424ZM73.1135 400.145L79.5806 400.096L79.7096 396.976L72.7861 396.886L73.1135 400.145ZM81.2867 451.593L81.4156 448.454L74.4525 448.364L74.7799 451.643L81.2867 451.593ZM83.7069 459.939L83.7169 459.999L90.2931 459.949L90.432 456.78L83.3796 456.69L83.3895 456.8L81.6239 456.78L81.9414 459.959L83.7069 459.939ZM71.6554 415.357L78.559 415.307L78.6978 411.979L71.2983 411.879L71.6554 415.357ZM103.426 463.159L103.555 460.079L96.7107 459.989L97.038 463.208L103.426 463.159ZM109.119 436.759L102.285 436.67L102.613 439.879L108.99 439.829L109.119 436.759ZM96.0561 476.989L96.2048 473.442L88.3193 473.343L88.6962 477.049L96.0561 476.989ZM97.415 419.103L103.922 419.053L104.051 415.913L97.0777 415.824L97.415 419.103ZM98.9226 451.087L92.0785 450.997L92.4059 454.216L98.7937 454.167L98.9226 451.087ZM96.8297 404.279L103.049 404.229L103.178 401.228L96.5222 401.139L96.8297 404.279ZM105.856 370.318L98.1093 370.218L98.4763 373.855L105.707 373.805L105.856 370.318Z" fill="url(#paint7_linear)"/>
<path d="M172.333 469.756L171.49 416.391H184.92L184.077 469.756H172.333ZM181.389 467.024L182.143 419.133H174.267L175.021 467.024H181.389ZM140.255 469.756L139.412 416.391H152.832L151.999 469.756H140.255ZM149.311 467.024L150.065 419.133H142.189L142.943 467.024H149.311ZM108.177 469.756L107.334 416.391H120.754L119.921 469.756H108.177ZM117.233 467.024L117.987 419.133H110.111L110.865 467.024H117.233ZM171.49 416.351L171.182 396.608H185.228L184.92 416.351H171.49ZM182.232 413.618L182.46 399.341H173.95L174.178 413.618H182.232ZM139.412 416.351L139.104 396.608H153.15L152.842 416.351H139.412ZM150.154 413.618L150.382 399.341H141.872L142.1 413.618H150.154ZM107.334 416.351L107.026 396.608H121.072L120.764 416.351H107.334ZM118.076 413.618L118.304 399.341H109.794L110.022 413.618H118.076Z" fill="#7D2D45"/>
<path d="M171.331 469.756L170.488 416.391H183.918L183.075 469.756H171.331ZM180.387 467.024L181.141 419.133H173.265L174.019 467.024H180.387ZM139.253 469.756L138.41 416.391H151.83L150.987 469.756H139.253ZM148.309 467.024L149.063 419.133H141.187L141.941 467.024H148.309ZM107.175 469.756L106.332 416.391H119.752L118.919 469.756H107.175ZM116.231 467.024L116.985 419.133H109.109L109.863 467.024H116.231ZM170.488 416.351L170.18 396.608H184.226L183.918 416.351H170.488ZM181.23 413.618L181.458 399.341H172.948L173.176 413.618H181.23ZM138.41 416.351L138.092 396.608H152.138L151.83 416.351H138.41ZM149.152 413.618L149.38 399.341H140.87L141.098 413.618H149.152ZM106.332 416.351L106.024 396.608H120.07L119.762 416.351H106.332ZM117.074 413.618L117.302 399.341H108.792L109.02 413.618H117.074Z" fill="url(#paint8_linear)"/>
<path d="M182.202 414.612L182.46 398.347H171.936L172.194 414.612H182.202ZM183.214 397.602L182.936 415.357H171.46L171.182 397.602H183.214ZM150.124 414.612L150.382 398.347H139.858L140.116 414.612H150.124ZM151.136 397.602L150.858 415.357H139.382L139.104 397.602H151.136ZM118.046 414.612L118.304 398.347H107.78L108.038 414.612H118.046ZM119.058 397.602L118.78 415.357H107.304L107.026 397.602H119.058ZM181.359 468.017L182.143 418.139H172.254L173.037 468.017H181.359ZM182.907 417.384L182.093 468.762H172.303L171.49 417.384H182.907ZM149.281 468.017L150.065 418.139H140.176L140.959 468.017H149.281ZM150.819 417.384L150.015 468.762H140.225L139.412 417.384H150.819ZM117.203 468.017L117.987 418.139H108.098L108.881 468.017H117.203ZM118.741 417.384L117.937 468.762H108.147L107.334 417.384H118.741Z" fill="#42A4B8"/>
<path d="M117.987 418.139L117.203 468.017H108.881L108.098 418.139H117.987ZM107.78 398.347L108.038 414.612H118.046L118.304 398.347H107.78ZM140.176 418.139L140.959 468.017H149.281L150.065 418.139H140.176ZM139.858 398.347L140.116 414.612H150.124L150.382 398.347H139.858ZM171.936 398.347L172.194 414.612H182.202L182.46 398.347H171.936ZM172.254 418.139L173.037 468.017H181.359L182.143 418.139H172.254Z" fill="#9ECFFF"/>
<path d="M177.57 407.587L177.56 398.347H177.064L177.074 407.587H172.085L172.095 408.084H177.074V414.612H177.57V408.084H182.302L182.311 407.587H177.57Z" fill="#42A4B8"/>
<path d="M181.944 430.688L177.57 430.907V418.139H177.074V430.937L172.462 431.175V431.672L177.074 431.433L177.084 447.41H172.71L172.72 447.907H177.084L177.094 468.017H177.59L177.58 447.907H181.677L181.687 447.41H177.58L177.57 431.404L181.935 431.185L181.944 430.688Z" fill="#42A4B8"/>
<path d="M150.233 407.587H145.244L145.254 398.347H144.758L144.748 407.587H140.007L140.017 408.084H144.748V414.612H145.244V408.084H150.223L150.233 407.587Z" fill="#42A4B8"/>
<path d="M118.145 408.084L118.155 407.587H113.285V398.347H112.789V407.587H107.929L107.939 408.084H112.789L112.799 414.612H113.295L113.285 408.084H118.145Z" fill="#42A4B8"/>
<path d="M145.244 418.139H144.748V430.907L140.374 430.688L140.384 431.185L144.748 431.404L144.738 447.41H140.632L140.642 447.907H144.738L144.728 468.017H145.224L145.234 447.907H149.599L149.609 447.41H145.234L145.244 431.433L149.857 431.672V431.175L145.244 430.937V418.139Z" fill="#42A4B8"/>
<path d="M117.788 430.678L113.295 430.907V418.139H112.799V430.937L108.306 431.165V431.662L112.799 431.433L112.809 447.41H108.554L108.564 447.907H112.809L112.819 468.017H113.315L113.305 447.907H117.52L117.53 447.41H113.305L113.295 431.404L117.778 431.175L117.788 430.678Z" fill="#42A4B8"/>
<path d="M90.1439 379.588H28.3486L28.3982 381.237L34.5182 381.337L35.1431 386.106H37.3848L37.3551 381.386L42.6716 381.466L43.2767 386.106H45.5184L45.4886 381.506L50.835 381.595L51.4202 386.106H53.6519L53.6222 381.635L58.9784 381.724L59.5537 386.106H61.7954L61.7657 381.764L67.1318 381.853L67.6873 386.106H69.929L69.9091 381.893L75.2952 381.982L75.8308 386.106H78.0625L78.0427 382.022L83.4486 382.102L83.9643 386.106H86.206L86.1763 382.151L90.1439 382.211V379.588Z" fill="#C7919A"/>
<path d="M261.495 379.588H206.554L206.603 381.237L212.039 381.337L212.594 386.106H214.588L214.558 381.386L219.29 381.466L219.825 386.106H221.819L221.799 381.506L226.54 381.595L227.066 386.106H229.05L229.03 381.635L233.791 381.724L234.297 386.106H236.291L236.261 381.764L241.032 381.853L241.528 386.106H243.522L243.502 381.893L248.293 381.982L248.769 386.106H250.753L250.733 382.022L255.534 382.102L256 386.106H257.994L257.964 382.151L261.495 382.211V379.588Z" fill="#C7919A"/>
<path d="M88.2002 360.988H207.992V365.26L88.2895 363.124L88.2002 360.988Z" fill="#C7919A"/>
<path d="M29.7373 486.16L33.8041 486.587L29.7472 486.925L29.7373 486.16Z" fill="#E8A699"/>
<path d="M29.7969 489.677L33.8141 490.045L29.8068 490.403L29.7969 489.677Z" fill="#E8A699"/>
<path d="M29.8467 493.195L33.8242 493.513L29.8566 493.87L29.8467 493.195Z" fill="#E8A699"/>
<path d="M29.9062 496.712L33.8342 496.97L29.9162 497.338L29.9062 496.712Z" fill="#E8A699"/>
<path d="M29.9658 500.219L33.8441 500.438L29.9757 500.815L29.9658 500.219Z" fill="#E8A699"/>
<path d="M30.0254 503.737L33.8541 503.896L30.0254 504.283V503.737Z" fill="#E8A699"/>
<path d="M30.0742 507.254L33.8633 507.363L30.0841 507.751L30.0742 507.254Z" fill="#E8A699"/>
<path d="M295.14 481.49L294.436 511H259.987L260.692 481.49H293.127H295.14Z" fill="#0B1E3C"/>
<path d="M185.019 484.531L184.434 502.246H174.554L174.128 484.531H185.019ZM148.646 484.531V502.246H158.932L159.537 484.531H148.646ZM135.027 484.531L136.049 502.246H145.918V484.531H135.027ZM107.621 484.531L108.633 502.246H118.502V484.531H107.621Z" fill="#A7D3FF"/>
<path d="M118.503 503.429L109.387 504.025L109.179 509.857L108.802 503.429H118.503Z" fill="#AD522F"/>
<path d="M145.919 503.429L136.803 504.025L136.595 509.857L136.218 503.429H145.919Z" fill="#AD522F"/>
<path d="M158.357 503.429L149.232 504.025L149.023 509.857L148.646 503.429H158.357Z" fill="#AD522F"/>
<path d="M147.555 482.842H146.881V511H147.555V482.842Z" fill="#AD522F"/>
<path d="M184.394 503.429L175.259 504.025L174.852 509.857L174.684 503.429H184.394Z" fill="#AD522F"/>
<path d="M186.844 482.842L185.952 511H173.037L172.66 482.842H186.844ZM184.434 502.247L185.019 484.531H174.128L174.555 502.247H184.434ZM175.259 504.025L184.394 503.429H174.684L174.852 509.857L175.259 504.025Z" fill="url(#paint9_linear)"/>
<path d="M146.881 482.842V511H135.057L133.748 482.842H146.881ZM145.919 502.247V484.531H135.028L136.049 502.247H145.919ZM136.803 504.025L145.919 503.429H136.218L136.595 509.857L136.803 504.025Z" fill="url(#paint10_linear)"/>
<path d="M160.846 482.842L160.211 511H147.555V482.842H160.846ZM158.932 502.247L159.537 484.531H148.646V502.247H158.932ZM149.231 504.025L158.356 503.429H148.646L149.023 509.857L149.231 504.025Z" fill="url(#paint11_linear)"/>
<path d="M120.278 482.842L120.318 511H107.403L106.094 482.842H120.278ZM118.502 502.247V484.531H107.621L108.633 502.247H118.502ZM109.387 504.025L118.502 503.429H108.802L109.179 509.857L109.387 504.025Z" fill="url(#paint12_linear)"/>
<path d="M209.906 385.172H207.694H204.401L138.301 359.169L152.743 360.988L209.906 385.172Z" fill="#A97996"/>
<path d="M198.132 389.315L198.261 387.288H199.551V385.172H204.401H207.694L207.377 387.387H205.621L205.284 392.653H200.642H197.924L198.132 389.315Z" fill="#A97996"/>
<path d="M204.401 385.172H199.55L138.301 361.961L82.4965 385.172H78.4297L138.301 359.169L204.401 385.172Z" fill="url(#paint13_linear)"/>
<path d="M200.641 392.653L199.59 396.588H198.677H197.378L196.833 394.094L185.892 393.428L185.684 392.653H197.924H200.641Z" fill="#E8A699"/>
<path d="M200.136 474.336L199.907 476.115H198.955H88.1999H87.2477L87.0195 474.336H89.1422H101.104H121.815H133.788H154.498H166.461H187.181H199.144H200.136Z" fill="url(#paint14_linear)"/>
<path d="M199.55 385.172V387.288H198.26H83.7856H82.4961V385.172H84.4898L138.3 363.67L196.356 385.172H199.55ZM189.294 385.172H190.266L138.766 365.26L87.7829 385.172H90.9074L139.024 366.403L189.294 385.172Z" fill="url(#paint15_linear)"/>
<path d="M199.55 385.172H196.356L138.3 363.67L84.4898 385.172H82.4961L138.3 361.961L199.55 385.172Z" fill="#E8A699"/>
<path d="M198.301 471.256L199.144 474.336H187.182L187.33 473.79L196.704 473.323V471.256H197.726H198.301Z" fill="#E8A699"/>
<path d="M198.955 476.115L198.886 477.606L88.2399 476.92L88.2002 476.115H198.955Z" fill="#E8A699"/>
<path d="M198.885 477.606L197.298 511H185.951L186.844 482.842H172.66L173.037 511H160.211L160.846 482.842H147.555H146.88H133.748L135.057 511H120.317L120.278 482.842H106.093L107.403 511H89.856L88.2393 476.92L198.885 477.606Z" fill="url(#paint16_linear)"/>
<path d="M198.678 396.588L198.559 406.226L196.773 405.083L195.9 471.256H195.484L195.831 404.477L193.639 403.066L193.371 471.256H192.954L192.677 402.45L190.425 401L190.951 471.256H190.524L189.443 400.364L187.667 399.231L187.638 396.588H197.378H198.678Z" fill="#E8A699"/>
<path d="M198.559 406.226L197.725 471.256H196.704H195.9L196.773 405.083L198.559 406.226Z" fill="#E8A699"/>
<path d="M198.261 387.288L198.132 389.315L83.8456 388.311L83.7861 387.288H198.261Z" fill="#E8A699"/>
<path d="M198.132 389.315L197.924 392.654H185.684H167.959H153.001H135.286H120.318H102.602H87.6447H84.1234L83.8457 388.312L198.132 389.315Z" fill="url(#paint17_linear)"/>
<path d="M196.832 394.094L197.378 396.588H187.637H186.735L185.892 393.428L196.832 394.094ZM195.9 471.256H195.483H193.371H192.954H190.95H190.524H188.59H188.014L187.33 473.79L196.703 473.323V471.256H195.9ZM193.638 403.066L193.371 471.256H195.483L195.83 404.477L193.638 403.066ZM190.425 401L190.95 471.256H192.954L192.676 402.45L190.425 401ZM187.667 399.231L188.59 471.256H190.524L189.443 400.364L187.667 399.231Z" fill="url(#paint18_linear)"/>
<path d="M190.266 385.172H189.294L139.025 366.403L90.9077 385.172H87.7832L138.767 365.26L190.266 385.172Z" fill="#E8A699"/>
<path d="M167.959 392.653L166.907 396.588H166.005H164.705L164.15 394.094L153.209 393.428L153.001 392.653H167.959Z" fill="#E8A699"/>
<path d="M165.627 471.256L166.46 474.336H154.498L154.647 473.79L164.03 473.323V471.256H165.052H165.627Z" fill="#E8A699"/>
<path d="M166.004 396.588L165.052 471.256H164.03H163.227L164.09 405.083L165.875 406.226L166.004 396.588Z" fill="#E8A699"/>
<path d="M166.005 396.588L165.876 406.226L164.09 405.083L163.227 471.256H162.801L163.158 404.477L160.956 403.066L160.698 471.256H160.272L160.004 402.45L157.742 401L158.268 471.256H157.851L156.76 400.364L154.995 399.231L154.965 396.588H164.705H166.005Z" fill="#E8A699"/>
<path d="M164.15 394.094L164.705 396.588H154.965H154.052L153.209 393.428L164.15 394.094ZM163.227 471.256H162.801H160.698H160.271H158.268H157.851H155.917H155.342L154.647 473.79L164.031 473.323V471.256H163.227ZM160.956 403.066L160.698 471.256H162.801L163.158 404.477L160.956 403.066ZM157.742 401L158.268 471.256H160.271L160.003 402.45L157.742 401ZM154.994 399.231L155.917 471.256H157.851L156.76 400.364L154.994 399.231Z" fill="url(#paint19_linear)"/>
<path d="M135.285 392.653L134.234 396.588H133.321H132.022L131.476 394.094L120.526 393.428L120.317 392.653H135.285Z" fill="#E8A699"/>
<path d="M132.945 471.256L133.788 474.336H121.815L121.964 473.79H121.974L131.348 473.323V471.256H132.369H132.945Z" fill="#E8A699"/>
<path d="M133.321 396.588L133.202 406.226L131.407 405.083L130.544 471.256H130.127L130.474 404.477L128.272 403.066L128.014 471.256H127.588L127.32 402.45L125.068 401L125.594 471.256H125.168L124.087 400.364L122.311 399.231L122.281 396.588H132.022H133.321Z" fill="#E8A699"/>
<path d="M133.202 406.226L132.369 471.256H131.347H130.544L131.407 405.083L133.202 406.226Z" fill="#E8A699"/>
<path d="M131.476 394.094L132.021 396.588H122.281H121.369L120.525 393.428L131.476 394.094ZM130.544 471.256H130.127H128.014H127.588H125.594H125.167H123.233H122.658L121.964 473.79H121.974L131.347 473.323V471.256H130.544ZM128.272 403.066L128.014 471.256H130.127L130.474 404.477L128.272 403.066ZM125.068 401L125.594 471.256H127.588L127.32 402.45L125.068 401ZM122.311 399.231L123.233 471.256H125.167L124.086 400.364L122.311 399.231Z" fill="url(#paint20_linear)"/>
<path d="M102.602 392.653L101.551 396.588H100.638H99.3489L98.7935 394.094L87.8528 393.428L87.6445 392.653H102.602Z" fill="#E8A699"/>
<path d="M100.262 471.256L101.105 474.336H89.1426L89.2914 473.79L98.6648 473.323V471.256H99.6964H100.262Z" fill="#E8A699"/>
<path d="M100.638 396.588L100.519 406.226L98.7339 405.083L97.8709 471.256H97.4444L97.8015 404.477L95.5995 403.066L95.3316 471.256H94.9151L94.6373 402.45L92.3857 401L92.9114 471.256H92.4849L91.4037 400.364L89.6382 399.231L89.6084 396.588H99.3488H100.638Z" fill="#E8A699"/>
<path d="M100.519 406.226L99.6962 471.256H98.6646H97.8711L98.734 405.083L100.519 406.226Z" fill="#E8A699"/>
<path d="M98.7932 394.094L99.3486 396.588H89.6082H88.6957L87.8525 393.428L98.7932 394.094ZM97.8707 471.256H97.4442H95.3314H94.9148H92.9112H92.4847H90.5604H89.9851L89.2908 473.79L98.6642 473.323V471.256H97.8707ZM95.5993 403.066L95.3314 471.256H97.4442L97.8013 404.477L95.5993 403.066ZM92.3855 401L92.9112 471.256H94.9148L94.6371 402.45L92.3855 401ZM89.638 399.231L90.5604 471.256H92.4847L91.4035 400.364L89.638 399.231Z" fill="url(#paint21_linear)"/>
<path d="M159.289 491.844L159.308 491.347H154.408L154.508 484.531H154.012L153.912 491.347H148.646V491.844H153.903L153.823 497.428H148.646V497.924H153.813L153.754 502.246H154.25L154.309 497.924H159.08L159.1 497.428H154.319L154.399 491.844H159.289Z" fill="#AD522F"/>
<path d="M184.79 491.347H179.741L179.523 484.531H179.027L179.245 491.347H174.296L174.306 491.844H179.255L179.434 497.428H174.435L174.455 497.924H179.454L179.583 502.246H180.079L179.95 497.924H184.572L184.592 497.428H179.93L179.751 491.844H184.78L184.79 491.347Z" fill="#AD522F"/>
<path d="M118.502 491.347H113.523L113.314 484.531H112.819L113.027 491.347H108.008L108.038 491.844H113.047L113.225 497.428H108.355L108.385 497.924H113.235L113.374 502.246H113.87L113.731 497.924H118.502V497.428H113.721L113.543 491.844H118.502V491.347Z" fill="#AD522F"/>
<path d="M145.918 491.347H140.73L140.522 484.531H140.026L140.235 491.347H135.424L135.444 491.844H140.244L140.413 497.428H135.771L135.801 497.924H140.433L140.562 502.246H141.058L140.929 497.924H145.918V497.428H140.909L140.74 491.844H145.918V491.347Z" fill="#AD522F"/>
<path d="M107.403 511L106.094 482.842H105.191L106.649 511H107.403Z" fill="#E8A699"/>
<path d="M133.748 482.842L135.057 511H133.788L132.607 482.842H133.748Z" fill="#E8A699"/>
<path d="M172.66 482.842L173.037 511H172.253L171.489 482.842H172.66Z" fill="#E8A699"/>
<path d="M198.945 482.096L191.863 482.474L198.945 482.841V482.096Z" fill="#E8A699"/>
<path d="M198.608 487.243L191.833 487.611L198.608 487.988V487.243Z" fill="#E8A699"/>
<path d="M198.271 492.38L191.794 492.757L198.271 493.125V492.38Z" fill="#E8A699"/>
<path d="M197.933 497.527L191.764 497.894L197.933 498.272V497.527Z" fill="#E8A699"/>
<path d="M197.597 502.673L191.725 503.041L197.597 503.419V502.673Z" fill="#E8A699"/>
<path d="M197.259 507.81L191.685 508.188L197.259 508.555V507.81Z" fill="#E8A699"/>
<path d="M204.401 474.336L204.024 476.115H203.26L201.485 511H197.299L198.886 477.605L198.955 476.115H199.908L200.136 474.336H204.401Z" fill="#A97996"/>
<path d="M88.5171 482.812L95.0041 482.464L88.4873 482.126L88.5171 482.812Z" fill="#E8A699"/>
<path d="M88.9736 492.4L89.0034 493.105L95.0738 492.758L88.9736 492.4Z" fill="#E8A699"/>
<path d="M88.7256 487.263L88.7653 487.958L95.0341 487.61L88.7256 487.263Z" fill="#E8A699"/>
<path d="M89.707 507.82L89.7368 508.546L95.1724 508.188L89.707 507.82Z" fill="#E8A699"/>
<path d="M89.2217 497.546L89.2514 498.252L95.1036 497.894L89.2217 497.546Z" fill="#E8A699"/>
<path d="M89.459 502.683L89.4987 503.398L95.1426 503.041L89.459 502.683Z" fill="#E8A699"/>
<path d="M197.299 510.304L187.201 509.976V509.857L187.876 482.196L182.351 480.834L182.767 478.142L176.37 478.023L176.816 481.033L170.339 482.196L171.162 509.976H161.283V509.847L162.483 481.49L150.66 480.159L151.314 477.724H142.705L143.27 480.02L131.218 482.225L132.736 509.976H121.686L122.331 481.599L115.239 480.725L115.556 478.4H110.716L111.023 480.785L103.168 482.225L105.32 509.589L89.8265 510.304L89.8066 510.056L105.052 509.36L102.91 482.027L110.746 480.586L110.428 478.152H115.844L115.527 480.507L122.589 481.381V481.49L121.944 509.728H132.478L130.951 482.027L131.06 482.007L142.962 479.821L142.387 477.476H151.632L150.977 479.94L162.741 481.272L161.541 509.728H170.904L170.081 481.997L176.528 480.834L176.082 477.764L183.045 477.893L182.638 480.656L188.133 481.997L188.124 482.096L187.459 509.738L197.299 510.056V510.304Z" fill="#E8A699"/>
<path d="M344.93 536.036C343.738 530.571 331.625 528.966 316.189 531.96C321.686 530.108 329.238 525.89 333.148 523.961L330.473 522.282L335.846 522.529C340.24 519.993 342.436 517.499 341.003 515.243C339.932 513.559 337.579 512.857 334.389 512.866L332.71 515.831L333.059 512.908C325.017 513.366 323.192 512.071 312.346 516.397C319.123 512.926 320.105 511.849 320.548 510.454L316.877 508.869H321.179C324.657 505.179 330.174 497.876 327.885 494.51C325.996 491.732 317.707 495.587 312.415 497.589L310.166 502.589L310.621 498.319C293.797 505.549 299.498 499.748 299.498 499.748C299.498 499.748 317.062 463.903 306.714 464.71C302.628 465.028 298.237 467.457 293.924 471.348L293.815 474.91L292.531 472.649C289.389 475.689 286.277 479.367 283.308 483.318C287.336 474.973 290.388 466.778 290.694 460.676L287.619 460.31L290.653 458.228C290.368 455.146 289.13 452.814 286.622 451.581C282.776 449.689 278.739 452.55 274.763 458.236L275.745 463.366L273.28 460.492C259.048 483.375 246.034 539.715 246.034 539.715L245 542.771L286.812 544.808C286.812 544.808 347.34 547.075 344.93 536.036Z" fill="#50BFA5"/>
<path d="M23.8045 487.101L23.4897 489.47L22.734 486.729C20.6102 486.048 18.767 485.816 17.3072 486.153C4.24671 489.168 26.8156 507.409 26.8156 507.409C26.8156 507.409 19.6228 502.825 12.6589 499.921L12.5702 502.325L11.68 499.61C6.26746 497.459 1.24706 496.464 0.242405 499.569C-0.702141 502.494 1.1984 505.264 4.46996 507.729L8.23097 507.863L6.01558 508.808C13.5691 513.724 26.0657 517.238 30.3791 518.038C26.2518 517.381 16.1652 516.046 10.1859 517.357L11.1247 518.942L8.76335 517.744C6.67104 518.43 5.37158 519.564 5.51183 521.352C5.77802 524.767 20.3755 526 20.3755 526L73.7023 525.497L74 525.648C73.9943 525.642 40.9953 493.496 23.8045 487.101Z" fill="#3C8F7C"/>
<path d="M226.805 506.101L226.49 508.47L225.734 505.729C223.61 505.048 221.767 504.816 220.307 505.153C207.247 508.168 229.816 526.409 229.816 526.409C229.816 526.409 222.623 521.825 215.659 518.921L215.57 521.325L214.68 518.61C209.267 516.459 204.247 515.464 203.242 518.569C202.298 521.494 204.198 524.264 207.47 526.729L211.231 526.863L209.016 527.808C216.569 532.724 229.066 536.238 233.379 537.038C229.252 536.381 219.165 535.046 213.186 536.357L214.125 537.942L211.763 536.744C209.671 537.43 208.372 538.564 208.512 540.352C208.778 543.767 223.376 545 223.376 545L276.702 544.497L277 544.648C276.994 544.642 243.995 512.496 226.805 506.101Z" fill="#3C8F7C"/>
<rect x="132" y="119" width="68" height="11" rx="3" fill="#E54332"/>
<rect x="285" y="190" width="68" height="11" rx="3" fill="#E54332"/>
<rect x="399.662" y="289.381" width="27.0953" height="4.38307" rx="2.19153" transform="rotate(24.0647 399.662 289.381)" fill="#E54332"/>
<rect x="322" y="406.596" width="45.4681" height="4.38307" rx="2.19153" transform="rotate(-30.1189 322 406.596)" fill="#E54332"/>
<rect x="211" y="302" width="68" height="11" rx="3" fill="#E54332"/>
<defs>
<linearGradient id="paint0_linear" x1="32.4124" y1="233.959" x2="179.1" y2="233.959" gradientUnits="userSpaceOnUse">
<stop stop-color="#DAE3FE"/>
<stop offset="1" stop-color="#E9EFFD"/>
</linearGradient>
<linearGradient id="paint1_linear" x1="233.146" y1="386.186" x2="233.146" y2="379.018" gradientUnits="userSpaceOnUse">
<stop offset="0.3065" stop-color="#FFFBE4"/>
<stop offset="1" stop-color="#FFE696"/>
</linearGradient>
<linearGradient id="paint2_linear" x1="58.9042" y1="386.44" x2="58.9042" y2="378.306" gradientUnits="userSpaceOnUse">
<stop offset="0.3065" stop-color="#FFFBE4"/>
<stop offset="1" stop-color="#FFE696"/>
</linearGradient>
<linearGradient id="paint3_linear" x1="205.621" y1="377.084" x2="263.25" y2="377.084" gradientUnits="userSpaceOnUse">
<stop offset="0.3065" stop-color="#FFFBE4"/>
<stop offset="1" stop-color="#FFE696"/>
</linearGradient>
<linearGradient id="paint4_linear" x1="86.375" y1="358.494" x2="209.985" y2="358.494" gradientUnits="userSpaceOnUse">
<stop offset="0.3065" stop-color="#FFFBE4"/>
<stop offset="1" stop-color="#FFE696"/>
</linearGradient>
<linearGradient id="paint5_linear" x1="27" y1="377.054" x2="90.908" y2="377.054" gradientUnits="userSpaceOnUse">
<stop offset="0.3065" stop-color="#FFFBE4"/>
<stop offset="1" stop-color="#FFE696"/>
</linearGradient>
<linearGradient id="paint6_linear" x1="145.848" y1="486.115" x2="144.493" y2="330.862" gradientUnits="userSpaceOnUse">
<stop stop-color="#FF8759"/>
<stop offset="0.1587" stop-color="#F77D56"/>
<stop offset="0.4327" stop-color="#E3614D"/>
<stop offset="0.7866" stop-color="#C2343F"/>
<stop offset="1" stop-color="#AB1535"/>
</linearGradient>
<linearGradient id="paint7_linear" x1="143.45" y1="500.86" x2="140.4" y2="341.885" gradientUnits="userSpaceOnUse">
<stop stop-color="#FF8759"/>
<stop offset="0.2335" stop-color="#EF7152"/>
<stop offset="0.717" stop-color="#C53940"/>
<stop offset="1" stop-color="#AB1535"/>
</linearGradient>
<linearGradient id="paint8_linear" x1="144.668" y1="472.871" x2="145.176" y2="387.464" gradientUnits="userSpaceOnUse">
<stop offset="0.3065" stop-color="#FFFBE4"/>
<stop offset="1" stop-color="#FFE696"/>
</linearGradient>
<linearGradient id="paint9_linear" x1="178.793" y1="514.896" x2="179.81" y2="481.03" gradientUnits="userSpaceOnUse">
<stop offset="0.00558659" stop-color="#FFAF4D"/>
<stop offset="0.119" stop-color="#F2923C"/>
<stop offset="0.2436" stop-color="#E7792D"/>
<stop offset="0.3184" stop-color="#E36F27"/>
<stop offset="0.5094" stop-color="#D76826"/>
<stop offset="0.853" stop-color="#B85423"/>
<stop offset="1" stop-color="#A84A21"/>
</linearGradient>
<linearGradient id="paint10_linear" x1="139.812" y1="513.726" x2="140.828" y2="479.86" gradientUnits="userSpaceOnUse">
<stop offset="0.00558659" stop-color="#FFAF4D"/>
<stop offset="0.119" stop-color="#F2923C"/>
<stop offset="0.2436" stop-color="#E7792D"/>
<stop offset="0.3184" stop-color="#E36F27"/>
<stop offset="0.5094" stop-color="#D76826"/>
<stop offset="0.853" stop-color="#B85423"/>
<stop offset="1" stop-color="#A84A21"/>
</linearGradient>
<linearGradient id="paint11_linear" x1="153.368" y1="514.133" x2="154.385" y2="480.267" gradientUnits="userSpaceOnUse">
<stop offset="0.00558659" stop-color="#FFAF4D"/>
<stop offset="0.119" stop-color="#F2923C"/>
<stop offset="0.2436" stop-color="#E7792D"/>
<stop offset="0.3184" stop-color="#E36F27"/>
<stop offset="0.5094" stop-color="#D76826"/>
<stop offset="0.853" stop-color="#B85423"/>
<stop offset="1" stop-color="#A84A21"/>
</linearGradient>
<linearGradient id="paint12_linear" x1="112.727" y1="512.913" x2="113.744" y2="479.047" gradientUnits="userSpaceOnUse">
<stop offset="0.00558659" stop-color="#FFAF4D"/>
<stop offset="0.119" stop-color="#F2923C"/>
<stop offset="0.2436" stop-color="#E7792D"/>
<stop offset="0.3184" stop-color="#E36F27"/>
<stop offset="0.5094" stop-color="#D76826"/>
<stop offset="0.853" stop-color="#B85423"/>
<stop offset="1" stop-color="#A84A21"/>
</linearGradient>
<linearGradient id="paint13_linear" x1="141.465" y1="383.446" x2="142.397" y2="351.567" gradientUnits="userSpaceOnUse">
<stop offset="0.3065" stop-color="#FFFBE4"/>
<stop offset="1" stop-color="#FFE696"/>
</linearGradient>
<linearGradient id="paint14_linear" x1="144.033" y1="513.577" x2="143.525" y2="469.943" gradientUnits="userSpaceOnUse">
<stop stop-color="#FFFBE4"/>
<stop offset="1" stop-color="#FFE696"/>
</linearGradient>
<linearGradient id="paint15_linear" x1="141.033" y1="389.238" x2="140.948" y2="364.039" gradientUnits="userSpaceOnUse">
<stop offset="0.3065" stop-color="#FFFBE4"/>
<stop offset="1" stop-color="#FFE696"/>
</linearGradient>
<linearGradient id="paint16_linear" x1="143.984" y1="513.578" x2="143.476" y2="469.944" gradientUnits="userSpaceOnUse">
<stop stop-color="#FFFBE4"/>
<stop offset="1" stop-color="#FFE696"/>
</linearGradient>
<linearGradient id="paint17_linear" x1="140.989" y1="395.065" x2="140.989" y2="385.679" gradientUnits="userSpaceOnUse">
<stop offset="0.3065" stop-color="#FFFBE4"/>
<stop offset="1" stop-color="#FFE696"/>
</linearGradient>
<linearGradient id="paint18_linear" x1="185.892" y1="433.609" x2="197.378" y2="433.609" gradientUnits="userSpaceOnUse">
<stop stop-color="#FFFBE4"/>
<stop offset="1" stop-color="#FFE696"/>
</linearGradient>
<linearGradient id="paint19_linear" x1="153.962" y1="433.609" x2="164.092" y2="433.609" gradientUnits="userSpaceOnUse">
<stop stop-color="#FFFBE4"/>
<stop offset="1" stop-color="#FFE696"/>
</linearGradient>
<linearGradient id="paint20_linear" x1="120.525" y1="433.609" x2="132.021" y2="433.609" gradientUnits="userSpaceOnUse">
<stop offset="0.3065" stop-color="#FFFBE4"/>
<stop offset="1" stop-color="#FFE696"/>
</linearGradient>
<linearGradient id="paint21_linear" x1="87.8525" y1="433.609" x2="99.3486" y2="433.609" gradientUnits="userSpaceOnUse">
<stop offset="0.3065" stop-color="#FFFBE4"/>
<stop offset="1" stop-color="#FFE696"/>
</linearGradient>
<clipPath id="clip0">
<rect width="61.4" height="47.2" fill="white" transform="translate(132 66)"/>
</clipPath>
<clipPath id="clip1">
<rect width="45.861" height="36.6888" fill="white" transform="translate(302 369.931) rotate(-30)"/>
</clipPath>
<clipPath id="clip2">
<rect width="24.3496" height="28.2982" fill="white" transform="translate(414.395 261) rotate(24.2286)"/>
</clipPath>
</defs>
</svg>
