<svg width="54" height="55" viewBox="0 0 54 55" fill="none" xmlns="http://www.w3.org/2000/svg">
<path d="M16.2012 3V19.2" stroke="white" stroke-width="6" stroke-linecap="round"/>
<path d="M27 3V19.2" stroke="white" stroke-width="6" stroke-linecap="round"/>
<path d="M37.7988 3V19.2" stroke="white" stroke-width="6" stroke-linecap="round"/>
<path fill-rule="evenodd" clip-rule="evenodd" d="M6 8.39941C2.68629 8.39941 0 11.0857 0 14.3994V48.2994C0 51.6131 2.68629 54.2994 6 54.2994H48C51.3137 54.2994 54 51.6131 54 48.2994V14.3994C54 11.0857 51.3137 8.39941 48 8.39941H6ZM42.23 29.7497C43.5836 28.7943 43.9064 26.9224 42.9509 25.5688C41.9954 24.2152 40.1235 23.8924 38.77 24.8479L22.1055 36.611L15.9577 27.8284C15.0076 26.4711 13.137 26.141 11.7796 27.0911C10.4223 28.0413 10.0922 29.9119 11.0423 31.2692L18.9173 42.5192L20.6445 44.9866L23.105 43.2497L42.23 29.7497Z" fill="white"/>
</svg>
