<svg width="471" height="567" viewBox="0 0 471 567" fill="none" xmlns="http://www.w3.org/2000/svg">
<path d="M406.843 152.273L213.501 156.655C202.835 156.897 194.228 165.455 193.926 176.119L186.006 456.754C185.77 465.1 192.492 471.983 200.841 471.946L422.528 470.952C430.373 470.916 436.663 464.454 436.485 456.61L430.094 174.494C429.809 161.938 419.4 151.99 406.843 152.273Z" fill="#00215B"/>
<path d="M406.268 153.191C379.947 157.369 289.406 170.5 214.209 166.439C210.78 166.254 207.868 168.915 207.763 172.347L199.178 454.247C199.061 458.112 202.084 461.347 205.948 461.488C237.561 462.641 367.746 466.918 414.011 461.009C416.826 460.65 418.916 458.225 418.869 455.386L413.909 159.608C413.84 155.59 410.238 152.561 406.268 153.191Z" fill="white"/>
<path d="M297.544 144.058L319.437 141.614L320.825 121.451C321.104 117.394 318.492 113.686 314.566 112.624C310.263 111.459 304.188 111.501 297.314 116.517C283.833 126.356 297.544 144.058 297.544 144.058ZM301.734 127.186C301.666 124.165 304.06 121.661 307.08 121.593C310.101 121.525 312.605 123.919 312.673 126.939C312.742 129.96 310.348 132.464 307.328 132.532C304.308 132.6 301.803 130.208 301.734 127.186Z" fill="#00215B"/>
<path d="M317.006 133.198C316.714 133.177 316.495 132.925 316.514 132.633L316.735 129.421C316.754 129.129 317.002 128.908 317.3 128.929C317.592 128.95 317.812 129.202 317.793 129.494L317.572 132.705C317.552 132.981 317.327 133.192 317.055 133.199C317.039 133.199 317.023 133.199 317.006 133.198ZM317.44 126.906C317.147 126.885 316.928 126.633 316.947 126.341L317.115 123.902C317.346 120.54 315.166 117.464 311.931 116.588C309.464 115.921 306.937 115.875 304.418 116.451C304.131 116.514 303.849 116.338 303.785 116.053C303.72 115.768 303.898 115.483 304.182 115.418C306.872 114.803 309.571 114.852 312.208 115.567C315.93 116.574 318.438 120.11 318.172 123.975L318.005 126.413C317.985 126.689 317.76 126.9 317.489 126.907C317.472 126.907 317.456 126.907 317.44 126.906Z" fill="#91B3FA"/>
<path d="M349.673 153.94L349.443 143.822C349.364 140.329 346.405 137.599 342.918 137.798L273.223 141.768C270.13 141.945 267.678 144.444 267.563 147.541L267.199 157.275L349.673 153.94Z" fill="#00215B"/>
<path d="M323.381 142.054L326.38 141.985C326.673 141.979 326.904 141.736 326.898 141.444C326.892 141.152 326.649 140.92 326.357 140.926L323.358 140.995C323.065 141.001 322.834 141.244 322.84 141.536C322.847 141.83 323.089 142.061 323.381 142.054Z" fill="#91B3FA"/>
<path d="M345.826 150.848C346.118 150.842 346.35 150.599 346.344 150.307L346.25 146.215C346.179 143.053 343.548 140.538 340.385 140.61L329.358 140.859C329.065 140.865 328.834 141.108 328.84 141.4C328.846 141.692 329.089 141.924 329.381 141.918L340.409 141.669C342.987 141.611 345.133 143.661 345.191 146.238L345.285 150.331C345.29 150.624 345.534 150.856 345.826 150.848Z" fill="#91B3FA"/>
<path d="M371.444 149.741L249.472 152.502C245.086 152.601 241.407 155.842 240.758 160.18L240.667 160.78C239.955 165.532 243.697 169.778 248.502 169.67L373.637 166.836C376.512 166.77 378.749 164.314 378.545 161.447L378.149 155.852C377.903 152.35 374.952 149.663 371.444 149.741Z" fill="#00215B"/>
<path d="M155.04 438.889L157.847 436.045C156.969 430.904 152.359 428.43 149.324 428.092C141.153 427.185 136.986 433.064 135.235 442.496C132.036 459.711 136.063 532 136.063 532C136.364 530.08 158.559 457.485 157.989 437.54L155.04 438.889Z" fill="#96D9C9"/>
<path d="M403.766 429.229C404.946 428.477 404.207 426.491 402.701 426.353C387.423 424.949 346.721 425.67 316.517 466.853C278.622 518.522 251.5 524.407 228.001 521.213C228.001 521.213 251.368 534.729 279.555 529.408C348.763 516.341 382.777 442.596 403.766 429.229Z" fill="#1755AF"/>
<path d="M383.435 437.083C377.435 441.097 371.537 445.242 365.833 449.62C360.102 453.963 354.532 458.498 349.14 463.223C343.769 467.97 338.505 472.832 333.49 477.943C328.449 483.026 323.667 488.354 318.889 493.724C314.078 499.059 309.266 504.465 303.806 509.309C298.363 514.15 292.149 518.329 285.179 521.128C283.439 521.824 281.676 522.489 279.876 523.036C278.09 523.619 276.265 524.119 274.428 524.584C270.744 525.496 266.957 526.155 263.096 526.521C255.368 527.231 247.363 526.741 239.478 525.242C238.648 525.085 238.006 524.299 238.043 523.486C238.08 522.687 238.759 522.162 239.569 522.293L239.576 522.293C241.496 522.605 243.414 522.894 245.326 523.098C246.283 523.215 247.237 523.29 248.191 523.383C249.143 523.439 250.099 523.533 251.046 523.56C254.846 523.734 258.612 523.641 262.314 523.267C269.717 522.556 276.888 520.711 283.554 518.049C286.867 516.677 290.036 515.049 293.031 513.159C296.024 511.269 298.84 509.122 301.511 506.794C306.856 502.135 311.67 496.83 316.525 491.536C321.388 486.249 326.317 480.974 331.49 475.944C334.068 473.421 336.698 470.952 339.378 468.538C340.711 467.322 342.069 466.136 343.427 464.947C344.797 463.773 346.175 462.608 347.563 461.456C353.128 456.858 358.859 452.455 364.748 448.26C370.663 444.096 376.71 440.109 382.938 436.386C383.116 436.28 383.369 436.351 383.503 436.545C383.631 436.736 383.599 436.972 383.435 437.083Z" fill="white"/>
<path d="M233.561 471.475L220.601 477.256L220.924 477.982L233.885 472.201L233.561 471.475Z" fill="#FFCA00"/>
<path d="M226.713 471.694L225.346 472.304L227.641 477.449L229.008 476.839L226.713 471.694Z" fill="#E54332"/>
<path d="M219.271 456.856C218.843 457.047 218.653 457.544 218.844 457.971L220.185 460.978L221.721 460.293L220.38 457.286C220.195 456.856 219.699 456.665 219.271 456.856Z" fill="#E54332"/>
<path d="M225.907 490.265L226.208 490.209L225.924 488.074L225.338 488.188L225.907 490.265Z" fill="#09455F"/>
<path d="M224.998 488.697L226.437 488.405L226.188 486.263L224.387 486.631L224.998 488.697Z" fill="#E54332"/>
<path d="M224.46 486.987L226.233 486.624L222.9 464.817L220.48 465.314L224.46 486.987Z" fill="#E54332"/>
<path d="M224.902 485.034C224.226 485.172 223.797 485.83 223.933 486.5C224.071 487.176 224.729 487.606 225.399 487.47C226.075 487.331 226.504 486.674 226.368 486.004C226.239 485.331 225.579 484.895 224.902 485.034Z" fill="#FFCA00"/>
<path d="M225.027 485.646C224.694 485.717 224.473 486.041 224.544 486.375C224.615 486.708 224.939 486.929 225.273 486.858C225.606 486.787 225.827 486.463 225.756 486.13C225.691 485.793 225.364 485.582 225.027 485.646Z" fill="#EBFFF5"/>
<path d="M237.648 482.845L239.04 484.485L239.289 484.296L238.124 482.485L237.648 482.845Z" fill="#09455F"/>
<path d="M236.538 481.647L237.966 483.263L239.145 482.387L238.015 480.552L236.538 481.647Z" fill="#E54332"/>
<path d="M222.777 464.872L236.776 481.921L238.231 480.845L224.764 463.403L222.777 464.872Z" fill="#E54332"/>
<path d="M236.476 479.872C235.921 480.282 235.81 481.062 236.218 481.61C236.629 482.165 237.408 482.276 237.957 481.868C238.512 481.458 238.622 480.678 238.214 480.129C237.813 479.578 237.031 479.461 236.476 479.872Z" fill="#FFCA00"/>
<path d="M236.854 480.371C236.579 480.572 236.52 480.963 236.727 481.236C236.928 481.511 237.319 481.57 237.592 481.363C237.868 481.162 237.926 480.771 237.719 480.498C237.512 480.225 237.13 480.17 236.854 480.371Z" fill="#EBFFF5"/>
<path d="M219.964 464.542L221.4 466.698C221.532 466.942 221.842 467.045 222.095 466.932L224.888 465.686C225.141 465.574 225.269 465.268 225.178 465.013L224.533 462.504L222.77 458.551L218.201 460.589L219.964 464.542Z" fill="#FFCA00"/>
<path d="M222.718 482.15L223.084 484.045L223.627 483.941L223.262 482.045L222.718 482.15Z" fill="#E54332"/>
<path d="M223.082 482.798L223.176 483.3L224.794 482.996L224.7 482.494L223.082 482.798Z" fill="#E54332"/>
<g opacity="0.45">
<path opacity="0.45" d="M105.514 47.7168C104.114 42.0268 90.8841 33.7168 83.8141 38.7268C81.6441 27.8868 79.6141 21.1268 72.5241 15.7868C65.4341 10.4468 53.6041 17.4268 51.7041 32.0468C49.8041 26.0368 40.1441 17.9368 32.3841 24.7668C25.2041 31.0868 24.4841 41.6768 25.2341 47.7068H105.514V47.7168Z" fill="#99B8FF"/>
</g>
<g opacity="0.45">
<path opacity="0.45" d="M470.1 120.641C467.91 115.251 463.78 112.361 458.89 111.821C452.73 111.131 446.48 114.671 446.48 114.671C446.48 114.671 448.8 105.771 445.65 98.7708C443.51 93.9908 440.09 89.5008 435.35 88.3208C430.44 87.1008 425.23 89.4908 421.57 93.2808C417.91 97.0708 415.55 102.091 413.45 107.101C412.36 103.551 410.92 99.5708 407.71 98.2508C404.39 96.8808 400.55 99.2408 398.81 102.621C397.07 106.001 396.98 110.081 397.22 113.951C393.37 111.641 388.46 110.961 384.6 113.271C382.13 114.751 380.37 117.651 380 120.651H470.1V120.641Z" fill="#99B8FF"/>
</g>
<g opacity="0.45">
<path opacity="0.45" d="M332 203.993C333.476 200.361 336.258 198.414 339.553 198.05C343.704 197.585 347.915 199.971 347.915 199.971C347.915 199.971 346.352 193.974 348.474 189.257C349.916 186.037 352.221 183.011 355.414 182.216C358.723 181.394 362.233 183.004 364.699 185.558C367.165 188.112 368.756 191.494 370.17 194.87C370.905 192.478 371.875 189.796 374.038 188.907C376.275 187.984 378.862 189.574 380.035 191.851C381.207 194.129 381.268 196.878 381.106 199.486C383.7 197.929 387.009 197.471 389.61 199.027C391.274 200.025 392.46 201.979 392.709 204H332V203.993Z" fill="#99B8FF"/>
</g>
<path d="M289.82 11H293.014C294.812 11 295.879 10.1152 295.879 8.62695V8.61523C295.879 7.49609 295.141 6.67578 293.922 6.53516V6.51172C294.795 6.38867 295.451 5.53906 295.451 4.66602V4.6543C295.451 3.38867 294.473 2.54492 293.025 2.54492H289.82V11ZM292.785 3.47656C293.805 3.47656 294.385 3.93359 294.385 4.76562V4.77734C294.385 5.69141 293.705 6.18945 292.457 6.18945H290.875V3.47656H292.785ZM292.756 7.09766C294.104 7.09766 294.795 7.5957 294.795 8.57422V8.58594C294.795 9.55859 294.121 10.0684 292.855 10.0684H290.875V7.09766H292.756ZM298.697 11.1172C299.512 11.1172 300.244 10.6777 300.602 10.0098H300.625V11H301.645V6.78711C301.645 5.56836 300.742 4.78906 299.301 4.78906C297.865 4.78906 296.992 5.59766 296.904 6.59961L296.898 6.66406H297.883L297.895 6.61133C298.012 6.06641 298.504 5.69141 299.289 5.69141C300.139 5.69141 300.625 6.14258 300.625 6.88672V7.39648L298.879 7.49609C297.479 7.57812 296.67 8.22852 296.67 9.26562V9.27734C296.67 10.3848 297.484 11.1172 298.697 11.1172ZM297.713 9.27734V9.26562C297.713 8.69727 298.182 8.33398 298.996 8.28711L300.625 8.1875V8.68555C300.625 9.57031 299.887 10.2324 298.926 10.2324C298.193 10.2324 297.713 9.86328 297.713 9.27734ZM305.102 11.1172C306.461 11.1172 307.469 10.3672 307.469 9.30078V9.29492C307.469 8.42773 307.023 7.94141 305.793 7.64258L304.826 7.4082C304.152 7.24414 303.877 6.95703 303.877 6.54102V6.53516C303.877 5.99609 304.334 5.63867 305.072 5.63867C305.828 5.63867 306.279 6.03125 306.361 6.62305L306.367 6.66406H307.34L307.334 6.58789C307.258 5.56836 306.408 4.78906 305.072 4.78906C303.754 4.78906 302.834 5.5332 302.834 6.58203V6.58789C302.834 7.4668 303.391 8 304.539 8.27539L305.506 8.50977C306.197 8.67969 306.426 8.92578 306.426 9.36523V9.37109C306.426 9.92188 305.934 10.2676 305.107 10.2676C304.275 10.2676 303.824 9.91016 303.701 9.30078L303.689 9.24219H302.67L302.676 9.29492C302.799 10.3848 303.666 11.1172 305.102 11.1172ZM309.104 3.875C309.461 3.875 309.742 3.58789 309.742 3.23633C309.742 2.87891 309.461 2.59766 309.104 2.59766C308.752 2.59766 308.465 2.87891 308.465 3.23633C308.465 3.58789 308.752 3.875 309.104 3.875ZM308.594 11H309.613V4.90625H308.594V11ZM313.527 11.1172C314.904 11.1172 315.906 10.2207 316.07 9.06055L316.076 9.01953H315.074L315.062 9.06641C314.893 9.74609 314.359 10.2148 313.527 10.2148C312.473 10.2148 311.746 9.37695 311.746 7.95898V7.95312C311.746 6.57031 312.455 5.69141 313.516 5.69141C314.412 5.69141 314.904 6.23047 315.057 6.83984L315.068 6.88672H316.064L316.059 6.83984C315.93 5.79688 315.033 4.78906 313.516 4.78906C311.822 4.78906 310.703 6.01953 310.703 7.94141V7.94727C310.703 9.88672 311.799 11.1172 313.527 11.1172ZM321.766 11.1172C322.639 11.1172 323.318 10.6777 323.699 9.96875H323.723V11H324.742V2.54492H323.723V5.92578H323.699C323.318 5.22266 322.609 4.78906 321.748 4.78906C320.219 4.78906 319.176 6.02539 319.176 7.94727V7.95312C319.176 9.875 320.207 11.1172 321.766 11.1172ZM321.965 10.2148C320.887 10.2148 320.219 9.35352 320.219 7.95312V7.94727C320.219 6.55859 320.887 5.69141 321.965 5.69141C322.99 5.69141 323.729 6.58789 323.729 7.94727V7.95312C323.729 9.31836 322.996 10.2148 321.965 10.2148ZM328.627 11.1172C329.957 11.1172 330.953 10.3203 331.152 9.3125L331.164 9.25391H330.162L330.145 9.30664C329.969 9.82812 329.424 10.2148 328.65 10.2148C327.566 10.2148 326.875 9.48242 326.852 8.22852H331.24V7.85352C331.24 6.02539 330.227 4.78906 328.562 4.78906C326.898 4.78906 325.82 6.08398 325.82 7.9707V7.97656C325.82 9.89258 326.875 11.1172 328.627 11.1172ZM328.557 5.69141C329.447 5.69141 330.104 6.24805 330.203 7.43164H326.869C326.98 6.29492 327.672 5.69141 328.557 5.69141ZM334.252 11.1172C334.451 11.1172 334.668 11.0938 334.797 11.0762V10.25C334.709 10.2559 334.592 10.2734 334.469 10.2734C333.924 10.2734 333.637 10.0918 333.637 9.44141V5.75H334.797V4.90625H333.637V3.25977H332.582V4.90625H331.691V5.75H332.582V9.44727C332.582 10.6133 333.133 11.1172 334.252 11.1172ZM337.557 11.1172C338.371 11.1172 339.104 10.6777 339.461 10.0098H339.484V11H340.504V6.78711C340.504 5.56836 339.602 4.78906 338.16 4.78906C336.725 4.78906 335.852 5.59766 335.764 6.59961L335.758 6.66406H336.742L336.754 6.61133C336.871 6.06641 337.363 5.69141 338.148 5.69141C338.998 5.69141 339.484 6.14258 339.484 6.88672V7.39648L337.738 7.49609C336.338 7.57812 335.529 8.22852 335.529 9.26562V9.27734C335.529 10.3848 336.344 11.1172 337.557 11.1172ZM336.572 9.27734V9.26562C336.572 8.69727 337.041 8.33398 337.855 8.28711L339.484 8.1875V8.68555C339.484 9.57031 338.746 10.2324 337.785 10.2324C337.053 10.2324 336.572 9.86328 336.572 9.27734ZM342.373 3.875C342.73 3.875 343.012 3.58789 343.012 3.23633C343.012 2.87891 342.73 2.59766 342.373 2.59766C342.021 2.59766 341.734 2.87891 341.734 3.23633C341.734 3.58789 342.021 3.875 342.373 3.875ZM341.863 11H342.883V4.90625H341.863V11ZM344.324 11H345.344V2.54492H344.324V11ZM348.883 11.1172C350.242 11.1172 351.25 10.3672 351.25 9.30078V9.29492C351.25 8.42773 350.805 7.94141 349.574 7.64258L348.607 7.4082C347.934 7.24414 347.658 6.95703 347.658 6.54102V6.53516C347.658 5.99609 348.115 5.63867 348.854 5.63867C349.609 5.63867 350.061 6.03125 350.143 6.62305L350.148 6.66406H351.121L351.115 6.58789C351.039 5.56836 350.189 4.78906 348.854 4.78906C347.535 4.78906 346.615 5.5332 346.615 6.58203V6.58789C346.615 7.4668 347.172 8 348.32 8.27539L349.287 8.50977C349.979 8.67969 350.207 8.92578 350.207 9.36523V9.37109C350.207 9.92188 349.715 10.2676 348.889 10.2676C348.057 10.2676 347.605 9.91016 347.482 9.30078L347.471 9.24219H346.451L346.457 9.29492C346.58 10.3848 347.447 11.1172 348.883 11.1172Z" fill="#037FFB"/>
<path d="M71.6437 50.0057C72.772 46.9941 77.1956 47.4981 77.6037 50.6872C81.5498 81.5195 94.4287 162.043 125.675 208.368C176.55 283.797 201.023 397.716 153.924 447.916C153.924 447.918 -51.2775 378.045 71.6437 50.0057Z" fill="url(#paint0_linear)"/>
<path opacity="0.43" d="M72.1492 93.2292C72.1492 93.2292 72.1431 93.5495 72.1329 94.1718C72.1471 94.7901 72.1471 95.6817 72.1879 96.8937C72.2451 99.3034 72.3981 102.837 72.6185 107.334C72.8613 111.831 73.1735 117.289 73.6387 123.545C74.0692 129.803 74.6997 136.853 75.3648 144.543C76.0892 152.227 76.8951 160.552 77.9296 169.336C78.911 178.126 80.1516 187.369 81.4554 196.928C82.8265 206.477 84.2915 216.336 86.0259 226.316C86.4564 228.811 86.8869 231.317 87.3195 233.828C87.7867 236.334 88.256 238.848 88.7253 241.365C89.6312 246.409 90.6922 251.443 91.7043 256.485C92.7081 261.529 93.8895 266.536 94.9444 271.549C96.0891 276.542 97.25 281.51 98.4273 286.434C99.0496 288.886 99.6699 291.33 100.286 293.761C100.913 296.189 101.49 298.619 102.171 301.004C102.83 303.395 103.483 305.772 104.134 308.133C104.459 309.312 104.783 310.49 105.106 311.661C105.45 312.826 105.795 313.985 106.138 315.14C106.828 317.449 107.511 319.739 108.191 322.008C108.531 323.142 108.87 324.268 109.209 325.391C109.57 326.505 109.931 327.615 110.288 328.716C111 330.924 111.704 333.107 112.4 335.264C112.751 336.341 113.081 337.419 113.441 338.48C113.81 339.537 114.177 340.585 114.54 341.628C115.269 343.713 115.987 345.77 116.695 347.796C117.048 348.81 117.401 349.814 117.75 350.812C118.123 351.799 118.495 352.779 118.862 353.752C120.359 357.629 121.731 361.406 123.181 364.978C124.663 368.539 126.081 371.95 127.431 375.194C128.827 378.42 130.235 381.44 131.512 384.301C132.159 385.727 132.787 387.108 133.391 388.441C134.042 389.753 134.669 391.016 135.271 392.23C136.476 394.66 137.582 396.89 138.582 398.906C139.066 399.922 139.592 400.848 140.07 401.728C140.549 402.607 140.998 403.431 141.416 404.199C142.251 405.735 142.959 407.041 143.534 408.1C144.685 410.22 145.299 411.35 145.299 411.35L145.305 411.362C145.397 411.532 145.334 411.746 145.164 411.838C144.997 411.93 144.789 411.868 144.693 411.705C144.693 411.705 144.052 410.587 142.851 408.49C142.249 407.441 141.508 406.147 140.637 404.627C140.202 403.866 139.735 403.048 139.235 402.177C138.739 401.303 138.197 400.383 137.693 399.371C136.656 397.367 135.507 395.147 134.257 392.734C133.632 391.526 132.981 390.269 132.306 388.963C131.675 387.637 131.023 386.262 130.349 384.844C129.021 381.995 127.544 378.992 126.105 375.772C124.716 372.53 123.257 369.122 121.733 365.566C120.239 361.997 118.823 358.223 117.281 354.348C116.901 353.377 116.517 352.397 116.132 351.41C115.773 350.412 115.409 349.408 115.044 348.394C114.312 346.368 113.571 344.311 112.818 342.226C109.837 333.877 106.977 324.97 104.226 315.699C103.879 314.542 103.53 313.379 103.179 312.212C102.853 311.039 102.522 309.859 102.194 308.678C101.535 306.313 100.87 303.93 100.2 301.534C99.5108 299.143 98.9191 296.711 98.2845 294.277C97.6561 291.841 97.0276 289.392 96.3951 286.933C95.1954 282.002 94.016 277.021 92.851 272.018C92.3062 269.508 91.7593 266.993 91.2125 264.477C90.6698 261.959 90.1128 259.441 89.6271 256.909C88.6294 251.851 87.5806 246.801 86.6869 241.743C86.2238 239.217 85.7606 236.697 85.2995 234.183C84.873 231.663 84.4486 229.152 84.0242 226.65C82.3164 216.644 80.878 206.76 79.5333 197.189C78.2744 187.605 77.144 178.332 76.23 169.519C75.273 160.713 74.5426 152.368 73.8856 144.667C72.6511 129.254 72.0227 116.383 71.6901 107.373C71.5411 102.866 71.4452 99.3238 71.4269 96.9059C71.4044 95.7062 71.4187 94.7452 71.4167 94.1167C71.4371 93.4924 71.4493 93.17 71.4493 93.17C71.4554 92.9761 71.6187 92.8252 71.8105 92.8333C72.0023 92.8394 72.1512 92.9986 72.1471 93.1883L72.1492 93.2292Z" fill="white"/>
<path d="M207.856 498.477C209.07 497.935 209.619 496.8 209.252 495.714L209.238 495.676L208.216 496.132L208.224 496.169C208.347 496.81 208.074 497.338 207.469 497.608C206.665 497.967 205.866 497.558 205.405 496.527L205.404 496.523C204.947 495.499 205.18 494.638 205.984 494.279C206.61 494 207.178 494.17 207.537 494.657L207.576 494.708L208.599 494.252L208.582 494.223C208.022 493.228 206.814 492.868 205.596 493.411C204.132 494.064 203.63 495.427 204.334 497.005L204.335 497.008C205.039 498.586 206.388 499.132 207.856 498.477Z" fill="#E55200"/>
<path d="M209.274 492.82C209.58 492.683 209.712 492.344 209.587 492.062C209.461 491.78 209.12 491.652 208.814 491.788C208.508 491.925 208.376 492.265 208.501 492.546C208.627 492.828 208.968 492.956 209.274 492.82ZM210.598 497.152L211.614 496.699L209.991 493.062L208.975 493.515L210.598 497.152Z" fill="#E55200"/>
<path d="M213.28 495.956L214.424 495.445L214.082 491.237L213.021 491.71L213.484 494.815L213.463 494.824L211.452 492.41L210.367 492.894L213.28 495.956Z" fill="#E55200"/>
<path d="M214.757 490.374C215.063 490.238 215.195 489.898 215.069 489.616C214.944 489.335 214.603 489.206 214.297 489.343C213.991 489.479 213.858 489.819 213.984 490.101C214.11 490.382 214.451 490.511 214.757 490.374ZM216.08 494.707L217.096 494.253L215.474 490.616L214.458 491.069L216.08 494.707Z" fill="#E55200"/>
<path d="M217.802 493.938L218.818 493.485L216.634 488.589L215.618 489.042L217.802 493.938Z" fill="#E55200"/>
<path d="M209.248 507.601L212.574 506.117L212.197 505.273L209.922 506.287L209.372 505.056L211.519 504.098L211.162 503.297L209.015 504.255L208.492 503.081L210.767 502.066L210.39 501.221L207.064 502.705L209.248 507.601Z" fill="#E55200"/>
<path d="M213.245 505.818L214.261 505.365L213.329 503.275C213.117 502.8 213.26 502.345 213.716 502.142C214.172 501.939 214.522 502.108 214.734 502.583L215.691 504.727L216.707 504.274L215.659 501.926C215.279 501.074 214.585 500.77 213.764 501.136C213.2 501.387 212.931 501.813 212.926 502.315L212.905 502.325L212.639 501.727L211.623 502.18L213.245 505.818Z" fill="#E55200"/>
<path d="M219.656 504.472C220.776 503.972 221.229 503.107 220.867 502.296L219.29 498.76L218.274 499.214L218.551 499.834L218.53 499.844C218.139 499.51 217.611 499.42 217.086 499.654C216.143 500.075 215.866 501.024 216.384 502.185L216.385 502.188C216.889 503.318 217.769 503.739 218.702 503.323C219.241 503.083 219.551 502.655 219.576 502.188L219.597 502.179L219.845 502.736C220.027 503.143 219.867 503.532 219.341 503.766C218.917 503.955 218.576 503.92 218.416 503.776L218.395 503.757L217.407 504.198L217.424 504.227C217.782 504.767 218.63 504.929 219.656 504.472ZM218.729 502.44C218.221 502.667 217.721 502.406 217.429 501.751L217.427 501.747C217.137 501.096 217.282 500.551 217.786 500.326C218.28 500.106 218.791 500.362 219.08 501.01L219.081 501.014C219.372 501.665 219.227 502.218 218.729 502.44Z" fill="#E55200"/>
<path d="M220.278 497.758C220.584 497.622 220.716 497.282 220.59 497.001C220.465 496.719 220.124 496.59 219.818 496.727C219.512 496.863 219.379 497.203 219.505 497.485C219.631 497.766 219.972 497.895 220.278 497.758ZM221.601 502.091L222.617 501.638L220.995 498L219.979 498.453L221.601 502.091Z" fill="#E55200"/>
<path d="M223.299 501.333L224.315 500.88L223.382 498.79C223.171 498.315 223.314 497.861 223.77 497.657C224.225 497.454 224.576 497.623 224.788 498.098L225.745 500.243L226.76 499.789L225.713 497.441C225.333 496.59 224.638 496.285 223.817 496.651C223.254 496.903 222.985 497.328 222.979 497.831L222.959 497.84L222.692 497.243L221.676 497.696L223.299 501.333Z" fill="#E55200"/>
<path d="M227.404 499.502L228.42 499.049L227.487 496.959C227.275 496.484 227.419 496.029 227.875 495.826C228.33 495.623 228.681 495.792 228.893 496.267L229.849 498.411L230.865 497.958L229.818 495.61C229.438 494.759 228.743 494.454 227.922 494.82C227.359 495.072 227.09 495.497 227.084 496L227.064 496.009L226.797 495.412L225.781 495.865L227.404 499.502Z" fill="#E55200"/>
<path d="M233.24 496.989C234.304 496.514 234.545 495.67 234.421 495.083L234.415 495.041L233.482 495.457L233.484 495.48C233.502 495.716 233.348 496.053 232.931 496.24C232.412 496.471 231.938 496.276 231.668 495.7L234.236 494.555L234.099 494.25C233.609 493.15 232.601 492.733 231.509 493.221C230.417 493.708 230.047 494.759 230.563 495.916L230.565 495.92C231.084 497.084 232.099 497.498 233.24 496.989ZM231.856 493.952C232.277 493.765 232.696 493.891 232.983 494.365L231.4 495.071C231.247 494.55 231.439 494.139 231.856 493.952Z" fill="#E55200"/>
<path d="M235.468 495.905L236.484 495.452L235.569 493.403C235.341 492.89 235.501 492.465 236.002 492.241C236.148 492.176 236.297 492.135 236.395 492.131L236.006 491.259C235.921 491.273 235.809 491.303 235.697 491.352C235.256 491.549 235.053 491.945 235.141 492.434L235.121 492.444L234.844 491.823L233.845 492.268L235.468 495.905Z" fill="#E55200"/>
<path d="M236.76 490.406C237.066 490.27 237.199 489.93 237.073 489.648C236.947 489.367 236.606 489.238 236.3 489.375C235.994 489.511 235.862 489.851 235.988 490.132C236.113 490.414 236.454 490.543 236.76 490.406ZM238.084 494.738L239.1 494.285L237.477 490.648L236.461 491.101L238.084 494.738Z" fill="#E55200"/>
<path d="M239.781 493.981L240.797 493.528L239.865 491.438C239.653 490.963 239.796 490.508 240.252 490.305C240.708 490.102 241.059 490.271 241.27 490.746L242.227 492.89L243.243 492.437L242.195 490.089C241.816 489.237 241.121 488.933 240.3 489.299C239.736 489.551 239.467 489.976 239.462 490.479L239.441 490.488L239.175 489.891L238.159 490.344L239.781 493.981Z" fill="#E55200"/>
<path d="M246.192 492.635C247.312 492.135 247.765 491.27 247.403 490.459L245.826 486.924L244.81 487.377L245.087 487.998L245.066 488.007C244.675 487.673 244.147 487.583 243.622 487.817C242.679 488.238 242.402 489.187 242.92 490.348L242.921 490.351C243.425 491.481 244.305 491.902 245.238 491.486C245.777 491.246 246.087 490.819 246.112 490.352L246.133 490.342L246.381 490.899C246.563 491.306 246.403 491.695 245.877 491.929C245.453 492.119 245.112 492.083 244.952 491.939L244.931 491.92L243.943 492.361L243.96 492.39C244.318 492.93 245.166 493.093 246.192 492.635ZM245.265 490.603C244.757 490.83 244.257 490.569 243.965 489.914L243.964 489.911C243.673 489.259 243.818 488.715 244.322 488.49C244.816 488.269 245.327 488.526 245.616 489.174L245.617 489.177C245.908 489.828 245.763 490.382 245.265 490.603Z" fill="#E55200"/>
<path d="M298.245 393.588L293.126 495.49H260.691H258.678L261.495 393.648H263.121V393.588H298.245Z" fill="#7D2D45"/>
<path d="M212.257 374.988L211.364 388.52H207.625L207.992 374.988H209.906H212.257Z" fill="#7D2D45"/>
<path d="M300 388.521L299.881 393.588H298.244H263.121L263.25 388.521H300Z" fill="#A97996"/>
<path d="M214.023 370L213.457 374.988H212.257H209.906L209.986 370H214.023Z" fill="#A97996"/>
<path d="M256.267 393.647L256.307 400.106H254.065L253.222 393.647H256.267ZM246.021 393.647L246.864 400.106H249.096L249.056 393.647H246.021ZM238.81 393.647L239.653 400.106H241.895L241.845 393.647H238.81ZM231.609 393.647L232.452 400.106H234.684L234.644 393.647H231.609ZM224.398 393.647L225.241 400.106H227.482L227.433 393.647H224.398ZM217.187 393.647L218.04 400.106H220.271L220.232 393.647H217.187ZM209.985 393.647L210.828 400.106H213.07L213.021 393.647H209.985Z" fill="url(#paint1_linear)"/>
<path d="M84.8076 393.647L84.8572 400.106H82.6155L81.7724 393.647H84.8076ZM73.6388 393.647L74.4819 400.106H76.7137L76.674 393.647H73.6388ZM65.4953 393.647L66.3384 400.106H68.5801L68.5405 393.647H65.4953ZM57.3618 393.647L58.2049 400.106H60.4466L60.397 393.647H57.3618ZM49.2282 393.647L50.0713 400.106H52.3031L52.2634 393.647H49.2282ZM41.0847 393.647L41.9278 400.106H44.1695L44.1299 393.647H41.0847ZM32.9512 393.647L33.7943 400.106H36.036L35.9864 393.647H32.9512Z" fill="url(#paint2_linear)"/>
<path d="M207.625 388.521H211.364H263.25L263.121 393.588V393.647H261.495H256.267H253.222H249.056H246.021H241.845H238.81H234.644H231.609H227.433H224.398H220.232H217.187H213.021H209.985H206.573L205.621 388.521H207.625Z" fill="url(#paint3_linear)"/>
<path d="M209.985 370L209.906 374.988H207.992H88.2001H86.4543L86.375 370H209.985Z" fill="url(#paint4_linear)"/>
<path d="M90.908 388.521L90.1442 393.588H28.349H27.119L27 388.521H86.6726H88.7952H90.908Z" fill="url(#paint5_linear)"/>
<path d="M31.5624 495.49H258.677H260.691L259.986 525H207.535H88.8246H30.2531L29.5488 495.49H31.5624Z" fill="#265397"/>
<path d="M81.7722 393.647L82.6154 400.106H84.857L84.8074 393.647H81.7722ZM57.3616 393.647L58.2048 400.106H60.4464L60.3968 393.647H57.3616ZM65.4952 393.647L66.3383 400.106H68.58L68.5403 393.647H65.4952ZM73.6387 393.647L74.4818 400.106H76.7136L76.6739 393.647H73.6387ZM32.951 393.647L33.7942 400.106H36.0358L35.9862 393.647H32.951ZM41.0846 393.647L41.9277 400.106H44.1694L44.1297 393.647H41.0846ZM49.2281 393.647L50.0712 400.106H52.303L52.2633 393.647H49.2281ZM28.3486 393.588H90.1439L90.9076 388.52H88.7949L88.1997 374.988H207.991L207.624 388.52H205.621L206.573 393.647H209.985L210.828 400.106H213.07L213.02 393.647H217.186L218.039 400.106H220.271L220.231 393.647H224.397L225.24 400.106H227.482L227.432 393.647H231.608L232.451 400.106H234.683L234.643 393.647H238.809L239.653 400.106H241.894L241.845 393.647H246.021L246.864 400.106H249.095L249.056 393.647H253.222L254.065 400.106H256.307L256.267 393.647H261.494L258.677 495.49H31.5624L28.3486 393.588Z" fill="url(#paint6_linear)"/>
<path d="M151.344 454.276L151.017 451.047L157.881 451.137L157.752 454.227L151.344 454.276ZM142.11 400.901L135.454 400.811L135.772 403.941L141.991 403.891L142.11 400.901ZM134.214 418.805L140.741 418.755L140.88 415.606L133.887 415.516L134.214 418.805ZM149.648 381.098L149.976 384.347L156.423 384.298L156.552 381.188L149.648 381.098ZM156.75 404.517L156.879 401.467L150.114 401.378L150.432 404.557L156.75 404.517ZM212.981 457.307L205.8 457.217L206.137 460.596L212.842 460.546L212.981 457.307ZM168.455 407.309L160.758 407.21L161.125 410.827L168.306 410.777L168.455 407.309ZM159.895 471.684L167.383 471.624L167.542 468.008L159.518 467.898L159.895 471.684ZM145.264 419.898L137.845 419.799L138.192 423.286L145.125 423.237L145.264 419.898ZM121.964 445.592L122.103 442.373L114.962 442.284L115.299 445.642L121.964 445.592ZM133.996 452.239L141.207 452.19L141.356 448.712L133.639 448.613L133.996 452.239ZM121.072 437.355L121.22 433.868L113.474 433.769L113.841 437.405L121.072 437.355ZM126.17 486.012L126.319 482.544L118.622 482.445L118.989 486.061L126.17 486.012ZM211.245 478.699L211.394 475.142L203.479 475.042L203.855 478.758L211.245 478.699ZM115.418 389.832L122.649 389.782L122.798 386.295L115.051 386.196L115.418 389.832ZM113.256 396.569L120.615 396.519L120.764 392.972L112.879 392.872L113.256 396.569ZM188.074 421.11L193.52 421.071L193.649 418.07L186.983 417.98L187.182 419.928L180.467 419.838L180.834 423.435L187.985 423.386L188.074 421.11ZM187.023 407.955L179.494 407.856L179.852 411.393L186.884 411.343L187.023 407.955ZM184.355 430.341L176.935 430.241L177.283 433.729L184.206 433.679L184.355 430.341ZM133.461 464.719L125.426 464.61L125.803 468.385L133.302 468.326L133.461 464.719ZM200.543 435.915L200.572 435.309L203.568 435.289L203.707 431.911L196.208 431.811L196.317 432.845L193.976 432.815L194.294 435.954L200.543 435.915ZM182.897 478.093L183.036 474.834L175.795 474.734L176.142 478.142L182.897 478.093ZM207.833 430.072L215.342 430.013L215.5 426.386L207.456 426.277L207.833 430.072ZM169.417 419.62L176.677 419.57L176.826 416.073L169.05 415.973L169.417 419.62ZM208.498 470.829L208.627 467.7L201.683 467.61L202.011 470.879L208.498 470.829ZM176.43 382.072L169.129 381.973L169.476 385.401L176.291 385.351L176.43 382.072ZM187.797 471.465L194.472 471.416L194.611 468.196L187.459 468.107L187.797 471.465ZM202.278 439.988L194.601 439.889L194.968 443.496L202.14 443.446L202.278 439.988ZM195.057 463.238L187.529 463.139L187.886 466.676L194.909 466.627L195.057 463.238ZM193.272 453.77L193.421 450.381L185.892 450.282L186.249 453.819L193.272 453.77ZM187.618 427.896L187.936 431.076L194.264 431.026L194.393 427.976L187.618 427.896ZM196.099 410.29L196.466 413.907L203.657 413.857L203.806 410.389L196.099 410.29ZM189.384 393.131L196.922 393.071L197.081 389.435L189.007 389.325L189.384 393.131ZM118.096 409.754L124.752 409.704L124.891 406.495L117.769 406.405L118.096 409.754ZM29.9957 445.791L32.1183 445.771L32.2473 442.751L29.8965 442.721L29.9957 445.791ZM31.791 470.452L31.9299 467.272L30.6702 467.253L30.7694 470.452H31.791ZM74.879 442.065L75.0179 438.816L67.8068 438.727L68.1441 442.115L74.879 442.065ZM45.2709 459.324L52.1051 459.274L52.2439 455.975L44.9237 455.876L45.2709 459.324ZM41.9877 480.487L42.1365 476.95L34.2708 476.851L34.6477 480.547L41.9877 480.487ZM43.0094 424.389L35.9768 424.3L36.3141 427.608L42.8804 427.559L43.0094 424.389ZM242.589 422.74L249.77 422.69L249.919 419.222L242.222 419.123L242.589 422.74ZM40.8966 451.305L34.1616 451.216L34.4791 454.386L40.7677 454.336L40.8966 451.305ZM230.19 405.849L237.263 405.799L237.411 402.391L229.833 402.292L230.19 405.849ZM254.561 459.503L247.053 459.403L247.41 462.93L254.413 462.881L254.561 459.503ZM250.068 480.338L250.217 476.89L242.559 476.791L242.926 480.388L250.068 480.338ZM233.553 417.971L240.635 417.921L240.784 414.503L233.196 414.404L233.553 417.971ZM234.813 450.6L235.16 454.038L241.994 453.988L242.133 450.689L234.813 450.6ZM235.606 486.816L241.925 486.767L242.053 483.716L235.289 483.627L235.606 486.816ZM228.951 442.035L229.318 445.702L236.588 445.652L236.737 442.145L228.951 442.035ZM243.879 437.574L236.866 437.485L237.193 440.783L243.74 440.734L243.879 437.574ZM37.6432 410.26L37.7722 407.23L31.0471 407.14L31.3645 410.3L37.6432 410.26ZM91.3148 450.54L91.4437 447.53L84.7583 447.44L85.0757 450.58L91.3148 450.54ZM94.6277 422.074L87.8828 421.985L88.2002 425.154L94.4988 425.104L94.6277 422.074ZM83.1614 442.423L76.3669 442.333L76.6843 445.533L83.0324 445.483L83.1614 442.423ZM84.8377 397.97L89.6782 397.93L89.817 394.611L84.8179 394.542L84.8377 397.97ZM111.401 400.424L104.358 400.334L104.695 403.643L111.272 403.593L111.401 400.424ZM73.1135 414.145L79.5806 414.096L79.7096 410.976L72.7861 410.886L73.1135 414.145ZM81.2867 465.593L81.4156 462.454L74.4525 462.364L74.7799 465.643L81.2867 465.593ZM83.7069 473.939L83.7169 473.999L90.2931 473.949L90.432 470.78L83.3796 470.69L83.3895 470.8L81.6239 470.78L81.9414 473.959L83.7069 473.939ZM71.6554 429.357L78.559 429.307L78.6978 425.979L71.2983 425.879L71.6554 429.357ZM103.426 477.159L103.555 474.079L96.7107 473.989L97.038 477.208L103.426 477.159ZM109.119 450.759L102.285 450.67L102.613 453.879L108.99 453.829L109.119 450.759ZM96.0561 490.989L96.2048 487.442L88.3193 487.343L88.6962 491.049L96.0561 490.989ZM97.415 433.103L103.922 433.053L104.051 429.913L97.0777 429.824L97.415 433.103ZM98.9226 465.087L92.0785 464.997L92.4059 468.216L98.7937 468.167L98.9226 465.087ZM96.8297 418.279L103.049 418.229L103.178 415.228L96.5222 415.139L96.8297 418.279ZM105.856 384.318L98.1093 384.218L98.4763 387.855L105.707 387.805L105.856 384.318Z" fill="url(#paint7_linear)"/>
<path d="M172.333 483.756L171.49 430.391H184.92L184.077 483.756H172.333ZM181.389 481.024L182.143 433.133H174.267L175.021 481.024H181.389ZM140.255 483.756L139.412 430.391H152.832L151.999 483.756H140.255ZM149.311 481.024L150.065 433.133H142.189L142.943 481.024H149.311ZM108.177 483.756L107.334 430.391H120.754L119.921 483.756H108.177ZM117.233 481.024L117.987 433.133H110.111L110.865 481.024H117.233ZM171.49 430.351L171.182 410.608H185.228L184.92 430.351H171.49ZM182.232 427.618L182.46 413.341H173.95L174.178 427.618H182.232ZM139.412 430.351L139.104 410.608H153.15L152.842 430.351H139.412ZM150.154 427.618L150.382 413.341H141.872L142.1 427.618H150.154ZM107.334 430.351L107.026 410.608H121.072L120.764 430.351H107.334ZM118.076 427.618L118.304 413.341H109.794L110.022 427.618H118.076Z" fill="#7D2D45"/>
<path d="M171.331 483.756L170.488 430.391H183.918L183.075 483.756H171.331ZM180.387 481.024L181.141 433.133H173.265L174.019 481.024H180.387ZM139.253 483.756L138.41 430.391H151.83L150.987 483.756H139.253ZM148.309 481.024L149.063 433.133H141.187L141.941 481.024H148.309ZM107.175 483.756L106.332 430.391H119.752L118.919 483.756H107.175ZM116.231 481.024L116.985 433.133H109.109L109.863 481.024H116.231ZM170.488 430.351L170.18 410.608H184.226L183.918 430.351H170.488ZM181.23 427.618L181.458 413.341H172.948L173.176 427.618H181.23ZM138.41 430.351L138.092 410.608H152.138L151.83 430.351H138.41ZM149.152 427.618L149.38 413.341H140.87L141.098 427.618H149.152ZM106.332 430.351L106.024 410.608H120.07L119.762 430.351H106.332ZM117.074 427.618L117.302 413.341H108.792L109.02 427.618H117.074Z" fill="url(#paint8_linear)"/>
<path d="M182.202 428.612L182.46 412.347H171.936L172.194 428.612H182.202ZM183.214 411.602L182.936 429.357H171.46L171.182 411.602H183.214ZM150.124 428.612L150.382 412.347H139.858L140.116 428.612H150.124ZM151.136 411.602L150.858 429.357H139.382L139.104 411.602H151.136ZM118.046 428.612L118.304 412.347H107.78L108.038 428.612H118.046ZM119.058 411.602L118.78 429.357H107.304L107.026 411.602H119.058ZM181.359 482.017L182.143 432.139H172.254L173.037 482.017H181.359ZM182.907 431.384L182.093 482.762H172.303L171.49 431.384H182.907ZM149.281 482.017L150.065 432.139H140.176L140.959 482.017H149.281ZM150.819 431.384L150.015 482.762H140.225L139.412 431.384H150.819ZM117.203 482.017L117.987 432.139H108.098L108.881 482.017H117.203ZM118.741 431.384L117.937 482.762H108.147L107.334 431.384H118.741Z" fill="#42A4B8"/>
<path d="M117.987 432.139L117.203 482.017H108.881L108.098 432.139H117.987ZM107.78 412.347L108.038 428.612H118.046L118.304 412.347H107.78ZM140.176 432.139L140.959 482.017H149.281L150.065 432.139H140.176ZM139.858 412.347L140.116 428.612H150.124L150.382 412.347H139.858ZM171.936 412.347L172.194 428.612H182.202L182.46 412.347H171.936ZM172.254 432.139L173.037 482.017H181.359L182.143 432.139H172.254Z" fill="#9ECFFF"/>
<path d="M177.57 421.587L177.56 412.347H177.064L177.074 421.587H172.085L172.095 422.084H177.074V428.612H177.57V422.084H182.302L182.311 421.587H177.57Z" fill="#42A4B8"/>
<path d="M181.944 444.688L177.57 444.907V432.139H177.074V444.937L172.462 445.175V445.672L177.074 445.433L177.084 461.41H172.71L172.72 461.907H177.084L177.094 482.017H177.59L177.58 461.907H181.677L181.687 461.41H177.58L177.57 445.404L181.935 445.185L181.944 444.688Z" fill="#42A4B8"/>
<path d="M150.233 421.587H145.244L145.254 412.347H144.758L144.748 421.587H140.007L140.017 422.084H144.748V428.612H145.244V422.084H150.223L150.233 421.587Z" fill="#42A4B8"/>
<path d="M118.145 422.084L118.155 421.587H113.285V412.347H112.789V421.587H107.929L107.939 422.084H112.789L112.799 428.612H113.295L113.285 422.084H118.145Z" fill="#42A4B8"/>
<path d="M145.244 432.139H144.748V444.907L140.374 444.688L140.384 445.185L144.748 445.404L144.738 461.41H140.632L140.642 461.907H144.738L144.728 482.017H145.224L145.234 461.907H149.599L149.609 461.41H145.234L145.244 445.433L149.857 445.672V445.175L145.244 444.937V432.139Z" fill="#42A4B8"/>
<path d="M117.788 444.678L113.295 444.907V432.139H112.799V444.937L108.306 445.165V445.662L112.799 445.433L112.809 461.41H108.554L108.564 461.907H112.809L112.819 482.017H113.315L113.305 461.907H117.52L117.53 461.41H113.305L113.295 445.404L117.778 445.175L117.788 444.678Z" fill="#42A4B8"/>
<path d="M90.1439 393.588H28.3486L28.3982 395.237L34.5182 395.337L35.1431 400.106H37.3848L37.3551 395.386L42.6716 395.466L43.2767 400.106H45.5184L45.4886 395.506L50.835 395.595L51.4202 400.106H53.6519L53.6222 395.635L58.9784 395.724L59.5537 400.106H61.7954L61.7657 395.764L67.1318 395.853L67.6873 400.106H69.929L69.9091 395.893L75.2952 395.982L75.8308 400.106H78.0625L78.0427 396.022L83.4486 396.102L83.9643 400.106H86.206L86.1763 396.151L90.1439 396.211V393.588Z" fill="#C7919A"/>
<path d="M261.495 393.588H206.554L206.603 395.237L212.039 395.337L212.594 400.106H214.588L214.558 395.386L219.29 395.466L219.825 400.106H221.819L221.799 395.506L226.54 395.595L227.066 400.106H229.05L229.03 395.635L233.791 395.724L234.297 400.106H236.291L236.261 395.764L241.032 395.853L241.528 400.106H243.522L243.502 395.893L248.293 395.982L248.769 400.106H250.753L250.733 396.022L255.534 396.102L256 400.106H257.994L257.964 396.151L261.495 396.211V393.588Z" fill="#C7919A"/>
<path d="M88.2002 374.988H207.992V379.26L88.2895 377.124L88.2002 374.988Z" fill="#C7919A"/>
<path d="M29.7373 500.16L33.8041 500.587L29.7472 500.925L29.7373 500.16Z" fill="#E8A699"/>
<path d="M29.7969 503.677L33.8141 504.045L29.8068 504.403L29.7969 503.677Z" fill="#E8A699"/>
<path d="M29.8467 507.195L33.8242 507.513L29.8566 507.87L29.8467 507.195Z" fill="#E8A699"/>
<path d="M29.9062 510.712L33.8342 510.97L29.9162 511.338L29.9062 510.712Z" fill="#E8A699"/>
<path d="M29.9658 514.219L33.8441 514.438L29.9757 514.815L29.9658 514.219Z" fill="#E8A699"/>
<path d="M30.0254 517.737L33.8541 517.896L30.0254 518.283V517.737Z" fill="#E8A699"/>
<path d="M30.0742 521.254L33.8633 521.363L30.0841 521.751L30.0742 521.254Z" fill="#E8A699"/>
<path d="M295.14 495.49L294.436 525H259.987L260.692 495.49H293.127H295.14Z" fill="#0B1E3C"/>
<path d="M185.019 498.531L184.434 516.246H174.554L174.128 498.531H185.019ZM148.646 498.531V516.246H158.932L159.537 498.531H148.646ZM135.027 498.531L136.049 516.246H145.918V498.531H135.027ZM107.621 498.531L108.633 516.246H118.502V498.531H107.621Z" fill="#A7D3FF"/>
<path d="M118.503 517.429L109.387 518.025L109.179 523.857L108.802 517.429H118.503Z" fill="#AD522F"/>
<path d="M145.919 517.429L136.803 518.025L136.595 523.857L136.218 517.429H145.919Z" fill="#AD522F"/>
<path d="M158.357 517.429L149.232 518.025L149.023 523.857L148.646 517.429H158.357Z" fill="#AD522F"/>
<path d="M147.555 496.842H146.881V525H147.555V496.842Z" fill="#AD522F"/>
<path d="M184.394 517.429L175.259 518.025L174.852 523.857L174.684 517.429H184.394Z" fill="#AD522F"/>
<path d="M186.844 496.842L185.952 525H173.037L172.66 496.842H186.844ZM184.434 516.247L185.019 498.531H174.128L174.555 516.247H184.434ZM175.259 518.025L184.394 517.429H174.684L174.852 523.857L175.259 518.025Z" fill="url(#paint9_linear)"/>
<path d="M146.881 496.842V525H135.057L133.748 496.842H146.881ZM145.919 516.247V498.531H135.028L136.049 516.247H145.919ZM136.803 518.025L145.919 517.429H136.218L136.595 523.857L136.803 518.025Z" fill="url(#paint10_linear)"/>
<path d="M160.846 496.842L160.211 525H147.555V496.842H160.846ZM158.932 516.247L159.537 498.531H148.646V516.247H158.932ZM149.231 518.025L158.356 517.429H148.646L149.023 523.857L149.231 518.025Z" fill="url(#paint11_linear)"/>
<path d="M120.278 496.842L120.318 525H107.403L106.094 496.842H120.278ZM118.502 516.247V498.531H107.621L108.633 516.247H118.502ZM109.387 518.025L118.502 517.429H108.802L109.179 523.857L109.387 518.025Z" fill="url(#paint12_linear)"/>
<path d="M209.906 399.172H207.694H204.401L138.301 373.169L152.743 374.988L209.906 399.172Z" fill="#A97996"/>
<path d="M198.132 403.315L198.261 401.288H199.551V399.172H204.401H207.694L207.377 401.387H205.621L205.284 406.653H200.642H197.924L198.132 403.315Z" fill="#A97996"/>
<path d="M204.401 399.172H199.55L138.301 375.961L82.4965 399.172H78.4297L138.301 373.169L204.401 399.172Z" fill="url(#paint13_linear)"/>
<path d="M200.641 406.653L199.59 410.588H198.677H197.378L196.833 408.094L185.892 407.428L185.684 406.653H197.924H200.641Z" fill="#E8A699"/>
<path d="M200.136 488.336L199.907 490.115H198.955H88.1999H87.2477L87.0195 488.336H89.1422H101.104H121.815H133.788H154.498H166.461H187.181H199.144H200.136Z" fill="url(#paint14_linear)"/>
<path d="M199.55 399.172V401.288H198.26H83.7856H82.4961V399.172H84.4898L138.3 377.67L196.356 399.172H199.55ZM189.294 399.172H190.266L138.766 379.26L87.7829 399.172H90.9074L139.024 380.403L189.294 399.172Z" fill="url(#paint15_linear)"/>
<path d="M199.55 399.172H196.356L138.3 377.67L84.4898 399.172H82.4961L138.3 375.961L199.55 399.172Z" fill="#E8A699"/>
<path d="M198.301 485.256L199.144 488.336H187.182L187.33 487.79L196.704 487.323V485.256H197.726H198.301Z" fill="#E8A699"/>
<path d="M198.955 490.115L198.886 491.606L88.2399 490.92L88.2002 490.115H198.955Z" fill="#E8A699"/>
<path d="M198.885 491.606L197.298 525H185.951L186.844 496.842H172.66L173.037 525H160.211L160.846 496.842H147.555H146.88H133.748L135.057 525H120.317L120.278 496.842H106.093L107.403 525H89.856L88.2393 490.92L198.885 491.606Z" fill="url(#paint16_linear)"/>
<path d="M198.678 410.588L198.559 420.226L196.773 419.083L195.9 485.256H195.484L195.831 418.477L193.639 417.066L193.371 485.256H192.954L192.677 416.45L190.425 415L190.951 485.256H190.524L189.443 414.364L187.667 413.231L187.638 410.588H197.378H198.678Z" fill="#E8A699"/>
<path d="M198.559 420.226L197.725 485.256H196.704H195.9L196.773 419.083L198.559 420.226Z" fill="#E8A699"/>
<path d="M198.261 401.288L198.132 403.315L83.8456 402.311L83.7861 401.288H198.261Z" fill="#E8A699"/>
<path d="M198.132 403.315L197.924 406.654H185.684H167.959H153.001H135.286H120.318H102.602H87.6447H84.1234L83.8457 402.312L198.132 403.315Z" fill="url(#paint17_linear)"/>
<path d="M196.832 408.094L197.378 410.588H187.637H186.735L185.892 407.428L196.832 408.094ZM195.9 485.256H195.483H193.371H192.954H190.95H190.524H188.59H188.014L187.33 487.79L196.703 487.323V485.256H195.9ZM193.638 417.066L193.371 485.256H195.483L195.83 418.477L193.638 417.066ZM190.425 415L190.95 485.256H192.954L192.676 416.45L190.425 415ZM187.667 413.231L188.59 485.256H190.524L189.443 414.364L187.667 413.231Z" fill="url(#paint18_linear)"/>
<path d="M190.266 399.172H189.294L139.025 380.403L90.9077 399.172H87.7832L138.767 379.26L190.266 399.172Z" fill="#E8A699"/>
<path d="M167.959 406.653L166.907 410.588H166.005H164.705L164.15 408.094L153.209 407.428L153.001 406.653H167.959Z" fill="#E8A699"/>
<path d="M165.627 485.256L166.46 488.336H154.498L154.647 487.79L164.03 487.323V485.256H165.052H165.627Z" fill="#E8A699"/>
<path d="M166.004 410.588L165.052 485.256H164.03H163.227L164.09 419.083L165.875 420.226L166.004 410.588Z" fill="#E8A699"/>
<path d="M166.005 410.588L165.876 420.226L164.09 419.083L163.227 485.256H162.801L163.158 418.477L160.956 417.066L160.698 485.256H160.272L160.004 416.45L157.742 415L158.268 485.256H157.851L156.76 414.364L154.995 413.231L154.965 410.588H164.705H166.005Z" fill="#E8A699"/>
<path d="M164.15 408.094L164.705 410.588H154.965H154.052L153.209 407.428L164.15 408.094ZM163.227 485.256H162.801H160.698H160.271H158.268H157.851H155.917H155.342L154.647 487.79L164.031 487.323V485.256H163.227ZM160.956 417.066L160.698 485.256H162.801L163.158 418.477L160.956 417.066ZM157.742 415L158.268 485.256H160.271L160.003 416.45L157.742 415ZM154.994 413.231L155.917 485.256H157.851L156.76 414.364L154.994 413.231Z" fill="url(#paint19_linear)"/>
<path d="M135.285 406.653L134.234 410.588H133.321H132.022L131.476 408.094L120.526 407.428L120.317 406.653H135.285Z" fill="#E8A699"/>
<path d="M132.945 485.256L133.788 488.336H121.815L121.964 487.79H121.974L131.348 487.323V485.256H132.369H132.945Z" fill="#E8A699"/>
<path d="M133.321 410.588L133.202 420.226L131.407 419.083L130.544 485.256H130.127L130.474 418.477L128.272 417.066L128.014 485.256H127.588L127.32 416.45L125.068 415L125.594 485.256H125.168L124.087 414.364L122.311 413.231L122.281 410.588H132.022H133.321Z" fill="#E8A699"/>
<path d="M133.202 420.226L132.369 485.256H131.347H130.544L131.407 419.083L133.202 420.226Z" fill="#E8A699"/>
<path d="M131.476 408.094L132.021 410.588H122.281H121.369L120.525 407.428L131.476 408.094ZM130.544 485.256H130.127H128.014H127.588H125.594H125.167H123.233H122.658L121.964 487.79H121.974L131.347 487.323V485.256H130.544ZM128.272 417.066L128.014 485.256H130.127L130.474 418.477L128.272 417.066ZM125.068 415L125.594 485.256H127.588L127.32 416.45L125.068 415ZM122.311 413.231L123.233 485.256H125.167L124.086 414.364L122.311 413.231Z" fill="url(#paint20_linear)"/>
<path d="M102.602 406.653L101.551 410.588H100.638H99.3489L98.7935 408.094L87.8528 407.428L87.6445 406.653H102.602Z" fill="#E8A699"/>
<path d="M100.262 485.256L101.105 488.336H89.1426L89.2914 487.79L98.6648 487.323V485.256H99.6964H100.262Z" fill="#E8A699"/>
<path d="M100.638 410.588L100.519 420.226L98.7339 419.083L97.8709 485.256H97.4444L97.8015 418.477L95.5995 417.066L95.3316 485.256H94.9151L94.6373 416.45L92.3857 415L92.9114 485.256H92.4849L91.4037 414.364L89.6382 413.231L89.6084 410.588H99.3488H100.638Z" fill="#E8A699"/>
<path d="M100.519 420.226L99.6962 485.256H98.6646H97.8711L98.734 419.083L100.519 420.226Z" fill="#E8A699"/>
<path d="M98.7932 408.094L99.3486 410.588H89.6082H88.6957L87.8525 407.428L98.7932 408.094ZM97.8707 485.256H97.4442H95.3314H94.9148H92.9112H92.4847H90.5604H89.9851L89.2908 487.79L98.6642 487.323V485.256H97.8707ZM95.5993 417.066L95.3314 485.256H97.4442L97.8013 418.477L95.5993 417.066ZM92.3855 415L92.9112 485.256H94.9148L94.6371 416.45L92.3855 415ZM89.638 413.231L90.5604 485.256H92.4847L91.4035 414.364L89.638 413.231Z" fill="url(#paint21_linear)"/>
<path d="M159.289 505.844L159.308 505.347H154.408L154.508 498.531H154.012L153.912 505.347H148.646V505.844H153.903L153.823 511.428H148.646V511.924H153.813L153.754 516.246H154.25L154.309 511.924H159.08L159.1 511.428H154.319L154.399 505.844H159.289Z" fill="#AD522F"/>
<path d="M184.79 505.347H179.741L179.523 498.531H179.027L179.245 505.347H174.296L174.306 505.844H179.255L179.434 511.428H174.435L174.455 511.924H179.454L179.583 516.246H180.079L179.95 511.924H184.572L184.592 511.428H179.93L179.751 505.844H184.78L184.79 505.347Z" fill="#AD522F"/>
<path d="M118.502 505.347H113.523L113.314 498.531H112.819L113.027 505.347H108.008L108.038 505.844H113.047L113.225 511.428H108.355L108.385 511.924H113.235L113.374 516.246H113.87L113.731 511.924H118.502V511.428H113.721L113.543 505.844H118.502V505.347Z" fill="#AD522F"/>
<path d="M145.918 505.347H140.73L140.522 498.531H140.026L140.235 505.347H135.424L135.444 505.844H140.244L140.413 511.428H135.771L135.801 511.924H140.433L140.562 516.246H141.058L140.929 511.924H145.918V511.428H140.909L140.74 505.844H145.918V505.347Z" fill="#AD522F"/>
<path d="M107.403 525L106.094 496.842H105.191L106.649 525H107.403Z" fill="#E8A699"/>
<path d="M133.748 496.842L135.057 525H133.788L132.607 496.842H133.748Z" fill="#E8A699"/>
<path d="M172.66 496.842L173.037 525H172.253L171.489 496.842H172.66Z" fill="#E8A699"/>
<path d="M198.945 496.096L191.863 496.474L198.945 496.841V496.096Z" fill="#E8A699"/>
<path d="M198.608 501.243L191.833 501.611L198.608 501.988V501.243Z" fill="#E8A699"/>
<path d="M198.271 506.38L191.794 506.757L198.271 507.125V506.38Z" fill="#E8A699"/>
<path d="M197.933 511.527L191.764 511.894L197.933 512.272V511.527Z" fill="#E8A699"/>
<path d="M197.597 516.673L191.725 517.041L197.597 517.419V516.673Z" fill="#E8A699"/>
<path d="M197.259 521.81L191.685 522.188L197.259 522.555V521.81Z" fill="#E8A699"/>
<path d="M204.401 488.336L204.024 490.115H203.26L201.485 525H197.299L198.886 491.605L198.955 490.115H199.908L200.136 488.336H204.401Z" fill="#A97996"/>
<path d="M88.5171 496.812L95.0041 496.464L88.4873 496.126L88.5171 496.812Z" fill="#E8A699"/>
<path d="M88.9736 506.4L89.0034 507.105L95.0738 506.758L88.9736 506.4Z" fill="#E8A699"/>
<path d="M88.7256 501.263L88.7653 501.958L95.0341 501.61L88.7256 501.263Z" fill="#E8A699"/>
<path d="M89.707 521.82L89.7368 522.546L95.1724 522.188L89.707 521.82Z" fill="#E8A699"/>
<path d="M89.2217 511.546L89.2514 512.252L95.1036 511.894L89.2217 511.546Z" fill="#E8A699"/>
<path d="M89.459 516.683L89.4987 517.398L95.1426 517.041L89.459 516.683Z" fill="#E8A699"/>
<path d="M197.299 524.304L187.201 523.976V523.857L187.876 496.196L182.351 494.834L182.767 492.142L176.37 492.023L176.816 495.033L170.339 496.196L171.162 523.976H161.283V523.847L162.483 495.49L150.66 494.159L151.314 491.724H142.705L143.27 494.02L131.218 496.225L132.736 523.976H121.686L122.331 495.599L115.239 494.725L115.556 492.4H110.716L111.023 494.785L103.168 496.225L105.32 523.589L89.8265 524.304L89.8066 524.056L105.052 523.36L102.91 496.027L110.746 494.586L110.428 492.152H115.844L115.527 494.507L122.589 495.381V495.49L121.944 523.728H132.478L130.951 496.027L131.06 496.007L142.962 493.821L142.387 491.476H151.632L150.977 493.94L162.741 495.272L161.541 523.728H170.904L170.081 495.997L176.528 494.834L176.082 491.764L183.045 491.893L182.638 494.656L188.133 495.997L188.124 496.096L187.459 523.738L197.299 524.056V524.304Z" fill="#E8A699"/>
<path d="M344.93 550.036C343.738 544.571 331.625 542.966 316.189 545.96C321.686 544.108 329.238 539.89 333.148 537.961L330.473 536.282L335.846 536.529C340.24 533.993 342.436 531.499 341.003 529.243C339.932 527.559 337.579 526.857 334.389 526.866L332.71 529.831L333.059 526.908C325.017 527.366 323.192 526.071 312.346 530.397C319.123 526.926 320.105 525.849 320.548 524.454L316.877 522.869H321.179C324.657 519.179 330.174 511.876 327.885 508.51C325.996 505.732 317.707 509.587 312.415 511.589L310.166 516.589L310.621 512.319C293.797 519.549 299.498 513.748 299.498 513.748C299.498 513.748 317.062 477.903 306.714 478.71C302.628 479.028 298.237 481.457 293.924 485.348L293.815 488.91L292.531 486.649C289.389 489.689 286.277 493.367 283.308 497.318C287.336 488.973 290.388 480.778 290.694 474.676L287.619 474.31L290.653 472.228C290.368 469.146 289.13 466.814 286.622 465.581C282.776 463.689 278.739 466.55 274.763 472.236L275.745 477.366L273.28 474.492C259.048 497.375 246.034 553.715 246.034 553.715L245 556.771L286.812 558.808C286.812 558.808 347.34 561.075 344.93 550.036Z" fill="#50BFA5"/>
<path d="M23.8045 501.101L23.4897 503.47L22.734 500.729C20.6102 500.048 18.767 499.816 17.3072 500.153C4.24671 503.168 26.8156 521.409 26.8156 521.409C26.8156 521.409 19.6228 516.825 12.6589 513.921L12.5702 516.325L11.68 513.61C6.26746 511.459 1.24706 510.464 0.242405 513.569C-0.702141 516.494 1.1984 519.264 4.46996 521.729L8.23097 521.863L6.01558 522.808C13.5691 527.724 26.0657 531.238 30.3791 532.038C26.2518 531.381 16.1652 530.046 10.1859 531.357L11.1247 532.942L8.76335 531.744C6.67104 532.43 5.37158 533.564 5.51183 535.352C5.77802 538.767 20.3755 540 20.3755 540L73.7023 539.497L74 539.648C73.9943 539.642 40.9953 507.496 23.8045 501.101Z" fill="#3C8F7C"/>
<path d="M226.805 520.101L226.49 522.47L225.734 519.729C223.61 519.048 221.767 518.816 220.307 519.153C207.247 522.168 229.816 540.409 229.816 540.409C229.816 540.409 222.623 535.825 215.659 532.921L215.57 535.325L214.68 532.61C209.267 530.459 204.247 529.464 203.242 532.569C202.298 535.494 204.198 538.264 207.47 540.729L211.231 540.863L209.016 541.808C216.569 546.724 229.066 550.238 233.379 551.038C229.252 550.381 219.165 549.046 213.186 550.357L214.125 551.942L211.763 550.744C209.671 551.43 208.372 552.564 208.512 554.352C208.778 557.767 223.376 559 223.376 559L276.702 558.497L277 558.648C276.994 558.642 243.995 526.496 226.805 520.101Z" fill="#3C8F7C"/>
<path d="M313.915 250.501C275.309 250.501 224.546 288.475 244.484 312.262C265.708 337.579 284.947 308.098 298.281 323.76C308.195 335.405 292.763 348.173 311.505 356.925C333.889 367.373 380.991 342.554 382.886 311.323C385.185 273.532 352.502 250.501 313.915 250.501ZM333.282 347.731C325.538 350.219 317.593 346.976 315.533 340.508C313.473 334.041 318.071 326.8 325.814 324.313C333.558 321.825 341.503 325.068 343.563 331.517C345.623 338.003 341.025 345.262 333.282 347.731Z" fill="#CBBBA0"/>
<path d="M269.111 298.112C269.111 303.676 264.604 308.172 259.068 308.172C253.532 308.172 249.008 303.658 249.008 298.112C249.008 292.565 253.514 288.051 259.05 288.051C264.586 288.051 269.111 292.547 269.111 298.112Z" fill="#DF4937"/>
<path d="M290.244 275.817C290.244 281.381 285.737 285.877 280.201 285.877C274.647 285.877 270.159 281.363 270.159 275.817C270.159 270.271 274.665 265.757 280.201 265.757C285.737 265.757 290.244 270.252 290.244 275.817Z" fill="#0593A1"/>
<path d="M321.547 267.286C321.547 272.851 317.041 277.346 311.505 277.346C305.969 277.346 301.463 272.832 301.463 267.286C301.463 261.74 305.969 257.226 311.505 257.226C317.041 257.226 321.547 261.722 321.547 267.286Z" fill="#FDD303"/>
<path d="M351.95 272.501C351.95 278.065 347.444 282.561 341.907 282.561C336.353 282.561 331.865 278.047 331.865 272.501C331.865 266.936 336.371 262.44 341.907 262.44C347.444 262.44 351.95 266.936 351.95 272.501Z" fill="#F89F26"/>
<path d="M364.31 302.7C369.856 302.7 374.352 298.196 374.352 292.64C374.352 287.084 369.856 282.58 364.31 282.58C358.764 282.58 354.268 287.084 354.268 292.64C354.268 298.196 358.764 302.7 364.31 302.7Z" fill="#485678"/>
<path d="M361.514 333.525C367.06 333.525 371.556 329.021 371.556 323.465C371.556 317.909 367.06 313.405 361.514 313.405C355.968 313.405 351.472 317.909 351.472 323.465C351.472 329.021 355.968 333.525 361.514 333.525Z" fill="#00A683"/>
<path opacity="0.5" d="M355.61 326.818C354.506 322.231 357.339 317.606 361.918 316.519C363.666 316.095 365.413 316.261 366.976 316.869C364.953 315.063 362.121 314.234 359.288 314.916C354.709 316.021 351.876 320.628 352.98 325.215C353.66 328.053 355.683 330.227 358.203 331.204C356.952 330.08 356.033 328.587 355.61 326.818Z" fill="white"/>
<path opacity="0.5" d="M358.975 296.546C357.871 291.958 360.704 287.333 365.284 286.246C367.031 285.822 368.778 285.988 370.341 286.596C368.318 284.79 365.486 283.961 362.653 284.643C358.074 285.749 355.241 290.355 356.345 294.943C357.025 297.78 359.049 299.954 361.568 300.931C360.336 299.789 359.398 298.296 358.975 296.546Z" fill="white"/>
<path opacity="0.5" d="M336.28 275.67C335.176 271.082 338.009 266.457 342.588 265.37C344.336 264.946 346.083 265.112 347.646 265.72C345.623 263.914 342.791 263.085 339.958 263.767C335.378 264.872 332.546 269.479 333.65 274.067C334.33 276.904 336.353 279.078 338.873 280.055C337.641 278.912 336.703 277.42 336.28 275.67Z" fill="white"/>
<path opacity="0.5" d="M306.631 271.174C305.528 266.586 308.36 261.961 312.94 260.874C314.687 260.45 316.434 260.616 317.998 261.224C315.975 259.419 313.142 258.589 310.31 259.271C305.73 260.377 302.898 264.983 304.001 269.571C304.682 272.408 306.705 274.583 309.225 275.559C307.974 274.435 307.036 272.943 306.631 271.174Z" fill="white"/>
<path opacity="0.5" d="M275.088 279.723C273.985 275.135 276.817 270.51 281.397 269.423C283.144 268.999 284.891 269.165 286.455 269.773C284.432 267.967 281.599 267.138 278.767 267.82C274.187 268.926 271.355 273.532 272.458 278.12C273.139 280.957 275.162 283.131 277.682 284.108C276.449 282.966 275.511 281.473 275.088 279.723Z" fill="white"/>
<path opacity="0.5" d="M254.011 301.999C252.908 297.411 255.74 292.787 260.32 291.7C262.067 291.276 263.814 291.442 265.378 292.05C263.354 290.244 260.522 289.415 257.69 290.097C253.11 291.202 250.278 295.808 251.381 300.396C252.062 303.234 254.085 305.408 256.604 306.385C255.354 305.242 254.434 303.75 254.011 301.999Z" fill="white"/>
<path d="M359.196 248.142C357.026 244.66 356.787 240.182 358.056 236.295C359.325 232.388 361.974 229.053 365.137 226.456C366.185 225.608 367.289 224.816 368.19 223.802C370.526 221.204 371.151 217.188 369.698 214C372.2 215.824 373.69 218.809 374.278 221.849C374.867 224.889 374.628 228.04 374.278 231.117C373.818 235.208 373.119 239.372 371.041 242.928C368.963 246.484 365.229 249.303 361.128 249.248C360.741 249.248 360.355 249.211 360.006 249.027C359.656 248.842 359.417 248.492 359.196 248.142Z" fill="#3C3C3B"/>
<path d="M360.539 245.212C360.539 245.212 360.428 244.826 360.226 244.162C360.005 243.517 359.84 242.541 359.821 241.288C359.84 240.68 359.95 240.035 360.042 239.335C360.208 238.653 360.391 237.934 360.667 237.216C361.017 236.534 361.274 235.779 361.716 235.115C362.12 234.434 362.58 233.752 363.077 233.125C365.026 230.564 367.491 228.574 369.017 226.861C369.348 226.4 369.735 226.032 369.937 225.626C370.213 225.239 370.305 224.871 370.378 224.558C370.489 224.244 370.36 223.987 370.378 223.802C370.36 223.618 370.36 223.526 370.36 223.526C370.36 223.526 370.397 223.618 370.452 223.784C370.47 223.95 370.71 224.226 370.636 224.576C370.618 224.945 370.599 225.387 370.378 225.847C370.231 226.345 369.919 226.806 369.606 227.321C368.245 229.33 365.983 231.522 364.125 233.955C363.647 234.544 363.205 235.171 362.801 235.797C362.359 236.405 362.084 237.068 361.716 237.695C361.44 238.34 361.182 238.966 360.962 239.574C360.814 240.201 360.649 240.79 360.557 241.362C360.52 241.914 360.465 242.43 360.41 242.909C360.373 243.388 360.447 243.812 360.465 244.144C360.52 244.807 360.539 245.212 360.539 245.212Z" fill="#575756"/>
<path d="M371.519 227.856C371.519 227.856 371.593 228.206 371.63 228.814C371.556 229.109 371.556 229.551 371.372 229.956C371.225 230.38 371.004 230.859 370.673 231.283C369.441 233.107 367.271 234.931 365.615 237.05C365.156 237.566 364.825 238.137 364.438 238.671C364.162 239.261 363.739 239.777 363.537 240.385C363.022 241.527 362.617 242.651 362.452 243.665C362.231 244.678 362.102 245.526 362.084 246.152C362.011 246.76 361.974 247.11 361.974 247.11C361.974 247.11 361.919 246.76 361.827 246.152C361.735 245.544 361.624 244.641 361.716 243.573C361.79 242.504 361.974 241.214 362.47 239.943C362.673 239.279 363.04 238.671 363.353 238.026C363.758 237.437 364.107 236.792 364.585 236.239C366.369 233.936 368.742 232.315 370.103 230.822C370.453 230.454 370.728 230.085 370.949 229.735C371.188 229.403 371.243 229.072 371.391 228.795C371.464 228.206 371.519 227.856 371.519 227.856Z" fill="#575756"/>
<path d="M370.342 235.171C370.342 235.171 370.268 235.392 370.121 235.742C369.937 236.092 369.827 236.645 369.625 237.216C369.275 238.451 369.055 240.164 368.374 241.878C368.172 242.301 368.025 242.725 367.749 243.112C367.546 243.481 367.215 243.941 366.921 244.218C366.664 244.531 366.369 244.807 365.983 245.028C365.634 245.25 365.339 245.508 365.008 245.636C363.758 246.263 362.801 246.134 362.82 246.189C362.82 246.189 363.022 246.06 363.353 245.876C363.702 245.729 364.125 245.379 364.622 245.01C364.898 244.844 365.082 244.586 365.321 244.347C365.56 244.144 365.781 243.812 366.02 243.481C366.314 243.149 366.406 242.891 366.627 242.504C366.847 242.173 366.958 241.767 367.123 241.399C367.436 240.643 367.694 239.814 367.988 239.04C368.264 238.266 368.613 237.548 368.907 236.94C369.257 236.332 369.606 235.889 369.864 235.613C370.177 235.318 370.342 235.171 370.342 235.171Z" fill="#575756"/>
<path d="M312.903 373.342L342.551 281.787C343.066 280.202 344.648 279.668 346.23 280.202L352.888 282.468C354.525 283.021 354.874 284.624 354.23 286.209L318.568 375.406C317.998 376.806 316.489 377.562 315.037 377.175L314.981 377.156C313.326 376.732 312.37 374.982 312.903 373.342Z" fill="#FFCB86"/>
<path d="M341.632 283.316L357.946 245.508C359.435 248.142 362.82 249.34 365.615 248.235L354.028 288.107C351.821 291.166 340.969 288.439 341.632 283.316Z" fill="#C6C6C6"/>
<path d="M359.914 249.303C359.031 248.953 358.314 248.345 357.946 247.608L342.846 283.335C343.177 285.159 344.317 286.393 346.285 287.001L359.914 249.303Z" fill="#F6F6F6"/>
<path d="M336.923 214.865L335.434 232.996C333.355 233.678 331.369 233.678 329.456 232.72L329.64 214.515L336.923 214.865Z" fill="#A48A7B"/>
<path d="M333.613 266.328C334.882 266.364 335.507 267.433 335.415 268.723L327.801 392.173C327.672 394.162 326.44 395.747 324.95 395.839H324.895C323.148 396.005 321.768 394.144 321.842 391.859L326.054 268.133C326.072 266.862 327.12 266.125 328.353 266.18L333.613 266.328Z" fill="#FFCB86"/>
<path d="M333.613 266.328C334.882 266.364 335.507 267.433 335.415 268.723L327.801 392.173C327.672 394.162 326.44 395.747 324.95 395.839H324.895C323.148 396.005 321.768 394.144 321.842 391.859L326.054 268.133C326.072 266.862 327.12 266.125 328.353 266.18L333.613 266.328Z" fill="#E8A246"/>
<path d="M335.433 232.996L335.525 271.542C334.477 273.845 326.274 274.711 325.796 270.805L329.456 232.756C331.074 233.217 333.705 233.346 335.433 232.996Z" fill="#C6C6C6"/>
<path d="M331.7 234.212C330.89 234.268 330.449 234.157 329.952 233.844L326.881 270.013C327.469 271.487 328.518 271.671 329.971 271.653L331.7 234.212Z" fill="#F6F6F6"/>
<path d="M331.461 229.826C331.387 229.734 331.277 229.55 331.075 229.274C330.836 228.868 330.578 228.242 330.431 227.413C330.045 225.718 330.468 223.507 330.302 221.093C330.21 218.734 329.916 216.413 330.174 214.736C330.192 214.662 330.192 214.589 330.229 214.533L330.872 214.57C330.872 214.626 330.891 214.699 330.872 214.773C330.946 216.358 331.59 218.458 331.663 221.038C331.847 223.562 331.075 225.791 331.112 227.339C331.075 228.113 331.167 228.739 331.277 229.182C331.369 229.495 331.443 229.734 331.461 229.826Z" fill="#7C6255"/>
<path d="M333.631 223.305C333.355 224.115 333.061 224.815 332.895 225.405C332.693 226.013 332.619 226.511 332.601 226.861C332.601 227.211 332.601 227.432 332.601 227.432C332.601 227.432 332.509 227.229 332.399 226.897C332.27 226.547 332.178 225.976 332.196 225.294C332.178 223.931 332.859 222.162 332.711 220.449C332.583 218.68 332.013 216.893 331.994 215.547C331.994 215.216 332.013 214.903 332.013 214.626L332.472 214.645C332.509 214.884 332.601 215.142 332.675 215.437C332.987 216.653 333.889 218.182 334.091 220.375C334.22 221.462 333.889 222.475 333.631 223.305Z" fill="#7C6255"/>
<path d="M335.985 221.885C335.912 222.493 335.838 223.101 335.691 223.617C335.507 224.133 335.323 224.631 335.157 225.128C334.808 226.013 334.459 226.805 334.293 227.487C334.146 228.15 334.127 228.739 334.183 229.163C334.238 229.458 334.275 229.661 334.293 229.753C334.201 229.605 333.631 228.85 333.612 227.413C333.594 226.602 333.796 225.718 334.054 224.741C334.164 224.281 334.275 223.82 334.403 223.304C334.514 222.807 334.55 222.309 334.624 221.775C334.734 219.656 334.624 217.574 334.698 216.081L334.753 214.755L335.102 214.773C335.176 215.123 335.268 215.547 335.378 216.044C335.617 217.5 336.095 219.49 335.985 221.885Z" fill="#7C6255"/>
<path d="M343.895 336.528C343.085 341.374 339.057 345.889 333.282 347.731C325.539 350.218 317.594 346.976 315.534 340.508C315.111 339.2 314.982 337.855 315.092 336.51H301.923C301.519 344.046 299.532 351.287 311.524 356.888C327.305 364.259 355.353 354.088 371.207 336.51H343.895V336.528Z" fill="#CBBBA0"/>
<defs>
<linearGradient id="paint0_linear" x1="32.4124" y1="247.959" x2="179.1" y2="247.959" gradientUnits="userSpaceOnUse">
<stop stop-color="#DAE3FE"/>
<stop offset="1" stop-color="#E9EFFD"/>
</linearGradient>
<linearGradient id="paint1_linear" x1="233.146" y1="400.186" x2="233.146" y2="393.018" gradientUnits="userSpaceOnUse">
<stop offset="0.3065" stop-color="#FFFBE4"/>
<stop offset="1" stop-color="#FFE696"/>
</linearGradient>
<linearGradient id="paint2_linear" x1="58.9042" y1="400.44" x2="58.9042" y2="392.306" gradientUnits="userSpaceOnUse">
<stop offset="0.3065" stop-color="#FFFBE4"/>
<stop offset="1" stop-color="#FFE696"/>
</linearGradient>
<linearGradient id="paint3_linear" x1="205.621" y1="391.084" x2="263.25" y2="391.084" gradientUnits="userSpaceOnUse">
<stop offset="0.3065" stop-color="#FFFBE4"/>
<stop offset="1" stop-color="#FFE696"/>
</linearGradient>
<linearGradient id="paint4_linear" x1="86.375" y1="372.494" x2="209.985" y2="372.494" gradientUnits="userSpaceOnUse">
<stop offset="0.3065" stop-color="#FFFBE4"/>
<stop offset="1" stop-color="#FFE696"/>
</linearGradient>
<linearGradient id="paint5_linear" x1="27" y1="391.054" x2="90.908" y2="391.054" gradientUnits="userSpaceOnUse">
<stop offset="0.3065" stop-color="#FFFBE4"/>
<stop offset="1" stop-color="#FFE696"/>
</linearGradient>
<linearGradient id="paint6_linear" x1="145.848" y1="500.115" x2="144.493" y2="344.862" gradientUnits="userSpaceOnUse">
<stop stop-color="#FF8759"/>
<stop offset="0.1587" stop-color="#F77D56"/>
<stop offset="0.4327" stop-color="#E3614D"/>
<stop offset="0.7866" stop-color="#C2343F"/>
<stop offset="1" stop-color="#AB1535"/>
</linearGradient>
<linearGradient id="paint7_linear" x1="143.45" y1="514.86" x2="140.4" y2="355.885" gradientUnits="userSpaceOnUse">
<stop stop-color="#FF8759"/>
<stop offset="0.2335" stop-color="#EF7152"/>
<stop offset="0.717" stop-color="#C53940"/>
<stop offset="1" stop-color="#AB1535"/>
</linearGradient>
<linearGradient id="paint8_linear" x1="144.668" y1="486.871" x2="145.176" y2="401.464" gradientUnits="userSpaceOnUse">
<stop offset="0.3065" stop-color="#FFFBE4"/>
<stop offset="1" stop-color="#FFE696"/>
</linearGradient>
<linearGradient id="paint9_linear" x1="178.793" y1="528.896" x2="179.81" y2="495.03" gradientUnits="userSpaceOnUse">
<stop offset="0.00558659" stop-color="#FFAF4D"/>
<stop offset="0.119" stop-color="#F2923C"/>
<stop offset="0.2436" stop-color="#E7792D"/>
<stop offset="0.3184" stop-color="#E36F27"/>
<stop offset="0.5094" stop-color="#D76826"/>
<stop offset="0.853" stop-color="#B85423"/>
<stop offset="1" stop-color="#A84A21"/>
</linearGradient>
<linearGradient id="paint10_linear" x1="139.812" y1="527.726" x2="140.828" y2="493.86" gradientUnits="userSpaceOnUse">
<stop offset="0.00558659" stop-color="#FFAF4D"/>
<stop offset="0.119" stop-color="#F2923C"/>
<stop offset="0.2436" stop-color="#E7792D"/>
<stop offset="0.3184" stop-color="#E36F27"/>
<stop offset="0.5094" stop-color="#D76826"/>
<stop offset="0.853" stop-color="#B85423"/>
<stop offset="1" stop-color="#A84A21"/>
</linearGradient>
<linearGradient id="paint11_linear" x1="153.368" y1="528.133" x2="154.385" y2="494.267" gradientUnits="userSpaceOnUse">
<stop offset="0.00558659" stop-color="#FFAF4D"/>
<stop offset="0.119" stop-color="#F2923C"/>
<stop offset="0.2436" stop-color="#E7792D"/>
<stop offset="0.3184" stop-color="#E36F27"/>
<stop offset="0.5094" stop-color="#D76826"/>
<stop offset="0.853" stop-color="#B85423"/>
<stop offset="1" stop-color="#A84A21"/>
</linearGradient>
<linearGradient id="paint12_linear" x1="112.727" y1="526.913" x2="113.744" y2="493.047" gradientUnits="userSpaceOnUse">
<stop offset="0.00558659" stop-color="#FFAF4D"/>
<stop offset="0.119" stop-color="#F2923C"/>
<stop offset="0.2436" stop-color="#E7792D"/>
<stop offset="0.3184" stop-color="#E36F27"/>
<stop offset="0.5094" stop-color="#D76826"/>
<stop offset="0.853" stop-color="#B85423"/>
<stop offset="1" stop-color="#A84A21"/>
</linearGradient>
<linearGradient id="paint13_linear" x1="141.465" y1="397.446" x2="142.397" y2="365.567" gradientUnits="userSpaceOnUse">
<stop offset="0.3065" stop-color="#FFFBE4"/>
<stop offset="1" stop-color="#FFE696"/>
</linearGradient>
<linearGradient id="paint14_linear" x1="144.033" y1="527.577" x2="143.525" y2="483.943" gradientUnits="userSpaceOnUse">
<stop stop-color="#FFFBE4"/>
<stop offset="1" stop-color="#FFE696"/>
</linearGradient>
<linearGradient id="paint15_linear" x1="141.033" y1="403.238" x2="140.948" y2="378.039" gradientUnits="userSpaceOnUse">
<stop offset="0.3065" stop-color="#FFFBE4"/>
<stop offset="1" stop-color="#FFE696"/>
</linearGradient>
<linearGradient id="paint16_linear" x1="143.984" y1="527.578" x2="143.476" y2="483.944" gradientUnits="userSpaceOnUse">
<stop stop-color="#FFFBE4"/>
<stop offset="1" stop-color="#FFE696"/>
</linearGradient>
<linearGradient id="paint17_linear" x1="140.989" y1="409.065" x2="140.989" y2="399.679" gradientUnits="userSpaceOnUse">
<stop offset="0.3065" stop-color="#FFFBE4"/>
<stop offset="1" stop-color="#FFE696"/>
</linearGradient>
<linearGradient id="paint18_linear" x1="185.892" y1="447.609" x2="197.378" y2="447.609" gradientUnits="userSpaceOnUse">
<stop stop-color="#FFFBE4"/>
<stop offset="1" stop-color="#FFE696"/>
</linearGradient>
<linearGradient id="paint19_linear" x1="153.962" y1="447.609" x2="164.092" y2="447.609" gradientUnits="userSpaceOnUse">
<stop stop-color="#FFFBE4"/>
<stop offset="1" stop-color="#FFE696"/>
</linearGradient>
<linearGradient id="paint20_linear" x1="120.525" y1="447.609" x2="132.021" y2="447.609" gradientUnits="userSpaceOnUse">
<stop offset="0.3065" stop-color="#FFFBE4"/>
<stop offset="1" stop-color="#FFE696"/>
</linearGradient>
<linearGradient id="paint21_linear" x1="87.8525" y1="447.609" x2="99.3486" y2="447.609" gradientUnits="userSpaceOnUse">
<stop offset="0.3065" stop-color="#FFFBE4"/>
<stop offset="1" stop-color="#FFE696"/>
</linearGradient>
</defs>
</svg>
