<svg width="36" height="35" viewBox="0 0 36 35" fill="none" xmlns="http://www.w3.org/2000/svg">
<path d="M31.1575 25.6667C31.3428 24.6833 31.3381 23.6734 31.1435 22.6917L33.8152 16.2442C33.8155 16.2399 33.8155 16.2356 33.8152 16.2314C34.2481 15.0461 34.8826 13.9445 35.6906 12.9752C35.8916 12.7629 35.9725 12.4637 35.9058 12.179L34.8103 7.44817C34.7973 7.39871 34.7777 7.35123 34.752 7.307C34.7473 7.29825 34.7456 7.28775 34.7409 7.27958C34.7363 7.27142 34.7158 7.25158 34.7042 7.23642C34.6803 7.20147 34.6527 7.1692 34.6219 7.14017C34.6016 7.12589 34.5804 7.11303 34.5583 7.10167C34.5299 7.08073 34.4996 7.06238 34.4679 7.04684C34.424 7.03023 34.3781 7.01906 34.3314 7.01359C34.318 7.01359 34.3064 7.00484 34.2929 7.00367C34.1811 6.99622 34.0695 7.02113 33.9715 7.07542C33.9628 7.08008 33.9523 7.08184 33.9435 7.08709H33.9377L29.8188 9.65782C29.5694 9.81228 29.4145 10.082 29.407 10.3753C29.2925 11.6348 28.9608 12.865 28.4264 14.0112V14.0176L27.0911 17.2452C26.4358 16.8968 25.7342 16.6434 25.0075 16.4927C25.2826 14.5939 25.3837 12.674 25.3097 10.7568C26.3955 9.45397 26.9167 7.77171 26.7575 6.08317C26.3929 2.68353 23.3205 0.228294 23.1893 0.125044C22.992 -0.030301 22.7174 -0.041984 22.5077 0.0960408C22.2979 0.234066 22.2001 0.490825 22.2647 0.733457C22.5651 1.86162 22.3049 3.05219 20.0859 5.50043C19.089 6.46309 18.7729 7.93298 19.2862 9.22032C19.4824 9.71271 19.7636 10.1668 20.1169 10.562C19.9757 11.4632 19.8649 12.3166 19.7884 13.1479C19.6569 14.5227 19.6229 15.9052 19.6869 17.2849C19.1665 17.567 18.6794 17.9065 18.2344 18.2969L15.4053 6.19867C15.4053 6.18642 15.3936 6.17767 15.3901 6.16659C15.3806 6.1277 15.3669 6.08995 15.3493 6.05401L12.4595 0.717124C12.1703 0.182953 11.5593 -0.0915413 10.9679 0.0469773C10.3765 0.185496 9.95092 0.702747 9.929 1.30979L9.70966 7.3735C9.70981 7.41726 9.7147 7.46088 9.72425 7.50358C9.72425 7.51292 9.72425 7.52108 9.72425 7.52983L12.6106 19.848C12.1552 19.8681 11.7033 19.9356 11.2619 20.0493L8.08684 12.3814C7.83224 11.7952 7.15698 11.5187 6.56435 11.7578L1.71163 13.7668C1.11772 14.0147 0.83548 14.6957 1.07988 15.291L5.38602 25.679C2.86225 25.8115 0.903235 27.9301 0.968375 30.4565C1.03352 32.9829 3.09911 34.9977 5.62636 35H31.2929C32.9601 34.9758 34.4878 34.064 35.3005 32.6081C36.1131 31.1521 36.0873 29.3732 35.2328 27.9414C34.3782 26.5097 32.8248 25.6425 31.1575 25.6667ZM30.5631 10.5678L33.0084 9.04182L32.1428 11.1325C32.0194 11.4302 32.1607 11.7715 32.4584 11.8949C32.756 12.0183 33.0974 11.877 33.2208 11.5793L34.0864 9.48865L34.7345 12.2962C34.0411 13.1421 33.4715 14.0823 33.0429 15.0886C32.4347 15.3705 31.7363 15.3852 31.1169 15.129C30.4974 14.8728 30.0134 14.3691 29.782 13.74C30.1917 12.725 30.4547 11.6569 30.5631 10.5678ZM29.2215 15.1475C29.6074 15.6193 30.1082 15.9839 30.6757 16.2063C31.1268 16.4003 31.6121 16.5026 32.1031 16.5073C32.2213 16.5068 32.3393 16.4996 32.4566 16.4857L30.5952 20.9773C30.0378 19.7484 29.1756 18.6824 28.0904 17.8804L29.2215 15.1475ZM21.2298 10.9814L24.1605 11.1605C24.1786 11.7053 24.1722 12.2688 24.1541 12.8411C23.1778 12.9108 22.1966 12.8634 21.2316 12.6999C21.1581 12.6894 21.0863 12.6812 21.0134 12.6713C21.0718 12.1218 21.1429 11.5653 21.2287 10.9814H21.2298ZM20.9516 6.28384C22.5003 4.57527 23.303 3.26102 23.4897 2.02553C24.6029 3.17093 25.3377 4.63042 25.5949 6.20684C25.7174 7.57918 25.2931 8.94438 24.4142 10.0055C23.262 9.93548 22.1223 9.86549 20.9953 9.79549C20.5111 9.34278 20.2325 8.71209 20.224 8.04924C20.2156 7.38639 20.4779 6.74878 20.9504 6.28384H20.9516ZM20.9073 13.8339L21.0764 13.856C21.8281 13.9723 22.5868 14.0368 23.3473 14.0491C23.5888 14.0491 23.8432 14.0299 24.0981 14.01C24.045 14.7608 23.9581 15.5448 23.8478 16.355C23.7037 16.3474 23.5626 16.3334 23.4179 16.3334C22.5372 16.335 21.6631 16.4855 20.8326 16.7785C20.8057 15.7964 20.8302 14.8135 20.9061 13.8339H20.9073ZM16.3952 20.6553L14.7263 13.5463C14.6483 13.2379 14.3375 13.0488 14.0278 13.1214C13.718 13.1939 13.5235 13.5013 13.5906 13.8123L15.0903 20.2108C14.678 20.0634 14.252 19.9573 13.8186 19.8941L11.2584 8.96832C11.6171 9.13162 12.0065 9.21635 12.4006 9.21682C12.4373 9.21682 12.4764 9.21157 12.5137 9.20982L12.9261 10.9709C12.9706 11.177 13.1228 11.3431 13.3243 11.4053C13.5258 11.4675 13.7451 11.4162 13.8981 11.2709C14.051 11.1257 14.1136 10.9093 14.0619 10.7049L13.6489 8.94266C14.0447 8.76745 14.3937 8.5017 14.668 8.16683L17.2708 19.2962C16.9328 19.7178 16.6394 20.1733 16.3952 20.6553ZM12.8311 7.99708C12.085 8.14177 11.3233 7.83676 10.8833 7.21717L10.9574 5.16268C11.1604 5.20059 11.3663 5.22011 11.5728 5.22101C11.7723 5.22185 11.9711 5.19973 12.1655 5.1551C12.559 5.05175 12.9271 4.86869 13.247 4.61727L14.2293 6.43026C14.1123 7.18247 13.565 7.79615 12.8311 7.99825V7.99708ZM11.2333 1.18262C11.3128 1.16422 11.3948 1.20093 11.434 1.27245L12.6846 3.58536C12.459 3.78946 12.1896 3.93913 11.8972 4.02285C11.5982 4.07772 11.2907 4.06315 10.9982 3.98027L11.0933 1.35179C11.0965 1.27028 11.1538 1.20098 11.2333 1.18262ZM7.01176 12.8335L7.45743 13.9103L5.29911 14.804C5.04324 14.9114 4.89849 15.1842 4.953 15.4564C5.0075 15.7285 5.24617 15.9245 5.52369 15.9251C5.60033 15.925 5.67621 15.9099 5.7471 15.8808L7.90543 14.9865L8.35167 16.0645L7.27193 16.5119C7.01459 16.6184 6.86843 16.892 6.92294 17.1651C6.97745 17.4382 7.21742 17.6347 7.49593 17.6343C7.57237 17.634 7.64804 17.6189 7.71876 17.5899L8.7985 17.1425L9.24475 18.2205L7.08468 19.1159C6.82734 19.2224 6.68118 19.496 6.73569 19.7691C6.7902 20.0422 7.03018 20.2387 7.30868 20.2383C7.38513 20.238 7.4608 20.223 7.53151 20.1939L9.68983 19.3003L10.1617 20.4395C8.2609 21.3071 6.86703 23.0037 6.38468 25.0367L2.15671 14.8425L7.01176 12.8335ZM31.2929 33.8333H5.62636C3.69337 33.8333 2.12638 32.2663 2.12638 30.3334C2.12638 28.4004 3.69337 26.8334 5.62636 26.8334C5.96435 26.8323 6.30067 26.881 6.62443 26.978C6.79934 27.0309 6.9889 26.9987 7.13658 26.8911C7.28426 26.7835 7.37301 26.613 7.37635 26.4303C7.41784 24.3514 8.61965 22.4706 10.4888 21.5595C12.3579 20.6484 14.5798 20.8604 16.243 22.1084C16.3899 22.2178 16.5798 22.2518 16.7555 22.2002C16.9313 22.1486 17.0727 22.0174 17.1372 21.8459C18.2769 18.8086 21.4267 17.022 24.6184 17.6026C27.8101 18.1831 30.129 20.9643 30.1262 24.2084C30.1273 24.8755 30.028 25.539 29.8316 26.1766C29.7703 26.3749 29.8191 26.5909 29.9596 26.7437C30.1002 26.8965 30.3113 26.9631 30.5141 26.9185C30.7699 26.8623 31.031 26.8337 31.2929 26.8334C33.2259 26.8334 34.7928 28.4004 34.7928 30.3334C34.7928 32.2663 33.2259 33.8333 31.2929 33.8333Z" fill="#9A9A9A"/>
<path d="M23.5261 9.15839C23.7092 9.15908 23.882 9.07376 23.9928 8.92797C24.721 7.94229 25.0025 6.69634 24.7686 5.49333C24.7189 5.28763 24.5616 5.12501 24.3577 5.0684C24.1538 5.01178 23.9352 5.07005 23.7865 5.22065C23.6378 5.37125 23.5824 5.59057 23.6416 5.79374C23.7813 6.64857 23.5729 7.52374 23.063 8.22389C22.9304 8.40065 22.9091 8.63714 23.0079 8.83476C23.1067 9.03239 23.3087 9.15722 23.5296 9.15722L23.5261 9.15839Z" fill="#9A9A9A"/>
<path d="M22.7592 26.8334C22.3254 26.8348 21.8976 26.9345 21.508 27.1251C20.4586 25.6892 18.4992 25.2686 16.953 26.1472C15.4067 27.0259 14.7652 28.9245 15.4617 30.5609C15.5534 30.776 15.7646 30.9156 15.9984 30.9156C16.077 30.9158 16.1548 30.8999 16.2271 30.8689C16.3694 30.8083 16.4818 30.6936 16.5396 30.55C16.5973 30.4065 16.5957 30.2459 16.5351 30.1036C16.4081 29.8076 16.3426 29.4889 16.3426 29.1668C16.3426 27.8781 17.3872 26.8334 18.6759 26.8334C19.5809 26.8289 20.4052 27.3534 20.7846 28.1751C20.7972 28.1941 20.8109 28.2124 20.8255 28.2299C20.8347 28.2499 20.845 28.2694 20.8564 28.2883C20.8669 28.3011 20.882 28.3069 20.8937 28.3192C20.9211 28.3476 20.9514 28.373 20.9841 28.395C21.0133 28.4175 21.0445 28.437 21.0775 28.4534C21.1113 28.4676 21.1465 28.4785 21.1825 28.486C21.2183 28.4954 21.2551 28.5011 21.2921 28.5029C21.3679 28.5023 21.4431 28.4897 21.515 28.4656C21.5305 28.4627 21.5459 28.459 21.561 28.4545C21.58 28.4423 21.5981 28.4288 21.6153 28.4143C21.6363 28.4049 21.6567 28.3944 21.6765 28.3828C21.9829 28.135 22.3651 27.9999 22.7592 28.0001C23.4413 28.0012 24.0605 28.3985 24.3459 29.018C24.4796 29.3112 24.8256 29.4405 25.1188 29.3068C25.4119 29.1731 25.5412 28.827 25.4075 28.5339C24.9325 27.4985 23.8983 26.8345 22.7592 26.8334Z" fill="#9A9A9A"/>
<path d="M11.275 22.7797C11.1869 22.8083 9.12598 23.5211 9.12598 25.6666C9.12598 25.9888 9.38714 26.25 9.70931 26.25C10.0315 26.25 10.2926 25.9888 10.2926 25.6666C10.3403 24.8529 10.8757 24.1489 11.6471 23.8857C11.9532 23.7829 12.118 23.4515 12.0152 23.1455C11.9124 22.8394 11.581 22.6746 11.275 22.7774V22.7797Z" fill="#9A9A9A"/>
<path d="M19.4847 22.1492C19.531 22.161 19.5786 22.1669 19.6264 22.1667C19.8938 22.1665 20.1267 21.9845 20.1917 21.7251C20.4602 20.6359 21.4245 19.861 22.546 19.8334C22.8681 19.8326 23.1287 19.5708 23.1279 19.2486C23.127 18.9265 22.8652 18.6659 22.5431 18.6667C20.8851 18.6888 19.4523 19.8304 19.0606 21.4417C18.9823 21.7541 19.1722 22.0709 19.4847 22.1492Z" fill="#9A9A9A"/>
</svg>
