<svg width="1366" height="768" viewBox="0 0 1366 768" fill="none" xmlns="http://www.w3.org/2000/svg">
<rect width="1366" height="768" fill="#F3F3F3"/>
<g clip-path="url(#clip0)">
<path d="M450.734 749.287C451.166 749.442 451.68 749.403 452.063 749.135C452.426 748.882 452.608 748.443 452.611 748.016C452.611 747.806 452.561 747.55 452.448 747.343C453.821 744.753 452.524 741.243 449.878 739.65C449.684 739.434 449.477 739.217 449.257 739.028C449.276 739.007 449.295 738.989 449.311 738.967C449.496 738.763 449.436 738.416 449.141 738.343C448.913 738.306 448.703 738.236 448.508 738.139C448.48 738.09 448.449 738.041 448.408 737.996C445.982 735.345 445.916 731.646 445.436 728.313C445.013 725.385 444.305 722.439 442.91 719.791C440.286 714.822 435.271 711.903 429.475 712.472C424.131 713 419.623 716.433 418.269 721.555C416.921 726.652 418.708 732.207 423.128 735.323C426.177 737.475 429.889 738.416 433.374 739.665C437.048 740.981 439.866 742.8 442.446 745.652C442.512 745.725 442.59 745.756 442.672 745.759C442.697 745.774 442.728 745.786 442.759 745.792C444.405 748.166 448.038 751.374 450.546 749.369C450.611 749.345 450.671 749.317 450.734 749.287ZM448.511 739.845C448.966 740.134 449.402 740.488 449.796 740.887C448.674 741.393 447.637 742.179 446.618 742.828C446.044 743.193 445.43 743.55 444.844 743.94C445.302 743.422 445.74 742.895 446.192 742.401C446.969 741.551 447.74 740.698 448.511 739.845ZM422.632 732.627C420.748 730.735 419.739 728.112 419.623 725.498C419.448 721.494 421.331 717.881 424.566 715.836C422.939 717.152 421.557 718.813 420.67 720.458C418.639 724.221 419.927 729.3 422.808 732.789C422.748 732.737 422.689 732.682 422.632 732.627ZM442.327 743.586C440.12 739.83 434.625 738.258 430.757 736.935C429.162 736.39 427.525 735.805 426.011 735.022C421.341 731.942 418.307 725.068 421.372 720.202C422.758 718.002 424.996 715.742 427.507 714.541C427.789 714.462 428.074 714.392 428.365 714.334C434.249 713.155 439.656 716.199 442.098 721.421C443.524 724.471 443.938 727.758 444.371 731.043C444.718 733.678 445.254 736.241 446.891 738.37C446.43 738.812 445.997 739.394 445.593 739.897C443.925 737.554 441.948 735.391 440.142 733.145C438.286 730.836 436.559 727.871 434.193 726.028C433.904 725.802 433.503 726.076 433.675 726.415C434.942 728.931 437.34 731.031 439.158 733.179C441.145 735.528 443.007 738.041 445.132 740.271C445.16 740.302 445.192 740.32 445.223 740.335C445.223 740.335 445.223 740.335 445.22 740.339C444.831 740.771 444.349 741.228 443.872 741.707C443.856 741.643 443.825 741.582 443.756 741.527C442.546 740.588 441.289 739.763 440.217 738.663C439.211 737.63 438.346 736.478 437.427 735.369C435.584 733.142 433.688 730.598 431.234 728.974C430.929 728.773 430.478 729.184 430.71 729.483C432.578 731.884 435.045 733.852 437.004 736.201C438.819 738.376 440.672 740.796 443.292 742.109C443.342 742.133 443.393 742.145 443.446 742.145C443.016 742.605 442.615 743.084 442.327 743.586ZM442.728 744.391C442.706 744.342 442.687 744.29 442.665 744.245C443.656 743.614 444.43 742.477 445.192 741.652L446.665 740.058C446.884 739.821 447.101 739.586 447.32 739.348C447.395 739.266 447.471 739.184 447.549 739.102C447.637 739.156 447.728 739.184 447.819 739.19C447.79 739.278 447.797 739.373 447.859 739.449C447.063 740.332 446.264 741.213 445.471 742.1C444.709 742.95 443.847 743.781 443.145 744.695C443.004 744.592 442.866 744.491 442.728 744.391ZM443.963 745.354C445.066 744.915 446.091 744.205 447.088 743.608C448.163 742.965 449.389 742.362 450.348 741.545C450.496 741.761 450.637 741.987 450.781 742.209C449.646 742.928 448.53 743.684 447.411 744.421C446.571 744.976 445.681 745.503 444.897 746.14C444.587 745.881 444.277 745.616 443.963 745.354ZM445.53 746.661C446.345 746.231 447.116 745.707 447.894 745.223C448.518 744.833 449.145 744.44 449.768 744.05C450.082 743.855 450.392 743.66 450.706 743.465C451.038 743.385 451.201 743.233 451.207 743.014C451.229 743.023 451.242 743.038 451.267 743.047C451.276 743.05 451.282 743.05 451.292 743.053C451.602 743.757 451.771 744.491 451.74 745.204C450.68 745.536 449.693 746.115 448.703 746.603C448.032 746.932 447.326 747.236 446.681 747.62C446.286 747.307 445.906 746.978 445.53 746.661ZM449.894 748.23C449.677 748.37 449.593 748.574 449.602 748.775C449.59 748.784 449.574 748.79 449.561 748.796C448.982 748.854 448.342 748.702 447.803 748.394C447.64 748.303 447.48 748.199 447.323 748.093C447.856 747.87 448.373 747.602 448.891 747.364C449.781 746.953 450.74 746.588 451.593 746.097C451.354 746.892 450.818 747.63 449.894 748.23Z" fill="#E0E0E0"/>
<path d="M450.763 717.464C450.794 717.211 450.565 717.028 450.358 716.946C449.656 716.662 448.926 717.339 448.349 717.677C447.672 718.076 446.986 718.506 446.484 719.112C446.211 719.444 446.465 719.871 446.898 719.804C447.732 719.673 448.49 719.267 449.22 718.868C449.891 718.5 450.656 718.283 450.763 717.464Z" fill="#E0E0E0"/>
<path d="M443.314 709.526C442.44 709.34 441.976 710.066 441.481 710.638C441.029 711.159 440.44 711.726 440.283 712.409C440.199 712.771 440.547 713.24 440.97 713.076C441.65 712.811 442.126 712.256 442.659 711.781C443.249 711.257 443.954 710.885 443.81 710.005C443.772 709.785 443.534 709.572 443.314 709.526Z" fill="#E0E0E0"/>
<path d="M430.369 703.759C430.221 704.825 430.193 706.065 430.56 707.095C430.914 708.094 432.306 707.878 432.403 706.851C432.491 705.931 432.469 704.968 432.507 704.039C432.557 702.875 430.535 702.561 430.369 703.759Z" fill="#E0E0E0"/>
<path d="M419.47 706.602C418.736 706.017 417.313 706.538 417.702 707.601C417.978 708.357 418.617 708.954 419.128 709.575C419.57 710.115 420.084 710.815 420.818 710.965C421.219 711.047 421.495 710.797 421.545 710.425C421.636 709.734 421.14 709.042 420.789 708.475C420.407 707.872 420.04 707.059 419.47 706.602Z" fill="#E0E0E0"/>
<path d="M415.972 716.504C416.144 716.467 416.32 716.266 416.301 716.086C416.226 715.419 415.734 714.938 415.245 714.49C414.762 714.048 414.147 713.457 413.489 713.289C412.753 713.104 411.869 713.551 411.844 714.356C411.825 714.88 412.138 715.312 412.64 715.483C412.828 715.547 413 715.52 413.148 715.45C413.527 715.635 413.89 715.922 414.254 716.095C414.809 716.357 415.345 716.641 415.972 716.504Z" fill="#E0E0E0"/>
<path d="M410.593 724.864C409.784 724.797 408.922 724.76 408.298 725.321C407.822 725.748 407.941 726.588 408.505 726.884C408.624 726.945 408.747 726.997 408.878 727.024C409.135 727.082 409.433 727.009 409.652 726.847C410.05 726.735 410.63 726.783 411.003 726.787C411.596 726.79 412.094 726.774 412.637 726.506C412.981 726.336 412.966 725.906 412.749 725.653C412.201 725.022 411.395 724.931 410.593 724.864Z" fill="#E0E0E0"/>
<path d="M413.834 734.422C413.439 735.028 414.103 735.961 414.84 735.693C415.489 735.458 416.065 734.983 416.677 734.66C417.025 734.477 417.771 734.005 417.485 733.511C416.783 732.295 414.348 733.636 413.834 734.422Z" fill="#E0E0E0"/>
<path d="M423.244 743.255C423.454 742.84 423.642 742.414 423.815 741.984C424.015 741.485 424.078 741.18 423.846 740.683C423.818 740.625 423.746 740.613 423.689 740.622C423.116 740.699 422.906 740.942 422.567 741.375C422.301 741.719 422.05 742.076 421.815 742.441C421.248 743.331 422.777 744.178 423.244 743.255Z" fill="#E0E0E0"/>
<path d="M431.152 741.881C431.124 741.725 430.92 741.667 430.791 741.737C429.56 742.426 429.259 744.422 429.444 745.665C429.582 746.594 431.108 746.35 431.102 745.445C431.099 744.799 431.017 744.175 431.077 743.523C431.133 742.965 431.252 742.435 431.152 741.881Z" fill="#E0E0E0"/>
<path d="M447.493 727.198C447.904 727.405 448.346 727.335 448.797 727.359C449.277 727.384 449.741 727.499 450.199 727.633C451.327 727.966 451.813 726.14 450.678 725.939C449.694 725.766 447.973 725.65 447.315 726.549C447.171 726.75 447.274 727.088 447.493 727.198Z" fill="#E0E0E0"/>
</g>
<g clip-path="url(#clip1)">
<path d="M93.6268 494.549C97.1413 498.949 100.453 503.747 104.282 507.874C104.296 507.906 104.314 507.938 104.338 507.963C105.125 508.851 106.444 510.293 107.724 509.947C108.51 509.736 109.248 508.844 109.888 508.364C110.948 507.571 112.025 506.803 113.13 506.073C116.036 504.152 119.141 502.566 122.46 501.765C122.551 501.769 122.639 501.765 122.729 501.769C124.125 501.836 125.454 502.344 126.828 502.425C127.86 502.485 128.591 502.023 128.692 500.99C130.829 498.138 132.668 495.202 135.28 492.702C136.704 491.342 138.236 490.097 139.862 488.99C139.886 488.976 139.907 488.962 139.932 488.945C141.995 487.693 144.184 486.657 146.471 485.86C146.929 485.701 147.237 485.025 146.786 484.654C146.044 484.048 145.37 483.378 144.579 482.888C144.635 482.871 144.688 482.846 144.747 482.825C144.932 482.761 145.002 482.61 144.992 482.462C145.048 482.395 145.083 482.317 145.104 482.233C145.425 482.145 145.681 481.803 145.45 481.44C145.31 481.221 145.174 480.995 145.034 480.777C145.048 480.777 145.065 480.773 145.079 480.777C145.282 480.784 145.342 480.505 145.177 480.407C145.03 480.319 144.869 480.269 144.698 480.245C144.383 479.737 144.079 479.226 143.771 478.715C143.457 477.876 142.922 477.111 142.439 476.328C141.509 474.823 140.481 473.378 139.459 471.932C137.375 468.985 135.287 466.042 133.196 463.098C131.343 460.49 129.65 457.391 127.426 455.093C126.324 453.954 124.499 453.489 123.464 454.769C120.97 455.403 118.631 456.457 116.634 458.297C115.854 459.016 114.98 459.852 114.109 460.772C111.5 463.271 109.262 466.373 108.182 469.75C104.968 467.903 100.624 468.079 97.1623 468.858C92.3888 469.934 88.1014 472.503 83.9434 474.996C83.4818 475.271 83.4573 475.856 83.786 476.24C84.4365 477.001 85.0764 477.766 85.7199 478.531C84.6743 478.983 83.9749 479.688 83.1705 480.597C83.0236 480.763 82.9327 481.069 83.0831 481.27C86.4962 485.768 90.0982 490.136 93.6268 494.549ZM115.76 502.735C113.854 503.747 112.035 504.934 110.297 506.218C109.605 506.729 108.654 507.751 107.874 508.093C107.36 508.319 106.888 508.283 106.43 508.142C106.437 508.132 106.447 508.125 106.454 508.114C106.629 507.896 106.636 507.649 106.454 507.427C106.447 507.42 106.44 507.409 106.433 507.402C106.755 507.314 107.017 507.109 107.213 506.785C107.51 506.482 107.821 506.193 108.143 505.914C108.92 505.248 109.762 504.67 110.64 504.148C112.189 503.232 113.85 502.523 115.539 501.91C118.547 500.821 122.013 499.372 125.282 499.696C125.338 499.71 125.398 499.728 125.457 499.742C122.051 500.01 118.806 501.113 115.76 502.735ZM124.555 501.381C125.401 501.268 126.258 501.208 127.129 501.208C127.216 501.321 127.356 501.392 127.492 501.388C126.793 501.702 125.583 501.543 124.555 501.381ZM128.489 500.637C128.416 500.616 128.332 500.616 128.255 500.637C128.454 500.387 128.647 500.137 128.842 499.887C128.716 500.133 128.598 500.384 128.489 500.637ZM144.831 484.947C141.236 486.361 137.896 488.317 134.931 490.83C133.406 492.121 131.797 493.644 130.395 495.321C130.528 495.078 130.664 494.839 130.808 494.606C131.913 492.815 133.179 491.127 134.599 489.576C137.095 486.84 139.897 484.764 143.24 483.389C143.67 484.006 144.236 484.489 144.831 484.947ZM143.943 482.3C143.81 482.338 143.677 482.377 143.548 482.416C143.425 482.405 143.31 482.444 143.222 482.522C139.767 483.685 136.76 486.135 134.305 488.779C132.035 491.225 129.206 494.613 128.122 498.015C128.063 497.912 127.993 497.807 127.919 497.694C128.37 495.97 129.741 494.024 130.465 492.872C131.609 491.063 132.923 489.368 134.399 487.824C135.802 486.361 137.34 485.032 138.994 483.868C140.068 483.114 141.719 481.838 143.275 481.186C143.495 481.559 143.719 481.93 143.943 482.3ZM115.473 461.308C116.022 460.698 116.589 460.074 117.183 459.464C118.771 458.265 120.484 457.254 122.306 456.461C122.995 456.161 123.793 455.823 124.635 455.53C124.908 455.47 125.188 455.421 125.464 455.371C125.447 455.343 125.429 455.315 125.408 455.287C127.335 456.094 129.252 459.873 130.098 461.075C131.696 463.345 133.291 465.615 134.892 467.886C136.379 469.99 137.875 472.084 139.341 474.203C139.362 474.234 139.383 474.262 139.404 474.294C140.537 476.441 141.719 478.56 142.953 480.65C141.834 481.175 140.687 482.06 140.047 482.469C137.76 483.928 135.658 485.691 133.808 487.686C132.035 489.6 130.475 491.729 129.241 494.031C128.751 494.944 128.021 496.115 127.667 497.285C126.877 495.991 126.038 494.722 125.212 493.453C123.394 490.651 121.537 487.873 119.642 485.127C117.82 482.487 115.963 479.874 114.071 477.287C112.577 475.246 111.063 472.761 109.252 470.885C110.458 467.114 112.864 464.195 115.473 461.308ZM108.594 471.224C109.864 473.381 111.696 475.38 113.144 477.361C114.875 479.733 116.578 482.13 118.25 484.545C119.921 486.96 121.561 489.399 123.174 491.86C123.904 492.977 124.632 494.098 125.352 495.226C125.782 495.903 126.213 496.58 126.639 497.257C126.783 497.482 126.922 497.708 127.066 497.937C127.076 497.99 127.094 498.039 127.111 498.085C123.915 493.39 120.491 488.832 117.197 484.214C114.05 479.8 111 475.274 107.699 470.97C107.993 471.051 108.294 471.136 108.594 471.224ZM85.538 475.88C89.0421 473.787 92.6231 471.717 96.5783 470.635C100.278 469.62 103.534 469.902 107.045 470.797C110.185 475.581 113.662 480.167 116.984 484.82C120.288 489.449 123.492 494.179 126.905 498.73C120.159 495.565 111.497 497.726 106.006 502.477C99.6138 493.28 92.784 484.408 85.538 475.88ZM85.3807 479.723C85.5765 479.448 85.8178 479.184 86.0451 478.916C92.8085 486.995 99.1976 495.385 105.188 504.064C105.482 504.49 106.034 504.6 106.426 504.226C109.094 501.681 112.361 499.961 115.966 499.227C118.071 498.797 120.068 498.801 122.051 499.065C121.803 499.111 121.554 499.164 121.303 499.22C118.855 499.77 116.4 500.567 114.064 501.48C112.032 502.273 110.053 503.235 108.297 504.554C107.524 505.135 105.779 506.235 105.443 507.36C102.034 502.34 97.7638 497.74 93.9695 493.013C92.0426 490.612 90.1122 488.211 88.1748 485.814C87.1677 484.566 85.7758 483.301 85.01 481.891L84.4819 481.239C84.5798 480.597 84.8771 480.093 85.3807 479.723Z" fill="#E0E0E0"/>
<path d="M114.81 471.1C116.104 469.077 117.503 467.166 119.35 465.619C121.381 463.912 123.588 463.091 125.99 462.097C126.669 461.815 126.414 460.895 125.69 460.997C120.752 461.706 115.922 466.25 114.38 470.917C114.289 471.181 114.667 471.319 114.81 471.1Z" fill="#E0E0E0"/>
<path d="M116.139 473.374C116.027 473.73 116.499 473.864 116.692 473.611C118.192 471.64 119.419 469.652 121.367 468.069C123.329 466.472 125.557 465.862 127.704 464.664C128.04 464.477 127.9 463.899 127.505 463.924C123.007 464.174 117.45 469.144 116.139 473.374Z" fill="#E0E0E0"/>
<path d="M123.231 483.886C123.129 484.199 123.57 484.471 123.79 484.213C125.2 482.592 126.291 480.776 127.889 479.299C129.655 477.671 131.68 476.818 133.628 475.517C134.068 475.221 133.792 474.537 133.267 474.657C129.333 475.542 124.458 480.011 123.231 483.886Z" fill="#E0E0E0"/>
<path d="M125.466 487.982C125.476 488.25 125.892 488.423 126.018 488.134C127.833 483.886 132.159 481.084 135.89 478.701C136.429 478.355 135.957 477.555 135.394 477.84C133.072 479.018 130.921 480.699 129.05 482.511C127.609 483.907 125.392 485.79 125.466 487.982Z" fill="#E0E0E0"/>
<path d="M111.264 482.384C111.551 482.314 111.603 481.961 111.428 481.757C110.019 480.135 108.592 478.528 107.141 476.948C106.396 476.138 105.595 474.907 104.476 474.601C102.927 474.178 100.696 474.992 99.1991 475.334C96.8561 475.87 94.576 476.589 92.3308 477.445C91.9986 477.572 91.9706 477.95 92.2399 478.161C92.8204 478.612 93.3835 479.071 93.9955 479.472C96.1951 481.506 98.1954 483.688 99.9859 486.117C100.094 486.41 100.196 486.709 100.28 487.027C100.357 487.319 100.776 487.192 100.724 486.903C100.71 486.836 100.692 486.769 100.678 486.702C100.706 486.695 100.734 486.688 100.762 486.674C104.06 484.714 107.533 483.28 111.264 482.384ZM96.7686 481.732C96.0412 481.031 95.2894 480.364 94.52 479.723C94.7298 479.68 94.8732 479.398 94.6844 479.208C94.2228 478.746 93.7192 478.344 93.2086 477.946C93.3485 477.893 93.4919 477.84 93.6318 477.787C95.2334 479.927 97.2372 481.58 98.692 483.688C98.073 483.015 97.4296 482.367 96.7686 481.732ZM100.325 485.49C99.1921 482.402 96.391 479.649 93.8556 477.703C96.7931 476.599 100.196 475.394 103.196 475.383C105.148 475.376 106.134 476.966 107.375 478.327C108.428 479.476 109.46 480.643 110.488 481.813C108.827 482.24 107.197 482.761 105.606 483.421C104.913 483.71 104.231 484.016 103.556 484.348C102.976 484.633 101.637 485.719 101.032 485.719C100.769 485.719 100.538 485.631 100.325 485.49Z" fill="#E0E0E0"/>
<path d="M114.719 486.057C115.038 485.997 115.013 485.507 114.719 485.43C110.757 484.408 104.428 487.104 102.263 490.559C102.182 490.686 102.343 490.848 102.469 490.767C104.466 489.487 106.138 487.989 108.404 487.15C110.498 486.378 112.586 486.463 114.719 486.057Z" fill="#E0E0E0"/>
<path d="M110.715 490.453C112.509 489.871 114.352 489.79 116.17 489.378C116.642 489.272 116.485 488.627 116.062 488.585C113.743 488.338 111.159 489.195 109.053 490.104C107.686 490.693 104.63 491.782 104.339 493.492C104.315 493.647 104.36 493.763 104.486 493.855C104.56 493.908 104.633 493.961 104.707 494.013C104.867 494.13 105.088 493.936 105.035 493.76C104.693 492.607 110.089 490.658 110.715 490.453Z" fill="#E0E0E0"/>
<path d="M107.12 497.094C107.029 497.207 107.165 497.345 107.277 497.253C109.151 495.709 111.071 494.334 113.369 493.509C115.299 492.819 117.251 492.78 119.237 492.41C119.611 492.339 119.629 491.687 119.237 491.631C114.943 491.01 109.739 493.795 107.12 497.094Z" fill="#E0E0E0"/>
</g>
<g clip-path="url(#clip2)">
<path d="M1207.88 52.5182C1203.01 49.4795 1197.51 47.125 1192.48 44.2787C1189.27 42.4529 1186.2 42.214 1183.77 45.4502C1183.67 45.5807 1183.59 45.7109 1183.52 45.8483C1183.37 45.7776 1183.22 45.707 1183.07 45.6389C1182.72 45.4813 1182.36 45.4577 1182.02 45.5239C1178.46 44.2681 1173.32 44.9429 1171.39 47.7429C1168.28 52.2528 1173.17 56.8219 1177.18 58.2799C1177.32 58.3288 1177.47 58.3533 1177.6 58.3488C1195.2 66.3199 1212.98 74.0983 1231.09 81.0294C1234.09 82.4425 1237.11 83.7967 1240.11 85.1466C1243.88 86.8493 1247.68 88.4736 1251.53 90.012C1253.07 90.6302 1254.48 91.5792 1255.94 90.6314C1258.02 90.8665 1260.12 90.8649 1262.21 90.725C1263.44 90.64 1263.79 89.2351 1263.03 88.4633C1260.22 85.6187 1257.34 82.7484 1254.26 80.1489C1253.78 79.161 1252.7 78.2411 1250.7 77.2649C1243.46 73.6966 1236.06 70.3814 1228.75 66.948C1214.86 60.425 1201.01 53.7992 1187.04 47.4431C1188.08 46.8449 1189.14 46.4073 1190.54 46.7918C1192.4 47.3028 1194.6 49.1542 1196.3 50.0596C1199.71 51.8849 1203.26 53.8807 1207.03 54.8947C1208.54 55.304 1209 53.2208 1207.88 52.5182ZM1258.99 88.3346C1257.47 88.3634 1255.96 88.3093 1254.43 88.163C1253.59 88.0838 1252.7 87.8981 1251.83 87.8607C1251.89 87.7843 1251.94 87.7105 1251.99 87.6222C1252.78 86.1398 1253.48 84.8899 1253.96 83.797C1255.62 85.3138 1257.31 86.8131 1258.99 88.3346ZM1183.41 49.5226C1195.35 55.3534 1207.43 60.9533 1219.46 66.6147C1225.65 69.5278 1231.84 72.4435 1238.03 75.3566C1241.13 76.8095 1244.23 78.2697 1247.32 79.7226C1247.97 80.0288 1250.65 80.8603 1250.97 81.7241C1251.15 82.2129 1249.84 84.2195 1249.11 85.3433C1249.05 85.3052 1248.99 85.2697 1248.91 85.2392C1225.82 75.6899 1202.65 66.4266 1179.91 56.1074C1180.65 53.7593 1181.65 51.5606 1182.88 49.4263C1183.05 49.4893 1183.23 49.5254 1183.41 49.5226ZM1176.96 55.4408C1175 54.1038 1172.76 52.4355 1173.6 50.003C1174.25 48.1164 1177.32 47.8442 1179.79 48.28C1178.61 50.5886 1177.7 52.9638 1176.96 55.4408Z" fill="#E0E0E0"/>
</g>
<g clip-path="url(#clip3)">
<path d="M123.004 117.017C121.024 108.846 118.889 100.655 116.086 92.8125C116.736 92.4437 117.386 92.0436 118.006 91.5617C127.411 84.2929 125.156 69.9898 114.272 65.1188C104.898 60.9286 93.0022 68.3091 93.2816 78.3705C93.2399 79.2628 93.2662 80.179 93.3966 81.1118C93.5266 82.0135 93.7311 82.8813 93.9907 83.713C90.4172 85.2524 86.9174 87.0778 83.6193 88.612C79.1032 90.7107 74.2138 92.7089 69.8617 95.3387C68.2568 92.6837 65.3272 91.1223 62.2113 91.4226C61.941 91.4518 61.6613 91.4955 61.3841 91.5512C60.4616 91.4107 59.4649 91.5107 58.6185 91.8438C55.8127 92.9468 53.824 95.9604 53.1209 98.7847C51.529 105.21 56.5184 111.347 63.2643 110.713C69.5808 110.126 72.5546 103.11 70.8151 97.5041C75.2495 95.6413 79.5077 93.2183 83.8394 91.257C87.4479 89.6166 91.4051 88.2257 95.2343 86.6475C98.671 92.8711 105.976 96.0543 112.742 94.1929C114.013 101.867 115.973 109.56 118.057 117.159C113.63 118.293 109.831 122.009 108.258 126.732C107.342 127.618 107.204 128.768 107.561 129.994C107.554 130.051 107.548 130.109 107.541 130.167C107.294 132.95 107.817 135.597 108.893 137.957C109.228 138.993 109.776 139.91 110.497 140.725C113.931 145.438 119.876 148.224 126.202 146.921C135.611 144.986 140.351 133.208 135.719 124.98C135.382 124.377 134.981 123.825 134.551 123.284C139.679 120.429 144.449 116.7 149.444 113.665C153.81 111.014 158.261 108.521 162.761 106.112C164.59 107.581 167.025 108.27 169.526 107.535C175.234 105.868 177.578 98.7271 173.299 94.2963C171.161 92.0869 167.893 91.2331 165.02 92.3747C164.152 92.7246 163.32 93.2429 162.615 93.8859C161.181 94.8764 160.125 96.3737 159.761 98.1393C159.254 100.617 160.029 103.069 161.532 104.892C156.897 107.347 152.334 109.931 147.85 112.65C143.134 115.516 137.8 118.463 133.536 122.122C131.357 119.927 128.474 118.437 125.457 117.79C124.638 117.428 123.818 117.179 123.004 117.017ZM57.6334 101.106C57.6435 100.389 57.8715 99.5162 58.2519 98.6499C58.5719 98.736 58.896 98.7524 59.1801 98.6702C59.4039 98.6002 59.6105 98.5085 59.7905 98.4097C59.1248 99.8222 58.4522 101.261 57.9078 102.712C57.737 102.207 57.6286 101.671 57.6334 101.106ZM58.7461 104.192C59.786 102.002 60.5451 99.5869 61.3347 97.2844C61.5956 97.094 61.8712 96.9133 62.191 96.7926C62.417 96.7033 62.634 96.6597 62.856 96.6401C61.2983 98.9654 59.951 102.245 59.8456 105.131C59.4314 104.87 59.0625 104.555 58.7461 104.192ZM62.8909 105.735C62.3435 105.82 61.8237 105.799 61.3246 105.699C61.6597 104.328 61.8009 102.901 62.2062 101.535C62.6806 99.9037 63.3907 98.3757 64.0302 96.8116C64.6669 97.0848 65.1931 97.6059 65.5566 98.2475C65.5355 98.2956 65.5191 98.3365 65.498 98.3847C65.4502 98.4256 65.3903 98.469 65.3352 98.5051C65.1798 98.6304 65.1533 98.83 65.216 99.0055C64.2885 101.104 63.5756 103.353 63.5172 105.578C63.3175 105.643 63.1104 105.704 62.8909 105.735ZM66.1253 99.995C66.3275 101.44 66.039 103.059 65.2299 104.212C65.5306 102.797 65.7905 101.397 66.1253 99.995ZM97.6477 82.2697C97.5773 82.0582 97.5021 81.8539 97.4485 81.6327C96.9542 79.6446 96.967 77.8242 97.3592 76.1907C99.108 72.379 102.211 69.229 106.008 68.3218C105.655 73.1632 104.57 77.1111 102.188 80.9622C100.675 81.2914 99.1607 81.7337 97.6477 82.2697ZM101.336 87.935C100.39 87.1283 99.5488 86.1628 98.8772 85.0503C99.1054 84.9418 99.3189 84.8236 99.535 84.7175C99.4836 85.035 99.9394 85.3446 100.224 85.0869C100.706 84.6389 101.161 84.1525 101.599 83.6444C102.278 83.2635 102.95 82.8778 103.602 82.4584C104.225 82.0511 104.156 81.1686 103.599 80.8856C105.865 77.114 107.048 72.5071 106.531 68.2417C107.718 68.0284 108.969 68.0338 110.258 68.3013C109.736 71.6159 109.06 74.861 107.803 78.0035C107.364 79.0694 103.604 87.4917 101.336 87.935ZM103.651 89.4443C103.327 89.2837 103.009 89.1158 102.704 88.9262C104.4 87.7767 105.769 84.8313 106.414 83.7361C109.122 79.1174 110.857 73.8917 111.148 68.5237C111.874 68.7415 112.602 69.0338 113.352 69.4223C113.699 69.6094 114.014 69.8158 114.336 70.027C114.321 70.0486 114.302 70.0775 114.303 70.1088C113.61 73.5703 112.742 76.9166 111.157 80.0813C110.629 81.1401 105.713 88.7728 103.651 89.4443ZM107.26 90.5117C106.595 90.4261 105.933 90.302 105.293 90.0985C107.467 88.715 109.375 85.6486 110.442 84.0238C113.12 79.9438 114.774 75.3362 114.926 70.4349C116.128 71.3278 117.102 72.411 117.864 73.5931C116.591 77.2214 116.088 80.7451 113.862 84.0886C112.058 86.8207 109.794 88.7237 107.26 90.5117ZM115.727 87.989C113.921 89.4802 111.904 90.2742 109.887 90.5104C114.706 86.8025 118.765 80.5081 118.526 74.7513C120.653 79.113 119.938 84.5224 115.727 87.989ZM168.337 104.358C167.774 104.515 167.223 104.526 166.695 104.437C168.598 103.578 170.329 102.184 171.743 100.715C171.473 102.386 170.179 103.862 168.337 104.358ZM170.761 97.3829C171.403 98.1251 171.726 98.9567 171.787 99.7719C170.331 100.842 168.814 101.623 167.253 102.344C167.051 102.222 166.801 102.172 166.523 102.309C165.848 102.652 165.176 103.006 164.496 103.356C164.254 103.135 164.039 102.89 163.837 102.623C166.445 101.742 169.066 99.6291 170.66 97.2652C170.69 97.3157 170.726 97.3397 170.761 97.3829ZM163.079 101.196C162.961 100.85 162.867 100.499 162.821 100.138C163.149 100.054 163.449 99.868 163.667 99.5358C165.073 97.4416 167.259 94.9711 169.629 96.413C168.919 97.3519 168.162 98.25 167.183 99.0233C165.894 100.047 164.497 100.598 163.079 101.196ZM133.187 135.387C132.411 138.132 130.688 140.597 128.235 142.056C122.273 145.592 113.901 142.122 111.66 135.67C112.924 136.821 114.207 137.735 115.111 138.174C121.108 141.056 128.55 139.886 133.187 135.387ZM133.187 128.836C133.569 130.089 133.702 131.416 133.624 132.729C130.584 135.91 127.153 138.173 122.472 138.324C119.619 138.415 116.931 137.777 114.443 136.34C113.661 135.889 112.376 134.962 111.191 133.803C110.811 131.704 110.889 129.688 111.378 127.86C111.988 130.389 113.943 132.623 116.249 133.795C121.046 136.241 131.031 133.858 133.187 128.836ZM131.038 125.018C131.357 125.362 131.637 125.732 131.901 126.111C132.431 131.264 124.467 133.962 119.897 133.338C116.873 132.924 114.109 131.11 112.975 128.247C112.498 127.046 112.44 125.86 112.682 124.79C113.2 123.921 113.816 123.126 114.522 122.433C114.649 122.495 114.777 122.538 114.917 122.547C116.504 122.68 117.877 122.134 119.319 121.707C120.018 124.212 120.722 126.709 121.412 129.197C122.159 131.899 126.368 131.097 125.707 128.328C125.155 126.044 124.611 123.734 124.059 121.419C126.684 121.85 129.232 123.068 131.038 125.018Z" fill="#E0E0E0"/>
</g>
<g clip-path="url(#clip4)">
<path d="M91.7471 710.9C94.3735 708.844 96.7368 706.324 99.2861 704.146C100.919 702.756 101.636 701.154 100.284 699.265C100.23 699.188 100.171 699.125 100.107 699.062C100.175 698.995 100.243 698.927 100.311 698.855C100.466 698.698 100.547 698.509 100.574 698.315C101.953 696.637 102.552 693.758 101.35 692.214C99.4131 689.731 95.9248 691.521 94.3463 693.407C94.2918 693.474 94.251 693.546 94.2283 693.618C86.4217 701.6 78.6876 709.717 71.3663 718.162C70.0054 719.512 68.6718 720.888 67.3472 722.247C65.678 723.957 64.0449 725.703 62.4528 727.484C61.8132 728.2 61.0148 728.78 61.2688 729.734C60.7426 730.805 60.3435 731.934 60.0259 733.077C59.84 733.752 60.5612 734.193 61.1373 733.927C63.2647 732.938 65.4194 731.916 67.4606 730.737C68.1048 730.661 68.826 730.247 69.7514 729.356C73.1263 726.121 76.3877 722.76 79.6991 719.467C85.9907 713.208 92.3322 706.99 98.5467 700.655C98.6828 701.325 98.7282 701.969 98.2473 702.648C97.6077 703.553 96.1517 704.398 95.3215 705.145C93.6522 706.639 91.8605 708.178 90.5768 710.014C90.0596 710.751 91.1392 711.377 91.7471 710.9ZM61.9765 731.786C62.2486 730.967 62.5662 730.166 62.9381 729.374C63.1423 728.938 63.4144 728.497 63.6004 728.038C63.6322 728.083 63.6639 728.123 63.7047 728.164C64.3852 728.857 64.9522 729.46 65.4738 729.914C64.308 730.53 63.1468 731.165 61.9765 731.786ZM98.0704 698.333C92.5364 703.674 87.1066 709.127 81.6497 714.549C78.8418 717.338 76.0339 720.124 73.2261 722.913C71.8244 724.308 70.4182 725.703 69.0165 727.097C68.7217 727.39 67.7464 728.677 67.2021 728.69C66.8936 728.699 66.0182 727.633 65.5283 727.034C65.56 727.012 65.5918 726.985 65.6235 726.949C75.358 716.308 84.9474 705.573 95.0448 695.265C96.2197 696.088 97.263 697.02 98.2247 698.068C98.1566 698.149 98.1022 698.239 98.0704 698.333ZM95.9793 693.803C97.0997 692.997 98.4605 692.097 99.6626 692.993C100.597 693.681 100.166 695.377 99.454 696.619C98.3834 695.571 97.2267 694.648 95.9793 693.803Z" fill="#E0E0E0"/>
</g>
<g clip-path="url(#clip5)">
<path d="M1281.5 687.152C1280.42 682.68 1279.25 678.197 1277.72 673.905C1278.07 673.703 1278.43 673.484 1278.77 673.22C1283.91 669.242 1282.68 661.414 1276.72 658.748C1271.59 656.454 1265.08 660.494 1265.23 666C1265.21 666.489 1265.23 666.99 1265.3 667.501C1265.37 667.994 1265.48 668.469 1265.62 668.924C1263.67 669.767 1261.75 670.766 1259.95 671.606C1257.48 672.754 1254.8 673.848 1252.42 675.287C1251.54 673.834 1249.94 672.98 1248.23 673.144C1248.08 673.16 1247.93 673.184 1247.78 673.214C1247.27 673.137 1246.73 673.192 1246.26 673.374C1244.73 673.978 1243.64 675.627 1243.25 677.173C1242.38 680.69 1245.11 684.049 1248.81 683.701C1252.26 683.381 1253.89 679.54 1252.94 676.472C1255.37 675.453 1257.7 674.127 1260.07 673.053C1262.04 672.155 1264.21 671.394 1266.3 670.53C1268.18 673.937 1272.18 675.679 1275.89 674.66C1276.58 678.86 1277.65 683.07 1278.79 687.229C1276.37 687.85 1274.29 689.884 1273.43 692.469C1272.93 692.954 1272.85 693.583 1273.05 694.254C1273.05 694.286 1273.04 694.317 1273.04 694.349C1272.9 695.872 1273.19 697.32 1273.78 698.612C1273.96 699.179 1274.26 699.681 1274.66 700.127C1276.54 702.707 1279.79 704.231 1283.25 703.518C1288.4 702.459 1291 696.013 1288.46 691.51C1288.28 691.18 1288.06 690.878 1287.82 690.582C1290.63 689.019 1293.24 686.978 1295.97 685.317C1298.36 683.866 1300.8 682.502 1303.26 681.183C1304.26 681.987 1305.59 682.365 1306.96 681.963C1310.09 681.05 1311.37 677.142 1309.03 674.717C1307.86 673.507 1306.07 673.04 1304.5 673.665C1304.02 673.856 1303.57 674.14 1303.18 674.492C1302.4 675.034 1301.82 675.854 1301.62 676.82C1301.34 678.176 1301.77 679.518 1302.59 680.516C1300.05 681.859 1297.55 683.274 1295.1 684.762C1292.52 686.33 1289.6 687.943 1287.27 689.946C1286.07 688.744 1284.5 687.929 1282.84 687.575C1282.4 687.377 1281.95 687.241 1281.5 687.152ZM1245.72 678.444C1245.73 678.051 1245.85 677.574 1246.06 677.099C1246.24 677.147 1246.42 677.156 1246.57 677.111C1246.69 677.072 1246.81 677.022 1246.91 676.968C1246.54 677.741 1246.17 678.529 1245.87 679.323C1245.78 679.046 1245.72 678.753 1245.72 678.444ZM1246.33 680.133C1246.9 678.934 1247.32 677.612 1247.75 676.352C1247.89 676.248 1248.04 676.149 1248.22 676.083C1248.34 676.034 1248.46 676.01 1248.58 675.999C1247.73 677.272 1246.99 679.067 1246.94 680.647C1246.71 680.503 1246.51 680.331 1246.33 680.133ZM1248.6 680.977C1248.3 681.024 1248.02 681.012 1247.74 680.957C1247.93 680.207 1248.01 679.426 1248.23 678.678C1248.49 677.786 1248.88 676.949 1249.23 676.093C1249.57 676.243 1249.86 676.528 1250.06 676.879C1250.05 676.906 1250.04 676.928 1250.03 676.954C1250 676.977 1249.97 677 1249.94 677.02C1249.85 677.089 1249.84 677.198 1249.87 677.294C1249.37 678.442 1248.98 679.674 1248.94 680.891C1248.84 680.927 1248.72 680.96 1248.6 680.977ZM1250.37 677.836C1250.48 678.626 1250.32 679.512 1249.88 680.144C1250.05 679.369 1250.19 678.603 1250.37 677.836ZM1267.62 668.134C1267.59 668.019 1267.54 667.907 1267.52 667.786C1267.25 666.698 1267.25 665.701 1267.47 664.807C1268.42 662.721 1270.12 660.997 1272.2 660.501C1272.01 663.15 1271.41 665.311 1270.11 667.419C1269.28 667.599 1268.45 667.841 1267.62 668.134ZM1269.64 671.235C1269.13 670.794 1268.67 670.265 1268.3 669.656C1268.42 669.597 1268.54 669.532 1268.66 669.474C1268.63 669.648 1268.88 669.817 1269.03 669.676C1269.3 669.431 1269.55 669.165 1269.79 668.887C1270.16 668.678 1270.53 668.467 1270.88 668.238C1271.22 668.015 1271.19 667.532 1270.88 667.377C1272.12 665.313 1272.77 662.791 1272.49 660.457C1273.14 660.34 1273.82 660.343 1274.53 660.489C1274.24 662.304 1273.87 664.08 1273.18 665.799C1272.94 666.383 1270.88 670.992 1269.64 671.235ZM1270.91 672.061C1270.73 671.973 1270.56 671.881 1270.39 671.778C1271.32 671.148 1272.07 669.536 1272.42 668.937C1273.9 666.409 1274.85 663.549 1275.01 660.611C1275.41 660.73 1275.81 660.89 1276.22 661.103C1276.41 661.205 1276.58 661.318 1276.76 661.434C1276.75 661.446 1276.74 661.462 1276.74 661.479C1276.36 663.373 1275.89 665.205 1275.02 666.937C1274.73 667.516 1272.04 671.694 1270.91 672.061ZM1272.89 672.645C1272.52 672.598 1272.16 672.531 1271.81 672.419C1273 671.662 1274.04 669.984 1274.63 669.094C1276.09 666.861 1277 664.34 1277.08 661.657C1277.74 662.146 1278.27 662.739 1278.69 663.386C1277.99 665.371 1277.72 667.3 1276.5 669.13C1275.51 670.625 1274.27 671.667 1272.89 672.645ZM1277.52 671.265C1276.53 672.081 1275.43 672.515 1274.32 672.645C1276.96 670.615 1279.18 667.17 1279.05 664.02C1280.22 666.407 1279.82 669.367 1277.52 671.265ZM1306.31 680.223C1306 680.309 1305.7 680.315 1305.41 680.267C1306.46 679.797 1307.4 679.033 1308.18 678.229C1308.03 679.144 1307.32 679.952 1306.31 680.223ZM1307.64 676.406C1307.99 676.812 1308.17 677.267 1308.2 677.713C1307.4 678.299 1306.57 678.727 1305.72 679.121C1305.61 679.054 1305.47 679.027 1305.32 679.102C1304.95 679.29 1304.58 679.484 1304.21 679.675C1304.08 679.554 1303.96 679.42 1303.85 679.274C1305.28 678.792 1306.71 677.635 1307.58 676.342C1307.6 676.369 1307.62 676.382 1307.64 676.406ZM1303.44 678.493C1303.37 678.303 1303.32 678.111 1303.29 677.914C1303.47 677.868 1303.64 677.766 1303.76 677.584C1304.53 676.438 1305.72 675.086 1307.02 675.875C1306.63 676.389 1306.22 676.881 1305.68 677.304C1304.98 677.864 1304.21 678.165 1303.44 678.493ZM1287.08 697.206C1286.65 698.708 1285.71 700.057 1284.36 700.856C1281.1 702.791 1276.52 700.892 1275.29 697.361C1275.99 697.99 1276.69 698.491 1277.18 698.731C1280.46 700.308 1284.54 699.668 1287.08 697.206ZM1287.08 693.621C1287.28 694.306 1287.36 695.032 1287.31 695.751C1285.65 697.492 1283.77 698.731 1281.21 698.813C1279.65 698.863 1278.18 698.514 1276.82 697.727C1276.39 697.48 1275.69 696.973 1275.04 696.339C1274.83 695.19 1274.87 694.087 1275.14 693.086C1275.47 694.47 1276.54 695.693 1277.81 696.335C1280.43 697.673 1285.9 696.369 1287.08 693.621ZM1285.9 691.531C1286.07 691.719 1286.23 691.921 1286.37 692.129C1286.66 694.949 1282.3 696.426 1279.8 696.084C1278.15 695.858 1276.63 694.865 1276.01 693.298C1275.75 692.64 1275.72 691.992 1275.85 691.406C1276.14 690.93 1276.47 690.495 1276.86 690.116C1276.93 690.15 1277 690.173 1277.08 690.179C1277.94 690.251 1278.7 689.953 1279.49 689.718C1279.87 691.089 1280.25 692.456 1280.63 693.818C1281.04 695.297 1283.34 694.858 1282.98 693.342C1282.68 692.092 1282.38 690.828 1282.08 689.561C1283.52 689.797 1284.91 690.464 1285.9 691.531Z" fill="#E0E0E0"/>
</g>
<g clip-path="url(#clip6)">
<path d="M375.681 37.2786C374.981 37.0248 374.411 36.5497 374.067 35.888C374.017 35.791 373.971 35.689 373.931 35.587C374.152 35.4651 374.014 35.1741 373.801 35.1691C373.778 35.0671 373.758 34.9626 373.748 34.8606C373.73 34.6915 373.838 33.4626 374.14 33.6741C374.376 33.8407 374.707 33.6169 374.704 33.3532C374.704 33.2661 374.687 33.1915 374.667 33.1169C374.677 33.1119 374.689 33.1044 374.699 33.0995C375.096 32.888 375.104 32.2587 374.699 32.0472C371.438 30.3582 368.174 28.6766 364.898 27.0149C363.188 26.1492 361.481 25.2761 359.769 24.4154C358.519 23.791 357.125 22.8706 355.662 23.0149C354.08 23.1716 352.436 24.1567 350.982 24.7587C349.28 25.4626 347.58 26.1666 345.878 26.8706C342.537 28.2537 339.082 29.5124 335.886 31.2089C335.823 31.2437 335.788 31.296 335.778 31.3507C335.56 31.398 335.379 31.582 335.296 31.7935C333.619 36.0472 339.464 38.2562 342.293 39.7213C346.93 42.1218 351.57 44.5223 356.207 46.9253C356.558 47.1069 356.937 46.9427 357.065 46.5796C357.093 46.4999 357.113 46.4203 357.138 46.3383C358.541 46.1293 359.972 45.4751 361.258 44.9999C362.867 44.4029 364.459 43.7562 366.03 43.0696C369.39 41.5995 372.603 39.883 375.786 38.0771C376.135 37.8781 376.022 37.4029 375.681 37.2786ZM356.129 45.5795C352.426 43.6616 348.725 41.7462 345.022 39.8283C343.149 38.8582 341.254 37.9228 339.403 36.9129C337.819 36.0497 335.971 34.6641 336.303 32.7512C339.572 33.9228 342.773 35.2487 345.878 36.8059C347.51 37.6243 349.114 38.495 350.688 39.4203C352.172 40.291 353.581 41.3955 355.112 42.1691C355.35 42.2885 355.579 42.3681 355.8 42.4203C355.79 42.5198 355.8 42.6243 355.848 42.7313C356.267 43.6815 356.337 44.6218 356.129 45.5795ZM356.829 41.2537C355.785 41.4825 354.728 40.4726 353.927 39.9601C348.482 36.48 342.602 33.6169 336.479 31.5099C339.612 30.5273 342.639 29.1567 345.675 27.9154C347.229 27.2786 348.785 26.6442 350.339 26.0074C351.914 25.3631 353.515 24.5248 355.155 24.0671C356.912 23.5746 358.81 25.0895 360.296 25.8756C361.778 26.6592 363.259 27.4427 364.74 28.2263C367.514 29.694 370.296 31.1393 373.083 32.5845C370.143 34.1616 367.203 35.7363 364.26 37.3134C362.624 38.1915 360.987 39.0671 359.352 39.9452C358.587 40.3507 357.673 41.0671 356.829 41.2537ZM356.972 42.4154C357.615 42.2736 358.235 41.9328 358.91 41.5696C360.618 40.6542 362.325 39.7388 364.032 38.8233C366.939 37.2636 369.846 35.7039 372.754 34.1442C372.749 34.1865 372.741 34.2288 372.739 34.2686C372.698 34.7164 372.749 35.1592 372.872 35.5771C370.349 36.7562 367.863 38.0273 365.363 39.2487C362.651 40.5721 359.88 41.8283 357.251 43.3109C357.178 43.0099 357.088 42.7139 356.972 42.4154ZM366.025 42.2064C364.323 42.9751 362.593 43.6791 360.846 44.3432C359.726 44.7686 358.443 45.092 357.316 45.6094C357.346 45.4452 357.364 45.2835 357.379 45.1194C359.932 43.9975 362.445 42.7686 364.966 41.5746C366.206 40.9875 367.446 40.4004 368.687 39.8134C369.269 39.5373 369.854 39.2611 370.436 38.985C371.104 38.6691 372.093 37.9577 372.796 37.8208C372.608 37.8582 372.648 38.1666 372.842 38.1542C373.216 38.1293 373.314 37.7164 373.005 37.5099C372.696 37.3034 372.216 37.6467 371.958 37.7686C370.936 38.2487 369.917 38.7363 368.895 39.2213C365.061 41.0397 361.183 42.796 357.399 44.7189C357.407 44.3134 357.369 43.9104 357.289 43.5099C360.035 42.3855 362.691 41.0124 365.365 39.7263C367.921 38.4975 370.504 37.3109 373.037 36.0373C373.359 36.7587 373.911 37.3731 374.604 37.7711C371.85 39.4253 368.955 40.8855 366.025 42.2064Z" fill="#E0E0E0"/>
<path d="M354.985 29.4877C355.795 29.1395 356.724 28.8832 357.352 28.2539C357.563 28.0424 357.415 27.6395 357.101 27.6519C356.353 27.6768 355.788 28.0051 355.103 28.3036C354.166 28.7116 353.23 29.122 352.293 29.5325C350.516 30.3111 348.608 30.9827 347.006 32.0847C346.75 32.2613 346.903 32.6544 347.219 32.5872C349.014 32.1917 350.707 31.3285 352.384 30.6071L354.985 29.4877Z" fill="#E0E0E0"/>
<path d="M359.248 30.291C359.602 30.0447 359.401 29.4054 358.934 29.5572C357.533 30.0124 356.21 30.8433 354.902 31.5149C353.476 32.2487 351.995 32.9229 350.644 33.7885C350.38 33.9577 350.544 34.4378 350.87 34.3184C352.266 33.8059 353.589 33.1044 354.927 32.4627C356.353 31.7811 357.952 31.189 359.248 30.291Z" fill="#E0E0E0"/>
<path d="M361.893 31.321C358.963 32.1892 355.873 33.5947 353.395 35.3708C353.061 35.6096 353.342 36.1046 353.721 35.923C356.513 34.5723 359.234 33.2986 362.136 32.1917C362.669 31.9877 362.465 31.1519 361.893 31.321Z" fill="#E0E0E0"/>
</g>
<defs>
<clipPath id="clip0">
<rect width="45" height="47" fill="white" transform="translate(408 703)"/>
</clipPath>
<clipPath id="clip1">
<rect width="64" height="56" fill="white" transform="translate(83 454)"/>
</clipPath>
<clipPath id="clip2">
<rect width="71" height="76" fill="white" transform="translate(1191.79 114.636) rotate(-108.72)"/>
</clipPath>
<clipPath id="clip3">
<rect width="104.748" height="76.4374" fill="white" transform="translate(90.9453 40) rotate(33.2811)"/>
</clipPath>
<clipPath id="clip4">
<rect width="42" height="43" fill="white" transform="translate(60 691)"/>
</clipPath>
<clipPath id="clip5">
<rect width="57.3289" height="41.8346" fill="white" transform="translate(1263.96 645) rotate(33.2811)"/>
</clipPath>
<clipPath id="clip6">
<rect width="41" height="24" fill="white" transform="translate(335 23)"/>
</clipPath>
</defs>
</svg>
