<svg width="476" height="534" viewBox="0 0 476 534" fill="none" xmlns="http://www.w3.org/2000/svg">
<path d="M238.561 457.475L225.601 463.256L225.925 463.982L238.885 458.201L238.561 457.475Z" fill="#FFCA00"/>
<path d="M231.713 457.694L230.346 458.304L232.641 463.449L234.008 462.839L231.713 457.694Z" fill="#E54332"/>
<path d="M224.271 442.856C223.843 443.047 223.653 443.544 223.844 443.971L225.185 446.978L226.721 446.293L225.38 443.286C225.195 442.856 224.699 442.665 224.271 442.856Z" fill="#E54332"/>
<path d="M230.906 476.265L231.208 476.209L230.924 474.074L230.337 474.188L230.906 476.265Z" fill="#09455F"/>
<path d="M229.997 474.697L231.437 474.405L231.188 472.263L229.387 472.631L229.997 474.697Z" fill="#E54332"/>
<path d="M229.46 472.987L231.232 472.624L227.9 450.817L225.48 451.314L229.46 472.987Z" fill="#E54332"/>
<path d="M229.902 471.034C229.225 471.172 228.796 471.83 228.932 472.5C229.07 473.176 229.728 473.606 230.398 473.47C231.074 473.331 231.503 472.674 231.368 472.004C231.239 471.331 230.578 470.895 229.902 471.034Z" fill="#FFCA00"/>
<path d="M230.027 471.646C229.694 471.717 229.473 472.041 229.544 472.375C229.615 472.708 229.939 472.929 230.272 472.858C230.606 472.787 230.826 472.463 230.755 472.13C230.691 471.793 230.363 471.582 230.027 471.646Z" fill="#EBFFF5"/>
<path d="M242.646 468.845L244.038 470.485L244.288 470.296L243.123 468.485L242.646 468.845Z" fill="#09455F"/>
<path d="M241.537 467.647L242.965 469.263L244.144 468.387L243.014 466.552L241.537 467.647Z" fill="#E54332"/>
<path d="M227.777 450.872L241.776 467.921L243.23 466.845L229.763 449.403L227.777 450.872Z" fill="#E54332"/>
<path d="M241.475 465.872C240.921 466.282 240.81 467.062 241.218 467.61C241.628 468.165 242.408 468.276 242.956 467.868C243.511 467.458 243.622 466.678 243.214 466.129C242.813 465.578 242.03 465.461 241.475 465.872Z" fill="#FFCA00"/>
<path d="M241.854 466.371C241.578 466.572 241.519 466.963 241.727 467.236C241.927 467.511 242.319 467.57 242.591 467.363C242.867 467.162 242.925 466.771 242.718 466.498C242.511 466.225 242.129 466.17 241.854 466.371Z" fill="#EBFFF5"/>
<path d="M224.964 450.542L226.4 452.698C226.532 452.942 226.842 453.045 227.095 452.932L229.888 451.686C230.141 451.574 230.268 451.268 230.178 451.013L229.533 448.504L227.769 444.551L223.201 446.589L224.964 450.542Z" fill="#FFCA00"/>
<path d="M227.718 468.15L228.084 470.045L228.627 469.941L228.262 468.045L227.718 468.15Z" fill="#E54332"/>
<path d="M228.081 468.798L228.175 469.3L229.793 468.996L229.699 468.494L228.081 468.798Z" fill="#E54332"/>
<g opacity="0.45">
<path opacity="0.45" d="M110.514 33.7168C109.114 28.0268 95.8841 19.7168 88.8141 24.7268C86.6441 13.8868 84.6141 7.12678 77.5241 1.78678C70.4341 -3.55322 58.6041 3.42678 56.7041 18.0468C54.8041 12.0368 45.1441 3.93678 37.3841 10.7668C30.2041 17.0868 29.4841 27.6768 30.2341 33.7068H110.514V33.7168Z" fill="#99B8FF"/>
</g>
<g opacity="0.45">
<path opacity="0.45" d="M475.1 106.641C472.91 101.251 468.78 98.3608 463.89 97.8208C457.73 97.1308 451.48 100.671 451.48 100.671C451.48 100.671 453.8 91.7708 450.65 84.7708C448.51 79.9908 445.09 75.5008 440.35 74.3208C435.44 73.1008 430.23 75.4908 426.57 79.2808C422.91 83.0708 420.55 88.0908 418.45 93.1008C417.36 89.5508 415.92 85.5708 412.71 84.2508C409.39 82.8808 405.55 85.2408 403.81 88.6208C402.07 92.0008 401.98 96.0808 402.22 99.9508C398.37 97.6408 393.46 96.9608 389.6 99.2708C387.13 100.751 385.37 103.651 385 106.651H475.1V106.641Z" fill="#99B8FF"/>
</g>
<g opacity="0.45">
<path opacity="0.45" d="M337 189.993C338.476 186.361 341.258 184.414 344.553 184.05C348.704 183.585 352.915 185.971 352.915 185.971C352.915 185.971 351.352 179.974 353.474 175.257C354.916 172.037 357.221 169.011 360.414 168.216C363.723 167.394 367.233 169.004 369.699 171.558C372.165 174.112 373.756 177.494 375.17 180.87C375.905 178.478 376.875 175.796 379.038 174.907C381.275 173.984 383.862 175.574 385.035 177.851C386.207 180.129 386.268 182.878 386.106 185.486C388.7 183.929 392.009 183.471 394.61 185.027C396.274 186.025 397.46 187.979 397.709 190H337V189.993Z" fill="#99B8FF"/>
</g>
<path d="M83.3819 114.609C84.2873 112.193 87.837 112.597 88.1645 115.156C91.3311 139.898 101.666 204.515 126.74 241.689C167.565 302.218 187.203 393.633 149.409 433.916C149.409 433.918 -15.2573 377.847 83.3819 114.609Z" fill="url(#paint0_linear)"/>
<path opacity="0.43" d="M83.7877 149.294C83.7877 149.294 83.7827 149.552 83.7746 150.051C83.786 150.547 83.786 151.263 83.8188 152.235C83.8646 154.169 83.9874 157.005 84.1642 160.613C84.3591 164.222 84.6096 168.602 84.9829 173.622C85.3284 178.644 85.8343 184.301 86.3681 190.472C86.9493 196.638 87.5961 203.318 88.4262 210.367C89.2138 217.42 90.2092 224.837 91.2555 232.508C92.3558 240.171 93.5314 248.083 94.9231 256.091C95.2686 258.093 95.6141 260.104 95.9612 262.119C96.3361 264.13 96.7127 266.147 97.0893 268.168C97.8163 272.215 98.6677 276.254 99.4798 280.3C100.285 284.348 101.233 288.366 102.08 292.389C102.998 296.395 103.93 300.382 104.875 304.333C105.374 306.301 105.872 308.263 106.366 310.213C106.869 312.161 107.332 314.111 107.879 316.025C108.408 317.944 108.932 319.852 109.454 321.746C109.715 322.692 109.975 323.637 110.234 324.577C110.51 325.512 110.787 326.442 111.062 327.369C111.616 329.222 112.164 331.059 112.709 332.88C112.983 333.79 113.255 334.694 113.526 335.594C113.816 336.488 114.106 337.379 114.393 338.263C114.964 340.035 115.529 341.787 116.087 343.517C116.369 344.382 116.634 345.246 116.922 346.098C117.219 346.946 117.513 347.788 117.805 348.624C118.389 350.298 118.966 351.948 119.534 353.574C119.817 354.388 120.1 355.193 120.38 355.994C120.68 356.786 120.978 357.572 121.273 358.353C122.474 361.464 123.575 364.495 124.739 367.362C125.928 370.219 127.065 372.957 128.149 375.56C129.269 378.149 130.399 380.572 131.424 382.867C131.943 384.012 132.447 385.12 132.932 386.189C133.454 387.242 133.957 388.256 134.44 389.23C135.408 391.18 136.295 392.97 137.097 394.587C137.485 395.403 137.908 396.146 138.291 396.852C138.676 397.557 139.036 398.219 139.372 398.835C140.041 400.067 140.609 401.115 141.071 401.965C141.995 403.666 142.487 404.573 142.487 404.573L142.492 404.583C142.566 404.719 142.515 404.891 142.379 404.965C142.245 405.038 142.078 404.989 142.001 404.858C142.001 404.858 141.487 403.961 140.523 402.278C140.04 401.436 139.445 400.398 138.746 399.178C138.397 398.568 138.022 397.911 137.621 397.212C137.223 396.511 136.788 395.773 136.384 394.961C135.552 393.353 134.63 391.571 133.626 389.634C133.125 388.665 132.603 387.657 132.061 386.609C131.555 385.544 131.031 384.441 130.491 383.303C129.425 381.017 128.239 378.607 127.085 376.023C125.97 373.422 124.799 370.687 123.576 367.833C122.378 364.97 121.242 361.941 120.004 358.831C119.699 358.052 119.391 357.266 119.082 356.474C118.794 355.673 118.502 354.867 118.209 354.054C117.621 352.428 117.027 350.777 116.423 349.104C114.031 342.404 111.735 335.257 109.528 327.817C109.25 326.889 108.97 325.956 108.688 325.019C108.426 324.077 108.161 323.131 107.897 322.183C107.368 320.285 106.835 318.373 106.298 316.451C105.744 314.532 105.269 312.58 104.76 310.627C104.256 308.672 103.752 306.707 103.244 304.734C102.281 300.777 101.335 296.78 100.4 292.765C99.9628 290.751 99.524 288.732 99.0852 286.714C98.6497 284.693 98.2027 282.673 97.813 280.641C97.0123 276.582 96.1708 272.529 95.4536 268.471C95.0819 266.444 94.7103 264.421 94.3402 262.404C93.998 260.382 93.6575 258.367 93.3169 256.359C91.9465 248.33 90.7921 240.399 89.7131 232.718C88.7029 225.027 87.7958 217.586 87.0623 210.514C86.2944 203.447 85.7082 196.751 85.181 190.571C84.1904 178.203 83.6861 167.875 83.4193 160.644C83.2997 157.028 83.2228 154.185 83.208 152.245C83.19 151.282 83.2015 150.511 83.1999 150.007C83.2162 149.506 83.2261 149.247 83.2261 149.247C83.231 149.091 83.362 148.97 83.5159 148.977C83.6698 148.982 83.7893 149.109 83.786 149.262L83.7877 149.294Z" fill="white"/>
<path d="M212.856 484.477C214.071 483.935 214.619 482.8 214.252 481.714L214.239 481.676L213.216 482.132L213.224 482.169C213.347 482.81 213.074 483.338 212.469 483.608C211.665 483.967 210.866 483.558 210.406 482.527L210.404 482.523C209.947 481.499 210.181 480.638 210.984 480.279C211.61 480 212.178 480.17 212.537 480.657L212.577 480.708L213.6 480.252L213.583 480.223C213.022 479.228 211.814 478.868 210.597 479.411C209.132 480.064 208.631 481.427 209.334 483.005L209.336 483.008C210.04 484.586 211.388 485.132 212.856 484.477Z" fill="#E55200"/>
<path d="M214.275 478.82C214.581 478.683 214.713 478.344 214.587 478.062C214.462 477.78 214.121 477.652 213.815 477.788C213.508 477.925 213.376 478.265 213.502 478.546C213.628 478.828 213.969 478.956 214.275 478.82ZM215.598 483.152L216.614 482.699L214.991 479.062L213.976 479.515L215.598 483.152Z" fill="#E55200"/>
<path d="M218.28 481.956L219.425 481.445L219.083 477.237L218.021 477.71L218.485 480.815L218.464 480.824L216.453 478.41L215.367 478.894L218.28 481.956Z" fill="#E55200"/>
<path d="M219.757 476.374C220.063 476.238 220.196 475.898 220.07 475.616C219.944 475.335 219.603 475.206 219.297 475.343C218.991 475.479 218.859 475.819 218.985 476.101C219.11 476.382 219.451 476.511 219.757 476.374ZM221.081 480.707L222.097 480.253L220.474 476.616L219.458 477.069L221.081 480.707Z" fill="#E55200"/>
<path d="M222.803 479.938L223.819 479.485L221.634 474.589L220.619 475.042L222.803 479.938Z" fill="#E55200"/>
<path d="M214.249 493.601L217.574 492.117L217.197 491.273L214.922 492.287L214.373 491.056L216.519 490.098L216.162 489.297L214.016 490.255L213.492 489.081L215.767 488.066L215.39 487.221L212.065 488.705L214.249 493.601Z" fill="#E55200"/>
<path d="M218.246 491.818L219.262 491.365L218.329 489.275C218.117 488.8 218.261 488.345 218.716 488.142C219.172 487.939 219.523 488.108 219.735 488.583L220.691 490.727L221.707 490.274L220.66 487.926C220.28 487.074 219.585 486.77 218.764 487.136C218.201 487.387 217.931 487.813 217.926 488.315L217.905 488.325L217.639 487.727L216.623 488.18L218.246 491.818Z" fill="#E55200"/>
<path d="M224.657 490.472C225.777 489.972 226.229 489.107 225.868 488.296L224.29 484.76L223.275 485.214L223.552 485.834L223.531 485.844C223.14 485.51 222.612 485.42 222.086 485.654C221.144 486.075 220.866 487.024 221.384 488.185L221.386 488.188C221.89 489.318 222.77 489.739 223.702 489.323C224.241 489.083 224.551 488.655 224.577 488.188L224.598 488.179L224.846 488.736C225.027 489.143 224.867 489.532 224.342 489.766C223.917 489.955 223.576 489.92 223.416 489.776L223.395 489.757L222.407 490.198L222.424 490.227C222.782 490.767 223.63 490.929 224.657 490.472ZM223.73 488.44C223.222 488.667 222.722 488.406 222.429 487.751L222.428 487.747C222.137 487.096 222.282 486.551 222.787 486.326C223.281 486.106 223.791 486.362 224.08 487.01L224.082 487.014C224.372 487.665 224.227 488.218 223.73 488.44Z" fill="#E55200"/>
<path d="M225.278 483.758C225.584 483.622 225.717 483.282 225.591 483.001C225.465 482.719 225.124 482.59 224.818 482.727C224.512 482.863 224.38 483.203 224.506 483.485C224.631 483.766 224.972 483.895 225.278 483.758ZM226.602 488.091L227.618 487.638L225.995 484L224.979 484.453L226.602 488.091Z" fill="#E55200"/>
<path d="M228.299 487.333L229.315 486.88L228.383 484.79C228.171 484.315 228.314 483.861 228.77 483.657C229.226 483.454 229.577 483.623 229.788 484.098L230.745 486.243L231.761 485.789L230.713 483.441C230.334 482.59 229.639 482.285 228.818 482.651C228.254 482.903 227.985 483.328 227.98 483.831L227.959 483.84L227.693 483.243L226.677 483.696L228.299 487.333Z" fill="#E55200"/>
<path d="M232.404 485.502L233.42 485.049L232.488 482.959C232.276 482.484 232.419 482.029 232.875 481.826C233.331 481.623 233.682 481.792 233.893 482.267L234.85 484.411L235.866 483.958L234.818 481.61C234.439 480.759 233.744 480.454 232.923 480.82C232.359 481.072 232.09 481.497 232.085 482L232.064 482.009L231.798 481.412L230.782 481.865L232.404 485.502Z" fill="#E55200"/>
<path d="M238.24 482.989C239.305 482.514 239.546 481.67 239.421 481.083L239.415 481.041L238.483 481.457L238.485 481.48C238.503 481.716 238.349 482.053 237.931 482.24C237.413 482.471 236.938 482.276 236.669 481.7L239.236 480.555L239.1 480.25C238.609 479.15 237.602 478.733 236.509 479.221C235.417 479.708 235.048 480.759 235.564 481.916L235.565 481.92C236.085 483.084 237.099 483.498 238.24 482.989ZM236.857 479.952C237.278 479.765 237.697 479.891 237.984 480.365L236.401 481.071C236.247 480.55 236.439 480.139 236.857 479.952Z" fill="#E55200"/>
<path d="M240.468 481.905L241.484 481.452L240.57 479.403C240.341 478.89 240.502 478.465 241.003 478.241C241.149 478.176 241.297 478.135 241.396 478.131L241.007 477.259C240.921 477.273 240.809 477.303 240.698 477.352C240.256 477.549 240.053 477.945 240.142 478.434L240.121 478.444L239.844 477.823L238.846 478.268L240.468 481.905Z" fill="#E55200"/>
<path d="M241.761 476.406C242.067 476.27 242.199 475.93 242.073 475.648C241.948 475.367 241.607 475.238 241.301 475.375C240.994 475.511 240.862 475.851 240.988 476.132C241.114 476.414 241.455 476.543 241.761 476.406ZM243.084 480.738L244.1 480.285L242.478 476.648L241.462 477.101L243.084 480.738Z" fill="#E55200"/>
<path d="M244.782 479.981L245.798 479.528L244.865 477.438C244.653 476.963 244.797 476.508 245.253 476.305C245.708 476.102 246.059 476.271 246.271 476.746L247.227 478.89L248.243 478.437L247.196 476.089C246.816 475.237 246.121 474.933 245.3 475.299C244.737 475.551 244.468 475.976 244.462 476.479L244.442 476.488L244.175 475.891L243.159 476.344L244.782 479.981Z" fill="#E55200"/>
<path d="M251.193 478.635C252.313 478.135 252.765 477.27 252.404 476.459L250.827 472.924L249.811 473.377L250.088 473.998L250.067 474.007C249.676 473.673 249.148 473.583 248.623 473.817C247.68 474.238 247.403 475.187 247.92 476.348L247.922 476.351C248.426 477.481 249.306 477.902 250.238 477.486C250.777 477.246 251.087 476.819 251.113 476.352L251.134 476.342L251.382 476.899C251.563 477.306 251.403 477.695 250.878 477.929C250.454 478.119 250.113 478.083 249.952 477.939L249.931 477.92L248.943 478.361L248.96 478.39C249.318 478.93 250.167 479.093 251.193 478.635ZM250.266 476.603C249.758 476.83 249.258 476.569 248.966 475.914L248.964 475.911C248.673 475.259 248.818 474.715 249.323 474.49C249.817 474.269 250.327 474.526 250.616 475.174L250.618 475.177C250.909 475.828 250.763 476.382 250.266 476.603Z" fill="#E55200"/>
<path d="M246 489H59.8747C52.7652 489 47 483.65 47 477.053V469.947C47 463.35 52.7652 458 59.8747 458H246C237.486 466.638 237.339 479.837 245.656 488.637L246 489Z" fill="#86B1F2"/>
<path d="M322.333 488.032H53.0291C40.8592 488.032 31 497.897 31 510.061C31 522.231 40.8646 532.091 53.0291 532.091H322.333L322.186 531.938C310.387 519.664 310.452 500.24 322.333 488.032Z" fill="#B75742"/>
<path d="M317.45 494.557H169.998C161.431 494.557 154.488 501.5 154.488 510.068C154.488 518.635 161.431 525.578 169.998 525.578H317.444C312.027 515.97 312.032 504.154 317.45 494.557Z" fill="#FAE0B2"/>
<path d="M124.506 266.606C124.337 266.933 113.546 274.868 113.546 274.868C113.546 274.868 115.928 291.916 125.607 298.647C136.246 306.048 151.272 292.548 151.272 292.548C151.272 292.548 163.229 295.393 169.589 270.503C171.05 264.791 162.63 264.311 152.465 265.363C139.352 266.72 124.506 266.606 124.506 266.606Z" fill="#282828"/>
<path d="M104.341 324.764C108.565 321.859 113.23 319.673 118.179 318.327C120.038 317.82 130.071 320.736 136.273 320.594C144.786 320.398 153.457 316.523 160.477 318.273C167.448 320.011 173.154 322.279 176.451 324.622C186.316 331.636 192.104 344.716 195.63 357.671C188.948 364.527 180.539 367.579 180.539 367.579L178.985 430.555L141.751 449.608L99.2511 428.271L100.772 366.729C100.772 366.729 87.2773 360.445 86.2854 358.156C85.2935 355.873 92.433 332.955 104.341 324.764Z" fill="#037FFB"/>
<path d="M86.9122 357.884C86.9122 357.884 68.8289 408.024 110.069 428.631C118.632 427.492 115.34 413.273 115.34 413.273C115.34 413.273 97.4199 409.305 102.799 367.481C97.845 363.405 86.9122 357.884 86.9122 357.884Z" fill="url(#paint1_linear)"/>
<path d="M194.758 357.884C194.758 357.884 207.201 410.226 171.601 428.631C163.039 427.492 166.331 413.273 166.331 413.273C166.331 413.273 180.773 406.16 178.871 367.481C183.825 363.405 194.758 357.884 194.758 357.884Z" fill="url(#paint2_linear)"/>
<path d="M175.868 432.151H103.301C100.805 432.151 98.7607 430.108 98.7607 427.612V381.553C98.7607 379.057 100.805 377.013 103.301 377.013H175.874C178.37 377.013 180.414 379.057 180.414 381.553V427.612C180.414 430.108 178.37 432.151 175.868 432.151Z" fill="url(#paint3_linear)"/>
<path d="M216.225 448.502C206.878 446.354 185.28 447.51 185.28 447.51L184.402 449.891L182.947 461.718C182.947 461.718 203.516 465.424 213.653 465.419C214.688 465.419 215.631 465.26 216.498 464.993C216.808 464.715 217.108 464.427 217.397 464.116C221.703 459.413 220.46 452.513 216.225 448.502Z" fill="url(#paint4_linear)"/>
<path d="M179.078 446.845L182.735 447.003C184.702 447.085 186.55 448.044 187.874 449.657C189.193 451.271 189.875 453.407 189.76 455.587C189.667 457.32 188.954 458.944 187.782 460.1C186.605 461.25 185.068 461.838 183.503 461.724L177.906 461.326L179.078 446.845Z" fill="url(#paint5_linear)"/>
<path d="M56.103 447.363C65.4989 445.504 87.0593 447.319 87.0593 447.319L87.8768 449.723L89.0377 461.587C89.0377 461.587 68.382 464.661 58.2503 464.34C57.2148 464.307 56.2719 464.122 55.4163 463.827C55.1165 463.539 54.8168 463.244 54.5388 462.923C50.3586 458.105 51.7702 451.243 56.103 447.363Z" fill="url(#paint6_linear)"/>
<path d="M93.2781 446.845L89.6156 446.889C87.6481 446.911 85.7733 447.815 84.4108 449.385C83.0483 450.96 82.318 453.075 82.3779 455.255C82.427 456.993 83.0973 458.639 84.2419 459.827C85.3864 461.015 86.9124 461.648 88.4766 461.582L94.0792 461.353L93.2781 446.845Z" fill="url(#paint7_linear)"/>
<path d="M218.842 411.431C214.601 401.676 204.241 400.095 195.417 404.657C195.265 404.858 139.391 433.493 90.1221 446.045C91.5336 450.568 92.2585 455.381 92.4165 460.106C92.4438 461.158 92.4274 462.199 92.3675 463.223C130.153 461.283 171.159 448.682 206.394 437.608C217.321 434.082 223.54 422.244 218.842 411.431Z" fill="#282828"/>
<path d="M179.345 460.847C179.198 455.397 180.255 450.323 182.523 445.625C182.588 445.412 182.664 445.205 182.735 444.993C179.923 444.121 176.288 442.938 171.513 441.319C136.524 429.346 109.835 417.257 84.3615 403.338C74.4642 397.931 63.2153 401.556 60.0433 413.262C57.2148 423.716 63.4278 432.643 72.851 435.777C101.05 445.162 86.3671 442.551 95.5777 445.516C120.31 453.162 151.087 460.133 179.405 462.035C179.383 461.637 179.362 461.239 179.345 460.847Z" fill="#282828"/>
<path d="M118.179 318.327C118.179 318.327 121.939 334.634 140.208 334.296C158.815 333.958 160.471 318.272 160.471 318.272L148.318 315.673L147.304 302.129L129.019 303.486L128.681 316.354L118.179 318.327Z" fill="url(#paint8_linear)"/>
<path d="M131.587 263.762C131.587 263.762 110.637 304.348 135.489 314.197C153.022 321.14 164.014 287.246 160.734 278.063C155.665 263.865 152.324 265.549 152.324 265.549L131.587 263.762Z" fill="url(#paint9_linear)"/>
<path d="M165.775 260.066C176.124 262.911 167.279 285.36 151.697 280.052C136.115 274.743 129.989 274.82 127.559 279.098C125.128 283.376 124.61 298.576 119.34 291.061C113.563 282.826 110.342 266.296 117.427 260.971C123.755 256.208 125.232 248.828 132.829 249.079C142.906 249.417 150.7 244.953 155.251 248.174C160.472 251.875 158.161 257.973 165.775 260.066Z" fill="#282828"/>
<path d="M126.599 282.591C126.599 282.591 122.13 277.784 121.416 283.578C120.703 289.371 122.997 296.838 125.689 292.745C128.382 288.652 126.599 282.591 126.599 282.591Z" fill="url(#paint10_linear)"/>
<path d="M284.04 424.889L286.847 422.045C285.969 416.904 281.359 414.43 278.324 414.092C270.153 413.185 265.986 419.064 264.235 428.496C261.036 445.711 265.063 518 265.063 518C265.364 516.08 287.559 443.485 286.989 423.54L284.04 424.889Z" fill="#96D9C9"/>
<path d="M360.93 517.036C359.738 511.571 347.625 509.966 332.189 512.96C337.686 511.108 345.238 506.89 349.148 504.961L346.473 503.282L351.846 503.529C356.24 500.993 358.436 498.499 357.003 496.243C355.932 494.559 353.579 493.857 350.389 493.866L348.71 496.831L349.059 493.908C341.017 494.366 339.192 493.071 328.346 497.397C335.123 493.926 336.105 492.849 336.548 491.454L332.877 489.869H337.179C340.657 486.179 346.174 478.876 343.885 475.51C341.996 472.732 333.707 476.587 328.415 478.589L326.166 483.589L326.621 479.319C309.797 486.549 315.498 480.748 315.498 480.748C315.498 480.748 333.062 444.903 322.714 445.71C318.628 446.028 314.237 448.457 309.924 452.348L309.815 455.91L308.531 453.649C305.389 456.689 302.277 460.367 299.308 464.318C303.336 455.973 306.388 447.778 306.694 441.676L303.619 441.31L306.653 439.228C306.368 436.146 305.13 433.814 302.622 432.581C298.776 430.689 294.739 433.55 290.763 439.236L291.745 444.366L289.28 441.492C275.048 464.375 262.034 520.715 262.034 520.715L261 523.771L302.812 525.808C302.812 525.808 363.34 528.075 360.93 517.036Z" fill="#50BFA5"/>
<path d="M23.8045 495.101L23.4897 497.47L22.734 494.729C20.6102 494.048 18.767 493.816 17.3072 494.153C4.24671 497.168 26.8156 515.409 26.8156 515.409C26.8156 515.409 19.6228 510.825 12.6589 507.921L12.5702 510.325L11.68 507.61C6.26746 505.459 1.24706 504.464 0.242405 507.569C-0.702141 510.494 1.1984 513.264 4.46996 515.729L8.23097 515.863L6.01558 516.808C13.5691 521.724 26.0657 525.238 30.3791 526.038C26.2518 525.381 16.1652 524.046 10.1859 525.357L11.1247 526.942L8.76335 525.744C6.67104 526.43 5.37158 527.564 5.51183 529.352C5.77802 532.767 20.3755 534 20.3755 534L73.7023 533.497L74 533.648C73.9943 533.642 40.9953 501.496 23.8045 495.101Z" fill="#3C8F7C"/>
<path d="M405.158 96.02H385.158V97.14H405.158V96.02Z" fill="#FFCA00"/>
<path d="M396.218 92.3701H394.108V100.31H396.218V92.3701Z" fill="#E54332"/>
<path d="M395.158 69C394.498 69 393.968 69.53 393.968 70.19V74.83H396.338V70.19C396.348 69.53 395.818 69 395.158 69Z" fill="#E54332"/>
<path d="M384.518 115.81L384.938 115.91L385.798 113L384.978 112.81L384.518 115.81Z" fill="#09455F"/>
<path d="M384.248 113.27L386.268 113.72L387.178 110.82L384.648 110.26L384.248 113.27Z" fill="#E54332"/>
<path d="M384.538 110.76L387.028 111.31L395.258 81.3301L391.858 80.5801L384.538 110.76Z" fill="#E54332"/>
<path d="M386.228 108.5C385.278 108.29 384.348 108.89 384.138 109.83C383.928 110.78 384.528 111.71 385.468 111.92C386.418 112.13 387.348 111.53 387.558 110.59C387.778 109.65 387.178 108.71 386.228 108.5Z" fill="#FFCA00"/>
<path d="M386.038 109.36C385.568 109.26 385.098 109.55 384.998 110.02C384.898 110.49 385.188 110.96 385.658 111.06C386.128 111.16 386.598 110.87 386.698 110.4C386.808 109.93 386.508 109.47 386.038 109.36Z" fill="#EBFFF5"/>
<path d="M403.888 113L404.738 115.91L405.168 115.81L404.708 112.81L403.888 113Z" fill="#09455F"/>
<path d="M403.148 110.82L404.058 113.72L406.078 113.27L405.678 110.26L403.148 110.82Z" fill="#E54332"/>
<path d="M395.068 81.3301L403.298 111.31L405.788 110.76L398.468 80.5801L395.068 81.3301Z" fill="#E54332"/>
<path d="M404.088 108.5C403.138 108.71 402.548 109.65 402.758 110.59C402.968 111.54 403.908 112.13 404.848 111.92C405.798 111.71 406.388 110.77 406.178 109.83C405.978 108.89 405.038 108.29 404.088 108.5Z" fill="#FFCA00"/>
<path d="M404.288 109.36C403.818 109.46 403.518 109.93 403.628 110.4C403.728 110.87 404.198 111.17 404.668 111.06C405.138 110.96 405.438 110.49 405.328 110.02C405.218 109.55 404.758 109.26 404.288 109.36Z" fill="#EBFFF5"/>
<path d="M391.638 79.2899L392.248 82.8899C392.278 83.2799 392.618 83.5899 393.008 83.5899H397.318C397.708 83.5899 398.048 83.2699 398.078 82.8899L398.688 79.2899V73.1899H391.638V79.2899Z" fill="#FFCA00"/>
<path d="M385.073 103.535L384.456 106.184L385.215 106.361L385.833 103.712L385.073 103.535Z" fill="#E54332"/>
<path d="M385.168 104.577L385.001 105.277L387.258 105.815L387.425 105.115L385.168 104.577Z" fill="#E54332"/>
<path d="M252.979 442.704L234.908 450.765L235.359 451.777L253.43 443.716L252.979 442.704Z" fill="#FFCA00"/>
<path d="M243.43 443.009L241.523 443.859L244.724 451.034L246.63 450.183L243.43 443.009Z" fill="#E54332"/>
<path d="M233.053 422.32C232.457 422.586 232.191 423.279 232.457 423.875L234.328 428.068L236.469 427.112L234.599 422.92C234.342 422.319 233.649 422.054 233.053 422.32Z" fill="#E54332"/>
<path d="M242.306 468.904L242.726 468.825L242.33 465.849L241.512 466.008L242.306 468.904Z" fill="#09455F"/>
<path d="M241.038 466.718L243.045 466.31L242.698 463.323L240.186 463.837L241.038 466.718Z" fill="#E54332"/>
<path d="M240.289 464.333L242.76 463.826L238.113 433.421L234.739 434.113L240.289 464.333Z" fill="#E54332"/>
<path d="M240.904 461.61C239.961 461.803 239.363 462.72 239.552 463.654C239.745 464.597 240.662 465.195 241.596 465.006C242.539 464.813 243.138 463.896 242.948 462.962C242.768 462.024 241.847 461.417 240.904 461.61Z" fill="#FFCA00"/>
<path d="M241.079 462.463C240.614 462.562 240.307 463.014 240.406 463.479C240.505 463.944 240.956 464.252 241.421 464.152C241.886 464.053 242.194 463.602 242.095 463.137C242.005 462.668 241.548 462.373 241.079 462.463Z" fill="#EBFFF5"/>
<path d="M258.675 458.558L260.616 460.845L260.964 460.581L259.339 458.056L258.675 458.558Z" fill="#09455F"/>
<path d="M257.128 456.887L259.119 459.14L260.762 457.92L259.188 455.361L257.128 456.887Z" fill="#E54332"/>
<path d="M237.941 433.497L257.461 457.269L259.489 455.769L240.711 431.449L237.941 433.497Z" fill="#E54332"/>
<path d="M257.042 454.412C256.268 454.985 256.114 456.072 256.682 456.836C257.255 457.61 258.342 457.764 259.107 457.196C259.881 456.623 260.035 455.536 259.466 454.771C258.907 454.003 257.816 453.839 257.042 454.412Z" fill="#FFCA00"/>
<path d="M257.569 455.108C257.185 455.388 257.103 455.934 257.392 456.314C257.672 456.698 258.217 456.78 258.598 456.491C258.982 456.211 259.064 455.666 258.775 455.286C258.486 454.905 257.954 454.829 257.569 455.108Z" fill="#EBFFF5"/>
<path d="M234.02 433.037L236.022 436.044C236.206 436.384 236.639 436.527 236.991 436.37L240.885 434.633C241.238 434.475 241.416 434.049 241.29 433.694L240.39 430.195L237.932 424.683L231.562 427.525L234.02 433.037Z" fill="#FFCA00"/>
<path d="M237.86 457.589L238.37 460.231L239.128 460.085L238.618 457.443L237.86 457.589Z" fill="#E54332"/>
<path d="M238.366 458.492L238.497 459.192L240.753 458.769L240.622 458.069L238.366 458.492Z" fill="#E54332"/>
<g clip-path="url(#clip0)">
<path d="M145.42 85.71L143.7 97.14H158.56L156.84 85.71H145.42Z" fill="#E54332"/>
<path d="M186.801 81.0742L185.281 83.1348L189.982 86.6008L191.501 84.5403L186.801 81.0742Z" fill="#09455F"/>
<path d="M189.199 84.5826L187.869 89.3818L189.497 89.8334L190.828 85.0342L189.199 84.5826Z" fill="#09455F"/>
<path d="M187.87 89.38L193.07 92.37L193.59 91.66L188.82 87.98L187.87 89.38Z" fill="#09455F"/>
<path d="M193.571 81.6496L189.38 84.3398L190.293 85.7621L194.484 83.072L193.571 81.6496Z" fill="#09455F"/>
<path d="M192.51 82.9704L197.44 86.4504L198.02 85.6604L193.57 81.6504L192.51 82.9704Z" fill="#09455F"/>
<path d="M166.83 72.8999L184.36 85.7599L189.14 79.3499L171.6 66.4199L166.83 72.8999Z" fill="#E54332"/>
<path d="M148.32 80.4499L154.23 88.0899L173.25 72.6699L168.65 66.4199L148.32 80.4499Z" fill="#E54332"/>
<path d="M170.86 66.0401C168.23 65.7001 165.83 67.5601 165.49 70.1901C165.15 72.8201 167.01 75.2201 169.64 75.5601C172.27 75.9001 174.67 74.0401 175.01 71.4101C175.34 68.7801 173.48 66.3801 170.86 66.0401Z" fill="#FFCA00"/>
<path d="M170.49 68.93C169.46 68.8 168.52 69.53 168.39 70.55C168.26 71.58 168.99 72.52 170.01 72.65C171.04 72.78 171.98 72.05 172.11 71.03C172.24 70.01 171.51 69.06 170.49 68.93Z" fill="#09455F"/>
<path d="M151.34 78.9102C148.05 78.9102 145.38 81.5802 145.38 84.8702C145.38 88.1602 148.05 90.8302 151.34 90.8302C154.63 90.8302 157.3 88.1602 157.3 84.8702C157.3 81.5802 154.63 78.9102 151.34 78.9102Z" fill="#FFCA00"/>
<path d="M151.34 82.8301C150.21 82.8301 149.3 83.7401 149.3 84.8701C149.3 86.0001 150.21 86.9101 151.34 86.9101C152.47 86.9101 153.38 86.0001 153.38 84.8701C153.38 83.7401 152.47 82.8301 151.34 82.8301Z" fill="#09455F"/>
<path d="M164.6 97.1401H143.3C141.38 97.1401 139.82 98.7001 139.82 100.62V109.71C139.82 111.63 141.38 113.19 143.3 113.19H164.6C166.52 113.19 168.08 111.63 168.08 109.71V100.62C168.08 98.7001 166.52 97.1401 164.6 97.1401Z" fill="#FFCA00"/>
<path d="M170.89 110.36H137V113.2H170.89V110.36Z" fill="#09455F"/>
<path d="M184.58 80.9599C183.27 82.7399 183.12 84.8599 184.26 85.6899C185.4 86.5199 187.38 85.7599 188.69 83.9799C190 82.1999 190.15 80.0799 189.01 79.2499C187.87 78.4099 185.89 79.1799 184.58 80.9599Z" fill="#E54332"/>
<path d="M144.26 99.0298C143.74 99.0298 143.31 99.4498 143.31 99.9798V100.78C143.31 101.3 143.73 101.73 144.26 101.73C144.78 101.73 145.21 101.31 145.21 100.78V99.9798C145.2 99.4498 144.78 99.0298 144.26 99.0298Z" fill="#E54332"/>
<path d="M147.22 99.0298C146.7 99.0298 146.27 99.4498 146.27 99.9798V100.78C146.27 101.3 146.69 101.73 147.22 101.73C147.75 101.73 148.17 101.31 148.17 100.78V99.9798C148.17 99.4498 147.75 99.0298 147.22 99.0298Z" fill="#E54332"/>
<path d="M150.19 99.0298C149.67 99.0298 149.24 99.4498 149.24 99.9798V100.78C149.24 101.3 149.66 101.73 150.19 101.73C150.71 101.73 151.14 101.31 151.14 100.78V99.9798C151.14 99.4498 150.71 99.0298 150.19 99.0298Z" fill="#E54332"/>
<path d="M195.17 85.5698C193.38 85.5698 191.94 86.9998 191.94 88.7598C191.94 90.5198 193.39 91.9498 195.17 91.9498C196.96 91.9498 198.4 90.5198 198.4 88.7598C198.4 86.9998 196.95 85.5698 195.17 85.5698Z" fill="#FFCA00"/>
</g>
<g clip-path="url(#clip1)">
<path d="M409.156 257.454L405.171 261.683L411.05 265.811L413.674 260.627L409.156 257.454Z" fill="#E54332"/>
<path d="M426.868 267.043L425.671 267.469L426.528 270.202L427.725 269.776L426.868 267.043Z" fill="#09455F"/>
<path d="M426.803 269.153L424.888 270.76L425.402 271.398L427.316 269.792L426.803 269.153Z" fill="#09455F"/>
<path d="M424.889 270.76L426.082 273.435L426.493 273.287L425.67 270.447L424.889 270.76Z" fill="#09455F"/>
<path d="M429.38 269.16L426.944 269.103L426.894 269.942L429.33 269.999L429.38 269.16Z" fill="#09455F"/>
<path d="M428.579 269.409L429.523 272.212L429.981 272.048L429.38 269.16L428.579 269.409Z" fill="#09455F"/>
<path d="M421.33 258.129L424.547 268.294L428.292 266.983L425.091 256.786L421.33 258.129Z" fill="#E54332"/>
<path d="M411.824 256.095L411.954 260.883L423.937 259.818L423.924 255.967L411.824 256.095Z" fill="#E54332"/>
<path d="M424.908 256.424C423.966 255.553 422.479 255.652 421.584 256.641C420.689 257.629 420.731 259.134 421.673 260.005C422.615 260.875 424.103 260.776 424.998 259.788C425.889 258.797 425.847 257.292 424.908 256.424Z" fill="#FFCA00"/>
<path d="M423.926 257.511C423.557 257.172 422.974 257.211 422.627 257.595C422.278 257.983 422.295 258.573 422.661 258.91C423.031 259.249 423.614 259.21 423.96 258.826C424.307 258.442 424.292 257.848 423.926 257.511Z" fill="#09455F"/>
<path d="M413.464 256.299C412.163 255.385 410.334 255.743 409.383 257.097C408.432 258.452 408.716 260.293 410.018 261.207C411.319 262.121 413.148 261.764 414.099 260.409C415.05 259.055 414.766 257.214 413.464 256.299Z" fill="#FFCA00"/>
<path d="M412.331 257.913C411.884 257.6 411.261 257.721 410.934 258.187C410.607 258.652 410.704 259.279 411.151 259.593C411.598 259.907 412.222 259.785 412.548 259.32C412.875 258.855 412.778 258.227 412.331 257.913Z" fill="#09455F"/>
<path d="M413.44 267.49L405.013 261.572C404.253 261.038 403.185 261.247 402.63 262.038L400.001 265.78C399.446 266.571 399.612 267.647 400.372 268.18L408.799 274.098C409.559 274.631 410.627 274.423 411.182 273.632L413.81 269.889C414.365 269.099 414.199 268.023 413.44 267.49Z" fill="#FFCA00"/>
<path d="M412.106 274.68L398.698 265.265L397.876 266.434L411.285 275.85L412.106 274.68Z" fill="#09455F"/>
<path d="M426.022 266.379C424.989 266.748 424.317 267.579 424.528 268.238C424.739 268.896 425.742 269.133 426.775 268.764C427.808 268.396 428.481 267.564 428.27 266.906C428.061 266.243 427.055 266.01 426.022 266.379Z" fill="#E54332"/>
<path d="M404.846 262.617C404.64 262.472 404.348 262.526 404.195 262.744L403.964 263.074C403.813 263.288 403.855 263.581 404.065 263.729C404.271 263.873 404.562 263.82 404.715 263.601L404.947 263.272C405.096 263.051 405.051 262.761 404.846 262.617Z" fill="#E54332"/>
<path d="M406.017 263.439C405.811 263.295 405.519 263.348 405.366 263.566L405.135 263.896C404.985 264.11 405.026 264.404 405.236 264.551C405.446 264.698 405.733 264.642 405.887 264.424L406.118 264.094C406.271 263.876 406.226 263.586 406.017 263.439Z" fill="#E54332"/>
<path d="M407.192 264.264C406.986 264.12 406.694 264.173 406.541 264.392L406.31 264.721C406.16 264.935 406.201 265.229 406.411 265.376C406.617 265.521 406.908 265.467 407.062 265.249L407.293 264.92C407.446 264.701 407.398 264.409 407.192 264.264Z" fill="#E54332"/>
<path d="M428.879 271.22C428.171 270.722 427.188 270.911 426.679 271.636C426.17 272.36 426.33 273.352 427.035 273.847C427.743 274.344 428.726 274.155 429.235 273.43C429.744 272.706 429.583 271.714 428.879 271.22Z" fill="#FFCA00"/>
</g>
<path d="M239.395 254.782H226.665V268.709H239.395V254.782Z" fill="#00B6CB"/>
<path d="M233.022 261.746C224.997 261.746 218.486 268.317 218.486 276.417C218.486 284.525 224.997 291.088 233.022 291.088C241.055 291.088 247.558 284.517 247.558 276.417C247.566 268.317 241.055 261.746 233.022 261.746Z" fill="#00B6CB"/>
<path d="M238.836 276.253C233.192 276.253 224.673 272.003 219.968 275.583C219.952 275.861 219.936 276.139 219.936 276.417C219.936 283.699 225.807 289.633 233.03 289.633C240.245 289.633 246.125 283.707 246.125 276.417C246.125 275.011 245.906 273.654 245.501 272.387C243.825 274.668 241.711 276.253 238.836 276.253Z" fill="#E54332"/>
<path d="M238.675 253H227.378C226.544 253 225.872 253.678 225.872 254.52C225.872 255.362 226.544 256.04 227.378 256.04H238.675C239.509 256.04 240.181 255.362 240.181 254.52C240.181 253.678 239.509 253 238.675 253Z" fill="#00B6CB"/>
<path d="M232.561 283.356C231.629 283.356 230.868 284.124 230.868 285.064C230.868 286.012 231.629 286.772 232.561 286.772C233.5 286.772 234.253 286.004 234.253 285.064C234.253 284.124 233.492 283.356 232.561 283.356Z" fill="#FFCA00"/>
<path d="M240.829 279.547C240.229 279.547 239.743 280.037 239.743 280.642C239.743 281.247 240.229 281.737 240.829 281.737C241.428 281.737 241.914 281.247 241.914 280.642C241.914 280.037 241.428 279.547 240.829 279.547Z" fill="#FFCA00"/>
<path d="M224.738 277.397C224.106 277.397 223.604 277.912 223.604 278.542C223.604 279.171 224.114 279.686 224.738 279.686C225.369 279.686 225.871 279.171 225.871 278.542C225.871 277.912 225.361 277.397 224.738 277.397Z" fill="#FFCA00"/>
<path d="M251.542 256.931H249.777V295.06H251.542V256.931Z" fill="#09455F"/>
<path d="M222.624 258.288C222.624 258.689 222.94 259.007 223.337 259.007H252.603V257.569H223.337C222.94 257.569 222.624 257.888 222.624 258.288Z" fill="#09455F"/>
<path d="M216 294.627C216 295.387 216.607 296 217.36 296H253V293.246H217.36C216.607 293.254 216 293.867 216 294.627Z" fill="#09455F"/>
<g clip-path="url(#clip2)">
<path d="M426.63 389.57L415.699 384.651L410.318 396.609L421.248 401.528L426.63 389.57Z" fill="#00B6CB"/>
<path d="M418.467 393.086C411.576 389.985 403.447 393.112 400.317 400.067C397.184 407.028 400.239 415.179 407.129 418.28C414.027 421.384 422.149 418.255 425.279 411.3C428.416 404.348 425.365 396.19 418.467 393.086Z" fill="#00B6CB"/>
<path d="M417.854 407.79C413.007 405.609 407.335 398.668 401.912 399.923C401.791 400.156 401.669 400.388 401.562 400.627C398.748 406.88 401.496 414.243 407.698 417.034C413.894 419.822 421.231 417.006 424.048 410.746C424.592 409.539 424.928 408.29 425.07 407.045C422.75 408.356 420.322 408.9 417.854 407.79Z" fill="#E54332"/>
<path d="M426.7 387.761L417 383.396C416.284 383.074 415.444 383.396 415.119 384.119C414.794 384.842 415.109 385.684 415.825 386.007L425.525 390.372C426.241 390.694 427.08 390.371 427.405 389.648C427.731 388.925 427.416 388.083 426.7 387.761Z" fill="#00B6CB"/>
<path d="M409.72 411.463C408.921 411.103 407.97 411.468 407.607 412.275C407.241 413.089 407.601 414.036 408.4 414.396C409.207 414.759 410.15 414.39 410.513 413.583C410.877 412.776 410.52 411.822 409.72 411.463Z" fill="#FFCA00"/>
<path d="M418.291 411.387C417.777 411.156 417.17 411.389 416.936 411.908C416.702 412.427 416.93 413.036 417.445 413.268C417.959 413.499 418.566 413.266 418.8 412.747C419.033 412.227 418.806 411.619 418.291 411.387Z" fill="#FFCA00"/>
<path d="M405.306 403.324C404.764 403.08 404.134 403.328 403.89 403.869C403.647 404.409 403.886 405.048 404.422 405.289C404.964 405.533 405.594 405.285 405.837 404.745C406.08 404.204 405.841 403.565 405.306 403.324Z" fill="#FFCA00"/>
<path d="M436.229 396.109L434.713 395.427L419.98 428.165L421.496 428.847L436.229 396.109Z" fill="#09455F"/>
<path d="M410.875 386.1C410.72 386.444 410.868 386.84 411.209 386.993L436.338 398.301L436.893 397.066L411.765 385.758C411.424 385.604 411.03 385.756 410.875 386.1Z" fill="#09455F"/>
<path d="M391.146 414.742C390.852 415.394 391.137 416.155 391.784 416.446L422.384 430.217L423.449 427.852L392.848 414.081C392.198 413.797 391.44 414.089 391.146 414.742Z" fill="#09455F"/>
</g>
<rect x="131" y="118" width="68" height="11" rx="3" fill="#E54332"/>
<rect x="199" y="303" width="68" height="11" rx="3" fill="#E54332"/>
<rect x="364" y="123" width="68" height="11" rx="3" fill="#E54332"/>
<rect x="367.789" y="414" width="68" height="9.28593" rx="3" transform="rotate(24.0785 367.789 414)" fill="#00B6CB"/>
<rect x="237" y="480.539" width="68" height="9.28593" rx="3" transform="rotate(-26.6863 237 480.539)" fill="#E54332"/>
<defs>
<linearGradient id="paint0_linear" x1="51.9004" y1="273.459" x2="169.611" y2="273.459" gradientUnits="userSpaceOnUse">
<stop stop-color="#DAE3FE"/>
<stop offset="1" stop-color="#E9EFFD"/>
</linearGradient>
<linearGradient id="paint1_linear" x1="115.247" y1="267.653" x2="106.889" y2="337.304" gradientUnits="userSpaceOnUse">
<stop stop-color="#FF928E"/>
<stop offset="1" stop-color="#FEB3B1"/>
</linearGradient>
<linearGradient id="paint2_linear" x1="115.927" y1="-148.331" x2="124.285" y2="-78.6805" gradientUnits="userSpaceOnUse">
<stop stop-color="#FF928E"/>
<stop offset="1" stop-color="#FEB3B1"/>
</linearGradient>
<linearGradient id="paint3_linear" x1="140.523" y1="366.562" x2="136.851" y2="515.255" gradientUnits="userSpaceOnUse">
<stop stop-color="#FFC91D"/>
<stop offset="1" stop-color="#EA4335"/>
</linearGradient>
<linearGradient id="paint4_linear" x1="214.803" y1="356.544" x2="205.888" y2="425.637" gradientUnits="userSpaceOnUse">
<stop stop-color="#09005D"/>
<stop offset="1" stop-color="#1A0F91"/>
</linearGradient>
<linearGradient id="paint5_linear" x1="208.517" y1="386.408" x2="167.7" y2="496.965" gradientUnits="userSpaceOnUse">
<stop stop-color="#FF928E"/>
<stop offset="1" stop-color="#FEB3B1"/>
</linearGradient>
<linearGradient id="paint6_linear" x1="82.6981" y1="375.396" x2="76.0116" y2="421.086" gradientUnits="userSpaceOnUse">
<stop stop-color="#09005D"/>
<stop offset="1" stop-color="#1A0F91"/>
</linearGradient>
<linearGradient id="paint7_linear" x1="126.739" y1="353.091" x2="85.9008" y2="463.707" gradientUnits="userSpaceOnUse">
<stop stop-color="#FF928E"/>
<stop offset="1" stop-color="#FEB3B1"/>
</linearGradient>
<linearGradient id="paint8_linear" x1="139.487" y1="314.199" x2="136.701" y2="384.964" gradientUnits="userSpaceOnUse">
<stop stop-color="#FF928E"/>
<stop offset="1" stop-color="#FEB3B1"/>
</linearGradient>
<linearGradient id="paint9_linear" x1="141.976" y1="261.289" x2="142.534" y2="304.751" gradientUnits="userSpaceOnUse">
<stop stop-color="#FF928E"/>
<stop offset="1" stop-color="#FEB3B1"/>
</linearGradient>
<linearGradient id="paint10_linear" x1="123.913" y1="261.52" x2="124.47" y2="304.982" gradientUnits="userSpaceOnUse">
<stop stop-color="#FF928E"/>
<stop offset="1" stop-color="#FEB3B1"/>
</linearGradient>
<clipPath id="clip0">
<rect width="61.4" height="47.2" fill="white" transform="translate(137 66)"/>
</clipPath>
<clipPath id="clip1">
<rect width="29.6837" height="23.7469" fill="white" transform="translate(411.523 247) rotate(35.0782)"/>
</clipPath>
<clipPath id="clip2">
<rect width="34.8377" height="40.4871" fill="white" transform="translate(407.23 379) rotate(24.2286)"/>
</clipPath>
</defs>
</svg>
