<svg width="446" height="533" viewBox="0 0 446 533" fill="none" xmlns="http://www.w3.org/2000/svg">
<g opacity="0.45">
<path opacity="0.45" d="M80.5141 33.7168C79.1141 28.0268 65.8841 19.7168 58.8141 24.7268C56.6441 13.8868 54.6141 7.12678 47.5241 1.78678C40.4341 -3.55322 28.6041 3.42678 26.7041 18.0468C24.8041 12.0368 15.1441 3.93678 7.38411 10.7668C0.204106 17.0868 -0.515888 27.6768 0.234112 33.7068H80.5141V33.7168Z" fill="#99B8FF"/>
</g>
<g opacity="0.45">
<path opacity="0.45" d="M445.1 106.641C442.91 101.251 438.78 98.3608 433.89 97.8208C427.73 97.1308 421.48 100.671 421.48 100.671C421.48 100.671 423.8 91.7708 420.65 84.7708C418.51 79.9908 415.09 75.5008 410.35 74.3208C405.44 73.1008 400.23 75.4908 396.57 79.2808C392.91 83.0708 390.55 88.0908 388.45 93.1008C387.36 89.5508 385.92 85.5708 382.71 84.2508C379.39 82.8808 375.55 85.2408 373.81 88.6208C372.07 92.0008 371.98 96.0808 372.22 99.9508C368.37 97.6408 363.46 96.9608 359.6 99.2708C357.13 100.751 355.37 103.651 355 106.651H445.1V106.641Z" fill="#99B8FF"/>
</g>
<path d="M431.896 182.662C432.394 180.54 429.411 179.13 427.583 180.614C409.028 195.66 364.445 240.718 375.557 319.458C389.497 418.25 365.665 454.297 336 476.286C336 476.286 376.74 465.946 402.372 429.368C465.303 339.558 423.035 220.381 431.896 182.662Z" fill="#1755AF"/>
<path d="M417.775 213.52C415.453 224.518 413.384 235.55 411.786 246.631C410.121 257.703 408.844 268.815 407.97 279.943C407.146 291.073 406.565 302.216 406.532 313.364C406.44 324.511 406.903 335.65 407.415 346.829C407.854 358.006 408.368 369.263 407.55 380.599C406.746 391.913 404.363 403.327 399.638 414.025C398.456 416.692 397.214 419.35 395.802 421.917C394.445 424.508 392.955 427.051 391.413 429.567C388.299 434.588 384.794 439.44 380.888 444.045C373.047 453.239 363.592 461.397 353.174 468.299C352.078 469.026 350.507 468.848 349.664 467.901C348.838 466.971 349.024 465.647 350.068 464.912L350.076 464.906C352.556 463.166 355.008 461.403 357.361 459.55C358.554 458.64 359.699 457.687 360.864 456.753C361.986 455.781 363.153 454.847 364.239 453.847C368.662 449.909 372.76 445.71 376.479 441.268C383.957 432.427 389.944 422.574 394.479 412.36C396.681 407.228 398.442 401.968 399.725 396.606C401.007 391.244 401.811 385.79 402.257 380.291C403.149 369.287 402.747 358.141 402.402 346.961C402.074 335.78 401.833 324.542 402.129 313.311C402.259 307.696 402.506 302.085 402.869 296.48C403.033 293.677 403.257 290.877 403.478 288.076C403.729 285.278 403.998 282.481 404.292 279.688C405.496 268.513 407.095 257.374 409.099 246.295C411.164 235.224 413.569 224.206 416.463 213.283C416.546 212.971 416.905 212.775 417.266 212.847C417.615 212.92 417.838 213.218 417.775 213.52Z" fill="white"/>
<path d="M46.6434 36.0057C47.7718 32.9941 52.1953 33.4981 52.6034 36.6872C56.5495 67.5195 69.4285 148.043 100.675 194.368C151.55 269.797 176.022 383.716 128.924 433.916C128.924 433.918 -76.2777 364.045 46.6434 36.0057Z" fill="url(#paint0_linear)"/>
<path opacity="0.43" d="M47.1488 79.2292C47.1488 79.2292 47.1427 79.5495 47.1325 80.1718C47.1468 80.7901 47.1468 81.6817 47.1876 82.8937C47.2447 85.3034 47.3977 88.8373 47.6181 93.3344C47.8609 97.8314 48.1731 103.289 48.6383 109.545C49.0688 115.803 49.6993 122.853 50.3645 130.543C51.0888 138.227 51.8948 146.552 52.9292 155.336C53.9107 164.126 55.1512 173.369 56.455 182.928C57.8262 192.477 59.2912 202.336 61.0255 212.316C61.456 214.811 61.8865 217.317 62.3191 219.828C62.7863 222.334 63.2556 224.848 63.7249 227.365C64.6309 232.409 65.6919 237.443 66.7039 242.485C67.7078 247.529 68.8892 252.536 69.944 257.549C71.0887 262.542 72.2497 267.51 73.427 272.434C74.0493 274.886 74.6696 277.33 75.2858 279.761C75.9122 282.189 76.4896 284.619 77.1711 287.004C77.8301 289.395 78.4831 291.772 79.1339 294.133C79.4584 295.312 79.7828 296.49 80.1052 297.661C80.45 298.826 80.7948 299.985 81.1376 301.14C81.8273 303.449 82.5108 305.739 83.1902 308.008C83.531 309.142 83.8697 310.268 84.2084 311.391C84.5695 312.505 84.9307 313.615 85.2877 314.716C85.9998 316.924 86.7038 319.107 87.3996 321.264C87.7505 322.341 88.081 323.419 88.4401 324.48C88.8095 325.537 89.1767 326.585 89.5399 327.628C90.2683 329.713 90.9865 331.77 91.6946 333.796C92.0476 334.81 92.4005 335.814 92.7494 336.812C93.1228 337.799 93.4942 338.779 93.8615 339.752C95.3591 343.629 96.7302 347.406 98.181 350.978C99.6623 354.539 101.08 357.95 102.431 361.194C103.827 364.42 105.235 367.44 106.512 370.301C107.159 371.727 107.787 373.108 108.391 374.441C109.042 375.753 109.668 377.016 110.27 378.23C111.476 380.66 112.582 382.89 113.582 384.906C114.065 385.922 114.592 386.848 115.069 387.728C115.549 388.607 115.998 389.431 116.416 390.199C117.25 391.735 117.958 393.041 118.534 394.1C119.685 396.22 120.299 397.35 120.299 397.35L120.305 397.362C120.397 397.532 120.333 397.746 120.164 397.838C119.997 397.93 119.789 397.868 119.693 397.705C119.693 397.705 119.052 396.587 117.85 394.49C117.248 393.441 116.508 392.147 115.636 390.627C115.202 389.866 114.735 389.048 114.235 388.177C113.739 387.303 113.196 386.383 112.692 385.371C111.656 383.367 110.507 381.147 109.256 378.734C108.632 377.526 107.981 376.269 107.306 374.963C106.675 373.637 106.022 372.262 105.349 370.844C104.021 367.995 102.543 364.992 101.105 361.772C99.7153 358.53 98.2565 355.122 96.7323 351.566C95.2387 347.997 93.8227 344.223 92.2802 340.348C91.9006 339.377 91.517 338.397 91.1314 337.41C90.7723 336.412 90.4091 335.408 90.0439 334.394C89.3114 332.368 88.5707 330.311 87.8178 328.226C84.8368 319.877 81.9762 310.97 79.2258 301.699C78.8789 300.542 78.53 299.379 78.179 298.212C77.8526 297.039 77.522 295.859 77.1935 294.678C76.5345 292.313 75.8693 289.93 75.2001 287.534C74.5104 285.143 73.9187 282.711 73.2841 280.277C72.6557 277.841 72.0273 275.392 71.3947 272.933C70.195 268.002 69.0157 263.021 67.8506 258.018C67.3058 255.508 66.759 252.993 66.2122 250.477C65.6694 247.959 65.1124 245.441 64.6268 242.909C63.629 237.851 62.5803 232.801 61.6866 227.743C61.2234 225.217 60.7602 222.697 60.2991 220.183C59.8727 217.663 59.4483 215.152 59.0239 212.65C57.3161 202.644 55.8776 192.76 54.533 183.189C53.2741 173.605 52.1437 164.332 51.2296 155.519C50.2726 146.713 49.5422 138.368 48.8852 130.667C47.6507 115.254 47.0223 102.383 46.6897 93.3731C46.5408 88.8659 46.4449 85.3238 46.4265 82.9059C46.4041 81.7062 46.4184 80.7452 46.4163 80.1167C46.4367 79.4924 46.449 79.17 46.449 79.17C46.4551 78.9761 46.6183 78.8252 46.8101 78.8333C47.0019 78.8394 47.1508 78.9986 47.1468 79.1883L47.1488 79.2292Z" fill="white"/>
<path d="M342.843 158.273L149.501 162.655C138.835 162.897 130.228 171.455 129.926 182.119L122.006 462.754C121.77 471.1 128.492 477.983 136.841 477.946L358.528 476.952C366.373 476.916 372.663 470.454 372.485 462.61L366.094 180.494C365.809 167.938 355.4 157.99 342.843 158.273Z" fill="#00215B"/>
<path d="M342.269 159.191C315.947 163.369 225.406 176.5 150.21 172.439C146.78 172.254 143.869 174.915 143.763 178.347L135.178 460.247C135.061 464.112 138.084 467.347 141.948 467.488C173.562 468.641 303.746 472.918 350.011 467.009C352.826 466.65 354.916 464.225 354.869 461.386L349.909 165.608C349.841 161.59 346.238 158.561 342.269 159.191Z" fill="white"/>
<path d="M300.277 216.189C300.514 209.295 295.117 203.515 288.223 203.278C281.329 203.042 275.548 208.439 275.312 215.333C275.075 222.227 280.472 228.007 287.366 228.244C294.26 228.48 300.041 223.084 300.277 216.189Z" fill="#93A3C3"/>
<path d="M307.589 251.989L267.804 252.891C265.366 252.945 263.843 250.286 265.109 248.201C268.37 242.836 275.264 234.908 287.517 234.98C299.326 235.052 306.48 241.909 310.111 246.863C311.652 248.964 310.195 251.929 307.589 251.989Z" fill="#93A3C3"/>
<g opacity="0.6">
<path opacity="0.6" d="M164.703 202.823C163.584 202.848 162.671 201.991 162.679 200.919C162.686 199.846 163.607 198.931 164.727 198.887L234.887 196.046C236.007 196 236.639 196.835 236.29 197.9L235.836 199.289C235.488 200.354 234.286 201.246 233.166 201.272L164.703 202.823Z" fill="#00215B"/>
</g>
<g opacity="0.6">
<path opacity="0.6" d="M235.133 206.875C236.253 206.829 236.885 207.664 236.536 208.729L236.083 210.117C235.734 211.182 234.533 212.075 233.413 212.1L164.951 213.652C163.831 213.677 162.919 212.82 162.927 211.747C162.934 210.675 163.855 209.76 164.975 209.715L235.133 206.875Z" fill="#00215B"/>
</g>
<g opacity="0.6">
<path opacity="0.6" d="M235.383 217.863C236.503 217.817 237.135 218.652 236.786 219.717L236.332 221.105C235.984 222.17 234.782 223.063 233.662 223.089L165.201 224.64C164.081 224.665 163.169 223.808 163.176 222.736C163.184 221.663 164.105 220.748 165.225 220.704L235.383 217.863Z" fill="#00215B"/>
</g>
<path d="M189.727 228.52C184.34 228.229 174.263 228.266 168.717 228.315C166.368 228.336 164.343 229.973 163.843 232.27C162.873 236.73 161.572 244.465 161.943 252.622C162.055 255.065 164.1 256.971 166.544 256.89L186.998 256.206C189.514 256.121 191.559 254.152 191.735 251.641L193.099 232.353C193.241 230.358 191.725 228.628 189.727 228.52Z" fill="#93A3C3"/>
<g opacity="0.6">
<path opacity="0.6" d="M202.465 238.026C201.345 238.051 200.421 237.196 200.412 236.123C200.403 235.051 201.311 234.119 202.431 234.054L235.037 232.138C236.155 232.073 236.934 232.925 236.768 234.033L236.585 235.245C236.418 236.353 235.365 237.28 234.245 237.307L202.465 238.026Z" fill="#00215B"/>
</g>
<g opacity="0.6">
<path opacity="0.6" d="M235.406 244.89C236.526 244.865 237.274 245.746 237.066 246.848L236.839 248.052C236.632 249.154 235.544 250.041 234.425 250.027L202.642 249.585C201.52 249.568 200.629 248.68 200.66 247.607C200.691 246.535 201.632 245.639 202.753 245.614L235.406 244.89Z" fill="#00215B"/>
</g>
<g opacity="0.6">
<path opacity="0.6" d="M159.627 277.778C158.507 277.804 157.627 276.946 157.675 275.872C157.721 274.799 158.676 273.892 159.796 273.858L323.584 268.855C324.704 268.821 325.066 269.523 324.388 270.416L322.815 272.486C322.137 273.379 320.665 274.13 319.544 274.155L159.627 277.778Z" fill="#00215B"/>
</g>
<g opacity="0.6">
<path opacity="0.6" d="M323.829 279.685C324.949 279.651 325.311 280.353 324.633 281.246L323.059 283.316C322.381 284.209 320.91 284.96 319.789 284.985L159.869 288.608C158.75 288.634 157.87 287.776 157.917 286.702C157.963 285.629 158.919 284.722 160.039 284.688L323.829 279.685Z" fill="#00215B"/>
</g>
<path d="M324.748 297.757C320.813 297.545 313.454 297.572 309.404 297.607C307.688 297.622 306.209 298.819 305.844 300.495C305.136 303.752 304.186 309.402 304.456 315.359C304.537 317.143 306.031 318.534 307.817 318.475L322.754 317.975C324.59 317.914 326.086 316.474 326.215 314.641L327.21 300.554C327.314 299.098 326.207 297.836 324.748 297.757Z" fill="#93A3C3"/>
<g opacity="0.6">
<path opacity="0.6" d="M297.475 304.14C298.594 304.067 299.393 304.919 299.252 306.03L298.887 308.9C298.746 310.012 297.714 310.942 296.593 310.967L259.847 311.799C258.727 311.825 257.8 310.929 257.79 309.808L257.78 308.738C257.768 307.617 258.674 306.641 259.792 306.57L297.475 304.14Z" fill="#00215B"/>
</g>
<path d="M243.347 299.601C239.412 299.389 232.054 299.416 228.003 299.452C226.287 299.466 224.808 300.663 224.443 302.339C223.736 305.597 222.785 311.246 223.055 317.203C223.137 318.987 224.63 320.378 226.416 320.319L241.354 319.819C243.192 319.758 244.685 318.318 244.814 316.485L245.809 302.399C245.913 300.944 244.807 299.68 243.347 299.601Z" fill="#93A3C3"/>
<g opacity="0.6">
<path opacity="0.6" d="M216.075 305.985C217.193 305.912 217.993 306.763 217.852 307.874L217.487 310.744C217.346 311.857 216.314 312.787 215.193 312.812L178.447 313.644C177.327 313.669 176.4 312.774 176.39 311.652L176.379 310.583C176.368 309.461 177.274 308.486 178.392 308.414L216.075 305.985Z" fill="#00215B"/>
</g>
<g opacity="0.6">
<path opacity="0.6" d="M170.02 349.939C168.9 349.964 168.019 349.107 168.063 348.033C168.108 346.959 169.06 346.053 170.181 346.018L329.27 341.122C330.39 341.088 330.762 341.797 330.096 342.699L328.594 344.732C327.928 345.634 326.467 346.392 325.347 346.417L170.02 349.939Z" fill="#00215B"/>
</g>
<g opacity="0.6">
<path opacity="0.6" d="M329.516 351.952C330.636 351.918 331.008 352.627 330.342 353.529L328.84 355.563C328.174 356.464 326.713 357.222 325.593 357.248L170.266 360.767C169.146 360.792 168.265 359.935 168.309 358.861C168.354 357.787 169.306 356.881 170.428 356.847L329.516 351.952Z" fill="#00215B"/>
</g>
<g opacity="0.6">
<path opacity="0.6" d="M329.765 362.94C330.885 362.906 331.257 363.615 330.591 364.516L329.09 366.55C328.424 367.452 326.963 368.21 325.843 368.235L170.516 371.754C169.396 371.78 168.515 370.922 168.56 369.849C168.604 368.775 169.557 367.868 170.678 367.834L329.765 362.94Z" fill="#00215B"/>
</g>
<path d="M233.545 150.058L255.437 147.614L256.825 127.451C257.104 123.394 254.492 119.686 250.566 118.624C246.263 117.459 240.188 117.501 233.315 122.517C219.834 132.356 233.545 150.058 233.545 150.058ZM237.735 133.186C237.667 130.165 240.061 127.661 243.08 127.593C246.102 127.525 248.605 129.919 248.674 132.939C248.742 135.96 246.348 138.464 243.328 138.532C240.308 138.6 237.803 136.208 237.735 133.186Z" fill="#00215B"/>
<path d="M253.006 139.198C252.714 139.177 252.494 138.925 252.514 138.633L252.735 135.421C252.754 135.129 253.002 134.908 253.3 134.929C253.592 134.95 253.812 135.202 253.792 135.494L253.571 138.705C253.552 138.981 253.327 139.192 253.055 139.199C253.039 139.199 253.022 139.199 253.006 139.198ZM253.439 132.906C253.147 132.885 252.928 132.633 252.947 132.341L253.114 129.902C253.346 126.54 251.165 123.464 247.931 122.588C245.464 121.921 242.936 121.875 240.418 122.451C240.13 122.514 239.848 122.338 239.785 122.053C239.719 121.768 239.897 121.483 240.182 121.418C242.871 120.803 245.571 120.852 248.208 121.567C251.929 122.574 254.437 126.11 254.172 129.975L254.004 132.413C253.985 132.689 253.76 132.9 253.488 132.907C253.472 132.907 253.456 132.907 253.439 132.906Z" fill="#91B3FA"/>
<path d="M285.673 159.939L285.443 149.822C285.365 146.329 282.406 143.599 278.918 143.797L209.223 147.768C206.13 147.944 203.679 150.444 203.563 153.541L203.199 163.275L285.673 159.939Z" fill="#00215B"/>
<path d="M259.381 148.054L262.38 147.985C262.672 147.979 262.904 147.736 262.898 147.444C262.892 147.152 262.649 146.92 262.356 146.926L259.357 146.995C259.065 147.001 258.834 147.244 258.84 147.536C258.847 147.83 259.089 148.061 259.381 148.054Z" fill="#91B3FA"/>
<path d="M281.825 156.848C282.118 156.842 282.349 156.599 282.343 156.307L282.25 152.215C282.178 149.052 279.547 146.538 276.385 146.609L265.357 146.859C265.065 146.865 264.834 147.108 264.839 147.4C264.845 147.692 265.089 147.924 265.381 147.918L276.409 147.668C278.987 147.611 281.133 149.66 281.191 152.238L281.284 156.33C281.29 156.624 281.533 156.856 281.825 156.848Z" fill="#91B3FA"/>
<path d="M307.444 155.741L185.472 158.502C181.086 158.601 177.408 161.842 176.758 166.18L176.667 166.78C175.956 171.532 179.698 175.778 184.502 175.67L309.638 172.836C312.512 172.77 314.749 170.314 314.546 167.447L314.15 161.852C313.904 158.35 310.952 155.663 307.444 155.741Z" fill="#00215B"/>
<path d="M222 489H35.8747C28.7652 489 23 483.65 23 477.053V469.947C23 463.35 28.7652 458 35.8747 458H222C213.486 466.638 213.339 479.837 221.656 488.637L222 489Z" fill="#86B1F2"/>
<path d="M298.333 488.032H29.0291C16.8592 488.032 7 497.897 7 510.061C7 522.231 16.8646 532.091 29.0291 532.091H298.333L298.186 531.938C286.387 519.664 286.452 500.24 298.333 488.032Z" fill="#B75742"/>
<path d="M293.45 494.557H145.998C137.431 494.557 130.488 501.5 130.488 510.068C130.488 518.635 137.431 525.578 145.998 525.578H293.444C288.027 515.97 288.032 504.154 293.45 494.557Z" fill="#FAE0B2"/>
<path d="M100.506 266.606C100.337 266.933 89.5464 274.868 89.5464 274.868C89.5464 274.868 91.9281 291.916 101.607 298.647C112.246 306.048 127.272 292.548 127.272 292.548C127.272 292.548 139.229 295.393 145.589 270.503C147.05 264.791 138.63 264.311 128.465 265.363C115.352 266.72 100.506 266.606 100.506 266.606Z" fill="#282828"/>
<path d="M80.3414 324.764C84.5652 321.859 89.2305 319.673 94.1791 318.327C96.0376 317.82 106.071 320.736 112.273 320.594C120.786 320.398 129.457 316.523 136.477 318.273C143.448 320.011 149.154 322.279 152.451 324.622C162.316 331.636 168.104 344.716 171.63 357.671C164.948 364.527 156.539 367.579 156.539 367.579L154.985 430.555L117.751 449.608L75.2511 428.271L76.7716 366.729C76.7716 366.729 63.2773 360.445 62.2854 358.156C61.2935 355.873 68.433 332.955 80.3414 324.764Z" fill="#037FFB"/>
<path d="M62.9122 357.884C62.9122 357.884 44.8289 408.024 86.0695 428.631C94.6315 427.492 91.3397 413.273 91.3397 413.273C91.3397 413.273 73.4199 409.305 78.7991 367.481C73.845 363.405 62.9122 357.884 62.9122 357.884Z" fill="url(#paint1_linear)"/>
<path d="M170.758 357.884C170.758 357.884 183.201 410.226 147.601 428.631C139.039 427.492 142.331 413.273 142.331 413.273C142.331 413.273 156.773 406.16 154.871 367.481C159.825 363.405 170.758 357.884 170.758 357.884Z" fill="url(#paint2_linear)"/>
<path d="M151.868 432.151H79.3006C76.8045 432.151 74.7607 430.108 74.7607 427.612V381.553C74.7607 379.057 76.8045 377.013 79.3006 377.013H151.874C154.37 377.013 156.414 379.057 156.414 381.553V427.612C156.414 430.108 154.37 432.151 151.868 432.151Z" fill="url(#paint3_linear)"/>
<path d="M192.225 448.502C182.879 446.354 161.28 447.51 161.28 447.51L160.403 449.891L158.947 461.718C158.947 461.718 179.516 465.424 189.653 465.419C190.689 465.419 191.631 465.26 192.498 464.993C192.809 464.715 193.108 464.427 193.397 464.116C197.703 459.413 196.46 452.513 192.225 448.502Z" fill="url(#paint4_linear)"/>
<path d="M155.078 446.845L158.735 447.003C160.702 447.085 162.55 448.044 163.874 449.657C165.193 451.271 165.875 453.407 165.76 455.587C165.667 457.32 164.954 458.944 163.782 460.1C162.605 461.25 161.068 461.838 159.503 461.724L153.906 461.326L155.078 446.845Z" fill="url(#paint5_linear)"/>
<path d="M32.103 447.363C41.4989 445.504 63.0593 447.319 63.0593 447.319L63.8768 449.723L65.0377 461.587C65.0377 461.587 44.382 464.661 34.2503 464.34C33.2148 464.307 32.2719 464.122 31.4163 463.827C31.1165 463.539 30.8168 463.244 30.5388 462.923C26.3586 458.105 27.7702 451.243 32.103 447.363Z" fill="url(#paint6_linear)"/>
<path d="M69.2781 446.845L65.6156 446.889C63.6481 446.911 61.7733 447.815 60.4108 449.385C59.0483 450.96 58.318 453.075 58.3779 455.255C58.427 456.993 59.0973 458.639 60.2419 459.827C61.3864 461.015 62.9124 461.648 64.4766 461.582L70.0792 461.353L69.2781 446.845Z" fill="url(#paint7_linear)"/>
<path d="M194.842 411.431C190.601 401.676 180.241 400.095 171.417 404.657C171.265 404.858 115.391 433.493 66.1221 446.045C67.5336 450.568 68.2585 455.381 68.4165 460.106C68.4438 461.158 68.4274 462.199 68.3675 463.223C106.153 461.283 147.159 448.682 182.394 437.608C193.321 434.082 199.54 422.244 194.842 411.431Z" fill="#282828"/>
<path d="M155.345 460.847C155.198 455.397 156.255 450.323 158.522 445.625C158.588 445.412 158.664 445.205 158.735 444.993C155.923 444.121 152.288 442.938 147.513 441.319C112.524 429.346 85.835 417.257 60.3614 403.338C50.4641 397.931 39.2152 401.556 36.0432 413.262C33.2146 423.716 39.4277 432.643 48.8509 435.777C77.0495 445.162 62.367 442.551 71.5776 445.516C96.31 453.162 127.086 460.133 155.405 462.035C155.383 461.637 155.361 461.239 155.345 460.847Z" fill="#282828"/>
<path d="M94.179 318.327C94.179 318.327 97.9395 334.634 116.208 334.296C134.815 333.958 136.471 318.272 136.471 318.272L124.318 315.673L123.304 302.129L105.019 303.486L104.681 316.354L94.179 318.327Z" fill="url(#paint8_linear)"/>
<path d="M107.586 263.762C107.586 263.762 86.6364 304.348 111.489 314.197C129.022 321.14 140.014 287.246 136.733 278.063C131.665 263.865 128.324 265.549 128.324 265.549L107.586 263.762Z" fill="url(#paint9_linear)"/>
<path d="M141.774 260.066C152.124 262.911 143.279 285.36 127.697 280.052C112.115 274.743 105.989 274.82 103.559 279.098C101.128 283.376 100.61 298.576 95.34 291.061C89.5629 282.826 86.3419 266.296 93.427 260.971C99.7545 256.208 101.231 248.828 108.829 249.079C118.906 249.417 126.7 244.953 131.25 248.174C136.472 251.875 134.161 257.973 141.774 260.066Z" fill="#282828"/>
<path d="M102.599 282.591C102.599 282.591 98.1304 277.784 97.4165 283.578C96.7025 289.371 98.997 296.838 101.689 292.745C104.382 288.652 102.599 282.591 102.599 282.591Z" fill="url(#paint10_linear)"/>
<defs>
<linearGradient id="paint0_linear" x1="7.41219" y1="233.959" x2="154.099" y2="233.959" gradientUnits="userSpaceOnUse">
<stop stop-color="#DAE3FE"/>
<stop offset="1" stop-color="#E9EFFD"/>
</linearGradient>
<linearGradient id="paint1_linear" x1="91.2474" y1="267.653" x2="82.8894" y2="337.304" gradientUnits="userSpaceOnUse">
<stop stop-color="#FF928E"/>
<stop offset="1" stop-color="#FEB3B1"/>
</linearGradient>
<linearGradient id="paint2_linear" x1="91.9268" y1="-148.331" x2="100.285" y2="-78.6805" gradientUnits="userSpaceOnUse">
<stop stop-color="#FF928E"/>
<stop offset="1" stop-color="#FEB3B1"/>
</linearGradient>
<linearGradient id="paint3_linear" x1="116.523" y1="366.562" x2="112.851" y2="515.255" gradientUnits="userSpaceOnUse">
<stop stop-color="#FFC91D"/>
<stop offset="1" stop-color="#EA4335"/>
</linearGradient>
<linearGradient id="paint4_linear" x1="190.803" y1="356.544" x2="181.888" y2="425.637" gradientUnits="userSpaceOnUse">
<stop stop-color="#09005D"/>
<stop offset="1" stop-color="#1A0F91"/>
</linearGradient>
<linearGradient id="paint5_linear" x1="184.517" y1="386.408" x2="143.7" y2="496.965" gradientUnits="userSpaceOnUse">
<stop stop-color="#FF928E"/>
<stop offset="1" stop-color="#FEB3B1"/>
</linearGradient>
<linearGradient id="paint6_linear" x1="58.6981" y1="375.396" x2="52.0116" y2="421.086" gradientUnits="userSpaceOnUse">
<stop stop-color="#09005D"/>
<stop offset="1" stop-color="#1A0F91"/>
</linearGradient>
<linearGradient id="paint7_linear" x1="102.739" y1="353.091" x2="61.9008" y2="463.707" gradientUnits="userSpaceOnUse">
<stop stop-color="#FF928E"/>
<stop offset="1" stop-color="#FEB3B1"/>
</linearGradient>
<linearGradient id="paint8_linear" x1="115.487" y1="314.199" x2="112.701" y2="384.964" gradientUnits="userSpaceOnUse">
<stop stop-color="#FF928E"/>
<stop offset="1" stop-color="#FEB3B1"/>
</linearGradient>
<linearGradient id="paint9_linear" x1="117.976" y1="261.289" x2="118.534" y2="304.751" gradientUnits="userSpaceOnUse">
<stop stop-color="#FF928E"/>
<stop offset="1" stop-color="#FEB3B1"/>
</linearGradient>
<linearGradient id="paint10_linear" x1="99.9126" y1="261.52" x2="100.47" y2="304.982" gradientUnits="userSpaceOnUse">
<stop stop-color="#FF928E"/>
<stop offset="1" stop-color="#FEB3B1"/>
</linearGradient>
</defs>
</svg>
