<svg width="449" height="525" viewBox="0 0 449 525" fill="none" xmlns="http://www.w3.org/2000/svg">
<g opacity="0.45">
<path opacity="0.45" d="M83.5141 33.7168C82.1141 28.0268 68.8841 19.7168 61.8141 24.7268C59.6441 13.8868 57.6141 7.12678 50.5241 1.78678C43.4341 -3.55322 31.6041 3.42678 29.7041 18.0468C27.8041 12.0368 18.1441 3.93678 10.3841 10.7668C3.20411 17.0868 2.48411 27.6768 3.23411 33.7068H83.5141V33.7168Z" fill="#99B8FF"/>
</g>
<g opacity="0.45">
<path opacity="0.45" d="M448.1 106.641C445.91 101.251 441.78 98.3608 436.89 97.8208C430.73 97.1308 424.48 100.671 424.48 100.671C424.48 100.671 426.8 91.7708 423.65 84.7708C421.51 79.9908 418.09 75.5008 413.35 74.3208C408.44 73.1008 403.23 75.4908 399.57 79.2808C395.91 83.0708 393.55 88.0908 391.45 93.1008C390.36 89.5508 388.92 85.5708 385.71 84.2508C382.39 82.8808 378.55 85.2408 376.81 88.6208C375.07 92.0008 374.98 96.0808 375.22 99.9508C371.37 97.6408 366.46 96.9608 362.6 99.2708C360.13 100.751 358.37 103.651 358 106.651H448.1V106.641Z" fill="#99B8FF"/>
</g>
<path d="M434.896 182.662C435.394 180.54 432.411 179.13 430.583 180.614C412.028 195.66 367.445 240.718 378.557 319.458C392.497 418.25 368.665 454.297 339 476.286C339 476.286 379.74 465.946 405.372 429.368C468.303 339.558 426.035 220.381 434.896 182.662Z" fill="#1755AF"/>
<path d="M420.775 213.52C418.453 224.518 416.384 235.55 414.786 246.631C413.121 257.703 411.844 268.815 410.97 279.943C410.146 291.073 409.565 302.216 409.532 313.364C409.44 324.511 409.903 335.65 410.415 346.829C410.854 358.006 411.368 369.263 410.55 380.599C409.746 391.913 407.363 403.327 402.638 414.025C401.456 416.692 400.214 419.35 398.802 421.917C397.445 424.508 395.955 427.051 394.413 429.567C391.299 434.588 387.794 439.44 383.888 444.045C376.047 453.239 366.592 461.397 356.174 468.299C355.078 469.026 353.507 468.848 352.664 467.901C351.838 466.971 352.024 465.647 353.068 464.912L353.076 464.906C355.556 463.166 358.008 461.403 360.361 459.55C361.554 458.64 362.699 457.687 363.864 456.753C364.986 455.781 366.153 454.847 367.239 453.847C371.662 449.909 375.76 445.71 379.479 441.268C386.957 432.427 392.944 422.574 397.479 412.36C399.681 407.228 401.442 401.968 402.725 396.606C404.007 391.244 404.811 385.79 405.257 380.291C406.149 369.287 405.747 358.141 405.402 346.961C405.074 335.78 404.833 324.542 405.129 313.311C405.259 307.696 405.506 302.085 405.869 296.48C406.033 293.677 406.257 290.877 406.478 288.076C406.729 285.278 406.998 282.481 407.292 279.688C408.496 268.513 410.095 257.374 412.099 246.295C414.164 235.224 416.569 224.206 419.463 213.283C419.546 212.971 419.905 212.775 420.266 212.847C420.615 212.92 420.838 213.218 420.775 213.52Z" fill="white"/>
<path d="M49.6434 36.0057C50.7718 32.9941 55.1953 33.4981 55.6034 36.6872C59.5495 67.5195 72.4285 148.043 103.675 194.368C154.55 269.797 179.022 383.716 131.924 433.916C131.924 433.918 -73.2777 364.045 49.6434 36.0057Z" fill="url(#paint0_linear)"/>
<path opacity="0.43" d="M50.1488 79.2292C50.1488 79.2292 50.1427 79.5495 50.1325 80.1718C50.1468 80.7901 50.1468 81.6817 50.1876 82.8937C50.2447 85.3034 50.3977 88.8373 50.6181 93.3344C50.8609 97.8314 51.1731 103.289 51.6383 109.545C52.0688 115.803 52.6993 122.853 53.3645 130.543C54.0888 138.227 54.8948 146.552 55.9292 155.336C56.9107 164.126 58.1512 173.369 59.455 182.928C60.8262 192.477 62.2912 202.336 64.0255 212.316C64.456 214.811 64.8865 217.317 65.3191 219.828C65.7863 222.334 66.2556 224.848 66.7249 227.365C67.6309 232.409 68.6919 237.443 69.7039 242.485C70.7078 247.529 71.8892 252.536 72.944 257.549C74.0887 262.542 75.2497 267.51 76.427 272.434C77.0493 274.886 77.6696 277.33 78.2858 279.761C78.9122 282.189 79.4896 284.619 80.1711 287.004C80.8301 289.395 81.4831 291.772 82.1339 294.133C82.4584 295.312 82.7828 296.49 83.1052 297.661C83.45 298.826 83.7948 299.985 84.1376 301.14C84.8273 303.449 85.5108 305.739 86.1902 308.008C86.531 309.142 86.8697 310.268 87.2084 311.391C87.5695 312.505 87.9307 313.615 88.2877 314.716C88.9998 316.924 89.7038 319.107 90.3996 321.264C90.7505 322.341 91.081 323.419 91.4401 324.48C91.8095 325.537 92.1767 326.585 92.5399 327.628C93.2683 329.713 93.9865 331.77 94.6946 333.796C95.0476 334.81 95.4005 335.814 95.7494 336.812C96.1228 337.799 96.4942 338.779 96.8615 339.752C98.3591 343.629 99.7302 347.406 101.181 350.978C102.662 354.539 104.08 357.95 105.431 361.194C106.827 364.42 108.235 367.44 109.512 370.301C110.159 371.727 110.787 373.108 111.391 374.441C112.042 375.753 112.668 377.016 113.27 378.23C114.476 380.66 115.582 382.89 116.582 384.906C117.065 385.922 117.592 386.848 118.069 387.728C118.549 388.607 118.998 389.431 119.416 390.199C120.25 391.735 120.958 393.041 121.534 394.1C122.685 396.22 123.299 397.35 123.299 397.35L123.305 397.362C123.397 397.532 123.333 397.746 123.164 397.838C122.997 397.93 122.789 397.868 122.693 397.705C122.693 397.705 122.052 396.587 120.85 394.49C120.248 393.441 119.508 392.147 118.636 390.627C118.202 389.866 117.735 389.048 117.235 388.177C116.739 387.303 116.196 386.383 115.692 385.371C114.656 383.367 113.507 381.147 112.256 378.734C111.632 377.526 110.981 376.269 110.306 374.963C109.675 373.637 109.022 372.262 108.349 370.844C107.021 367.995 105.543 364.992 104.105 361.772C102.715 358.53 101.256 355.122 99.7323 351.566C98.2387 347.997 96.8227 344.223 95.2802 340.348C94.9006 339.377 94.517 338.397 94.1314 337.41C93.7723 336.412 93.4091 335.408 93.0439 334.394C92.3114 332.368 91.5707 330.311 90.8178 328.226C87.8368 319.877 84.9762 310.97 82.2258 301.699C81.8789 300.542 81.53 299.379 81.179 298.212C80.8526 297.039 80.522 295.859 80.1935 294.678C79.5345 292.313 78.8693 289.93 78.2001 287.534C77.5104 285.143 76.9187 282.711 76.2841 280.277C75.6557 277.841 75.0273 275.392 74.3947 272.933C73.195 268.002 72.0157 263.021 70.8506 258.018C70.3058 255.508 69.759 252.993 69.2122 250.477C68.6694 247.959 68.1124 245.441 67.6268 242.909C66.629 237.851 65.5803 232.801 64.6866 227.743C64.2234 225.217 63.7602 222.697 63.2991 220.183C62.8727 217.663 62.4483 215.152 62.0239 212.65C60.3161 202.644 58.8776 192.76 57.533 183.189C56.2741 173.605 55.1437 164.332 54.2296 155.519C53.2726 146.713 52.5422 138.368 51.8852 130.667C50.6507 115.254 50.0223 102.383 49.6897 93.3731C49.5408 88.8659 49.4449 85.3238 49.4265 82.9059C49.4041 81.7062 49.4184 80.7452 49.4163 80.1167C49.4367 79.4924 49.449 79.17 49.449 79.17C49.4551 78.9761 49.6183 78.8252 49.8101 78.8333C50.0019 78.8394 50.1508 78.9986 50.1468 79.1883L50.1488 79.2292Z" fill="white"/>
<path d="M345.843 158.273L152.501 162.655C141.835 162.897 133.228 171.455 132.926 182.119L125.006 462.754C124.77 471.1 131.492 477.983 139.841 477.946L361.528 476.952C369.373 476.916 375.663 470.454 375.485 462.61L369.094 180.494C368.809 167.938 358.4 157.99 345.843 158.273Z" fill="#00215B"/>
<path d="M345.269 159.191C318.947 163.369 228.406 176.5 153.21 172.439C149.78 172.254 146.869 174.915 146.763 178.347L138.178 460.247C138.061 464.112 141.084 467.347 144.948 467.488C176.562 468.641 306.746 472.918 353.011 467.009C355.826 466.65 357.916 464.225 357.869 461.386L352.909 165.608C352.841 161.59 349.238 158.561 345.269 159.191Z" fill="white"/>
<path d="M303.277 216.189C303.514 209.295 298.117 203.515 291.223 203.278C284.329 203.042 278.548 208.439 278.312 215.333C278.075 222.227 283.472 228.007 290.366 228.244C297.26 228.48 303.041 223.084 303.277 216.189Z" fill="#93A3C3"/>
<path d="M310.589 251.989L270.804 252.891C268.366 252.945 266.843 250.286 268.109 248.201C271.37 242.836 278.264 234.908 290.517 234.98C302.326 235.052 309.48 241.909 313.111 246.863C314.652 248.964 313.195 251.929 310.589 251.989Z" fill="#93A3C3"/>
<g opacity="0.6">
<path opacity="0.6" d="M167.703 202.823C166.584 202.848 165.671 201.991 165.679 200.919C165.686 199.846 166.607 198.931 167.727 198.887L237.887 196.046C239.007 196 239.639 196.835 239.29 197.9L238.836 199.289C238.488 200.354 237.286 201.246 236.166 201.272L167.703 202.823Z" fill="#00215B"/>
</g>
<g opacity="0.6">
<path opacity="0.6" d="M238.133 206.875C239.253 206.829 239.885 207.664 239.536 208.729L239.083 210.117C238.734 211.182 237.533 212.075 236.413 212.1L167.951 213.652C166.831 213.677 165.919 212.82 165.927 211.747C165.934 210.675 166.855 209.76 167.975 209.715L238.133 206.875Z" fill="#00215B"/>
</g>
<g opacity="0.6">
<path opacity="0.6" d="M238.383 217.863C239.503 217.817 240.135 218.652 239.786 219.717L239.332 221.105C238.984 222.17 237.782 223.063 236.662 223.089L168.201 224.64C167.081 224.665 166.169 223.808 166.176 222.736C166.184 221.663 167.105 220.748 168.225 220.704L238.383 217.863Z" fill="#00215B"/>
</g>
<path d="M192.727 228.52C187.34 228.229 177.263 228.266 171.717 228.315C169.368 228.336 167.343 229.973 166.843 232.27C165.873 236.73 164.572 244.465 164.943 252.622C165.055 255.065 167.1 256.971 169.544 256.89L189.998 256.206C192.514 256.121 194.559 254.152 194.735 251.641L196.099 232.353C196.241 230.358 194.725 228.628 192.727 228.52Z" fill="#93A3C3"/>
<g opacity="0.6">
<path opacity="0.6" d="M205.465 238.026C204.345 238.051 203.421 237.196 203.412 236.123C203.403 235.051 204.311 234.119 205.431 234.054L238.037 232.138C239.155 232.073 239.934 232.925 239.768 234.033L239.585 235.245C239.418 236.353 238.365 237.28 237.245 237.307L205.465 238.026Z" fill="#00215B"/>
</g>
<g opacity="0.6">
<path opacity="0.6" d="M238.406 244.89C239.526 244.865 240.274 245.746 240.066 246.848L239.839 248.052C239.632 249.154 238.544 250.041 237.425 250.027L205.642 249.585C204.52 249.568 203.629 248.68 203.66 247.607C203.691 246.535 204.632 245.639 205.753 245.614L238.406 244.89Z" fill="#00215B"/>
</g>
<g opacity="0.6">
<path opacity="0.6" d="M162.627 277.778C161.507 277.804 160.627 276.946 160.675 275.872C160.721 274.799 161.676 273.892 162.796 273.858L326.584 268.855C327.704 268.821 328.066 269.523 327.388 270.416L325.815 272.486C325.137 273.379 323.665 274.13 322.544 274.155L162.627 277.778Z" fill="#00215B"/>
</g>
<g opacity="0.6">
<path opacity="0.6" d="M326.829 279.685C327.949 279.651 328.311 280.353 327.633 281.246L326.059 283.316C325.381 284.209 323.91 284.96 322.789 284.985L162.869 288.608C161.75 288.634 160.87 287.776 160.917 286.702C160.963 285.629 161.919 284.722 163.039 284.688L326.829 279.685Z" fill="#00215B"/>
</g>
<path d="M327.748 297.757C323.813 297.545 316.454 297.572 312.404 297.607C310.688 297.622 309.209 298.819 308.844 300.495C308.136 303.752 307.186 309.402 307.456 315.359C307.537 317.143 309.031 318.534 310.817 318.475L325.754 317.975C327.59 317.914 329.086 316.474 329.215 314.641L330.21 300.554C330.314 299.098 329.207 297.836 327.748 297.757Z" fill="#93A3C3"/>
<g opacity="0.6">
<path opacity="0.6" d="M300.475 304.14C301.594 304.067 302.393 304.919 302.252 306.03L301.887 308.9C301.746 310.012 300.714 310.942 299.593 310.967L262.847 311.799C261.727 311.825 260.8 310.929 260.79 309.808L260.78 308.738C260.768 307.617 261.674 306.641 262.792 306.57L300.475 304.14Z" fill="#00215B"/>
</g>
<path d="M246.347 299.601C242.412 299.389 235.054 299.416 231.003 299.452C229.287 299.466 227.808 300.663 227.443 302.339C226.736 305.597 225.785 311.246 226.055 317.203C226.137 318.987 227.63 320.378 229.416 320.319L244.354 319.819C246.192 319.758 247.685 318.318 247.814 316.485L248.809 302.399C248.913 300.944 247.807 299.68 246.347 299.601Z" fill="#93A3C3"/>
<g opacity="0.6">
<path opacity="0.6" d="M219.075 305.985C220.193 305.912 220.993 306.763 220.852 307.874L220.487 310.744C220.346 311.857 219.314 312.787 218.193 312.812L181.447 313.644C180.327 313.669 179.4 312.774 179.39 311.652L179.379 310.583C179.368 309.461 180.274 308.486 181.392 308.414L219.075 305.985Z" fill="#00215B"/>
</g>
<g opacity="0.6">
<path opacity="0.6" d="M173.02 349.939C171.9 349.964 171.019 349.107 171.063 348.033C171.108 346.959 172.06 346.053 173.181 346.018L332.27 341.122C333.39 341.088 333.762 341.797 333.096 342.699L331.594 344.732C330.928 345.634 329.467 346.392 328.347 346.417L173.02 349.939Z" fill="#00215B"/>
</g>
<g opacity="0.6">
<path opacity="0.6" d="M332.516 351.952C333.636 351.918 334.008 352.627 333.342 353.529L331.84 355.563C331.174 356.464 329.713 357.222 328.593 357.248L173.266 360.767C172.146 360.792 171.265 359.935 171.309 358.861C171.354 357.787 172.306 356.881 173.428 356.847L332.516 351.952Z" fill="#00215B"/>
</g>
<g opacity="0.6">
<path opacity="0.6" d="M332.765 362.94C333.885 362.906 334.257 363.615 333.591 364.516L332.09 366.55C331.424 367.452 329.963 368.21 328.843 368.235L173.516 371.754C172.396 371.78 171.515 370.922 171.56 369.849C171.604 368.775 172.557 367.868 173.678 367.834L332.765 362.94Z" fill="#00215B"/>
</g>
<path d="M236.545 150.058L258.437 147.614L259.825 127.451C260.104 123.394 257.492 119.686 253.566 118.624C249.263 117.459 243.188 117.501 236.315 122.517C222.834 132.356 236.545 150.058 236.545 150.058ZM240.735 133.186C240.667 130.165 243.061 127.661 246.08 127.593C249.102 127.525 251.605 129.919 251.674 132.939C251.742 135.96 249.348 138.464 246.328 138.532C243.308 138.6 240.803 136.208 240.735 133.186Z" fill="#00215B"/>
<path d="M256.006 139.198C255.714 139.177 255.494 138.925 255.514 138.633L255.735 135.421C255.754 135.129 256.002 134.908 256.3 134.929C256.592 134.95 256.812 135.202 256.792 135.494L256.571 138.705C256.552 138.981 256.327 139.192 256.055 139.199C256.039 139.199 256.022 139.199 256.006 139.198ZM256.439 132.906C256.147 132.885 255.928 132.633 255.947 132.341L256.114 129.902C256.346 126.54 254.165 123.464 250.931 122.588C248.464 121.921 245.936 121.875 243.418 122.451C243.13 122.514 242.848 122.338 242.785 122.053C242.719 121.768 242.897 121.483 243.182 121.418C245.871 120.803 248.571 120.852 251.208 121.567C254.929 122.574 257.437 126.11 257.172 129.975L257.004 132.413C256.985 132.689 256.76 132.9 256.488 132.907C256.472 132.907 256.456 132.907 256.439 132.906Z" fill="#91B3FA"/>
<path d="M288.673 159.939L288.443 149.822C288.365 146.329 285.406 143.599 281.918 143.797L212.223 147.768C209.13 147.944 206.679 150.444 206.563 153.541L206.199 163.275L288.673 159.939Z" fill="#00215B"/>
<path d="M262.381 148.054L265.38 147.985C265.672 147.979 265.904 147.736 265.898 147.444C265.892 147.152 265.649 146.92 265.356 146.926L262.357 146.995C262.065 147.001 261.834 147.244 261.84 147.536C261.847 147.83 262.089 148.061 262.381 148.054Z" fill="#91B3FA"/>
<path d="M284.825 156.848C285.118 156.842 285.349 156.599 285.343 156.307L285.25 152.215C285.178 149.052 282.547 146.538 279.385 146.609L268.357 146.859C268.065 146.865 267.834 147.108 267.839 147.4C267.845 147.692 268.089 147.924 268.381 147.918L279.409 147.668C281.987 147.611 284.133 149.66 284.191 152.238L284.284 156.33C284.29 156.624 284.533 156.856 284.825 156.848Z" fill="#91B3FA"/>
<path d="M310.444 155.741L188.472 158.502C184.086 158.601 180.408 161.842 179.758 166.18L179.667 166.78C178.956 171.532 182.698 175.778 187.502 175.67L312.638 172.836C315.512 172.77 317.749 170.314 317.546 167.447L317.15 161.852C316.904 158.35 313.952 155.663 310.444 155.741Z" fill="#00215B"/>
<path d="M11.7487 428.846C9.79603 431.735 2.0344 497.169 0.818325 521.335C0.73671 522.969 2.04256 524.332 3.67895 524.332C5.0909 524.332 6.29065 523.304 6.50897 521.91L20.706 430.929L11.7487 428.846Z" fill="#91B3FA"/>
<path d="M74.1565 428.846C76.1092 431.735 83.8708 497.169 85.0869 521.335C85.1685 522.969 83.8626 524.332 82.2263 524.332C80.8143 524.332 79.6146 523.304 79.3962 521.91L65.1992 430.929L74.1565 428.846Z" fill="#91B3FA"/>
<path d="M0.0064913 423.739L0.000370132 424.453C-0.0465588 429.587 4.37496 433.796 9.91258 433.892L75.5355 435.008C80.9936 435.1 85.5416 431.158 85.8069 426.104L85.8415 425.451C86.117 420.18 81.6424 415.741 75.9497 415.639L10.2982 414.461C4.68102 414.359 0.0554606 418.53 0.0064913 423.739Z" fill="#91B3FA"/>
<path d="M111.148 510.829C100.726 510.829 96.1145 509.935 94.0516 509.119C94.4516 510.831 95.9778 512.182 97.9039 512.182H134.776C136.018 512.182 136.802 510.992 136.504 509.917C132.301 510.256 123.374 510.829 111.148 510.829Z" fill="url(#paint1_linear)"/>
<path d="M136.504 509.917C136.445 509.7 136.358 509.486 136.202 509.288C133.393 505.703 127.751 500.07 120.077 500.178C108.835 500.337 104.913 501.555 96.1762 500.247L94.1154 507.078C93.9052 507.774 93.9011 508.47 94.0521 509.117C96.1129 509.933 100.726 510.827 111.149 510.827C123.375 510.829 132.301 510.255 136.504 509.917Z" fill="url(#paint2_linear)"/>
<path d="M98.7065 492.886L96.1764 501.49C96.1764 501.49 101.781 504.043 106.711 501.994L107.678 494.538L98.7065 492.886Z" fill="url(#paint3_linear)"/>
<path d="M175.127 505.41C167.002 511.937 162.85 514.132 160.734 514.791C162.113 515.869 164.143 515.963 165.645 514.755L194.388 491.66C195.355 490.882 195.227 489.468 194.325 488.819C191.26 491.715 184.658 497.752 175.127 505.41Z" fill="url(#paint4_linear)"/>
<path d="M194.325 488.82C194.143 488.689 193.941 488.579 193.698 488.522C189.273 487.499 181.364 486.663 175.449 491.554C166.784 498.72 164.488 502.121 156.861 506.577L159.514 513.17C159.785 513.841 160.216 514.384 160.736 514.79C162.852 514.131 167.004 511.935 175.129 505.408C184.658 497.752 191.26 491.715 194.325 488.82Z" fill="url(#paint5_linear)"/>
<path d="M44.5806 394.846C44.5806 394.846 106.982 399.941 119.781 405.968C132.583 411.993 109.334 496.453 109.334 496.453C109.334 496.453 105.849 498.13 98.0959 495.72C98.0959 495.72 106.047 433.393 100.13 419.879L32.5668 408.828L44.5806 394.846Z" fill="#00215B"/>
<path d="M150.661 494.716C151.24 495.244 156.861 506.581 156.861 506.581C156.861 506.581 163.119 505.226 164.394 501.268L158.765 491.037L150.661 494.716Z" fill="url(#paint6_linear)"/>
<path d="M6.99926 394.324C6.99926 394.324 4.965 399.217 5.04865 405.72C5.16292 414.712 12.392 422.008 21.3738 422.457L95.142 425.822C96.7009 425.893 98.0169 426.97 98.4087 428.48C100.143 435.185 108.615 455.775 150.033 496.862C151.134 497.955 152.85 498.141 154.164 497.313L160.061 493.589C160.679 493.197 160.877 492.387 160.508 491.755L117.556 418.409C115.299 414.685 111.673 411.996 107.456 410.919L44.5832 394.847L6.99926 394.324Z" fill="#00215B"/>
<path d="M6.7992 394.108C6.7992 394.108 6.06874 357.546 13.3774 323.137C16.0768 310.432 23.0999 299.055 33.3038 291.015L36.7174 288.326L53.8138 295.272L62.5997 310.452C67.4355 320.126 66.2479 341.133 62.5997 351.313C56.499 368.336 51.6204 385.977 49.5392 394.641C49.5392 394.641 21.2247 398.381 6.7992 394.108Z" fill="#FFE000"/>
<path d="M48.4702 261.08L35.1138 292.067C35.1138 292.067 39.3884 301.683 54.3465 297.943L59.6882 276.574L48.4702 261.08Z" fill="url(#paint7_linear)"/>
<path d="M74.9403 246.948C75.1015 247.381 75.4545 277.909 75.4545 277.909L58.0193 277.74L53.3856 248.856C53.3856 248.856 72.2449 239.703 74.9403 246.948Z" fill="url(#paint8_linear)"/>
<path d="M58.4984 254.409L59.7471 269.806C59.7634 270.004 59.8042 270.193 59.8736 270.379C60.2939 271.516 62.0303 275.321 65.8152 273.307C69.2492 271.479 72.4118 269.863 74.8807 270.071C75.9906 270.165 76.8456 271.083 76.8578 272.195C76.8884 274.968 76.8435 281.22 75.9763 286.645C75.8009 287.747 74.8031 288.52 73.6911 288.441C70.3408 288.204 63.2851 287.504 57.7434 285.613C56.9926 285.356 56.4396 284.719 56.305 283.937C55.648 280.124 53.6076 268.543 52.5384 265.405C51.5366 262.458 47.4354 261.45 45.6848 261.148C45.1114 261.05 44.6054 260.724 44.281 260.24C43.1302 258.533 41.1673 254.427 46.2357 251.475C47.2967 250.857 47.6313 249.496 46.9824 248.455C45.6888 246.382 44.6074 243.024 48.4168 240.22C52.2895 237.372 55.9846 238.965 58.1168 240.449C58.9779 241.049 60.1246 240.92 60.8734 240.185C61.2998 239.767 61.914 239.526 62.7852 239.839C63.9605 240.261 65.2378 239.524 65.5336 238.31C66.105 235.98 67.7087 233.271 72.0629 233.083C79.7878 232.748 82.4158 240.82 81.4956 246.082C80.5754 251.344 72.1812 251.23 67.6414 249.659C64.1911 248.463 60.653 251.263 59.1574 252.673C58.6861 253.121 58.4453 253.76 58.4984 254.409Z" fill="url(#paint9_linear)"/>
<path d="M53.0507 271.007C53.0507 271.007 54.2586 261.77 50.6593 260.35C47.0601 258.93 42.6365 261.028 45.0034 267.018C47.9517 274.468 53.0507 271.007 53.0507 271.007Z" fill="url(#paint10_linear)"/>
<path d="M89.6228 364.741C45.5933 378.563 47.9357 316.592 47.65 316.155C30.1945 289.483 20.3945 325.027 22.086 330.038C37.5685 386.088 76.595 383.313 91.804 372.303C89.9085 369.356 89.4759 366.765 89.6228 364.741Z" fill="#FFE000"/>
<path d="M115.54 351.801C115.54 351.801 114.825 352.943 109.669 356.936C104.513 360.932 99.3246 363.235 103.265 357.746C107.207 352.258 105.289 349.424 100.79 355.337C96.2925 361.25 93.0769 363.535 93.0769 363.535C91.8935 363.988 90.7427 364.388 89.6205 364.741C89.4736 366.765 89.9061 369.356 91.7996 372.303C93.5829 371.713 94.5909 371.276 94.5909 371.276C94.5909 371.276 108.227 368.795 111.147 362.988C114.068 357.183 115.54 351.801 115.54 351.801Z" fill="url(#paint11_linear)"/>
<defs>
<linearGradient id="paint0_linear" x1="10.4122" y1="233.959" x2="157.099" y2="233.959" gradientUnits="userSpaceOnUse">
<stop stop-color="#DAE3FE"/>
<stop offset="1" stop-color="#E9EFFD"/>
</linearGradient>
<linearGradient id="paint1_linear" x1="94.0516" y1="510.65" x2="136.567" y2="510.65" gradientUnits="userSpaceOnUse">
<stop stop-color="#4F52FF"/>
<stop offset="1" stop-color="#4042E2"/>
</linearGradient>
<linearGradient id="paint2_linear" x1="126.808" y1="428.898" x2="115.192" y2="509.156" gradientUnits="userSpaceOnUse">
<stop stop-color="#09005D"/>
<stop offset="1" stop-color="#1A0F91"/>
</linearGradient>
<linearGradient id="paint3_linear" x1="96.1761" y1="497.838" x2="107.679" y2="497.838" gradientUnits="userSpaceOnUse">
<stop stop-color="#FEBBBA"/>
<stop offset="1" stop-color="#FF928E"/>
</linearGradient>
<linearGradient id="paint4_linear" x1="160.735" y1="502.225" x2="195.061" y2="502.225" gradientUnits="userSpaceOnUse">
<stop stop-color="#4F52FF"/>
<stop offset="1" stop-color="#4042E2"/>
</linearGradient>
<linearGradient id="paint5_linear" x1="184.346" y1="437.227" x2="172.73" y2="517.485" gradientUnits="userSpaceOnUse">
<stop stop-color="#09005D"/>
<stop offset="1" stop-color="#1A0F91"/>
</linearGradient>
<linearGradient id="paint6_linear" x1="150.661" y1="498.806" x2="164.394" y2="498.806" gradientUnits="userSpaceOnUse">
<stop stop-color="#FEBBBA"/>
<stop offset="1" stop-color="#FF928E"/>
</linearGradient>
<linearGradient id="paint7_linear" x1="35.1146" y1="279.943" x2="59.6901" y2="279.943" gradientUnits="userSpaceOnUse">
<stop stop-color="#FEBBBA"/>
<stop offset="1" stop-color="#FF928E"/>
</linearGradient>
<linearGradient id="paint8_linear" x1="68.5684" y1="249.535" x2="51.8997" y2="305.175" gradientUnits="userSpaceOnUse">
<stop stop-color="#FEBBBA"/>
<stop offset="1" stop-color="#FF928E"/>
</linearGradient>
<linearGradient id="paint9_linear" x1="47.3957" y1="269.337" x2="86.607" y2="254.748" gradientUnits="userSpaceOnUse">
<stop stop-color="#09005D"/>
<stop offset="1" stop-color="#1A0F91"/>
</linearGradient>
<linearGradient id="paint10_linear" x1="33.2861" y1="301.812" x2="49.5647" y2="265.002" gradientUnits="userSpaceOnUse">
<stop stop-color="#FEBBBA"/>
<stop offset="1" stop-color="#FF928E"/>
</linearGradient>
<linearGradient id="paint11_linear" x1="157.665" y1="215.367" x2="115.621" y2="324.681" gradientUnits="userSpaceOnUse">
<stop stop-color="#FEBBBA"/>
<stop offset="1" stop-color="#FF928E"/>
</linearGradient>
</defs>
</svg>
