<svg width="448" height="527" viewBox="0 0 448 527" fill="none" xmlns="http://www.w3.org/2000/svg">
<path d="M132.04 424.889L134.847 422.045C133.969 416.904 129.359 414.43 126.324 414.092C118.153 413.185 113.986 419.064 112.235 428.496C109.036 445.711 113.063 518 113.063 518C113.364 516.08 135.559 443.485 134.989 423.54L132.04 424.889Z" fill="#96D9C9"/>
<path d="M23.8045 487.101L23.4897 489.47L22.734 486.729C20.6102 486.048 18.767 485.816 17.3072 486.153C4.24671 489.168 26.8156 507.409 26.8156 507.409C26.8156 507.409 19.6228 502.825 12.6589 499.921L12.5702 502.325L11.68 499.61C6.26746 497.459 1.24706 496.464 0.242405 499.569C-0.702141 502.494 1.1984 505.264 4.46996 507.729L8.23097 507.863L6.01558 508.808C13.5691 513.724 26.0657 517.238 30.3791 518.038C26.2518 517.381 16.1652 516.046 10.1859 517.357L11.1247 518.942L8.76335 517.744C6.67104 518.43 5.37158 519.564 5.51183 521.352C5.77802 524.767 20.3755 526 20.3755 526L73.7023 525.497L74 525.648C73.9943 525.642 40.9953 493.496 23.8045 487.101Z" fill="#3C8F7C"/>
<path d="M208.93 517.036C207.738 511.571 195.625 509.966 180.189 512.96C185.686 511.108 193.238 506.89 197.148 504.961L194.473 503.282L199.846 503.529C204.24 500.993 206.436 498.499 205.003 496.243C203.932 494.559 201.579 493.857 198.389 493.866L196.71 496.831L197.059 493.908C189.017 494.366 187.192 493.071 176.346 497.397C183.123 493.926 184.105 492.849 184.548 491.454L180.877 489.869H185.179C188.657 486.179 194.174 478.876 191.885 475.51C189.996 472.732 181.707 476.587 176.415 478.589L174.166 483.589L174.621 479.319C157.797 486.549 163.498 480.748 163.498 480.748C163.498 480.748 181.062 444.903 170.714 445.71C166.628 446.028 162.237 448.457 157.924 452.348L157.815 455.91L156.531 453.649C153.389 456.689 150.277 460.367 147.308 464.318C151.336 455.973 154.388 447.778 154.694 441.676L151.619 441.31L154.653 439.228C154.368 436.146 153.13 433.814 150.622 432.581C146.776 430.689 142.739 433.55 138.763 439.236L139.745 444.366L137.28 441.492C123.048 464.375 110.034 520.715 110.034 520.715L109 523.771L150.812 525.808C150.812 525.808 211.34 528.075 208.93 517.036Z" fill="#50BFA5"/>
<path d="M294.597 163.57H274.597V164.69H294.597V163.57Z" fill="#FFCA00"/>
<path d="M285.657 159.92H283.547V167.86H285.657V159.92Z" fill="#E54332"/>
<path d="M284.597 136.55C283.937 136.55 283.407 137.08 283.407 137.74V142.38H285.777V137.74C285.787 137.08 285.257 136.55 284.597 136.55Z" fill="#E54332"/>
<path d="M273.957 183.36L274.377 183.46L275.237 180.55L274.417 180.36L273.957 183.36Z" fill="#09455F"/>
<path d="M273.687 180.82L275.707 181.27L276.617 178.37L274.087 177.81L273.687 180.82Z" fill="#E54332"/>
<path d="M273.977 178.31L276.467 178.86L284.697 148.88L281.297 148.13L273.977 178.31Z" fill="#E54332"/>
<path d="M275.667 176.05C274.717 175.84 273.787 176.44 273.577 177.38C273.367 178.33 273.967 179.26 274.907 179.47C275.857 179.68 276.787 179.08 276.997 178.14C277.217 177.2 276.617 176.26 275.667 176.05Z" fill="#FFCA00"/>
<path d="M275.477 176.91C275.007 176.81 274.537 177.1 274.437 177.57C274.337 178.04 274.627 178.51 275.097 178.61C275.567 178.71 276.037 178.42 276.137 177.95C276.247 177.48 275.947 177.02 275.477 176.91Z" fill="#EBFFF5"/>
<path d="M293.327 180.55L294.177 183.46L294.607 183.36L294.147 180.36L293.327 180.55Z" fill="#09455F"/>
<path d="M292.587 178.37L293.497 181.27L295.517 180.82L295.117 177.81L292.587 178.37Z" fill="#E54332"/>
<path d="M284.507 148.88L292.737 178.86L295.227 178.31L287.907 148.13L284.507 148.88Z" fill="#E54332"/>
<path d="M293.527 176.05C292.577 176.26 291.987 177.2 292.197 178.14C292.407 179.09 293.347 179.68 294.287 179.47C295.237 179.26 295.827 178.32 295.617 177.38C295.417 176.44 294.477 175.84 293.527 176.05Z" fill="#FFCA00"/>
<path d="M293.727 176.91C293.257 177.01 292.957 177.48 293.067 177.95C293.167 178.42 293.637 178.72 294.107 178.61C294.577 178.51 294.877 178.04 294.767 177.57C294.657 177.1 294.197 176.81 293.727 176.91Z" fill="#EBFFF5"/>
<path d="M281.077 146.84L281.687 150.44C281.717 150.83 282.057 151.14 282.447 151.14H286.757C287.147 151.14 287.487 150.82 287.517 150.44L288.127 146.84V140.74H281.077V146.84Z" fill="#FFCA00"/>
<path d="M274.513 171.084L273.895 173.733L274.655 173.91L275.272 171.261L274.513 171.084Z" fill="#E54332"/>
<path d="M274.607 172.126L274.44 172.827L276.697 173.365L276.864 172.665L274.607 172.126Z" fill="#E54332"/>
<path d="M210.561 457.475L197.601 463.256L197.925 463.982L210.885 458.201L210.561 457.475Z" fill="#FFCA00"/>
<path d="M203.713 457.694L202.346 458.304L204.641 463.449L206.008 462.839L203.713 457.694Z" fill="#E54332"/>
<path d="M196.271 442.856C195.843 443.047 195.653 443.544 195.844 443.971L197.185 446.978L198.721 446.293L197.38 443.286C197.195 442.856 196.699 442.665 196.271 442.856Z" fill="#E54332"/>
<path d="M202.907 476.265L203.208 476.209L202.924 474.074L202.338 474.188L202.907 476.265Z" fill="#09455F"/>
<path d="M201.998 474.697L203.437 474.405L203.188 472.263L201.387 472.631L201.998 474.697Z" fill="#E54332"/>
<path d="M201.46 472.987L203.233 472.624L199.9 450.817L197.48 451.314L201.46 472.987Z" fill="#E54332"/>
<path d="M201.902 471.034C201.226 471.172 200.796 471.83 200.932 472.5C201.07 473.176 201.728 473.606 202.398 473.47C203.074 473.331 203.503 472.674 203.368 472.004C203.239 471.331 202.578 470.895 201.902 471.034Z" fill="#FFCA00"/>
<path d="M202.027 471.646C201.694 471.717 201.473 472.041 201.544 472.375C201.615 472.708 201.939 472.929 202.272 472.858C202.606 472.787 202.827 472.463 202.756 472.13C202.691 471.793 202.364 471.582 202.027 471.646Z" fill="#EBFFF5"/>
<path d="M214.647 468.845L216.039 470.485L216.288 470.296L215.123 468.485L214.647 468.845Z" fill="#09455F"/>
<path d="M213.537 467.647L214.965 469.263L216.144 468.387L215.015 466.552L213.537 467.647Z" fill="#E54332"/>
<path d="M199.777 450.872L213.776 467.921L215.23 466.845L201.763 449.403L199.777 450.872Z" fill="#E54332"/>
<path d="M213.475 465.872C212.921 466.282 212.81 467.062 213.218 467.61C213.628 468.165 214.408 468.276 214.957 467.868C215.511 467.458 215.622 466.678 215.214 466.129C214.813 465.578 214.03 465.461 213.475 465.872Z" fill="#FFCA00"/>
<path d="M213.854 466.371C213.578 466.572 213.519 466.963 213.727 467.236C213.927 467.511 214.318 467.57 214.591 467.363C214.867 467.162 214.925 466.771 214.718 466.498C214.511 466.225 214.129 466.17 213.854 466.371Z" fill="#EBFFF5"/>
<path d="M196.964 450.542L198.4 452.698C198.532 452.942 198.842 453.045 199.095 452.932L201.888 451.686C202.141 451.574 202.269 451.268 202.178 451.013L201.533 448.504L199.77 444.551L195.201 446.589L196.964 450.542Z" fill="#FFCA00"/>
<path d="M199.718 468.15L200.084 470.045L200.628 469.941L200.262 468.045L199.718 468.15Z" fill="#E54332"/>
<path d="M200.081 468.798L200.175 469.3L201.793 468.996L201.699 468.494L200.081 468.798Z" fill="#E54332"/>
<g clip-path="url(#clip0)">
<path d="M117.42 85.71L115.7 97.14H130.56L128.84 85.71H117.42Z" fill="#E54332"/>
<path d="M158.801 81.0742L157.281 83.1348L161.982 86.6008L163.501 84.5403L158.801 81.0742Z" fill="#09455F"/>
<path d="M161.199 84.5826L159.869 89.3818L161.497 89.8334L162.828 85.0342L161.199 84.5826Z" fill="#09455F"/>
<path d="M159.87 89.38L165.07 92.37L165.59 91.66L160.82 87.98L159.87 89.38Z" fill="#09455F"/>
<path d="M165.571 81.6496L161.38 84.3398L162.293 85.7621L166.484 83.072L165.571 81.6496Z" fill="#09455F"/>
<path d="M164.51 82.9704L169.44 86.4504L170.02 85.6604L165.57 81.6504L164.51 82.9704Z" fill="#09455F"/>
<path d="M138.83 72.8999L156.36 85.7599L161.14 79.3499L143.6 66.4199L138.83 72.8999Z" fill="#E54332"/>
<path d="M120.32 80.4499L126.23 88.0899L145.25 72.6699L140.65 66.4199L120.32 80.4499Z" fill="#E54332"/>
<path d="M142.86 66.0401C140.23 65.7001 137.83 67.5601 137.49 70.1901C137.15 72.8201 139.01 75.2201 141.64 75.5601C144.27 75.9001 146.67 74.0401 147.01 71.4101C147.34 68.7801 145.48 66.3801 142.86 66.0401Z" fill="#FFCA00"/>
<path d="M142.49 68.93C141.46 68.8 140.52 69.53 140.39 70.55C140.26 71.58 140.99 72.52 142.01 72.65C143.04 72.78 143.98 72.05 144.11 71.03C144.24 70.01 143.51 69.06 142.49 68.93Z" fill="#09455F"/>
<path d="M123.34 78.9102C120.05 78.9102 117.38 81.5802 117.38 84.8702C117.38 88.1602 120.05 90.8302 123.34 90.8302C126.63 90.8302 129.3 88.1602 129.3 84.8702C129.3 81.5802 126.63 78.9102 123.34 78.9102Z" fill="#FFCA00"/>
<path d="M123.34 82.8301C122.21 82.8301 121.3 83.7401 121.3 84.8701C121.3 86.0001 122.21 86.9101 123.34 86.9101C124.47 86.9101 125.38 86.0001 125.38 84.8701C125.38 83.7401 124.47 82.8301 123.34 82.8301Z" fill="#09455F"/>
<path d="M136.6 97.1401H115.3C113.38 97.1401 111.82 98.7001 111.82 100.62V109.71C111.82 111.63 113.38 113.19 115.3 113.19H136.6C138.52 113.19 140.08 111.63 140.08 109.71V100.62C140.08 98.7001 138.52 97.1401 136.6 97.1401Z" fill="#FFCA00"/>
<path d="M142.89 110.36H109V113.2H142.89V110.36Z" fill="#09455F"/>
<path d="M156.58 80.9599C155.27 82.7399 155.12 84.8599 156.26 85.6899C157.4 86.5199 159.38 85.7599 160.69 83.9799C162 82.1999 162.15 80.0799 161.01 79.2499C159.87 78.4099 157.89 79.1799 156.58 80.9599Z" fill="#E54332"/>
<path d="M116.26 99.0298C115.74 99.0298 115.31 99.4498 115.31 99.9798V100.78C115.31 101.3 115.73 101.73 116.26 101.73C116.78 101.73 117.21 101.31 117.21 100.78V99.9798C117.2 99.4498 116.78 99.0298 116.26 99.0298Z" fill="#E54332"/>
<path d="M119.22 99.0298C118.7 99.0298 118.27 99.4498 118.27 99.9798V100.78C118.27 101.3 118.69 101.73 119.22 101.73C119.75 101.73 120.17 101.31 120.17 100.78V99.9798C120.17 99.4498 119.75 99.0298 119.22 99.0298Z" fill="#E54332"/>
<path d="M122.19 99.0298C121.67 99.0298 121.24 99.4498 121.24 99.9798V100.78C121.24 101.3 121.66 101.73 122.19 101.73C122.71 101.73 123.14 101.31 123.14 100.78V99.9798C123.14 99.4498 122.71 99.0298 122.19 99.0298Z" fill="#E54332"/>
<path d="M167.17 85.5698C165.38 85.5698 163.94 86.9998 163.94 88.7598C163.94 90.5198 165.39 91.9498 167.17 91.9498C168.96 91.9498 170.4 90.5198 170.4 88.7598C170.4 86.9998 168.95 85.5698 167.17 85.5698Z" fill="#FFCA00"/>
</g>
<g clip-path="url(#clip1)">
<path d="M292.107 380.054L295.436 388.391L305.048 382.841L299.494 375.789L292.107 380.054Z" fill="#E54332"/>
<path d="M317.072 361.481L316.89 363.435L321.278 364.013L321.46 362.058L317.072 361.481Z" fill="#09455F"/>
<path d="M319.987 362.946L320.992 366.674L322.221 366.37L321.216 362.642L319.987 362.946Z" fill="#09455F"/>
<path d="M320.992 366.672L325.518 366.743L325.578 366.071L321.062 365.375L320.992 366.672Z" fill="#09455F"/>
<path d="M321.675 359.339L320.009 362.715L321.152 363.331L322.818 359.955L321.675 359.339Z" fill="#09455F"/>
<path d="M321.502 360.624L326.043 361.125L326.111 360.377L321.674 359.339L321.502 360.624Z" fill="#09455F"/>
<path d="M300.977 363.436L317.315 365.546L317.915 359.446L301.544 357.292L300.977 363.436Z" fill="#E54332"/>
<path d="M291.938 375.43L298.731 378.366L305.041 360.883L299.636 358.393L291.938 375.43Z" fill="#E54332"/>
<path d="M300.918 357.312C299.085 358.066 298.255 360.214 299.057 362.111C299.859 364.009 301.995 364.93 303.829 364.176C305.662 363.423 306.492 361.275 305.689 359.377C304.881 357.484 302.745 356.563 300.918 357.312Z" fill="#FFCA00"/>
<path d="M301.802 359.396C301.085 359.693 300.761 360.536 301.073 361.271C301.389 362.013 302.227 362.373 302.937 362.079C303.654 361.782 303.978 360.94 303.666 360.205C303.354 359.469 302.512 359.103 301.802 359.396Z" fill="#09455F"/>
<path d="M293.293 373.266C291.165 374.495 290.476 377.289 291.754 379.504C293.033 381.718 295.798 382.519 297.926 381.29C300.054 380.061 300.744 377.267 299.465 375.052C298.186 372.837 295.421 372.037 293.293 373.266Z" fill="#FFCA00"/>
<path d="M294.817 375.905C294.086 376.327 293.851 377.279 294.29 378.04C294.729 378.8 295.672 379.073 296.403 378.651C297.134 378.229 297.369 377.277 296.929 376.516C296.49 375.755 295.548 375.483 294.817 375.905Z" fill="#09455F"/>
<path d="M308.956 380.585L295.178 388.54C293.936 389.257 293.533 390.89 294.279 392.182L297.812 398.302C298.558 399.594 300.174 400.062 301.416 399.345L315.194 391.39C316.436 390.673 316.838 389.04 316.092 387.748L312.559 381.628C311.813 380.336 310.198 379.868 308.956 380.585Z" fill="#FFCA00"/>
<path d="M318.163 387.136L296.241 399.792L297.345 401.704L319.266 389.048L318.163 387.136Z" fill="#09455F"/>
<path d="M315.592 362.232C315.436 363.92 316.163 365.403 317.223 365.536C318.283 365.669 319.268 364.418 319.424 362.73C319.58 361.043 318.853 359.56 317.793 359.427C316.729 359.287 315.747 360.545 315.592 362.232Z" fill="#E54332"/>
<path d="M296.534 389.455C296.197 389.649 296.082 390.092 296.288 390.449L296.599 390.988C296.801 391.338 297.24 391.47 297.583 391.272C297.919 391.078 298.034 390.635 297.828 390.278L297.517 389.74C297.305 389.386 296.87 389.261 296.534 389.455Z" fill="#E54332"/>
<path d="M298.448 388.349C298.112 388.543 297.997 388.986 298.203 389.343L298.514 389.882C298.716 390.232 299.155 390.364 299.497 390.166C299.84 389.968 299.949 389.529 299.743 389.172L299.432 388.634C299.226 388.277 298.791 388.151 298.448 388.349Z" fill="#E54332"/>
<path d="M300.369 387.24C300.033 387.434 299.918 387.877 300.124 388.234L300.435 388.773C300.637 389.123 301.076 389.255 301.419 389.057C301.755 388.863 301.87 388.42 301.664 388.063L301.353 387.525C301.147 387.168 300.706 387.046 300.369 387.24Z" fill="#E54332"/>
<path d="M324.234 361.381C323.076 362.049 322.7 363.55 323.384 364.734C324.068 365.919 325.562 366.34 326.713 365.675C327.871 365.007 328.247 363.507 327.563 362.322C326.879 361.137 325.385 360.716 324.234 361.381Z" fill="#FFCA00"/>
</g>
<g opacity="0.45">
<path opacity="0.45" d="M82.5141 33.7168C81.1141 28.0268 67.8841 19.7168 60.8141 24.7268C58.6441 13.8868 56.6141 7.12678 49.5241 1.78678C42.4341 -3.55322 30.6041 3.42678 28.7041 18.0468C26.8041 12.0368 17.1441 3.93678 9.38411 10.7668C2.20411 17.0868 1.48411 27.6768 2.23411 33.7068H82.5141V33.7168Z" fill="#99B8FF"/>
</g>
<g opacity="0.45">
<path opacity="0.45" d="M447.1 106.641C444.91 101.251 440.78 98.3608 435.89 97.8208C429.73 97.1308 423.48 100.671 423.48 100.671C423.48 100.671 425.8 91.7708 422.65 84.7708C420.51 79.9908 417.09 75.5008 412.35 74.3208C407.44 73.1008 402.23 75.4908 398.57 79.2808C394.91 83.0708 392.55 88.0908 390.45 93.1008C389.36 89.5508 387.92 85.5708 384.71 84.2508C381.39 82.8808 377.55 85.2408 375.81 88.6208C374.07 92.0008 373.98 96.0808 374.22 99.9508C370.37 97.6408 365.46 96.9608 361.6 99.2708C359.13 100.751 357.37 103.651 357 106.651H447.1V106.641Z" fill="#99B8FF"/>
</g>
<g opacity="0.45">
<path opacity="0.45" d="M309 189.993C310.476 186.361 313.258 184.414 316.553 184.05C320.704 183.585 324.915 185.971 324.915 185.971C324.915 185.971 323.352 179.974 325.474 175.257C326.916 172.037 329.221 169.011 332.414 168.216C335.723 167.394 339.233 169.004 341.699 171.558C344.165 174.112 345.756 177.494 347.17 180.87C347.905 178.478 348.875 175.796 351.038 174.907C353.275 173.984 355.862 175.574 357.035 177.851C358.207 180.129 358.268 182.878 358.106 185.486C360.7 183.929 364.009 183.471 366.61 185.027C368.274 186.025 369.46 187.979 369.709 190H309V189.993Z" fill="#99B8FF"/>
</g>
<path d="M48.6434 36.0057C49.7718 32.9941 54.1953 33.4981 54.6034 36.6872C58.5495 67.5195 71.4285 148.043 102.675 194.368C153.55 269.797 178.022 383.716 130.924 433.916C130.924 433.918 -74.2777 364.045 48.6434 36.0057Z" fill="url(#paint0_linear)"/>
<path opacity="0.43" d="M49.1488 79.2292C49.1488 79.2292 49.1427 79.5495 49.1325 80.1718C49.1468 80.7901 49.1468 81.6817 49.1876 82.8937C49.2447 85.3034 49.3978 88.8373 49.6181 93.3344C49.8609 97.8314 50.1731 103.289 50.6383 109.545C51.0689 115.803 51.6993 122.853 52.3645 130.543C53.0888 138.227 53.8948 146.552 54.9293 155.336C55.9107 164.126 57.1512 173.369 58.4551 182.928C59.8262 192.477 61.2912 202.336 63.0255 212.316C63.4561 214.811 63.8866 217.317 64.3191 219.828C64.7864 222.334 65.2557 224.848 65.725 227.365C66.6309 232.409 67.6919 237.443 68.7039 242.485C69.7078 247.529 70.8892 252.536 71.9441 257.549C73.0887 262.542 74.2497 267.51 75.427 272.434C76.0493 274.886 76.6696 277.33 77.2858 279.761C77.9122 282.189 78.4896 284.619 79.1711 287.004C79.8302 289.395 80.4831 291.772 81.134 294.133C81.4584 295.312 81.7828 296.49 82.1052 297.661C82.45 298.826 82.7949 299.985 83.1376 301.14C83.8273 303.449 84.5108 305.739 85.1903 308.008C85.531 309.142 85.8697 310.268 86.2084 311.391C86.5696 312.505 86.9307 313.615 87.2878 314.716C87.9999 316.924 88.7038 319.107 89.3996 321.264C89.7505 322.341 90.0811 323.419 90.4402 324.48C90.8095 325.537 91.1768 326.585 91.54 327.628C92.2684 329.713 92.9866 331.77 93.6946 333.796C94.0476 334.81 94.4006 335.814 94.7495 336.812C95.1229 337.799 95.4942 338.779 95.8615 339.752C97.3591 343.629 98.7303 347.406 100.181 350.978C101.662 354.539 103.08 357.95 104.431 361.194C105.827 364.42 107.235 367.44 108.512 370.301C109.159 371.727 109.787 373.108 110.391 374.441C111.042 375.753 111.668 377.016 112.27 378.23C113.476 380.66 114.582 382.89 115.582 384.906C116.065 385.922 116.592 386.848 117.069 387.728C117.549 388.607 117.998 389.431 118.416 390.199C119.25 391.735 119.958 393.041 120.534 394.1C121.685 396.22 122.299 397.35 122.299 397.35L122.305 397.362C122.397 397.532 122.333 397.746 122.164 397.838C121.997 397.93 121.789 397.868 121.693 397.705C121.693 397.705 121.052 396.587 119.85 394.49C119.248 393.441 118.508 392.147 117.637 390.627C117.202 389.866 116.735 389.048 116.235 388.177C115.739 387.303 115.196 386.383 114.692 385.371C113.656 383.367 112.507 381.147 111.256 378.734C110.632 377.526 109.981 376.269 109.306 374.963C108.675 373.637 108.022 372.262 107.349 370.844C106.021 367.995 104.543 364.992 103.105 361.772C101.715 358.53 100.256 355.122 98.7323 351.566C97.2388 347.997 95.8227 344.223 94.2802 340.348C93.9007 339.377 93.5171 338.397 93.1315 337.41C92.7723 336.412 92.4092 335.408 92.0439 334.394C91.3114 332.368 90.5708 330.311 89.8179 328.226C86.8369 319.877 83.9762 310.97 81.2258 301.699C80.8789 300.542 80.53 299.379 80.1791 298.212C79.8526 297.039 79.5221 295.859 79.1936 294.678C78.5345 292.313 77.8693 289.93 77.2001 287.534C76.5104 285.143 75.9187 282.711 75.2842 280.277C74.6557 277.841 74.0273 275.392 73.3948 272.933C72.195 268.002 71.0157 263.021 69.8506 258.018C69.3058 255.508 68.759 252.993 68.2122 250.477C67.6695 247.959 67.1124 245.441 66.6268 242.909C65.6291 237.851 64.5803 232.801 63.6866 227.743C63.2234 225.217 62.7603 222.697 62.2992 220.183C61.8727 217.663 61.4483 215.152 61.0239 212.65C59.3161 202.644 57.8776 192.76 56.533 183.189C55.2741 173.605 54.1437 164.332 53.2296 155.519C52.2727 146.713 51.5422 138.368 50.8852 130.667C49.6508 115.254 49.0223 102.383 48.6898 93.3731C48.5408 88.8659 48.4449 85.3238 48.4266 82.9059C48.4041 81.7062 48.4184 80.7452 48.4164 80.1167C48.4368 79.4924 48.449 79.17 48.449 79.17C48.4551 78.9761 48.6184 78.8252 48.8102 78.8333C49.0019 78.8394 49.1509 78.9986 49.1468 79.1883L49.1488 79.2292Z" fill="white"/>
<path d="M148.539 287.95C147.674 287.11 147.715 285.71 148.621 284.911L256.327 188.816C256.631 188.544 257.06 188.487 257.43 188.66C258.072 188.964 258.196 189.821 257.677 190.307L151.372 287.991C150.565 288.732 149.321 288.715 148.539 287.95Z" fill="url(#paint1_linear)"/>
<path d="M85.5625 524.539C85.5625 524.391 85.5543 524.235 85.5131 524.078C83.2075 514.938 71.7617 509.248 71.7617 509.248L67.2246 509.602C64.6143 517.655 64.9519 522.596 65.3718 524.803C65.3801 524.86 65.4048 524.926 65.4212 524.984C69.1679 525.313 76.867 525.527 85.5625 524.539Z" fill="url(#paint2_linear)"/>
<path d="M65.4295 524.976C65.6353 525.709 66.1706 526.285 66.8705 526.425C72.1899 527.545 80.6466 526.647 84.1956 526.178C84.9778 526.079 85.5543 525.355 85.5625 524.531C76.867 525.528 69.1679 525.313 65.4295 524.976Z" fill="url(#paint3_linear)"/>
<path d="M47.4703 362.742C44.6707 365.731 40.5453 368.317 37.6468 369.923C41.978 375.275 47.8409 380.644 55.6059 385.889L57.8291 390.871L64.9436 382.34C64.9436 382.348 52.1722 375.991 47.4703 362.742Z" fill="url(#paint4_linear)"/>
<path d="M65.4131 502.841L67.3317 512.088C67.4717 512.764 67.9905 513.274 68.6245 513.332C69.3985 513.406 70.4937 513.447 71.5971 513.282C72.5852 513.134 73.2769 512.13 73.104 511.051L71.77 502.841H65.4131Z" fill="url(#paint5_linear)"/>
<path d="M105.201 524.885C100.195 524.745 97.6011 524.152 96.2671 523.609C96.2671 524.103 96.2671 524.613 96.2836 525.14C96.3 525.7 96.72 526.153 97.2305 526.145L124.725 525.964C125.606 525.956 126.117 524.943 125.738 524.136C122.123 524.432 112.942 525.099 105.201 524.885Z" fill="url(#paint6_linear)"/>
<path d="M125.73 524.136C125.697 524.062 125.672 523.996 125.623 523.93C123.194 520.538 117.01 513.777 104.79 510.854L98.9269 510.673C98.9269 510.673 96.3166 515.21 96.2672 523.617C97.6094 524.161 100.195 524.754 105.201 524.894C112.942 525.099 122.123 524.432 125.73 524.136Z" fill="url(#paint7_linear)"/>
<path d="M97.8316 501.78C97.8975 502.216 98.6962 508.861 99.0091 511.43C99.0832 512.04 99.5279 512.517 100.088 512.583C101.084 512.698 102.698 512.814 104.114 512.517C104.88 512.361 105.432 511.628 105.432 510.78V500.355L97.8316 501.78Z" fill="url(#paint8_linear)"/>
<path d="M93.1299 380.57C93.1299 380.57 107.268 434.307 107.013 501.928C107.005 503.163 106.14 504.225 104.938 504.48C103.159 504.851 100.549 505.296 98.3834 505.238C97.2306 505.205 96.2589 504.349 96.0696 503.212C94.0851 491.585 82.7052 426.081 76.2248 415.451C76.2248 415.451 71.9593 473.791 73.3262 504.052C73.3592 504.802 72.8075 505.46 72.0582 505.543C70.9218 505.674 69.1103 505.773 66.7964 505.526C65.9153 505.436 65.2072 504.769 65.0836 503.896C63.6673 494.056 55.54 435.485 55.8859 393.292C55.9023 390.912 62.1769 380.57 62.1769 380.57H93.1299Z" fill="url(#paint9_linear)"/>
<path d="M114.819 308.198C112.341 301.866 108.166 297.534 103.966 292.528C88.2221 295.385 62.4239 297.93 51.6616 299.288C48.3019 299.708 45.2305 301.363 43.0155 303.932C34.2376 314.094 14.9693 341.909 37.6467 369.931C40.5452 368.317 44.6706 365.74 47.4703 362.75C44.9588 355.677 44.7529 346.644 50.0147 335.561C50.1958 336.442 50.4182 337.306 50.6899 338.163C57.9361 361.12 58.3232 380.224 58.3067 384.621C58.3067 385.222 58.6608 385.757 59.2207 385.98C68.7561 389.8 87.1105 387.528 93.278 386.605C94.4062 386.441 95.1719 385.387 95.0155 384.25C91.9935 362.339 107.515 326.297 111.616 317.264C112.217 315.946 113.271 314.884 114.597 314.283C115.264 313.987 115.906 313.674 116.548 313.369C116.046 311.632 115.478 309.902 114.819 308.198Z" fill="#FFC91D"/>
<path d="M68.1386 278.209L67.0187 297.798C66.9858 298.375 67.3645 298.893 67.9245 299.041C70.4112 299.667 77.2787 300.919 83.2651 297.51C84.0391 297.065 84.4014 296.143 84.1544 295.278L79.1561 277.673L68.1386 278.209Z" fill="url(#paint10_linear)"/>
<path d="M80.3993 256.8C80.6546 257.039 91.1286 277.608 91.1286 277.608L79.2547 283.339L66.4256 265.314C66.4338 265.322 76.1421 252.798 80.3993 256.8Z" fill="url(#paint11_linear)"/>
<path d="M71.6875 265.824C71.4734 266.376 71.531 266.985 71.8274 267.487L77.7479 277.36C77.8385 277.509 77.9456 277.649 78.0691 277.764C78.7773 278.423 81.1899 280.325 83.0509 277.731C84.6401 275.516 86.1305 273.507 87.728 272.675C88.6585 272.189 89.8113 272.576 90.2807 273.515C91.2523 275.45 93.1462 279.394 94.332 283.124C94.6284 284.063 94.1426 285.068 93.2368 285.438C90.8323 286.41 86.0811 288.172 81.8651 288.757C81.1734 288.856 80.49 288.559 80.0783 287.999C78.2667 285.512 73.1532 278.571 71.4075 276.833C69.7854 275.219 66.7962 275.829 65.4458 276.216C64.9353 276.364 64.3918 276.29 63.9307 276.018C62.5638 275.195 60.1758 273.144 62.3579 269.67C62.9014 268.805 62.6215 267.652 61.7733 267.092C60.25 266.088 58.5866 264.202 60.1676 261.147C61.7651 258.059 64.6224 257.779 66.5657 258.018C67.4221 258.125 68.3032 257.672 68.6326 256.873C68.7808 256.519 69.0689 256.215 69.6124 256.108C70.6335 255.902 71.3005 254.971 71.1029 253.95C70.757 252.204 71.0205 249.932 73.8119 248.392C78.9337 245.576 83.4214 250.162 84.566 254.041C85.7106 257.919 79.9795 260.653 76.3728 261.114C73.7214 261.427 72.2721 264.309 71.6875 265.824Z" fill="url(#paint12_linear)"/>
<path d="M73.6306 280.449C73.6306 280.449 71.3497 273.787 68.4347 274.026C65.5198 274.273 63.2224 277.171 66.8373 280.44C71.3332 284.508 73.6306 280.449 73.6306 280.449Z" fill="url(#paint13_linear)"/>
<path d="M49.0513 333.84C45.2058 323.324 46.6056 310.619 46.6139 310.495L47.6761 310.619C47.6597 310.742 46.301 323.201 50.0558 333.477L49.0513 333.84Z" fill="url(#paint14_linear)"/>
<path d="M75.706 414.083C75.4672 414.083 75.2531 413.927 75.1872 413.68C74.0179 409.159 65.2319 404.186 65.1495 404.136C64.8943 403.996 64.8037 403.667 64.9437 403.412C65.0919 403.156 65.413 403.066 65.6683 403.206C66.0471 403.42 74.932 408.451 76.2165 413.408C76.2906 413.696 76.1177 413.985 75.8378 414.059C75.7966 414.075 75.7472 414.083 75.706 414.083Z" fill="url(#paint15_linear)"/>
<path d="M150.828 298.605C135.858 304.073 103.966 292.528 103.966 292.528L101.768 318.59C127.311 326.668 143.928 324.313 154.739 317.536C155.406 309.829 153.093 303.126 150.828 298.605Z" fill="#FFC91D"/>
<path d="M174.658 271.712L168.392 270.468C168.392 270.468 166.687 290.395 152.73 297.765C152.129 298.078 151.495 298.358 150.82 298.605C153.093 303.126 155.406 309.829 154.731 317.536C176.7 303.76 174.658 271.712 174.658 271.712Z" fill="url(#paint16_linear)"/>
<path d="M168.705 272.206L168.384 270.468C168.384 270.468 167.074 266.227 170.533 262.044C175.531 256.009 179.187 258.224 179.187 258.224C179.187 258.224 178.924 259.517 178.948 260.661C178.965 261.583 180.068 262.053 180.752 261.427L188.904 253.934C188.904 253.934 191.185 265.832 173.703 274.009L168.705 272.206Z" fill="url(#paint17_linear)"/>
<path d="M211.395 254.782H198.665V268.709H211.395V254.782Z" fill="#00B6CB"/>
<path d="M205.022 261.746C196.997 261.746 190.486 268.317 190.486 276.417C190.486 284.525 196.997 291.088 205.022 291.088C213.055 291.088 219.558 284.517 219.558 276.417C219.566 268.317 213.055 261.746 205.022 261.746Z" fill="#00B6CB"/>
<path d="M210.836 276.253C205.192 276.253 196.673 272.003 191.968 275.583C191.952 275.861 191.936 276.139 191.936 276.417C191.936 283.699 197.807 289.633 205.03 289.633C212.246 289.633 218.125 283.707 218.125 276.417C218.125 275.011 217.906 273.654 217.501 272.387C215.825 274.668 213.711 276.253 210.836 276.253Z" fill="#E54332"/>
<path d="M210.675 253H199.378C198.544 253 197.872 253.678 197.872 254.52C197.872 255.362 198.544 256.04 199.378 256.04H210.675C211.509 256.04 212.181 255.362 212.181 254.52C212.181 253.678 211.509 253 210.675 253Z" fill="#00B6CB"/>
<path d="M204.561 283.356C203.629 283.356 202.868 284.124 202.868 285.064C202.868 286.012 203.629 286.772 204.561 286.772C205.5 286.772 206.253 286.004 206.253 285.064C206.253 284.124 205.492 283.356 204.561 283.356Z" fill="#FFCA00"/>
<path d="M212.829 279.547C212.229 279.547 211.744 280.037 211.744 280.642C211.744 281.247 212.229 281.737 212.829 281.737C213.428 281.737 213.914 281.247 213.914 280.642C213.914 280.037 213.428 279.547 212.829 279.547Z" fill="#FFCA00"/>
<path d="M196.738 277.397C196.106 277.397 195.604 277.912 195.604 278.542C195.604 279.171 196.114 279.686 196.738 279.686C197.369 279.686 197.872 279.171 197.872 278.542C197.872 277.912 197.361 277.397 196.738 277.397Z" fill="#FFCA00"/>
<path d="M223.542 256.931H221.777V295.06H223.542V256.931Z" fill="#09455F"/>
<path d="M194.624 258.288C194.624 258.689 194.94 259.007 195.337 259.007H224.603V257.569H195.337C194.94 257.569 194.624 257.888 194.624 258.288Z" fill="#09455F"/>
<path d="M188 294.627C188 295.387 188.607 296 189.36 296H225V293.246H189.36C188.607 293.254 188 293.867 188 294.627Z" fill="#09455F"/>
<g clip-path="url(#clip2)">
<path d="M404.953 268.388L397.313 264.95L393.552 273.308L401.192 276.746L404.953 268.388Z" fill="#00B6CB"/>
<path d="M399.248 270.846C394.431 268.678 388.749 270.864 386.562 275.725C384.372 280.59 386.507 286.287 391.323 288.455C396.144 290.624 401.821 288.437 404.009 283.576C406.201 278.717 404.069 273.015 399.248 270.846Z" fill="#00B6CB"/>
<path d="M398.819 281.122C395.432 279.598 391.467 274.747 387.676 275.624C387.592 275.787 387.507 275.949 387.432 276.116C385.465 280.486 387.386 285.633 391.721 287.584C396.051 289.533 401.18 287.564 403.149 283.189C403.528 282.345 403.764 281.472 403.863 280.602C402.241 281.518 400.544 281.899 398.819 281.122Z" fill="#E54332"/>
<path d="M405.002 267.124L398.222 264.073C397.722 263.848 397.135 264.073 396.908 264.578C396.68 265.084 396.9 265.672 397.401 265.897L404.181 268.948C404.681 269.174 405.268 268.948 405.495 268.443C405.722 267.938 405.502 267.349 405.002 267.124Z" fill="#00B6CB"/>
<path d="M393.134 283.69C392.575 283.438 391.911 283.693 391.657 284.258C391.401 284.827 391.653 285.488 392.212 285.74C392.775 285.994 393.435 285.736 393.689 285.172C393.943 284.608 393.693 283.941 393.134 283.69Z" fill="#FFCA00"/>
<path d="M399.125 283.637C398.765 283.475 398.341 283.638 398.178 284.001C398.014 284.364 398.174 284.79 398.533 284.951C398.893 285.113 399.317 284.95 399.48 284.587C399.644 284.224 399.484 283.799 399.125 283.637Z" fill="#FFCA00"/>
<path d="M390.049 278.001C389.67 277.83 389.229 278.004 389.059 278.382C388.89 278.759 389.057 279.206 389.431 279.374C389.81 279.545 390.25 279.372 390.42 278.994C390.59 278.616 390.423 278.169 390.049 278.001Z" fill="#FFCA00"/>
<path d="M411.662 272.958L410.603 272.481L400.305 295.364L401.365 295.84L411.662 272.958Z" fill="#09455F"/>
<path d="M393.941 265.962C393.833 266.203 393.937 266.479 394.175 266.587L411.738 274.49L412.127 273.627L394.563 265.723C394.325 265.616 394.049 265.722 393.941 265.962Z" fill="#09455F"/>
<path d="M380.152 285.981C379.947 286.437 380.146 286.969 380.598 287.173L401.986 296.798L402.73 295.145L381.341 285.52C380.887 285.321 380.357 285.525 380.152 285.981Z" fill="#09455F"/>
</g>
<rect x="266" y="190" width="68" height="11" rx="3" fill="#E54332"/>
<rect x="180" y="302" width="68" height="11" rx="3" fill="#E54332"/>
<rect x="353.857" y="283" width="68" height="4.67716" rx="2.33858" transform="rotate(23.3947 353.857 283)" fill="#E54332"/>
<rect x="279" y="418" width="68" height="4.67716" rx="2.33858" transform="rotate(-30 279 418)" fill="#E54332"/>
<rect x="187" y="493" width="68" height="4.67716" rx="2.33858" transform="rotate(-30 187 493)" fill="#E54332"/>
<defs>
<linearGradient id="paint0_linear" x1="9.41219" y1="233.959" x2="156.099" y2="233.959" gradientUnits="userSpaceOnUse">
<stop stop-color="#DAE3FE"/>
<stop offset="1" stop-color="#E9EFFD"/>
</linearGradient>
<linearGradient id="paint1_linear" x1="215.6" y1="211.226" x2="82.6872" y2="491.648" gradientUnits="userSpaceOnUse">
<stop stop-color="#09005D"/>
<stop offset="1" stop-color="#1A0F91"/>
</linearGradient>
<linearGradient id="paint2_linear" x1="65.0932" y1="517.25" x2="85.5618" y2="517.25" gradientUnits="userSpaceOnUse">
<stop stop-color="#4042E2"/>
<stop offset="1" stop-color="#4F52FF"/>
</linearGradient>
<linearGradient id="paint3_linear" x1="76.004" y1="474.763" x2="75.6545" y2="509.011" gradientUnits="userSpaceOnUse">
<stop stop-color="#09005D"/>
<stop offset="1" stop-color="#1A0F91"/>
</linearGradient>
<linearGradient id="paint4_linear" x1="37.6461" y1="376.812" x2="64.9434" y2="376.812" gradientUnits="userSpaceOnUse">
<stop stop-color="#FF928E"/>
<stop offset="1" stop-color="#FEB3B1"/>
</linearGradient>
<linearGradient id="paint5_linear" x1="70.7854" y1="493.947" x2="66.8755" y2="528.07" gradientUnits="userSpaceOnUse">
<stop stop-color="#FF928E"/>
<stop offset="1" stop-color="#FEB3B1"/>
</linearGradient>
<linearGradient id="paint6_linear" x1="111.557" y1="475.128" x2="111.208" y2="509.374" gradientUnits="userSpaceOnUse">
<stop stop-color="#09005D"/>
<stop offset="1" stop-color="#1A0F91"/>
</linearGradient>
<linearGradient id="paint7_linear" x1="96.2615" y1="517.795" x2="125.726" y2="517.795" gradientUnits="userSpaceOnUse">
<stop stop-color="#4042E2"/>
<stop offset="1" stop-color="#4F52FF"/>
</linearGradient>
<linearGradient id="paint8_linear" x1="102.634" y1="497.597" x2="98.724" y2="531.72" gradientUnits="userSpaceOnUse">
<stop stop-color="#FF928E"/>
<stop offset="1" stop-color="#FEB3B1"/>
</linearGradient>
<linearGradient id="paint9_linear" x1="85.6044" y1="483.436" x2="71.9754" y2="372.306" gradientUnits="userSpaceOnUse">
<stop stop-color="#09005D"/>
<stop offset="1" stop-color="#1A0F91"/>
</linearGradient>
<linearGradient id="paint10_linear" x1="79.4865" y1="272.857" x2="63.4471" y2="342.17" gradientUnits="userSpaceOnUse">
<stop stop-color="#FF928E"/>
<stop offset="1" stop-color="#FEB3B1"/>
</linearGradient>
<linearGradient id="paint11_linear" x1="76.9487" y1="260.692" x2="84.3068" y2="303.991" gradientUnits="userSpaceOnUse">
<stop stop-color="#FF928E"/>
<stop offset="1" stop-color="#FEB3B1"/>
</linearGradient>
<linearGradient id="paint12_linear" x1="69.2116" y1="281.186" x2="90.8957" y2="258.151" gradientUnits="userSpaceOnUse">
<stop stop-color="#09005D"/>
<stop offset="1" stop-color="#1A0F91"/>
</linearGradient>
<linearGradient id="paint13_linear" x1="70.5646" y1="307.954" x2="69.2557" y2="277.548" gradientUnits="userSpaceOnUse">
<stop stop-color="#FF928E"/>
<stop offset="1" stop-color="#FEB3B1"/>
</linearGradient>
<linearGradient id="paint14_linear" x1="29.5854" y1="283.709" x2="68.5416" y2="363.602" gradientUnits="userSpaceOnUse">
<stop stop-color="#E1473D"/>
<stop offset="1" stop-color="#E9605A"/>
</linearGradient>
<linearGradient id="paint15_linear" x1="71.0759" y1="419.66" x2="72.1243" y2="442.026" gradientUnits="userSpaceOnUse">
<stop stop-color="#09005D"/>
<stop offset="1" stop-color="#1A0F91"/>
</linearGradient>
<linearGradient id="paint16_linear" x1="176.014" y1="248.11" x2="159.861" y2="300.897" gradientUnits="userSpaceOnUse">
<stop stop-color="#FF928E"/>
<stop offset="1" stop-color="#FEB3B1"/>
</linearGradient>
<linearGradient id="paint17_linear" x1="182.303" y1="250.035" x2="166.15" y2="302.822" gradientUnits="userSpaceOnUse">
<stop stop-color="#FF928E"/>
<stop offset="1" stop-color="#FEB3B1"/>
</linearGradient>
<clipPath id="clip0">
<rect width="61.4" height="47.2" fill="white" transform="translate(109 66)"/>
</clipPath>
<clipPath id="clip1">
<rect width="45.861" height="36.6888" fill="white" transform="translate(279 369.931) rotate(-30)"/>
</clipPath>
<clipPath id="clip2">
<rect width="24.3496" height="28.2982" fill="white" transform="translate(391.394 261) rotate(24.2286)"/>
</clipPath>
</defs>
</svg>
