<svg width="448" height="527" viewBox="0 0 448 527" fill="none" xmlns="http://www.w3.org/2000/svg">
<path d="M132.04 424.889L134.847 422.045C133.969 416.904 129.359 414.43 126.324 414.092C118.153 413.185 113.986 419.064 112.235 428.496C109.036 445.711 113.063 518 113.063 518C113.364 516.08 135.559 443.485 134.989 423.54L132.04 424.889Z" fill="#96D9C9"/>
<path d="M23.8045 487.101L23.4897 489.47L22.734 486.729C20.6102 486.048 18.767 485.816 17.3072 486.153C4.24671 489.168 26.8156 507.409 26.8156 507.409C26.8156 507.409 19.6228 502.825 12.6589 499.921L12.5702 502.325L11.68 499.61C6.26746 497.459 1.24706 496.464 0.242405 499.569C-0.702141 502.494 1.1984 505.264 4.46996 507.729L8.23097 507.863L6.01558 508.808C13.5691 513.724 26.0657 517.238 30.3791 518.038C26.2518 517.381 16.1652 516.046 10.1859 517.357L11.1247 518.942L8.76335 517.744C6.67104 518.43 5.37158 519.564 5.51183 521.352C5.77802 524.767 20.3755 526 20.3755 526L73.7023 525.497L74 525.648C73.9943 525.642 40.9953 493.496 23.8045 487.101Z" fill="#3C8F7C"/>
<path d="M208.93 517.036C207.738 511.571 195.625 509.966 180.189 512.96C185.686 511.108 193.238 506.89 197.148 504.961L194.473 503.282L199.846 503.529C204.24 500.993 206.436 498.499 205.003 496.243C203.932 494.559 201.579 493.857 198.389 493.866L196.71 496.831L197.059 493.908C189.017 494.366 187.192 493.071 176.346 497.397C183.123 493.926 184.105 492.849 184.548 491.454L180.877 489.869H185.179C188.657 486.179 194.174 478.876 191.885 475.51C189.996 472.732 181.707 476.587 176.415 478.589L174.166 483.589L174.621 479.319C157.797 486.549 163.498 480.748 163.498 480.748C163.498 480.748 181.062 444.903 170.714 445.71C166.628 446.028 162.237 448.457 157.924 452.348L157.815 455.91L156.531 453.649C153.389 456.689 150.277 460.367 147.308 464.318C151.336 455.973 154.388 447.778 154.694 441.676L151.619 441.31L154.653 439.228C154.368 436.146 153.13 433.814 150.622 432.581C146.776 430.689 142.739 433.55 138.763 439.236L139.745 444.366L137.28 441.492C123.048 464.375 110.034 520.715 110.034 520.715L109 523.771L150.812 525.808C150.812 525.808 211.34 528.075 208.93 517.036Z" fill="#50BFA5"/>
<path d="M377.158 96.02H357.158V97.14H377.158V96.02Z" fill="#FFCA00"/>
<path d="M368.218 92.3701H366.108V100.31H368.218V92.3701Z" fill="#E54332"/>
<path d="M367.158 69C366.498 69 365.968 69.53 365.968 70.19V74.83H368.338V70.19C368.348 69.53 367.818 69 367.158 69Z" fill="#E54332"/>
<path d="M356.518 115.81L356.938 115.91L357.798 113L356.978 112.81L356.518 115.81Z" fill="#09455F"/>
<path d="M356.248 113.27L358.268 113.72L359.178 110.82L356.648 110.26L356.248 113.27Z" fill="#E54332"/>
<path d="M356.538 110.76L359.028 111.31L367.258 81.3301L363.858 80.5801L356.538 110.76Z" fill="#E54332"/>
<path d="M358.228 108.5C357.278 108.29 356.348 108.89 356.138 109.83C355.928 110.78 356.528 111.71 357.468 111.92C358.418 112.13 359.348 111.53 359.558 110.59C359.778 109.65 359.178 108.71 358.228 108.5Z" fill="#FFCA00"/>
<path d="M358.038 109.36C357.568 109.26 357.098 109.55 356.998 110.02C356.898 110.49 357.188 110.96 357.658 111.06C358.128 111.16 358.598 110.87 358.698 110.4C358.808 109.93 358.508 109.47 358.038 109.36Z" fill="#EBFFF5"/>
<path d="M375.888 113L376.738 115.91L377.168 115.81L376.708 112.81L375.888 113Z" fill="#09455F"/>
<path d="M375.148 110.82L376.058 113.72L378.078 113.27L377.678 110.26L375.148 110.82Z" fill="#E54332"/>
<path d="M367.068 81.3301L375.298 111.31L377.788 110.76L370.468 80.5801L367.068 81.3301Z" fill="#E54332"/>
<path d="M376.088 108.5C375.138 108.71 374.548 109.65 374.758 110.59C374.968 111.54 375.908 112.13 376.848 111.92C377.798 111.71 378.388 110.77 378.178 109.83C377.978 108.89 377.038 108.29 376.088 108.5Z" fill="#FFCA00"/>
<path d="M376.288 109.36C375.818 109.46 375.518 109.93 375.628 110.4C375.728 110.87 376.198 111.17 376.668 111.06C377.138 110.96 377.438 110.49 377.328 110.02C377.218 109.55 376.758 109.26 376.288 109.36Z" fill="#EBFFF5"/>
<path d="M363.638 79.2899L364.248 82.8899C364.278 83.2799 364.618 83.5899 365.008 83.5899H369.318C369.708 83.5899 370.048 83.2699 370.078 82.8899L370.688 79.2899V73.1899H363.638V79.2899Z" fill="#FFCA00"/>
<path d="M357.073 103.535L356.456 106.184L357.215 106.361L357.833 103.712L357.073 103.535Z" fill="#E54332"/>
<path d="M357.168 104.577L357.001 105.277L359.258 105.815L359.425 105.115L357.168 104.577Z" fill="#E54332"/>
<path d="M224.979 442.704L206.908 450.765L207.359 451.777L225.43 443.716L224.979 442.704Z" fill="#FFCA00"/>
<path d="M215.43 443.009L213.523 443.859L216.724 451.034L218.63 450.183L215.43 443.009Z" fill="#E54332"/>
<path d="M205.053 422.32C204.457 422.586 204.192 423.279 204.458 423.875L206.328 428.068L208.469 427.112L206.599 422.92C206.342 422.319 205.649 422.054 205.053 422.32Z" fill="#E54332"/>
<path d="M214.306 468.904L214.725 468.825L214.33 465.849L213.512 466.008L214.306 468.904Z" fill="#09455F"/>
<path d="M213.038 466.718L215.045 466.31L214.698 463.323L212.186 463.837L213.038 466.718Z" fill="#E54332"/>
<path d="M212.288 464.333L214.76 463.826L210.113 433.421L206.739 434.113L212.288 464.333Z" fill="#E54332"/>
<path d="M212.904 461.61C211.961 461.803 211.363 462.72 211.552 463.654C211.745 464.597 212.662 465.195 213.596 465.006C214.539 464.813 215.138 463.896 214.948 462.962C214.768 462.024 213.847 461.417 212.904 461.61Z" fill="#FFCA00"/>
<path d="M213.079 462.463C212.614 462.562 212.306 463.014 212.406 463.479C212.505 463.944 212.956 464.252 213.421 464.152C213.886 464.053 214.194 463.602 214.095 463.137C214.005 462.668 213.548 462.373 213.079 462.463Z" fill="#EBFFF5"/>
<path d="M230.675 458.558L232.616 460.845L232.964 460.581L231.339 458.056L230.675 458.558Z" fill="#09455F"/>
<path d="M229.128 456.887L231.119 459.14L232.762 457.92L231.188 455.361L229.128 456.887Z" fill="#E54332"/>
<path d="M209.941 433.497L229.461 457.269L231.489 455.769L212.711 431.449L209.941 433.497Z" fill="#E54332"/>
<path d="M229.042 454.412C228.268 454.985 228.114 456.072 228.683 456.836C229.255 457.61 230.342 457.764 231.107 457.196C231.881 456.623 232.035 455.536 231.466 454.771C230.907 454.003 229.816 453.839 229.042 454.412Z" fill="#FFCA00"/>
<path d="M229.569 455.108C229.185 455.388 229.103 455.934 229.392 456.314C229.672 456.698 230.217 456.78 230.598 456.491C230.982 456.211 231.064 455.666 230.775 455.286C230.486 454.905 229.954 454.829 229.569 455.108Z" fill="#EBFFF5"/>
<path d="M206.02 433.037L208.022 436.044C208.206 436.384 208.639 436.527 208.991 436.37L212.885 434.633C213.238 434.475 213.416 434.049 213.29 433.694L212.39 430.195L209.931 424.683L203.561 427.525L206.02 433.037Z" fill="#FFCA00"/>
<path d="M209.86 457.589L210.37 460.231L211.128 460.085L210.618 457.443L209.86 457.589Z" fill="#E54332"/>
<path d="M210.366 458.492L210.497 459.192L212.753 458.769L212.622 458.069L210.366 458.492Z" fill="#E54332"/>
<g clip-path="url(#clip0)">
<path d="M117.42 85.71L115.7 97.14H130.56L128.84 85.71H117.42Z" fill="#E54332"/>
<path d="M158.801 81.0742L157.281 83.1348L161.982 86.6008L163.501 84.5403L158.801 81.0742Z" fill="#09455F"/>
<path d="M161.199 84.5826L159.869 89.3818L161.497 89.8334L162.828 85.0342L161.199 84.5826Z" fill="#09455F"/>
<path d="M159.87 89.38L165.07 92.37L165.59 91.66L160.82 87.98L159.87 89.38Z" fill="#09455F"/>
<path d="M165.571 81.6496L161.38 84.3398L162.293 85.7621L166.484 83.072L165.571 81.6496Z" fill="#09455F"/>
<path d="M164.51 82.9704L169.44 86.4504L170.02 85.6604L165.57 81.6504L164.51 82.9704Z" fill="#09455F"/>
<path d="M138.83 72.8999L156.36 85.7599L161.14 79.3499L143.6 66.4199L138.83 72.8999Z" fill="#E54332"/>
<path d="M120.32 80.4499L126.23 88.0899L145.25 72.6699L140.65 66.4199L120.32 80.4499Z" fill="#E54332"/>
<path d="M142.86 66.0401C140.23 65.7001 137.83 67.5601 137.49 70.1901C137.15 72.8201 139.01 75.2201 141.64 75.5601C144.27 75.9001 146.67 74.0401 147.01 71.4101C147.34 68.7801 145.48 66.3801 142.86 66.0401Z" fill="#FFCA00"/>
<path d="M142.49 68.93C141.46 68.8 140.52 69.53 140.39 70.55C140.26 71.58 140.99 72.52 142.01 72.65C143.04 72.78 143.98 72.05 144.11 71.03C144.24 70.01 143.51 69.06 142.49 68.93Z" fill="#09455F"/>
<path d="M123.34 78.9102C120.05 78.9102 117.38 81.5802 117.38 84.8702C117.38 88.1602 120.05 90.8302 123.34 90.8302C126.63 90.8302 129.3 88.1602 129.3 84.8702C129.3 81.5802 126.63 78.9102 123.34 78.9102Z" fill="#FFCA00"/>
<path d="M123.34 82.8301C122.21 82.8301 121.3 83.7401 121.3 84.8701C121.3 86.0001 122.21 86.9101 123.34 86.9101C124.47 86.9101 125.38 86.0001 125.38 84.8701C125.38 83.7401 124.47 82.8301 123.34 82.8301Z" fill="#09455F"/>
<path d="M136.6 97.1401H115.3C113.38 97.1401 111.82 98.7001 111.82 100.62V109.71C111.82 111.63 113.38 113.19 115.3 113.19H136.6C138.52 113.19 140.08 111.63 140.08 109.71V100.62C140.08 98.7001 138.52 97.1401 136.6 97.1401Z" fill="#FFCA00"/>
<path d="M142.89 110.36H109V113.2H142.89V110.36Z" fill="#09455F"/>
<path d="M156.58 80.9599C155.27 82.7399 155.12 84.8599 156.26 85.6899C157.4 86.5199 159.38 85.7599 160.69 83.9799C162 82.1999 162.15 80.0799 161.01 79.2499C159.87 78.4099 157.89 79.1799 156.58 80.9599Z" fill="#E54332"/>
<path d="M116.26 99.0298C115.74 99.0298 115.31 99.4498 115.31 99.9798V100.78C115.31 101.3 115.73 101.73 116.26 101.73C116.78 101.73 117.21 101.31 117.21 100.78V99.9798C117.2 99.4498 116.78 99.0298 116.26 99.0298Z" fill="#E54332"/>
<path d="M119.22 99.0298C118.7 99.0298 118.27 99.4498 118.27 99.9798V100.78C118.27 101.3 118.69 101.73 119.22 101.73C119.75 101.73 120.17 101.31 120.17 100.78V99.9798C120.17 99.4498 119.75 99.0298 119.22 99.0298Z" fill="#E54332"/>
<path d="M122.19 99.0298C121.67 99.0298 121.24 99.4498 121.24 99.9798V100.78C121.24 101.3 121.66 101.73 122.19 101.73C122.71 101.73 123.14 101.31 123.14 100.78V99.9798C123.14 99.4498 122.71 99.0298 122.19 99.0298Z" fill="#E54332"/>
<path d="M167.17 85.5698C165.38 85.5698 163.94 86.9998 163.94 88.7598C163.94 90.5198 165.39 91.9498 167.17 91.9498C168.96 91.9498 170.4 90.5198 170.4 88.7598C170.4 86.9998 168.95 85.5698 167.17 85.5698Z" fill="#FFCA00"/>
</g>
<g clip-path="url(#clip1)">
<path d="M381.156 257.454L377.171 261.683L383.05 265.811L385.674 260.627L381.156 257.454Z" fill="#E54332"/>
<path d="M398.868 267.043L397.671 267.469L398.528 270.202L399.725 269.776L398.868 267.043Z" fill="#09455F"/>
<path d="M398.803 269.153L396.888 270.76L397.402 271.398L399.316 269.792L398.803 269.153Z" fill="#09455F"/>
<path d="M396.89 270.76L398.082 273.435L398.493 273.287L397.67 270.447L396.89 270.76Z" fill="#09455F"/>
<path d="M401.38 269.16L398.944 269.103L398.894 269.942L401.33 269.999L401.38 269.16Z" fill="#09455F"/>
<path d="M400.578 269.409L401.523 272.212L401.981 272.048L401.379 269.16L400.578 269.409Z" fill="#09455F"/>
<path d="M393.33 258.129L396.547 268.294L400.292 266.983L397.091 256.786L393.33 258.129Z" fill="#E54332"/>
<path d="M383.824 256.095L383.954 260.883L395.937 259.818L395.924 255.967L383.824 256.095Z" fill="#E54332"/>
<path d="M396.908 256.424C395.966 255.553 394.479 255.652 393.584 256.641C392.689 257.629 392.731 259.134 393.673 260.005C394.615 260.875 396.103 260.776 396.998 259.788C397.889 258.797 397.847 257.292 396.908 256.424Z" fill="#FFCA00"/>
<path d="M395.926 257.511C395.557 257.172 394.974 257.211 394.627 257.595C394.278 257.983 394.295 258.573 394.661 258.91C395.031 259.249 395.614 259.21 395.96 258.826C396.307 258.442 396.292 257.848 395.926 257.511Z" fill="#09455F"/>
<path d="M385.464 256.299C384.163 255.385 382.334 255.743 381.383 257.097C380.432 258.452 380.716 260.293 382.018 261.207C383.319 262.121 385.148 261.764 386.099 260.409C387.05 259.055 386.766 257.214 385.464 256.299Z" fill="#FFCA00"/>
<path d="M384.331 257.913C383.884 257.6 383.261 257.721 382.934 258.187C382.607 258.652 382.704 259.279 383.151 259.593C383.598 259.907 384.222 259.785 384.548 259.32C384.875 258.855 384.778 258.227 384.331 257.913Z" fill="#09455F"/>
<path d="M385.44 267.49L377.012 261.572C376.253 261.038 375.185 261.247 374.629 262.038L372.001 265.78C371.446 266.571 371.612 267.647 372.372 268.18L380.799 274.098C381.559 274.631 382.627 274.423 383.182 273.632L385.81 269.889C386.365 269.099 386.199 268.023 385.44 267.49Z" fill="#FFCA00"/>
<path d="M384.106 274.68L370.698 265.265L369.876 266.434L383.285 275.85L384.106 274.68Z" fill="#09455F"/>
<path d="M398.023 266.379C396.99 266.748 396.317 267.579 396.528 268.238C396.739 268.896 397.742 269.133 398.775 268.764C399.808 268.396 400.481 267.564 400.27 266.906C400.061 266.243 399.055 266.01 398.023 266.379Z" fill="#E54332"/>
<path d="M376.846 262.617C376.64 262.472 376.348 262.526 376.195 262.744L375.964 263.074C375.813 263.288 375.855 263.581 376.065 263.729C376.271 263.873 376.562 263.82 376.715 263.601L376.947 263.272C377.096 263.051 377.051 262.761 376.846 262.617Z" fill="#E54332"/>
<path d="M378.017 263.439C377.811 263.295 377.52 263.348 377.366 263.566L377.135 263.896C376.985 264.11 377.026 264.404 377.236 264.551C377.446 264.698 377.733 264.642 377.887 264.424L378.118 264.094C378.271 263.876 378.227 263.586 378.017 263.439Z" fill="#E54332"/>
<path d="M379.192 264.264C378.986 264.12 378.694 264.173 378.541 264.392L378.31 264.721C378.159 264.935 378.201 265.229 378.411 265.376C378.617 265.521 378.908 265.467 379.062 265.249L379.293 264.92C379.446 264.701 379.397 264.409 379.192 264.264Z" fill="#E54332"/>
<path d="M400.879 271.22C400.171 270.722 399.188 270.911 398.679 271.636C398.17 272.36 398.33 273.352 399.035 273.847C399.743 274.344 400.726 274.155 401.235 273.43C401.744 272.706 401.584 271.714 400.879 271.22Z" fill="#FFCA00"/>
</g>
<g opacity="0.45">
<path opacity="0.45" d="M82.5141 33.7168C81.1141 28.0268 67.8841 19.7168 60.8141 24.7268C58.6441 13.8868 56.6141 7.12678 49.5241 1.78678C42.4341 -3.55322 30.6041 3.42678 28.7041 18.0468C26.8041 12.0368 17.1441 3.93678 9.38411 10.7668C2.20411 17.0868 1.48411 27.6768 2.23411 33.7068H82.5141V33.7168Z" fill="#99B8FF"/>
</g>
<g opacity="0.45">
<path opacity="0.45" d="M447.1 106.641C444.91 101.251 440.78 98.3608 435.89 97.8208C429.73 97.1308 423.48 100.671 423.48 100.671C423.48 100.671 425.8 91.7708 422.65 84.7708C420.51 79.9908 417.09 75.5008 412.35 74.3208C407.44 73.1008 402.23 75.4908 398.57 79.2808C394.91 83.0708 392.55 88.0908 390.45 93.1008C389.36 89.5508 387.92 85.5708 384.71 84.2508C381.39 82.8808 377.55 85.2408 375.81 88.6208C374.07 92.0008 373.98 96.0808 374.22 99.9508C370.37 97.6408 365.46 96.9608 361.6 99.2708C359.13 100.751 357.37 103.651 357 106.651H447.1V106.641Z" fill="#99B8FF"/>
</g>
<g opacity="0.45">
<path opacity="0.45" d="M309 189.993C310.476 186.361 313.258 184.414 316.553 184.05C320.704 183.585 324.915 185.971 324.915 185.971C324.915 185.971 323.352 179.974 325.474 175.257C326.916 172.037 329.221 169.011 332.414 168.216C335.723 167.394 339.233 169.004 341.699 171.558C344.165 174.112 345.756 177.494 347.17 180.87C347.905 178.478 348.875 175.796 351.038 174.907C353.275 173.984 355.862 175.574 357.035 177.851C358.207 180.129 358.268 182.878 358.106 185.486C360.7 183.929 364.009 183.471 366.61 185.027C368.274 186.025 369.46 187.979 369.709 190H309V189.993Z" fill="#99B8FF"/>
</g>
<path d="M48.6437 36.0057C49.772 32.9941 54.1956 33.4981 54.6037 36.6872C58.5498 67.5195 71.4287 148.043 102.675 194.368C153.55 269.797 178.023 383.716 130.924 433.916C130.924 433.918 -74.2775 364.045 48.6437 36.0057Z" fill="url(#paint0_linear)"/>
<path opacity="0.43" d="M49.1491 79.2292C49.1491 79.2292 49.1429 79.5495 49.1327 80.1718C49.147 80.7901 49.147 81.6817 49.1878 82.8937C49.245 85.3034 49.398 88.8373 49.6183 93.3344C49.8611 97.8314 50.1733 103.289 50.6385 109.545C51.0691 115.803 51.6995 122.853 52.3647 130.543C53.089 138.227 53.895 146.552 54.9295 155.336C55.9109 164.126 57.1515 173.369 58.4553 182.928C59.8264 192.477 61.2914 202.336 63.0257 212.316C63.4563 214.811 63.8868 217.317 64.3193 219.828C64.7866 222.334 65.2559 224.848 65.7252 227.365C66.6311 232.409 67.6921 237.443 68.7041 242.485C69.708 247.529 70.8894 252.536 71.9443 257.549C73.0889 262.542 74.2499 267.51 75.4272 272.434C76.0495 274.886 76.6698 277.33 77.286 279.761C77.9124 282.189 78.4898 284.619 79.1713 287.004C79.8304 289.395 80.4833 291.772 81.1342 294.133C81.4586 295.312 81.783 296.49 82.1054 297.661C82.4502 298.826 82.7951 299.985 83.1378 301.14C83.8275 303.449 84.511 305.739 85.1905 308.008C85.5312 309.142 85.8699 310.268 86.2086 311.391C86.5698 312.505 86.9309 313.615 87.288 314.716C88.0001 316.924 88.704 319.107 89.3998 321.264C89.7507 322.341 90.0813 323.419 90.4404 324.48C90.8097 325.537 91.177 326.585 91.5402 327.628C92.2686 329.713 92.9868 331.77 93.6948 333.796C94.0478 334.81 94.4008 335.814 94.7497 336.812C95.1231 337.799 95.4944 338.779 95.8617 339.752C97.3593 343.629 98.7305 347.406 100.181 350.978C101.663 354.539 103.081 357.95 104.431 361.194C105.827 364.42 107.235 367.44 108.512 370.301C109.159 371.727 109.787 373.108 110.391 374.441C111.042 375.753 111.669 377.016 112.271 378.23C113.476 380.66 114.582 382.89 115.582 384.906C116.066 385.922 116.592 386.848 117.069 387.728C117.549 388.607 117.998 389.431 118.416 390.199C119.251 391.735 119.959 393.041 120.534 394.1C121.685 396.22 122.299 397.35 122.299 397.35L122.305 397.362C122.397 397.532 122.334 397.746 122.164 397.838C121.997 397.93 121.789 397.868 121.693 397.705C121.693 397.705 121.052 396.587 119.851 394.49C119.249 393.441 118.508 392.147 117.637 390.627C117.202 389.866 116.735 389.048 116.235 388.177C115.739 387.303 115.196 386.383 114.692 385.371C113.656 383.367 112.507 381.147 111.256 378.734C110.632 377.526 109.981 376.269 109.306 374.963C108.675 373.637 108.022 372.262 107.349 370.844C106.021 367.995 104.544 364.992 103.105 361.772C101.716 358.53 100.257 355.122 98.7325 351.566C97.239 347.997 95.8229 344.223 94.2804 340.348C93.9009 339.377 93.5173 338.397 93.1317 337.41C92.7726 336.412 92.4094 335.408 92.0441 334.394C91.3116 332.368 90.571 330.311 89.8181 328.226C86.8371 319.877 83.9764 310.97 81.226 301.699C80.8791 300.542 80.5302 299.379 80.1793 298.212C79.8528 297.039 79.5223 295.859 79.1938 294.678C78.5347 292.313 77.8696 289.93 77.2003 287.534C76.5107 285.143 75.919 282.711 75.2844 280.277C74.656 277.841 74.0275 275.392 73.395 272.933C72.1952 268.002 71.0159 263.021 69.8508 258.018C69.3061 255.508 68.7592 252.993 68.2124 250.477C67.6697 247.959 67.1126 245.441 66.627 242.909C65.6293 237.851 64.5805 232.801 63.6868 227.743C63.2237 225.217 62.7605 222.697 62.2994 220.183C61.8729 217.663 61.4485 215.152 61.0241 212.65C59.3163 202.644 57.8778 192.76 56.5332 183.189C55.2743 173.605 54.1439 164.332 53.2298 155.519C52.2729 146.713 51.5424 138.368 50.8854 130.667C49.651 115.254 49.0226 102.383 48.69 93.3731C48.541 88.8659 48.4451 85.3238 48.4268 82.9059C48.4043 81.7062 48.4186 80.7452 48.4166 80.1167C48.437 79.4924 48.4492 79.17 48.4492 79.17C48.4553 78.9761 48.6186 78.8252 48.8104 78.8333C49.0022 78.8394 49.1511 78.9986 49.147 79.1883L49.1491 79.2292Z" fill="white"/>
<path d="M133.539 287.95C132.674 287.11 132.715 285.71 133.621 284.911L241.327 188.816C241.631 188.544 242.06 188.487 242.43 188.66C243.072 188.964 243.196 189.821 242.677 190.307L136.372 287.991C135.565 288.732 134.321 288.715 133.539 287.95Z" fill="url(#paint1_linear)"/>
<path d="M70.5625 524.539C70.5625 524.391 70.5543 524.235 70.5131 524.078C68.2075 514.938 56.7617 509.248 56.7617 509.248L52.2246 509.602C49.6143 517.655 49.9519 522.596 50.3718 524.803C50.3801 524.86 50.4048 524.926 50.4212 524.984C54.1679 525.313 61.867 525.527 70.5625 524.539Z" fill="url(#paint2_linear)"/>
<path d="M50.4295 524.976C50.6353 525.709 51.1706 526.285 51.8705 526.425C57.1899 527.545 65.6466 526.647 69.1956 526.178C69.9778 526.079 70.5543 525.355 70.5625 524.531C61.867 525.528 54.1679 525.313 50.4295 524.976Z" fill="url(#paint3_linear)"/>
<path d="M32.4703 362.742C29.6706 365.731 25.5452 368.317 22.6467 369.923C26.978 375.275 32.8409 380.644 40.6059 385.889L42.8291 390.871L49.9436 382.34C49.9436 382.348 37.1721 375.991 32.4703 362.742Z" fill="url(#paint4_linear)"/>
<path d="M50.413 502.841L52.3317 512.088C52.4716 512.764 52.9904 513.274 53.6245 513.332C54.3985 513.406 55.4937 513.447 56.5971 513.282C57.5852 513.134 58.2769 512.13 58.104 511.051L56.77 502.841H50.413Z" fill="url(#paint5_linear)"/>
<path d="M90.2013 524.885C85.1948 524.745 82.601 524.152 81.2671 523.609C81.2671 524.103 81.267 524.613 81.2835 525.14C81.3 525.7 81.7199 526.153 82.2305 526.145L109.725 525.964C110.606 525.956 111.117 524.943 110.738 524.136C107.123 524.432 97.9416 525.099 90.2013 524.885Z" fill="url(#paint6_linear)"/>
<path d="M110.73 524.136C110.697 524.062 110.672 523.996 110.623 523.93C108.194 520.538 102.01 513.777 89.7898 510.854L83.9269 510.673C83.9269 510.673 81.3166 515.21 81.2672 523.617C82.6094 524.161 85.195 524.754 90.2015 524.894C97.9418 525.099 107.123 524.432 110.73 524.136Z" fill="url(#paint7_linear)"/>
<path d="M82.8316 501.78C82.8975 502.216 83.6962 508.861 84.0091 511.43C84.0832 512.04 84.5279 512.517 85.0878 512.583C86.0841 512.698 87.6981 512.814 89.1144 512.517C89.8802 512.361 90.4319 511.628 90.4319 510.78V500.355L82.8316 501.78Z" fill="url(#paint8_linear)"/>
<path d="M78.1299 380.57C78.1299 380.57 92.2683 434.307 92.0131 501.928C92.0048 503.163 91.1402 504.225 89.938 504.48C88.1594 504.851 85.5491 505.296 83.3834 505.238C82.2306 505.205 81.259 504.349 81.0696 503.212C79.0851 491.585 67.7052 426.081 61.2248 415.451C61.2248 415.451 56.9594 473.791 58.3263 504.052C58.3592 504.802 57.8075 505.46 57.0582 505.543C55.9218 505.674 54.1103 505.773 51.7964 505.526C50.9153 505.436 50.2072 504.769 50.0837 503.896C48.6674 494.056 40.5401 435.485 40.8859 393.292C40.9024 390.912 47.177 380.57 47.177 380.57H78.1299Z" fill="url(#paint9_linear)"/>
<path d="M99.8191 308.198C97.3406 301.866 93.1658 297.534 88.9663 292.528C73.2222 295.385 47.4239 297.93 36.6616 299.288C33.302 299.708 30.2305 301.363 28.0155 303.932C19.2377 314.094 -0.0307007 341.909 22.6467 369.931C25.5452 368.317 29.6706 365.74 32.4703 362.75C29.9588 355.677 29.753 346.644 35.0147 335.561C35.1959 336.442 35.4182 337.306 35.6899 338.163C42.9362 361.12 43.3232 380.224 43.3067 384.621C43.3067 385.222 43.6608 385.757 44.2207 385.98C53.7561 389.8 72.1105 387.528 78.2781 386.605C79.4062 386.441 80.172 385.387 80.0155 384.25C76.9935 362.339 92.5153 326.297 96.616 317.264C97.2171 315.946 98.2711 314.884 99.5968 314.283C100.264 313.987 100.906 313.674 101.548 313.369C101.046 311.632 100.478 309.902 99.8191 308.198Z" fill="#FFC91D"/>
<path d="M53.1385 278.209L52.0187 297.798C51.9857 298.375 52.3645 298.893 52.9244 299.041C55.4112 299.667 62.2787 300.919 68.265 297.51C69.0391 297.065 69.4014 296.143 69.1544 295.278L64.1561 277.673L53.1385 278.209Z" fill="url(#paint10_linear)"/>
<path d="M65.3993 256.8C65.6546 257.039 76.1287 277.608 76.1287 277.608L64.2547 283.339L51.4256 265.314C51.4338 265.322 61.1422 252.798 65.3993 256.8Z" fill="url(#paint11_linear)"/>
<path d="M56.6874 265.824C56.4733 266.376 56.531 266.985 56.8274 267.487L62.7479 277.36C62.8385 277.509 62.9456 277.649 63.0691 277.764C63.7772 278.423 66.1899 280.325 68.0508 277.731C69.6401 275.516 71.1305 273.507 72.728 272.675C73.6584 272.189 74.8113 272.576 75.2806 273.515C76.2523 275.45 78.1462 279.394 79.3319 283.124C79.6284 284.063 79.1425 285.068 78.2367 285.438C75.8323 286.41 71.0811 288.172 66.8651 288.757C66.1734 288.856 65.49 288.559 65.0783 287.999C63.2667 285.512 58.1532 278.571 56.4075 276.833C54.7853 275.219 51.7962 275.829 50.4458 276.216C49.9353 276.364 49.3918 276.29 48.9307 276.018C47.5638 275.195 45.1758 273.144 47.3579 269.67C47.9014 268.805 47.6214 267.652 46.7733 267.092C45.2499 266.088 43.5866 264.202 45.1676 261.147C46.765 258.059 49.6224 257.779 51.5657 258.018C52.4221 258.125 53.3031 257.672 53.6325 256.873C53.7807 256.519 54.0689 256.215 54.6124 256.108C55.6334 255.902 56.3005 254.971 56.1028 253.95C55.757 252.204 56.0205 249.932 58.8119 248.392C63.9337 245.576 68.4214 250.162 69.566 254.041C70.7106 257.919 64.9794 260.653 61.3728 261.114C58.7213 261.427 57.2721 264.309 56.6874 265.824Z" fill="url(#paint12_linear)"/>
<path d="M58.6306 280.449C58.6306 280.449 56.3497 273.787 53.4347 274.026C50.5198 274.273 48.2224 277.171 51.8373 280.44C56.3332 284.508 58.6306 280.449 58.6306 280.449Z" fill="url(#paint13_linear)"/>
<path d="M34.0512 333.84C30.2058 323.324 31.6056 310.619 31.6138 310.495L32.6761 310.619C32.6596 310.742 31.3009 323.201 35.0558 333.477L34.0512 333.84Z" fill="url(#paint14_linear)"/>
<path d="M60.7059 414.083C60.4671 414.083 60.253 413.927 60.1872 413.68C59.0179 409.159 50.2318 404.186 50.1495 404.136C49.8942 403.996 49.8036 403.667 49.9436 403.412C50.0918 403.156 50.413 403.066 50.6682 403.206C51.047 403.42 59.9319 408.451 61.2165 413.408C61.2906 413.696 61.1177 413.985 60.8377 414.059C60.7965 414.075 60.7471 414.083 60.7059 414.083Z" fill="url(#paint15_linear)"/>
<path d="M135.828 298.605C120.858 304.073 88.9663 292.528 88.9663 292.528L86.7678 318.59C112.311 326.668 128.928 324.313 139.739 317.536C140.406 309.829 138.093 303.126 135.828 298.605Z" fill="#FFC91D"/>
<path d="M159.658 271.712L153.392 270.468C153.392 270.468 151.687 290.395 137.73 297.765C137.129 298.078 136.495 298.358 135.82 298.605C138.093 303.126 140.406 309.829 139.731 317.536C161.7 303.76 159.658 271.712 159.658 271.712Z" fill="url(#paint16_linear)"/>
<path d="M153.705 272.206L153.384 270.468C153.384 270.468 152.074 266.227 155.533 262.044C160.531 256.009 164.187 258.224 164.187 258.224C164.187 258.224 163.924 259.517 163.948 260.661C163.965 261.583 165.068 262.053 165.752 261.427L173.904 253.934C173.904 253.934 176.185 265.832 158.703 274.009L153.705 272.206Z" fill="url(#paint17_linear)"/>
<path d="M211.395 254.782H198.665V268.709H211.395V254.782Z" fill="#00B6CB"/>
<path d="M205.022 261.746C196.997 261.746 190.486 268.317 190.486 276.417C190.486 284.525 196.997 291.088 205.022 291.088C213.055 291.088 219.558 284.517 219.558 276.417C219.566 268.317 213.055 261.746 205.022 261.746Z" fill="#00B6CB"/>
<path d="M210.837 276.253C205.192 276.253 196.673 272.003 191.968 275.583C191.952 275.861 191.936 276.139 191.936 276.417C191.936 283.699 197.807 289.633 205.03 289.633C212.246 289.633 218.125 283.707 218.125 276.417C218.125 275.011 217.906 273.654 217.501 272.387C215.825 274.668 213.711 276.253 210.837 276.253Z" fill="#E54332"/>
<path d="M210.675 253H199.378C198.544 253 197.872 253.678 197.872 254.52C197.872 255.362 198.544 256.04 199.378 256.04H210.675C211.509 256.04 212.181 255.362 212.181 254.52C212.181 253.678 211.509 253 210.675 253Z" fill="#00B6CB"/>
<path d="M204.561 283.356C203.629 283.356 202.868 284.124 202.868 285.064C202.868 286.012 203.629 286.772 204.561 286.772C205.5 286.772 206.253 286.004 206.253 285.064C206.253 284.124 205.492 283.356 204.561 283.356Z" fill="#FFCA00"/>
<path d="M212.829 279.547C212.229 279.547 211.744 280.037 211.744 280.642C211.744 281.247 212.229 281.737 212.829 281.737C213.428 281.737 213.914 281.247 213.914 280.642C213.914 280.037 213.428 279.547 212.829 279.547Z" fill="#FFCA00"/>
<path d="M196.738 277.397C196.106 277.397 195.604 277.912 195.604 278.542C195.604 279.171 196.114 279.686 196.738 279.686C197.369 279.686 197.871 279.171 197.871 278.542C197.871 277.912 197.361 277.397 196.738 277.397Z" fill="#FFCA00"/>
<path d="M223.542 256.931H221.777V295.06H223.542V256.931Z" fill="#09455F"/>
<path d="M194.624 258.288C194.624 258.689 194.94 259.007 195.337 259.007H224.603V257.569H195.337C194.94 257.569 194.624 257.888 194.624 258.288Z" fill="#09455F"/>
<path d="M188 294.627C188 295.387 188.607 296 189.36 296H225V293.246H189.36C188.607 293.254 188 293.867 188 294.627Z" fill="#09455F"/>
<g clip-path="url(#clip2)">
<path d="M398.63 389.57L387.699 384.651L382.318 396.609L393.248 401.528L398.63 389.57Z" fill="#00B6CB"/>
<path d="M390.467 393.086C383.576 389.985 375.447 393.112 372.317 400.067C369.184 407.028 372.239 415.179 379.129 418.28C386.027 421.384 394.149 418.255 397.279 411.3C400.416 404.348 397.364 396.19 390.467 393.086Z" fill="#00B6CB"/>
<path d="M389.854 407.79C385.007 405.609 379.335 398.668 373.912 399.923C373.79 400.156 373.669 400.388 373.562 400.627C370.748 406.88 373.496 414.243 379.698 417.034C385.894 419.822 393.231 417.006 396.048 410.746C396.592 409.539 396.928 408.29 397.07 407.045C394.749 408.356 392.322 408.9 389.854 407.79Z" fill="#E54332"/>
<path d="M398.699 387.761L389 383.396C388.284 383.074 387.444 383.396 387.119 384.119C386.794 384.842 387.109 385.684 387.825 386.007L397.525 390.372C398.241 390.694 399.08 390.371 399.405 389.648C399.731 388.925 399.416 388.083 398.699 387.761Z" fill="#00B6CB"/>
<path d="M381.72 411.463C380.921 411.103 379.97 411.468 379.607 412.275C379.241 413.089 379.601 414.036 380.4 414.396C381.207 414.759 382.15 414.39 382.513 413.583C382.877 412.776 382.52 411.822 381.72 411.463Z" fill="#FFCA00"/>
<path d="M390.291 411.387C389.777 411.156 389.17 411.389 388.936 411.908C388.703 412.427 388.93 413.036 389.445 413.268C389.959 413.499 390.566 413.266 390.8 412.747C391.033 412.227 390.806 411.619 390.291 411.387Z" fill="#FFCA00"/>
<path d="M377.306 403.324C376.764 403.08 376.134 403.328 375.89 403.869C375.647 404.409 375.886 405.048 376.422 405.289C376.964 405.533 377.594 405.285 377.837 404.745C378.08 404.204 377.841 403.565 377.306 403.324Z" fill="#FFCA00"/>
<path d="M408.229 396.109L406.713 395.427L391.98 428.165L393.496 428.847L408.229 396.109Z" fill="#09455F"/>
<path d="M382.875 386.1C382.72 386.444 382.868 386.84 383.209 386.993L408.338 398.301L408.893 397.066L383.765 385.758C383.424 385.604 383.03 385.756 382.875 386.1Z" fill="#09455F"/>
<path d="M363.146 414.742C362.852 415.394 363.137 416.155 363.784 416.446L394.385 430.217L395.449 427.852L364.848 414.081C364.198 413.797 363.44 414.089 363.146 414.742Z" fill="#09455F"/>
</g>
<rect x="103" y="118" width="68" height="11" rx="3" fill="#E54332"/>
<rect x="171" y="303" width="68" height="11" rx="3" fill="#E54332"/>
<rect x="336" y="123" width="68" height="11" rx="3" fill="#E54332"/>
<rect x="339.789" y="414" width="68" height="9.28593" rx="3" transform="rotate(24.0785 339.789 414)" fill="#00B6CB"/>
<rect x="209" y="480.539" width="68" height="9.28593" rx="3" transform="rotate(-26.6863 209 480.539)" fill="#E54332"/>
<defs>
<linearGradient id="paint0_linear" x1="9.41243" y1="233.959" x2="156.1" y2="233.959" gradientUnits="userSpaceOnUse">
<stop stop-color="#DAE3FE"/>
<stop offset="1" stop-color="#E9EFFD"/>
</linearGradient>
<linearGradient id="paint1_linear" x1="200.6" y1="211.226" x2="67.6872" y2="491.648" gradientUnits="userSpaceOnUse">
<stop stop-color="#09005D"/>
<stop offset="1" stop-color="#1A0F91"/>
</linearGradient>
<linearGradient id="paint2_linear" x1="50.0932" y1="517.25" x2="70.5618" y2="517.25" gradientUnits="userSpaceOnUse">
<stop stop-color="#4042E2"/>
<stop offset="1" stop-color="#4F52FF"/>
</linearGradient>
<linearGradient id="paint3_linear" x1="61.004" y1="474.763" x2="60.6545" y2="509.011" gradientUnits="userSpaceOnUse">
<stop stop-color="#09005D"/>
<stop offset="1" stop-color="#1A0F91"/>
</linearGradient>
<linearGradient id="paint4_linear" x1="22.6461" y1="376.812" x2="49.9434" y2="376.812" gradientUnits="userSpaceOnUse">
<stop stop-color="#FF928E"/>
<stop offset="1" stop-color="#FEB3B1"/>
</linearGradient>
<linearGradient id="paint5_linear" x1="55.7854" y1="493.947" x2="51.8755" y2="528.07" gradientUnits="userSpaceOnUse">
<stop stop-color="#FF928E"/>
<stop offset="1" stop-color="#FEB3B1"/>
</linearGradient>
<linearGradient id="paint6_linear" x1="96.5574" y1="475.128" x2="96.2079" y2="509.374" gradientUnits="userSpaceOnUse">
<stop stop-color="#09005D"/>
<stop offset="1" stop-color="#1A0F91"/>
</linearGradient>
<linearGradient id="paint7_linear" x1="81.2615" y1="517.795" x2="110.726" y2="517.795" gradientUnits="userSpaceOnUse">
<stop stop-color="#4042E2"/>
<stop offset="1" stop-color="#4F52FF"/>
</linearGradient>
<linearGradient id="paint8_linear" x1="87.6339" y1="497.597" x2="83.724" y2="531.72" gradientUnits="userSpaceOnUse">
<stop stop-color="#FF928E"/>
<stop offset="1" stop-color="#FEB3B1"/>
</linearGradient>
<linearGradient id="paint9_linear" x1="70.6045" y1="483.436" x2="56.9754" y2="372.306" gradientUnits="userSpaceOnUse">
<stop stop-color="#09005D"/>
<stop offset="1" stop-color="#1A0F91"/>
</linearGradient>
<linearGradient id="paint10_linear" x1="64.4865" y1="272.857" x2="48.447" y2="342.17" gradientUnits="userSpaceOnUse">
<stop stop-color="#FF928E"/>
<stop offset="1" stop-color="#FEB3B1"/>
</linearGradient>
<linearGradient id="paint11_linear" x1="61.9487" y1="260.692" x2="69.3068" y2="303.991" gradientUnits="userSpaceOnUse">
<stop stop-color="#FF928E"/>
<stop offset="1" stop-color="#FEB3B1"/>
</linearGradient>
<linearGradient id="paint12_linear" x1="54.2116" y1="281.186" x2="75.8957" y2="258.151" gradientUnits="userSpaceOnUse">
<stop stop-color="#09005D"/>
<stop offset="1" stop-color="#1A0F91"/>
</linearGradient>
<linearGradient id="paint13_linear" x1="55.5646" y1="307.954" x2="54.2557" y2="277.548" gradientUnits="userSpaceOnUse">
<stop stop-color="#FF928E"/>
<stop offset="1" stop-color="#FEB3B1"/>
</linearGradient>
<linearGradient id="paint14_linear" x1="14.5853" y1="283.709" x2="53.5415" y2="363.602" gradientUnits="userSpaceOnUse">
<stop stop-color="#E1473D"/>
<stop offset="1" stop-color="#E9605A"/>
</linearGradient>
<linearGradient id="paint15_linear" x1="56.0758" y1="419.66" x2="57.1242" y2="442.026" gradientUnits="userSpaceOnUse">
<stop stop-color="#09005D"/>
<stop offset="1" stop-color="#1A0F91"/>
</linearGradient>
<linearGradient id="paint16_linear" x1="161.014" y1="248.11" x2="144.861" y2="300.897" gradientUnits="userSpaceOnUse">
<stop stop-color="#FF928E"/>
<stop offset="1" stop-color="#FEB3B1"/>
</linearGradient>
<linearGradient id="paint17_linear" x1="167.303" y1="250.035" x2="151.15" y2="302.822" gradientUnits="userSpaceOnUse">
<stop stop-color="#FF928E"/>
<stop offset="1" stop-color="#FEB3B1"/>
</linearGradient>
<clipPath id="clip0">
<rect width="61.4" height="47.2" fill="white" transform="translate(109 66)"/>
</clipPath>
<clipPath id="clip1">
<rect width="29.6837" height="23.7469" fill="white" transform="translate(383.523 247) rotate(35.0782)"/>
</clipPath>
<clipPath id="clip2">
<rect width="34.8377" height="40.4871" fill="white" transform="translate(379.23 379) rotate(24.2286)"/>
</clipPath>
</defs>
</svg>
