<svg width="53" height="53" viewBox="0 0 53 53" fill="none" xmlns="http://www.w3.org/2000/svg">
<path fill-rule="evenodd" clip-rule="evenodd" d="M13 0C5.82031 0 0 5.82031 0 13V40C0 47.1797 5.82031 53 13 53H40C47.1797 53 53 47.1797 53 40V13C53 5.82031 47.1797 0 40 0H13ZM23.3652 32.4775C23.3301 32.8926 23.3125 33.3145 23.3125 33.7432H28.6602C28.6602 33.334 28.6689 32.9707 28.6865 32.6533C28.7041 32.3379 28.7305 32.0674 28.7646 31.8428C28.835 31.3779 29.0654 30.8145 29.457 30.1533C29.6807 29.7734 29.96 29.4141 30.2959 29.0762C30.6455 28.7246 31.0225 28.3652 31.4287 27.999C31.834 27.6328 32.2598 27.2109 32.707 26.7324C33.6582 25.7188 34.4414 24.6133 35.0566 23.417C35.6855 22.2207 36 20.8965 36 19.4473C36 18.4756 35.832 17.5186 35.4971 16.5752C35.3389 16.1133 35.1445 15.6777 34.9141 15.2695C34.6729 14.8447 34.3916 14.4492 34.0703 14.083C33.1621 12.9854 32.0225 12.1963 30.6523 11.7178C29.2959 11.2393 27.8496 11 26.3115 11C25.3047 11 24.2979 11.1475 23.291 11.4434C22.2988 11.7393 21.4043 12.1826 20.6074 12.7734C20.0938 13.1357 19.6299 13.5596 19.2148 14.0459C18.8057 14.5254 18.4453 15.0654 18.1328 15.667C17.5176 16.8633 17.1396 18.166 17 19.5732H22.3271C22.3203 19.2832 22.3389 19.0059 22.3828 18.7393C22.4277 18.4629 22.5 18.1982 22.5996 17.9473C22.7949 17.4551 23.1025 17.0391 23.5225 16.7012C23.8857 16.3916 24.3262 16.167 24.8438 16.0264C25.375 15.8711 25.9268 15.7939 26.5 15.7939C27.1992 15.7939 27.8564 15.9062 28.4717 16.1318C29.0869 16.3428 29.5898 16.709 29.9814 17.2295C30.2324 17.5254 30.4072 17.877 30.5059 18.2852C30.6035 18.6934 30.6523 19.1299 30.6523 19.5947C30.6523 19.9922 30.624 20.3779 30.5684 20.75C30.5234 21.0488 30.4609 21.3398 30.3799 21.6221C30.1982 22.2412 29.8203 22.8682 29.2471 23.501C28.5479 24.2471 27.9121 24.8457 27.3389 25.2959C27.0225 25.5371 26.7236 25.7793 26.4414 26.0244C26.2119 26.2236 25.9941 26.4248 25.7871 26.627C25.3252 27.0635 24.9062 27.6543 24.5283 28.4004C24.0957 29.1748 23.7803 30.0195 23.585 30.9346C23.4834 31.4375 23.4102 31.9521 23.3652 32.4775ZM23.3545 36.4043V42H28.6602V36.4043H23.3545Z" fill="white"/>
</svg>
