<svg width="49" height="53" viewBox="0 0 49 53" fill="none" xmlns="http://www.w3.org/2000/svg">
<path d="M9.54002 19.08C14.8088 19.08 19.08 14.8088 19.08 9.54002C19.08 4.27121 14.8088 0 9.54002 0C4.27121 0 0 4.27121 0 9.54002C0 14.8088 4.27121 19.08 9.54002 19.08Z" fill="white"/>
<path fill-rule="evenodd" clip-rule="evenodd" d="M0 52.9998H39.7501C39.7501 52.9994 39.7501 52.999 39.7501 52.9986C32.7015 52.8569 27.0312 47.0988 27.0312 40.0163C27.0312 36.5656 28.3772 33.4293 30.5728 31.1038C25.0216 25.6363 17.4054 22.2598 9.01002 22.2598C5.83001 22.2598 2.91501 22.7898 0 23.5848V52.9998Z" fill="white"/>
<path d="M36.3044 45.0505L31.2694 38.9555C30.7394 38.4255 31.0044 37.6305 31.5344 37.1005C32.0644 36.5705 32.8594 36.8355 33.3894 37.3655L36.8344 41.6055L46.6394 35.2455C47.1694 34.7155 47.9644 34.9805 48.4944 35.7755C48.7594 36.3055 48.7594 37.1005 47.9644 37.6305L36.3044 45.0505Z" fill="white"/>
</svg>
