<svg width="53" height="53" viewBox="0 0 53 53" fill="none" xmlns="http://www.w3.org/2000/svg">
<path fill-rule="evenodd" clip-rule="evenodd" d="M0 12.72V43.46H32.065V0H11.925L0 12.72ZM8.74461 19.3449H5.82961C4.76961 19.3449 3.97461 18.5499 3.97461 17.2249V14.5749C3.97461 13.5149 4.76961 12.7199 5.82961 12.7199H8.74461C9.80461 12.4549 10.5996 13.5149 10.5996 14.5749V17.4899C10.5996 18.5499 9.80461 19.3449 8.74461 19.3449ZM14.0449 14.5752H27.2949V17.2252H14.0449V14.5752ZM27.2949 24.9102H14.0449V27.5602H27.2949V24.9102ZM14.0449 34.9805H27.2949V37.6305H14.0449V34.9805ZM8.74461 29.415H5.82961C4.76961 29.415 3.97461 28.62 3.97461 27.56V24.645C3.97461 23.585 4.76961 22.79 5.82961 22.79H8.74461C9.80461 22.79 10.5996 23.585 10.5996 24.645V27.56C10.5996 28.62 9.80461 29.415 8.74461 29.415ZM5.82961 39.75H8.74461C9.80461 39.75 10.5996 38.955 10.5996 37.895V34.98C10.5996 33.92 9.80461 33.125 8.74461 33.125H5.82961C4.76961 33.125 3.97461 33.92 3.97461 34.98V37.895C3.97461 38.955 4.76961 39.75 5.82961 39.75Z" fill="white"/>
<path d="M35.5 12.4551V46H20.9355V53.0001H53.0005V12.4551H35.5Z" fill="white"/>
</svg>
