<svg width="41" height="39" viewBox="0 0 41 39" fill="none" xmlns="http://www.w3.org/2000/svg">
<path d="M22.3712 0.939459C21.7854 0.353672 20.8357 0.353672 20.2499 0.939459L10.7039 10.4854C10.1182 11.0712 10.1182 12.0209 10.7039 12.6067C11.2897 13.1925 12.2395 13.1925 12.8253 12.6067L21.3105 4.12144L29.7958 12.6067C30.3816 13.1925 31.3314 13.1925 31.9171 12.6067C32.5029 12.0209 32.5029 11.0712 31.9171 10.4854L22.3712 0.939459ZM22.8105 24.9312L22.8105 2.00012L19.8105 2.00012L19.8105 24.9312L22.8105 24.9312Z" fill="#037FFB"/>
<path d="M2 21.3103V31C2 34.3137 4.68629 37 8 37H33.4138C36.7275 37 39.4138 34.3137 39.4138 31V21.3103" stroke="#037FFB" stroke-width="3"/>
</svg>
